G75*
%MOIN*%
%OFA0B0*%
%FSLAX24Y24*%
%IPPOS*%
%LPD*%
%AMOC8*
5,1,8,0,0,1.08239X$1,22.5*
%
%ADD10C,0.0060*%
%ADD11C,0.0050*%
%ADD12C,0.0630*%
%ADD13C,0.0080*%
%ADD14C,0.0010*%
D10*
X006564Y007524D02*
X006800Y007524D01*
X006800Y007996D02*
X006564Y007996D01*
X006300Y008524D02*
X006064Y008524D01*
X006064Y008996D02*
X006300Y008996D01*
X005800Y009524D02*
X005564Y009524D01*
X005564Y009996D02*
X005800Y009996D01*
X006314Y010774D02*
X006550Y010774D01*
X006550Y011246D02*
X006314Y011246D01*
X014564Y009856D02*
X014800Y009856D01*
X014800Y009384D02*
X014564Y009384D01*
X015064Y009096D02*
X015300Y009096D01*
X015300Y008624D02*
X015064Y008624D01*
X015564Y008336D02*
X015800Y008336D01*
X015800Y007864D02*
X015564Y007864D01*
X015564Y010774D02*
X015800Y010774D01*
X015800Y011246D02*
X015564Y011246D01*
X026324Y009856D02*
X026560Y009856D01*
X026560Y009384D02*
X026324Y009384D01*
X026584Y009096D02*
X026820Y009096D01*
X026820Y008624D02*
X026584Y008624D01*
X026964Y008336D02*
X027200Y008336D01*
X027200Y007864D02*
X026964Y007864D01*
X027314Y010774D02*
X027550Y010774D01*
X027550Y011246D02*
X027314Y011246D01*
X035684Y009876D02*
X035920Y009876D01*
X035920Y009404D02*
X035684Y009404D01*
X035984Y009096D02*
X036220Y009096D01*
X036220Y008624D02*
X035984Y008624D01*
X036284Y008236D02*
X036520Y008236D01*
X036520Y007764D02*
X036284Y007764D01*
X036564Y010774D02*
X036800Y010774D01*
X036800Y011246D02*
X036564Y011246D01*
X035412Y020130D02*
X033992Y020130D01*
X032759Y021282D02*
X032759Y021518D01*
X032286Y021518D02*
X032286Y021282D01*
X031959Y021282D02*
X031959Y021518D01*
X031486Y021518D02*
X031486Y021282D01*
X033992Y021990D02*
X035412Y021990D01*
X027478Y021679D02*
X027478Y020179D01*
X027228Y019929D01*
X026728Y019929D01*
X026478Y020179D01*
X026228Y019929D01*
X025728Y019929D01*
X025478Y020179D01*
X025228Y019929D01*
X024728Y019929D01*
X024478Y020179D01*
X024228Y019929D01*
X023728Y019929D01*
X023478Y020179D01*
X023228Y019929D01*
X022728Y019929D01*
X022478Y020179D01*
X022228Y019929D01*
X021728Y019929D01*
X021478Y020179D01*
X021228Y019929D01*
X020728Y019929D01*
X020478Y020179D01*
X020228Y019929D01*
X019728Y019929D01*
X019478Y020179D01*
X019228Y019929D01*
X018728Y019929D01*
X018478Y020179D01*
X018228Y019929D01*
X017728Y019929D01*
X017478Y020179D01*
X017228Y019929D01*
X016728Y019929D01*
X016478Y020179D01*
X016228Y019929D01*
X015728Y019929D01*
X015478Y020179D01*
X015228Y019929D01*
X014728Y019929D01*
X014478Y020179D01*
X014228Y019929D01*
X013728Y019929D01*
X013478Y020179D01*
X013228Y019929D01*
X012728Y019929D01*
X012478Y020179D01*
X012228Y019929D01*
X011728Y019929D01*
X011478Y020179D01*
X011228Y019929D01*
X010728Y019929D01*
X010478Y020179D01*
X010228Y019929D01*
X009728Y019929D01*
X009478Y020179D01*
X009228Y019929D01*
X008728Y019929D01*
X008478Y020179D01*
X008228Y019929D01*
X007728Y019929D01*
X007478Y020179D01*
X007478Y021679D01*
X007728Y021929D01*
X008228Y021929D01*
X008478Y021679D01*
X008728Y021929D01*
X009228Y021929D01*
X009478Y021679D01*
X009728Y021929D01*
X010228Y021929D01*
X010478Y021679D01*
X010728Y021929D01*
X011228Y021929D01*
X011478Y021679D01*
X011728Y021929D01*
X012228Y021929D01*
X012478Y021679D01*
X012728Y021929D01*
X013228Y021929D01*
X013478Y021679D01*
X013728Y021929D01*
X014228Y021929D01*
X014478Y021679D01*
X014728Y021929D01*
X015228Y021929D01*
X015478Y021679D01*
X015728Y021929D01*
X016228Y021929D01*
X016478Y021679D01*
X016728Y021929D01*
X017228Y021929D01*
X017478Y021679D01*
X017728Y021929D01*
X018228Y021929D01*
X018478Y021679D01*
X018728Y021929D01*
X019228Y021929D01*
X019478Y021679D01*
X019728Y021929D01*
X020228Y021929D01*
X020478Y021679D01*
X020728Y021929D01*
X021228Y021929D01*
X021478Y021679D01*
X021728Y021929D01*
X022228Y021929D01*
X022478Y021679D01*
X022728Y021929D01*
X023228Y021929D01*
X023478Y021679D01*
X023728Y021929D01*
X024228Y021929D01*
X024478Y021679D01*
X024728Y021929D01*
X025228Y021929D01*
X025478Y021679D01*
X025728Y021929D01*
X026228Y021929D01*
X026478Y021679D01*
X026728Y021929D01*
X027228Y021929D01*
X027478Y021679D01*
D11*
X004932Y016843D02*
X004932Y003260D01*
X013987Y003260D01*
X013987Y016843D01*
X004932Y016843D01*
X007803Y019304D02*
X008103Y019304D01*
X007953Y019304D02*
X007953Y019755D01*
X007803Y019605D01*
X012503Y019755D02*
X012503Y019304D01*
X012503Y019454D02*
X012803Y019755D01*
X012963Y019605D02*
X013113Y019755D01*
X013113Y019304D01*
X012963Y019304D02*
X013263Y019304D01*
X012803Y019304D02*
X012578Y019529D01*
X014182Y016843D02*
X023237Y016843D01*
X023237Y003260D01*
X014182Y003260D01*
X014182Y016843D01*
X017424Y011638D02*
X017424Y008882D01*
X019930Y008882D01*
X020180Y009132D01*
X020180Y011638D01*
X017424Y011638D01*
X019509Y009276D02*
X019511Y009309D01*
X019517Y009341D01*
X019526Y009373D01*
X019540Y009403D01*
X019556Y009431D01*
X019576Y009457D01*
X019599Y009481D01*
X019625Y009502D01*
X019653Y009519D01*
X019683Y009534D01*
X019714Y009544D01*
X019746Y009551D01*
X019779Y009554D01*
X019812Y009553D01*
X019844Y009548D01*
X019876Y009539D01*
X019907Y009527D01*
X019935Y009511D01*
X019962Y009492D01*
X019986Y009470D01*
X020008Y009445D01*
X020026Y009417D01*
X020041Y009388D01*
X020053Y009357D01*
X020061Y009325D01*
X020065Y009292D01*
X020065Y009260D01*
X020061Y009227D01*
X020053Y009195D01*
X020041Y009164D01*
X020026Y009135D01*
X020008Y009107D01*
X019986Y009082D01*
X019962Y009060D01*
X019935Y009041D01*
X019907Y009025D01*
X019876Y009013D01*
X019844Y009004D01*
X019812Y008999D01*
X019779Y008998D01*
X019746Y009001D01*
X019714Y009008D01*
X019683Y009018D01*
X019653Y009033D01*
X019625Y009050D01*
X019599Y009071D01*
X019576Y009095D01*
X019556Y009121D01*
X019540Y009149D01*
X019526Y009179D01*
X019517Y009211D01*
X019511Y009243D01*
X019509Y009276D01*
X023698Y007154D02*
X023698Y006366D01*
X023724Y006307D01*
X023753Y006250D01*
X023785Y006195D01*
X023821Y006141D01*
X023860Y006090D01*
X023903Y006042D01*
X023948Y005996D01*
X023995Y005953D01*
X024045Y005912D01*
X024098Y005875D01*
X024153Y005842D01*
X024209Y005811D01*
X024268Y005784D01*
X024328Y005761D01*
X024389Y005741D01*
X024451Y005725D01*
X024515Y005713D01*
X024578Y005705D01*
X024642Y005701D01*
X024707Y005700D01*
X024771Y005704D01*
X024835Y005711D01*
X024898Y005722D01*
X024961Y005737D01*
X025022Y005756D01*
X025083Y005779D01*
X025141Y005805D01*
X025198Y005834D01*
X025254Y005867D01*
X025307Y005904D01*
X025357Y005943D01*
X025406Y005986D01*
X025451Y006031D01*
X025494Y006079D01*
X025534Y006129D01*
X025571Y006182D01*
X025604Y006237D01*
X025634Y006294D01*
X025661Y006353D01*
X025684Y006413D01*
X025703Y006474D01*
X025718Y006537D01*
X025730Y006600D01*
X025738Y006664D01*
X025742Y006728D01*
X025742Y006792D01*
X025738Y006856D01*
X025730Y006920D01*
X025718Y006983D01*
X025703Y007046D01*
X025684Y007107D01*
X025661Y007167D01*
X025634Y007226D01*
X025604Y007283D01*
X025571Y007338D01*
X025534Y007391D01*
X025494Y007441D01*
X025451Y007489D01*
X025406Y007534D01*
X025357Y007577D01*
X025307Y007616D01*
X025254Y007653D01*
X025198Y007686D01*
X025141Y007715D01*
X025083Y007741D01*
X025022Y007764D01*
X024961Y007783D01*
X024898Y007798D01*
X024835Y007809D01*
X024771Y007816D01*
X024707Y007820D01*
X024642Y007819D01*
X024578Y007815D01*
X024515Y007807D01*
X024451Y007795D01*
X024389Y007779D01*
X024328Y007759D01*
X024268Y007736D01*
X024209Y007709D01*
X024153Y007678D01*
X024098Y007645D01*
X024045Y007608D01*
X023995Y007567D01*
X023948Y007524D01*
X023903Y007478D01*
X023860Y007430D01*
X023821Y007379D01*
X023785Y007325D01*
X023753Y007270D01*
X023724Y007213D01*
X023698Y007154D01*
X029144Y008762D02*
X029144Y011518D01*
X031900Y011518D01*
X031900Y009012D01*
X031650Y008762D01*
X029144Y008762D01*
X031229Y009156D02*
X031231Y009189D01*
X031237Y009221D01*
X031246Y009253D01*
X031260Y009283D01*
X031276Y009311D01*
X031296Y009337D01*
X031319Y009361D01*
X031345Y009382D01*
X031373Y009399D01*
X031403Y009414D01*
X031434Y009424D01*
X031466Y009431D01*
X031499Y009434D01*
X031532Y009433D01*
X031564Y009428D01*
X031596Y009419D01*
X031627Y009407D01*
X031655Y009391D01*
X031682Y009372D01*
X031706Y009350D01*
X031728Y009325D01*
X031746Y009297D01*
X031761Y009268D01*
X031773Y009237D01*
X031781Y009205D01*
X031785Y009172D01*
X031785Y009140D01*
X031781Y009107D01*
X031773Y009075D01*
X031761Y009044D01*
X031746Y009015D01*
X031728Y008987D01*
X031706Y008962D01*
X031682Y008940D01*
X031655Y008921D01*
X031627Y008905D01*
X031596Y008893D01*
X031564Y008884D01*
X031532Y008879D01*
X031499Y008878D01*
X031466Y008881D01*
X031434Y008888D01*
X031403Y008898D01*
X031373Y008913D01*
X031345Y008930D01*
X031319Y008951D01*
X031296Y008975D01*
X031276Y009001D01*
X031260Y009029D01*
X031246Y009059D01*
X031237Y009091D01*
X031231Y009123D01*
X031229Y009156D01*
X038404Y008762D02*
X038404Y011518D01*
X041160Y011518D01*
X041160Y009012D01*
X040910Y008762D01*
X038404Y008762D01*
X040489Y009156D02*
X040491Y009189D01*
X040497Y009221D01*
X040506Y009253D01*
X040520Y009283D01*
X040536Y009311D01*
X040556Y009337D01*
X040579Y009361D01*
X040605Y009382D01*
X040633Y009399D01*
X040663Y009414D01*
X040694Y009424D01*
X040726Y009431D01*
X040759Y009434D01*
X040792Y009433D01*
X040824Y009428D01*
X040856Y009419D01*
X040887Y009407D01*
X040915Y009391D01*
X040942Y009372D01*
X040966Y009350D01*
X040988Y009325D01*
X041006Y009297D01*
X041021Y009268D01*
X041033Y009237D01*
X041041Y009205D01*
X041045Y009172D01*
X041045Y009140D01*
X041041Y009107D01*
X041033Y009075D01*
X041021Y009044D01*
X041006Y009015D01*
X040988Y008987D01*
X040966Y008962D01*
X040942Y008940D01*
X040915Y008921D01*
X040887Y008905D01*
X040856Y008893D01*
X040824Y008884D01*
X040792Y008879D01*
X040759Y008878D01*
X040726Y008881D01*
X040694Y008888D01*
X040663Y008898D01*
X040633Y008913D01*
X040605Y008930D01*
X040579Y008951D01*
X040556Y008975D01*
X040536Y009001D01*
X040520Y009029D01*
X040506Y009059D01*
X040497Y009091D01*
X040491Y009123D01*
X040489Y009156D01*
X044337Y003260D02*
X035282Y003260D01*
X035282Y016843D01*
X044337Y016843D01*
X044337Y003260D01*
X035087Y003260D02*
X035087Y016843D01*
X026032Y016843D01*
X026032Y003260D01*
X035087Y003260D01*
X023698Y012866D02*
X023698Y013654D01*
X023724Y013713D01*
X023753Y013770D01*
X023785Y013825D01*
X023821Y013879D01*
X023860Y013930D01*
X023903Y013978D01*
X023948Y014024D01*
X023995Y014067D01*
X024045Y014108D01*
X024098Y014145D01*
X024153Y014178D01*
X024209Y014209D01*
X024268Y014236D01*
X024328Y014259D01*
X024389Y014279D01*
X024451Y014295D01*
X024515Y014307D01*
X024578Y014315D01*
X024642Y014319D01*
X024707Y014320D01*
X024771Y014316D01*
X024835Y014309D01*
X024898Y014298D01*
X024961Y014283D01*
X025022Y014264D01*
X025083Y014241D01*
X025141Y014215D01*
X025198Y014186D01*
X025254Y014153D01*
X025307Y014116D01*
X025357Y014077D01*
X025406Y014034D01*
X025451Y013989D01*
X025494Y013941D01*
X025534Y013891D01*
X025571Y013838D01*
X025604Y013783D01*
X025634Y013726D01*
X025661Y013667D01*
X025684Y013607D01*
X025703Y013546D01*
X025718Y013483D01*
X025730Y013420D01*
X025738Y013356D01*
X025742Y013292D01*
X025742Y013228D01*
X025738Y013164D01*
X025730Y013100D01*
X025718Y013037D01*
X025703Y012974D01*
X025684Y012913D01*
X025661Y012853D01*
X025634Y012794D01*
X025604Y012737D01*
X025571Y012682D01*
X025534Y012629D01*
X025494Y012579D01*
X025451Y012531D01*
X025406Y012486D01*
X025357Y012443D01*
X025307Y012404D01*
X025254Y012367D01*
X025198Y012334D01*
X025141Y012305D01*
X025083Y012279D01*
X025022Y012256D01*
X024961Y012237D01*
X024898Y012222D01*
X024835Y012211D01*
X024771Y012204D01*
X024707Y012200D01*
X024642Y012201D01*
X024578Y012205D01*
X024515Y012213D01*
X024451Y012225D01*
X024389Y012241D01*
X024328Y012261D01*
X024268Y012284D01*
X024209Y012311D01*
X024153Y012342D01*
X024098Y012375D01*
X024045Y012412D01*
X023995Y012453D01*
X023948Y012496D01*
X023903Y012542D01*
X023860Y012590D01*
X023821Y012641D01*
X023785Y012695D01*
X023753Y012750D01*
X023724Y012807D01*
X023698Y012866D01*
X010960Y011598D02*
X010960Y009092D01*
X010710Y008842D01*
X008204Y008842D01*
X008204Y011598D01*
X010960Y011598D01*
X010289Y009236D02*
X010291Y009269D01*
X010297Y009301D01*
X010306Y009333D01*
X010320Y009363D01*
X010336Y009391D01*
X010356Y009417D01*
X010379Y009441D01*
X010405Y009462D01*
X010433Y009479D01*
X010463Y009494D01*
X010494Y009504D01*
X010526Y009511D01*
X010559Y009514D01*
X010592Y009513D01*
X010624Y009508D01*
X010656Y009499D01*
X010687Y009487D01*
X010715Y009471D01*
X010742Y009452D01*
X010766Y009430D01*
X010788Y009405D01*
X010806Y009377D01*
X010821Y009348D01*
X010833Y009317D01*
X010841Y009285D01*
X010845Y009252D01*
X010845Y009220D01*
X010841Y009187D01*
X010833Y009155D01*
X010821Y009124D01*
X010806Y009095D01*
X010788Y009067D01*
X010766Y009042D01*
X010742Y009020D01*
X010715Y009001D01*
X010687Y008985D01*
X010656Y008973D01*
X010624Y008964D01*
X010592Y008959D01*
X010559Y008958D01*
X010526Y008961D01*
X010494Y008968D01*
X010463Y008978D01*
X010433Y008993D01*
X010405Y009010D01*
X010379Y009031D01*
X010356Y009055D01*
X010336Y009081D01*
X010320Y009109D01*
X010306Y009139D01*
X010297Y009171D01*
X010291Y009203D01*
X010289Y009236D01*
D12*
X010841Y010153D02*
X008424Y010153D01*
X007216Y011361D01*
X007216Y012570D01*
X008424Y013778D01*
X010841Y013778D01*
X012049Y012570D01*
X012049Y011361D01*
X010841Y010153D01*
X012049Y008944D01*
X012049Y007736D01*
X010841Y006528D01*
X008424Y006528D01*
X007216Y007736D01*
X007216Y008944D01*
X008424Y010153D01*
X016466Y011361D02*
X016466Y012570D01*
X017674Y013778D01*
X020091Y013778D01*
X021299Y012570D01*
X021299Y011361D01*
X020091Y010153D01*
X017674Y010153D01*
X016466Y011361D01*
X017674Y010153D02*
X016466Y008944D01*
X016466Y007736D01*
X017674Y006528D01*
X020091Y006528D01*
X021299Y007736D01*
X021299Y008944D01*
X020091Y010153D01*
X028316Y011361D02*
X028316Y012570D01*
X029524Y013778D01*
X031941Y013778D01*
X033149Y012570D01*
X033149Y011361D01*
X031941Y010153D01*
X029524Y010153D01*
X028316Y011361D01*
X029524Y010153D02*
X028316Y008944D01*
X028316Y007736D01*
X029524Y006528D01*
X031941Y006528D01*
X033149Y007736D01*
X033149Y008944D01*
X031941Y010153D01*
X037566Y011361D02*
X037566Y012570D01*
X038774Y013778D01*
X041191Y013778D01*
X042399Y012570D01*
X042399Y011361D01*
X041191Y010153D01*
X038774Y010153D01*
X037566Y011361D01*
X038774Y010153D02*
X037566Y008944D01*
X037566Y007736D01*
X038774Y006528D01*
X041191Y006528D01*
X042399Y007736D01*
X042399Y008944D01*
X041191Y010153D01*
D13*
X035445Y020010D02*
X035447Y020025D01*
X035453Y020038D01*
X035462Y020050D01*
X035473Y020059D01*
X035487Y020065D01*
X035502Y020067D01*
X035517Y020065D01*
X035530Y020059D01*
X035542Y020050D01*
X035551Y020039D01*
X035557Y020025D01*
X035559Y020010D01*
X035557Y019995D01*
X035551Y019982D01*
X035542Y019970D01*
X035531Y019961D01*
X035517Y019955D01*
X035502Y019953D01*
X035487Y019955D01*
X035474Y019961D01*
X035462Y019970D01*
X035453Y019981D01*
X035447Y019995D01*
X035445Y020010D01*
D14*
X034697Y020565D02*
X034547Y020565D01*
X034547Y020640D01*
X034572Y020665D01*
X034622Y020665D01*
X034647Y020640D01*
X034647Y020565D01*
X034647Y020615D02*
X034697Y020665D01*
X034697Y020762D02*
X034547Y020762D01*
X034547Y020712D02*
X034547Y020812D01*
X034572Y020860D02*
X034672Y020860D01*
X034697Y020885D01*
X034697Y020935D01*
X034672Y020960D01*
X034697Y021007D02*
X034697Y021107D01*
X034697Y021057D02*
X034547Y021057D01*
X034597Y021007D01*
X034572Y020960D02*
X034547Y020935D01*
X034547Y020885D01*
X034572Y020860D01*
X032192Y021105D02*
X032042Y021105D01*
X032042Y021180D01*
X032067Y021205D01*
X032117Y021205D01*
X032142Y021180D01*
X032142Y021105D01*
X032142Y021155D02*
X032192Y021205D01*
X032117Y021252D02*
X032042Y021327D01*
X032192Y021327D01*
X032117Y021352D02*
X032117Y021252D01*
X031392Y021277D02*
X031367Y021252D01*
X031392Y021277D02*
X031392Y021327D01*
X031367Y021352D01*
X031317Y021352D01*
X031292Y021327D01*
X031292Y021302D01*
X031317Y021252D01*
X031242Y021252D01*
X031242Y021352D01*
X031267Y021205D02*
X031317Y021205D01*
X031342Y021180D01*
X031342Y021105D01*
X031342Y021155D02*
X031392Y021205D01*
X031392Y021105D02*
X031242Y021105D01*
X031242Y021180D01*
X031267Y021205D01*
X027360Y011490D02*
X027310Y011490D01*
X027285Y011465D01*
X027237Y011465D02*
X027237Y011415D01*
X027212Y011390D01*
X027137Y011390D01*
X027137Y011340D02*
X027137Y011490D01*
X027212Y011490D01*
X027237Y011465D01*
X027187Y011390D02*
X027237Y011340D01*
X027285Y011340D02*
X027385Y011440D01*
X027385Y011465D01*
X027360Y011490D01*
X027385Y011340D02*
X027285Y011340D01*
X026675Y009290D02*
X026625Y009290D01*
X026600Y009265D01*
X026675Y009290D02*
X026700Y009265D01*
X026700Y009240D01*
X026600Y009140D01*
X026700Y009140D01*
X026553Y009140D02*
X026453Y009140D01*
X026405Y009140D02*
X026355Y009190D01*
X026380Y009190D02*
X026305Y009190D01*
X026305Y009140D02*
X026305Y009290D01*
X026380Y009290D01*
X026405Y009265D01*
X026405Y009215D01*
X026380Y009190D01*
X026453Y009240D02*
X026503Y009290D01*
X026503Y009140D01*
X026565Y008530D02*
X026640Y008530D01*
X026665Y008505D01*
X026665Y008455D01*
X026640Y008430D01*
X026565Y008430D01*
X026565Y008380D02*
X026565Y008530D01*
X026615Y008430D02*
X026665Y008380D01*
X026713Y008380D02*
X026813Y008380D01*
X026860Y008380D02*
X026960Y008380D01*
X026910Y008380D02*
X026910Y008530D01*
X026860Y008480D01*
X026763Y008530D02*
X026763Y008380D01*
X026713Y008480D02*
X026763Y008530D01*
X026945Y007770D02*
X027020Y007770D01*
X027045Y007745D01*
X027045Y007695D01*
X027020Y007670D01*
X026945Y007670D01*
X026945Y007620D02*
X026945Y007770D01*
X026995Y007670D02*
X027045Y007620D01*
X027093Y007620D02*
X027193Y007620D01*
X027143Y007620D02*
X027143Y007770D01*
X027093Y007720D01*
X027240Y007745D02*
X027265Y007770D01*
X027315Y007770D01*
X027340Y007745D01*
X027240Y007645D01*
X027265Y007620D01*
X027315Y007620D01*
X027340Y007645D01*
X027340Y007745D01*
X027240Y007745D02*
X027240Y007645D01*
X035813Y009160D02*
X035813Y009310D01*
X035888Y009310D01*
X035913Y009285D01*
X035913Y009235D01*
X035888Y009210D01*
X035813Y009210D01*
X035863Y009210D02*
X035913Y009160D01*
X035960Y009185D02*
X035985Y009160D01*
X036035Y009160D01*
X036060Y009185D01*
X036060Y009285D01*
X036035Y009310D01*
X035985Y009310D01*
X035960Y009285D01*
X035960Y009260D01*
X035985Y009235D01*
X036060Y009235D01*
X036113Y008530D02*
X036188Y008530D01*
X036213Y008505D01*
X036213Y008455D01*
X036188Y008430D01*
X036113Y008430D01*
X036163Y008430D02*
X036213Y008380D01*
X036260Y008405D02*
X036260Y008430D01*
X036285Y008455D01*
X036335Y008455D01*
X036360Y008430D01*
X036360Y008405D01*
X036335Y008380D01*
X036285Y008380D01*
X036260Y008405D01*
X036285Y008455D02*
X036260Y008480D01*
X036260Y008505D01*
X036285Y008530D01*
X036335Y008530D01*
X036360Y008505D01*
X036360Y008480D01*
X036335Y008455D01*
X036113Y008380D02*
X036113Y008530D01*
X036413Y007670D02*
X036488Y007670D01*
X036513Y007645D01*
X036513Y007595D01*
X036488Y007570D01*
X036413Y007570D01*
X036463Y007570D02*
X036513Y007520D01*
X036560Y007520D02*
X036560Y007545D01*
X036660Y007645D01*
X036660Y007670D01*
X036560Y007670D01*
X036413Y007670D02*
X036413Y007520D01*
X036387Y011340D02*
X036387Y011490D01*
X036462Y011490D01*
X036487Y011465D01*
X036487Y011415D01*
X036462Y011390D01*
X036387Y011390D01*
X036437Y011390D02*
X036487Y011340D01*
X036535Y011340D02*
X036635Y011340D01*
X036585Y011340D02*
X036585Y011490D01*
X036535Y011440D01*
X015635Y011390D02*
X015610Y011415D01*
X015535Y011415D01*
X015535Y011365D01*
X015560Y011340D01*
X015610Y011340D01*
X015635Y011365D01*
X015635Y011390D01*
X015585Y011465D02*
X015535Y011415D01*
X015487Y011415D02*
X015462Y011390D01*
X015387Y011390D01*
X015387Y011340D02*
X015387Y011490D01*
X015462Y011490D01*
X015487Y011465D01*
X015487Y011415D01*
X015437Y011390D02*
X015487Y011340D01*
X015585Y011465D02*
X015635Y011490D01*
X014940Y009290D02*
X014840Y009290D01*
X014840Y009215D01*
X014890Y009240D01*
X014915Y009240D01*
X014940Y009215D01*
X014940Y009165D01*
X014915Y009140D01*
X014865Y009140D01*
X014840Y009165D01*
X014793Y009140D02*
X014693Y009140D01*
X014645Y009140D02*
X014595Y009190D01*
X014620Y009190D02*
X014545Y009190D01*
X014545Y009140D02*
X014545Y009290D01*
X014620Y009290D01*
X014645Y009265D01*
X014645Y009215D01*
X014620Y009190D01*
X014693Y009240D02*
X014743Y009290D01*
X014743Y009140D01*
X015045Y008530D02*
X015120Y008530D01*
X015145Y008505D01*
X015145Y008455D01*
X015120Y008430D01*
X015045Y008430D01*
X015045Y008380D02*
X015045Y008530D01*
X015095Y008430D02*
X015145Y008380D01*
X015193Y008380D02*
X015293Y008380D01*
X015243Y008380D02*
X015243Y008530D01*
X015193Y008480D01*
X015340Y008455D02*
X015440Y008455D01*
X015415Y008380D02*
X015415Y008530D01*
X015340Y008455D01*
X015545Y007770D02*
X015620Y007770D01*
X015645Y007745D01*
X015645Y007695D01*
X015620Y007670D01*
X015545Y007670D01*
X015545Y007620D02*
X015545Y007770D01*
X015595Y007670D02*
X015645Y007620D01*
X015693Y007620D02*
X015793Y007620D01*
X015743Y007620D02*
X015743Y007770D01*
X015693Y007720D01*
X015840Y007745D02*
X015865Y007770D01*
X015915Y007770D01*
X015940Y007745D01*
X015940Y007720D01*
X015915Y007695D01*
X015940Y007670D01*
X015940Y007645D01*
X015915Y007620D01*
X015865Y007620D01*
X015840Y007645D01*
X015890Y007695D02*
X015915Y007695D01*
X006940Y007430D02*
X006890Y007405D01*
X006840Y007355D01*
X006915Y007355D01*
X006940Y007330D01*
X006940Y007305D01*
X006915Y007280D01*
X006865Y007280D01*
X006840Y007305D01*
X006840Y007355D01*
X006793Y007280D02*
X006693Y007280D01*
X006645Y007280D02*
X006595Y007330D01*
X006620Y007330D02*
X006545Y007330D01*
X006545Y007280D02*
X006545Y007430D01*
X006620Y007430D01*
X006645Y007405D01*
X006645Y007355D01*
X006620Y007330D01*
X006693Y007380D02*
X006743Y007430D01*
X006743Y007280D01*
X006340Y008280D02*
X006340Y008305D01*
X006440Y008405D01*
X006440Y008430D01*
X006340Y008430D01*
X006243Y008430D02*
X006243Y008280D01*
X006193Y008280D02*
X006293Y008280D01*
X006193Y008380D02*
X006243Y008430D01*
X006145Y008405D02*
X006145Y008355D01*
X006120Y008330D01*
X006045Y008330D01*
X006045Y008280D02*
X006045Y008430D01*
X006120Y008430D01*
X006145Y008405D01*
X006095Y008330D02*
X006145Y008280D01*
X005915Y009280D02*
X005865Y009280D01*
X005840Y009305D01*
X005840Y009330D01*
X005865Y009355D01*
X005915Y009355D01*
X005940Y009330D01*
X005940Y009305D01*
X005915Y009280D01*
X005915Y009355D02*
X005940Y009380D01*
X005940Y009405D01*
X005915Y009430D01*
X005865Y009430D01*
X005840Y009405D01*
X005840Y009380D01*
X005865Y009355D01*
X005793Y009280D02*
X005693Y009280D01*
X005645Y009280D02*
X005595Y009330D01*
X005620Y009330D02*
X005545Y009330D01*
X005545Y009280D02*
X005545Y009430D01*
X005620Y009430D01*
X005645Y009405D01*
X005645Y009355D01*
X005620Y009330D01*
X005693Y009380D02*
X005743Y009430D01*
X005743Y009280D01*
X006137Y011340D02*
X006137Y011490D01*
X006212Y011490D01*
X006237Y011465D01*
X006237Y011415D01*
X006212Y011390D01*
X006137Y011390D01*
X006187Y011390D02*
X006237Y011340D01*
X006285Y011365D02*
X006310Y011340D01*
X006360Y011340D01*
X006385Y011365D01*
X006385Y011390D01*
X006360Y011415D01*
X006335Y011415D01*
X006360Y011415D02*
X006385Y011440D01*
X006385Y011465D01*
X006360Y011490D01*
X006310Y011490D01*
X006285Y011465D01*
M02*
