G75*
%MOIN*%
%OFA0B0*%
%FSLAX24Y24*%
%IPPOS*%
%LPD*%
%AMOC8*
5,1,8,0,0,1.08239X$1,22.5*
%
%ADD10R,0.0600X0.0600*%
%ADD11OC8,0.0600*%
%ADD12C,0.0515*%
%ADD13R,0.0945X0.0945*%
%ADD14R,0.0531X0.0138*%
%ADD15R,0.0138X0.0531*%
%ADD16R,0.0870X0.0240*%
%ADD17C,0.0500*%
%ADD18R,0.0315X0.0472*%
%ADD19R,0.0472X0.0315*%
%ADD20C,0.0120*%
%ADD21C,0.0396*%
%ADD22C,0.0320*%
%ADD23C,0.0100*%
%ADD24R,0.0396X0.0396*%
%ADD25C,0.0357*%
D10*
X007978Y020429D03*
D11*
X008978Y020429D03*
X009978Y020429D03*
X010978Y020429D03*
X011978Y020429D03*
X012978Y020429D03*
X013978Y020429D03*
X014978Y020429D03*
X015978Y020429D03*
X016978Y020429D03*
X017978Y020429D03*
X018978Y020429D03*
X019978Y020429D03*
X020978Y020429D03*
X021978Y020429D03*
X022978Y020429D03*
X023978Y020429D03*
X024978Y020429D03*
X025978Y020429D03*
X026978Y020429D03*
X026978Y021429D03*
X025978Y021429D03*
X024978Y021429D03*
X023978Y021429D03*
X022978Y021429D03*
X021978Y021429D03*
X020978Y021429D03*
X019978Y021429D03*
X018978Y021429D03*
X017978Y021429D03*
X016978Y021429D03*
X015978Y021429D03*
X014978Y021429D03*
X013978Y021429D03*
X012978Y021429D03*
X011978Y021429D03*
X010978Y021429D03*
X009978Y021429D03*
X008978Y021429D03*
X007978Y021429D03*
D12*
X007885Y015957D03*
X006901Y015957D03*
X005917Y015957D03*
X005917Y014973D03*
X006901Y014973D03*
X007885Y014973D03*
X008869Y015957D03*
X009854Y015957D03*
X010838Y015957D03*
X011822Y015957D03*
X012806Y015957D03*
X012806Y014973D03*
X011822Y014973D03*
X015167Y014973D03*
X016151Y014973D03*
X017135Y014973D03*
X017135Y015957D03*
X016151Y015957D03*
X015167Y015957D03*
X018119Y015957D03*
X019104Y015957D03*
X020088Y015957D03*
X021072Y015957D03*
X022056Y015957D03*
X022056Y014973D03*
X021072Y014973D03*
X027017Y014973D03*
X028001Y014973D03*
X028985Y014973D03*
X028985Y015957D03*
X028001Y015957D03*
X027017Y015957D03*
X029969Y015957D03*
X030954Y015957D03*
X031938Y015957D03*
X032922Y015957D03*
X033906Y015957D03*
X033906Y014973D03*
X032922Y014973D03*
X036267Y014973D03*
X037251Y014973D03*
X038235Y014973D03*
X038235Y015957D03*
X037251Y015957D03*
X036267Y015957D03*
X039219Y015957D03*
X040204Y015957D03*
X041188Y015957D03*
X042172Y015957D03*
X043156Y015957D03*
X043156Y014973D03*
X042172Y014973D03*
X042172Y005130D03*
X041188Y005130D03*
X041188Y004146D03*
X042172Y004146D03*
X043156Y004146D03*
X040204Y004146D03*
X039219Y004146D03*
X038235Y004146D03*
X037251Y004146D03*
X036267Y004146D03*
X036267Y005130D03*
X037251Y005130D03*
X033906Y004146D03*
X032922Y004146D03*
X031938Y004146D03*
X030954Y004146D03*
X029969Y004146D03*
X028985Y004146D03*
X028001Y004146D03*
X027017Y004146D03*
X027017Y005130D03*
X028001Y005130D03*
X031938Y005130D03*
X032922Y005130D03*
X022056Y004146D03*
X021072Y004146D03*
X020088Y004146D03*
X019104Y004146D03*
X018119Y004146D03*
X017135Y004146D03*
X016151Y004146D03*
X015167Y004146D03*
X015167Y005130D03*
X016151Y005130D03*
X012806Y004146D03*
X011822Y004146D03*
X010838Y004146D03*
X009854Y004146D03*
X008869Y004146D03*
X007885Y004146D03*
X006901Y004146D03*
X005917Y004146D03*
X005917Y005130D03*
X006901Y005130D03*
X010838Y005130D03*
X011822Y005130D03*
X020088Y005130D03*
X021072Y005130D03*
D13*
X018802Y010260D03*
X009582Y010220D03*
X030522Y010140D03*
X039782Y010140D03*
D14*
X041456Y010042D03*
X041456Y010238D03*
X041456Y010435D03*
X041456Y010632D03*
X041456Y010829D03*
X041456Y011026D03*
X041456Y011223D03*
X041456Y009845D03*
X041456Y009648D03*
X041456Y009451D03*
X041456Y009254D03*
X041456Y009057D03*
X038109Y009057D03*
X038109Y009254D03*
X038109Y009451D03*
X038109Y009648D03*
X038109Y009845D03*
X038109Y010042D03*
X038109Y010238D03*
X038109Y010435D03*
X038109Y010632D03*
X038109Y010829D03*
X038109Y011026D03*
X038109Y011223D03*
X032196Y011223D03*
X032196Y011026D03*
X032196Y010829D03*
X032196Y010632D03*
X032196Y010435D03*
X032196Y010238D03*
X032196Y010042D03*
X032196Y009845D03*
X032196Y009648D03*
X032196Y009451D03*
X032196Y009254D03*
X032196Y009057D03*
X028849Y009057D03*
X028849Y009254D03*
X028849Y009451D03*
X028849Y009648D03*
X028849Y009845D03*
X028849Y010042D03*
X028849Y010238D03*
X028849Y010435D03*
X028849Y010632D03*
X028849Y010829D03*
X028849Y011026D03*
X028849Y011223D03*
X020476Y011146D03*
X020476Y011343D03*
X020476Y010949D03*
X020476Y010752D03*
X020476Y010555D03*
X020476Y010358D03*
X020476Y010162D03*
X020476Y009965D03*
X020476Y009768D03*
X020476Y009571D03*
X020476Y009374D03*
X020476Y009177D03*
X017129Y009177D03*
X017129Y009374D03*
X017129Y009571D03*
X017129Y009768D03*
X017129Y009965D03*
X017129Y010162D03*
X017129Y010358D03*
X017129Y010555D03*
X017129Y010752D03*
X017129Y010949D03*
X017129Y011146D03*
X017129Y011343D03*
X011256Y011303D03*
X011256Y011106D03*
X011256Y010909D03*
X011256Y010712D03*
X011256Y010515D03*
X011256Y010318D03*
X011256Y010122D03*
X011256Y009925D03*
X011256Y009728D03*
X011256Y009531D03*
X011256Y009334D03*
X011256Y009137D03*
X007909Y009137D03*
X007909Y009334D03*
X007909Y009531D03*
X007909Y009728D03*
X007909Y009925D03*
X007909Y010122D03*
X007909Y010318D03*
X007909Y010515D03*
X007909Y010712D03*
X007909Y010909D03*
X007909Y011106D03*
X007909Y011303D03*
D15*
X008500Y011893D03*
X008696Y011893D03*
X008893Y011893D03*
X009090Y011893D03*
X009287Y011893D03*
X009484Y011893D03*
X009681Y011893D03*
X009878Y011893D03*
X010074Y011893D03*
X010271Y011893D03*
X010468Y011893D03*
X010665Y011893D03*
X010665Y008547D03*
X010468Y008547D03*
X010271Y008547D03*
X010074Y008547D03*
X009878Y008547D03*
X009681Y008547D03*
X009484Y008547D03*
X009287Y008547D03*
X009090Y008547D03*
X008893Y008547D03*
X008696Y008547D03*
X008500Y008547D03*
X017720Y008587D03*
X017916Y008587D03*
X018113Y008587D03*
X018310Y008587D03*
X018507Y008587D03*
X018704Y008587D03*
X018901Y008587D03*
X019098Y008587D03*
X019294Y008587D03*
X019491Y008587D03*
X019688Y008587D03*
X019885Y008587D03*
X019885Y011933D03*
X019688Y011933D03*
X019491Y011933D03*
X019294Y011933D03*
X019098Y011933D03*
X018901Y011933D03*
X018704Y011933D03*
X018507Y011933D03*
X018310Y011933D03*
X018113Y011933D03*
X017916Y011933D03*
X017720Y011933D03*
X029440Y011813D03*
X029636Y011813D03*
X029833Y011813D03*
X030030Y011813D03*
X030227Y011813D03*
X030424Y011813D03*
X030621Y011813D03*
X030818Y011813D03*
X031014Y011813D03*
X031211Y011813D03*
X031408Y011813D03*
X031605Y011813D03*
X031605Y008467D03*
X031408Y008467D03*
X031211Y008467D03*
X031014Y008467D03*
X030818Y008467D03*
X030621Y008467D03*
X030424Y008467D03*
X030227Y008467D03*
X030030Y008467D03*
X029833Y008467D03*
X029636Y008467D03*
X029440Y008467D03*
X038700Y008467D03*
X038896Y008467D03*
X039093Y008467D03*
X039290Y008467D03*
X039487Y008467D03*
X039684Y008467D03*
X039881Y008467D03*
X040078Y008467D03*
X040274Y008467D03*
X040471Y008467D03*
X040668Y008467D03*
X040865Y008467D03*
X040865Y011813D03*
X040668Y011813D03*
X040471Y011813D03*
X040274Y011813D03*
X040078Y011813D03*
X039881Y011813D03*
X039684Y011813D03*
X039487Y011813D03*
X039290Y011813D03*
X039093Y011813D03*
X038896Y011813D03*
X038700Y011813D03*
D16*
X035732Y020310D03*
X035732Y020810D03*
X035732Y021310D03*
X035732Y021810D03*
X033672Y021810D03*
X033672Y021310D03*
X033672Y020810D03*
X033672Y020310D03*
D17*
X025432Y013510D02*
X025432Y013010D01*
X024932Y013010D02*
X024932Y013510D01*
X024432Y013510D02*
X024432Y013010D01*
X023932Y013010D02*
X023932Y013510D01*
X023932Y007010D02*
X023932Y006510D01*
X024432Y006510D02*
X024432Y007010D01*
X024932Y007010D02*
X024932Y006510D01*
X025432Y006510D02*
X025432Y007010D01*
D18*
X026728Y008100D03*
X027437Y008100D03*
X027057Y008860D03*
X026348Y008860D03*
X026088Y009620D03*
X026797Y009620D03*
X027078Y011010D03*
X027787Y011010D03*
X035448Y009640D03*
X036157Y009640D03*
X036457Y008860D03*
X035748Y008860D03*
X036048Y008000D03*
X036757Y008000D03*
X037037Y011010D03*
X036328Y011010D03*
X016037Y011010D03*
X015328Y011010D03*
X015037Y009620D03*
X014328Y009620D03*
X014828Y008860D03*
X015537Y008860D03*
X015328Y008100D03*
X016037Y008100D03*
X007037Y007760D03*
X006328Y007760D03*
X006537Y008760D03*
X005828Y008760D03*
X006037Y009760D03*
X005328Y009760D03*
X006078Y011010D03*
X006787Y011010D03*
D19*
X031722Y021046D03*
X032522Y021046D03*
X032522Y021754D03*
X031722Y021754D03*
D20*
X044682Y000260D02*
X004682Y000260D01*
X004682Y022460D01*
X044682Y022460D01*
X044682Y000260D01*
X004682Y000260D01*
X004682Y000379D02*
X044682Y000379D01*
X044682Y000497D02*
X004682Y000497D01*
X004682Y000616D02*
X044682Y000616D01*
X044682Y000734D02*
X029329Y000734D01*
X029462Y000789D02*
X029744Y001071D01*
X029896Y001439D01*
X029896Y001837D01*
X029744Y002205D01*
X029462Y002487D01*
X029094Y002639D01*
X028696Y002639D01*
X028328Y002487D01*
X028046Y002205D01*
X027894Y001837D01*
X027894Y001439D01*
X028046Y001071D01*
X028328Y000789D01*
X028696Y000637D01*
X029094Y000637D01*
X029462Y000789D01*
X029526Y000853D02*
X044682Y000853D01*
X044682Y000971D02*
X029644Y000971D01*
X029752Y001090D02*
X044682Y001090D01*
X044682Y001208D02*
X029801Y001208D01*
X029850Y001327D02*
X044682Y001327D01*
X044682Y001445D02*
X029896Y001445D01*
X029896Y001564D02*
X044682Y001564D01*
X044682Y001682D02*
X029896Y001682D01*
X029896Y001801D02*
X044682Y001801D01*
X044682Y001919D02*
X029862Y001919D01*
X029813Y002038D02*
X044682Y002038D01*
X044682Y002156D02*
X029764Y002156D01*
X029674Y002275D02*
X044682Y002275D01*
X044682Y002393D02*
X029556Y002393D01*
X029403Y002512D02*
X044682Y002512D01*
X044682Y002630D02*
X029116Y002630D01*
X028673Y002630D02*
X006282Y002630D01*
X006259Y002639D02*
X005861Y002639D01*
X005493Y002487D01*
X005211Y002205D01*
X005059Y001837D01*
X005059Y001439D01*
X005211Y001071D01*
X005493Y000789D01*
X005861Y000637D01*
X006259Y000637D01*
X006627Y000789D01*
X006909Y001071D01*
X007062Y001439D01*
X007062Y001837D01*
X006909Y002205D01*
X006627Y002487D01*
X006259Y002639D01*
X006568Y002512D02*
X028387Y002512D01*
X028234Y002393D02*
X006721Y002393D01*
X006840Y002275D02*
X028115Y002275D01*
X028026Y002156D02*
X006929Y002156D01*
X006979Y002038D02*
X027977Y002038D01*
X027927Y001919D02*
X007028Y001919D01*
X007062Y001801D02*
X027894Y001801D01*
X027894Y001682D02*
X007062Y001682D01*
X007062Y001564D02*
X027894Y001564D01*
X027894Y001445D02*
X007062Y001445D01*
X007015Y001327D02*
X027940Y001327D01*
X027989Y001208D02*
X006966Y001208D01*
X006917Y001090D02*
X028038Y001090D01*
X028146Y000971D02*
X006809Y000971D01*
X006691Y000853D02*
X028264Y000853D01*
X028461Y000734D02*
X006495Y000734D01*
X005626Y000734D02*
X004682Y000734D01*
X004682Y000853D02*
X005430Y000853D01*
X005311Y000971D02*
X004682Y000971D01*
X004682Y001090D02*
X005204Y001090D01*
X005154Y001208D02*
X004682Y001208D01*
X004682Y001327D02*
X005105Y001327D01*
X005059Y001445D02*
X004682Y001445D01*
X004682Y001564D02*
X005059Y001564D01*
X005059Y001682D02*
X004682Y001682D01*
X004682Y001801D02*
X005059Y001801D01*
X005093Y001919D02*
X004682Y001919D01*
X004682Y002038D02*
X005142Y002038D01*
X005191Y002156D02*
X004682Y002156D01*
X004682Y002275D02*
X005281Y002275D01*
X005399Y002393D02*
X004682Y002393D01*
X004682Y002512D02*
X005553Y002512D01*
X005839Y002630D02*
X004682Y002630D01*
X004682Y002749D02*
X044682Y002749D01*
X044682Y002867D02*
X004682Y002867D01*
X004682Y002986D02*
X044682Y002986D01*
X044682Y003104D02*
X004682Y003104D01*
X004682Y003223D02*
X044682Y003223D01*
X044682Y003341D02*
X004682Y003341D01*
X004682Y003460D02*
X044682Y003460D01*
X044682Y003578D02*
X004682Y003578D01*
X004682Y003697D02*
X044682Y003697D01*
X044682Y003815D02*
X043388Y003815D01*
X043381Y003809D02*
X043493Y003921D01*
X043554Y004067D01*
X043554Y004225D01*
X043493Y004371D01*
X043381Y004483D01*
X043235Y004543D01*
X043077Y004543D01*
X042931Y004483D01*
X042819Y004371D01*
X042759Y004225D01*
X042759Y004067D01*
X042819Y003921D01*
X042931Y003809D01*
X043077Y003748D01*
X043235Y003748D01*
X043381Y003809D01*
X043499Y003934D02*
X044682Y003934D01*
X044682Y004052D02*
X043548Y004052D01*
X043554Y004171D02*
X044682Y004171D01*
X044682Y004289D02*
X043527Y004289D01*
X043457Y004408D02*
X044682Y004408D01*
X044682Y004526D02*
X043277Y004526D01*
X043035Y004526D02*
X042293Y004526D01*
X042251Y004543D02*
X042093Y004543D01*
X041947Y004483D01*
X041835Y004371D01*
X041775Y004225D01*
X041775Y004067D01*
X041835Y003921D01*
X041947Y003809D01*
X042093Y003748D01*
X042251Y003748D01*
X042397Y003809D01*
X042509Y003921D01*
X042570Y004067D01*
X042570Y004225D01*
X042509Y004371D01*
X042397Y004483D01*
X042251Y004543D01*
X042251Y004733D02*
X042397Y004793D01*
X042509Y004905D01*
X042570Y005051D01*
X042570Y005209D01*
X042509Y005355D01*
X042397Y005467D01*
X042251Y005528D01*
X042093Y005528D01*
X041947Y005467D01*
X041905Y005426D01*
X041801Y005530D01*
X040464Y006867D01*
X040464Y008061D01*
X040992Y008061D01*
X041074Y008143D01*
X041074Y008791D01*
X040992Y008873D01*
X040247Y008873D01*
X040280Y008953D01*
X040280Y009075D01*
X040456Y009251D01*
X041050Y009251D01*
X041050Y008930D01*
X041132Y008848D01*
X041779Y008848D01*
X041861Y008930D01*
X041861Y009064D01*
X043595Y009064D01*
X043706Y009175D01*
X044352Y009821D01*
X044352Y009979D01*
X044241Y010090D01*
X044084Y010090D01*
X043438Y009444D01*
X041861Y009444D01*
X041861Y011350D01*
X041779Y011432D01*
X041132Y011432D01*
X041050Y011350D01*
X041050Y009848D01*
X040395Y009848D01*
X040395Y010670D01*
X040313Y010752D01*
X039252Y010752D01*
X039170Y010670D01*
X039170Y009718D01*
X039115Y009718D01*
X038991Y009667D01*
X038896Y009572D01*
X038844Y009447D01*
X038844Y009313D01*
X038896Y009188D01*
X038991Y009093D01*
X039115Y009042D01*
X039250Y009042D01*
X039374Y009093D01*
X039460Y009180D01*
X039643Y009180D01*
X039604Y009087D01*
X039604Y008953D01*
X039637Y008873D01*
X038712Y008873D01*
X038712Y009233D01*
X038720Y009243D01*
X038712Y009311D01*
X038712Y009379D01*
X038704Y009387D01*
X038702Y009399D01*
X038649Y009442D01*
X038601Y009490D01*
X038589Y009490D01*
X038580Y009498D01*
X038515Y009490D01*
X038515Y009895D01*
X038524Y009911D01*
X038535Y009952D01*
X038535Y010042D01*
X038535Y010132D01*
X038524Y010172D01*
X038515Y010188D01*
X038515Y011350D01*
X038433Y011432D01*
X037785Y011432D01*
X037703Y011350D01*
X037703Y011019D01*
X037474Y011019D01*
X037390Y011027D01*
X037334Y011050D01*
X037334Y011304D01*
X037252Y011386D01*
X036821Y011386D01*
X036739Y011304D01*
X036739Y010716D01*
X036820Y010635D01*
X036650Y010635D01*
X036597Y010688D01*
X036625Y010716D01*
X036625Y011304D01*
X036543Y011386D01*
X036112Y011386D01*
X036030Y011304D01*
X036030Y011210D01*
X035970Y011210D01*
X035894Y011287D01*
X035770Y011338D01*
X035635Y011338D01*
X035511Y011287D01*
X035416Y011192D01*
X035364Y011067D01*
X035364Y010933D01*
X035416Y010808D01*
X035511Y010713D01*
X035635Y010662D01*
X035770Y010662D01*
X035894Y010713D01*
X035989Y010808D01*
X035990Y010810D01*
X036030Y010810D01*
X036030Y010716D01*
X036112Y010634D01*
X036162Y010634D01*
X036162Y010557D01*
X036279Y010440D01*
X036279Y010440D01*
X036367Y010352D01*
X036484Y010235D01*
X037703Y010235D01*
X037703Y010188D01*
X037694Y010172D01*
X037683Y010132D01*
X037683Y010042D01*
X037773Y010042D01*
X037773Y010042D01*
X037773Y010042D01*
X037683Y010042D01*
X037683Y010035D01*
X036078Y010035D01*
X036059Y010016D01*
X035941Y010016D01*
X035859Y009934D01*
X035859Y009625D01*
X035765Y009532D01*
X035765Y009621D01*
X035467Y009621D01*
X035467Y009659D01*
X035429Y009659D01*
X035429Y010036D01*
X035269Y010036D01*
X035229Y010025D01*
X035192Y010004D01*
X035186Y009998D01*
X035200Y010033D01*
X035200Y010167D01*
X035149Y010292D01*
X035054Y010387D01*
X034930Y010438D01*
X034795Y010438D01*
X034671Y010387D01*
X034576Y010292D01*
X034524Y010167D01*
X034524Y010045D01*
X034327Y009848D01*
X034053Y009848D01*
X034127Y009922D01*
X034250Y009922D01*
X034374Y009973D01*
X034469Y010068D01*
X034520Y010193D01*
X034520Y010327D01*
X034469Y010452D01*
X034374Y010547D01*
X034250Y010598D01*
X034115Y010598D01*
X033991Y010547D01*
X033896Y010452D01*
X033844Y010327D01*
X033844Y010205D01*
X033487Y009848D01*
X032601Y009848D01*
X032601Y011350D01*
X032519Y011432D01*
X031872Y011432D01*
X031830Y011390D01*
X031772Y011448D01*
X031814Y011489D01*
X031814Y012137D01*
X031795Y012156D01*
X031795Y013024D01*
X033554Y014783D01*
X033569Y014747D01*
X033681Y014636D01*
X033827Y014575D01*
X033985Y014575D01*
X034131Y014636D01*
X034243Y014747D01*
X034304Y014894D01*
X034304Y015052D01*
X034243Y015198D01*
X034131Y015310D01*
X033985Y015370D01*
X033827Y015370D01*
X033681Y015310D01*
X033632Y015261D01*
X033632Y015341D01*
X033850Y015559D01*
X033985Y015559D01*
X034131Y015620D01*
X034243Y015732D01*
X034304Y015878D01*
X034304Y016036D01*
X034243Y016182D01*
X034131Y016294D01*
X033985Y016354D01*
X033827Y016354D01*
X033681Y016294D01*
X033569Y016182D01*
X033509Y016036D01*
X033509Y015878D01*
X033545Y015791D01*
X033364Y015610D01*
X033252Y015499D01*
X033252Y015204D01*
X033147Y015310D01*
X033001Y015370D01*
X032843Y015370D01*
X032808Y015356D01*
X032792Y015371D01*
X032792Y015379D01*
X032702Y015469D01*
X032808Y015574D01*
X032843Y015559D01*
X033001Y015559D01*
X033147Y015620D01*
X033259Y015732D01*
X033320Y015878D01*
X033320Y016036D01*
X033259Y016182D01*
X033147Y016294D01*
X033001Y016354D01*
X032843Y016354D01*
X032697Y016294D01*
X032585Y016182D01*
X032525Y016036D01*
X032525Y015878D01*
X032539Y015843D01*
X031204Y014508D01*
X031204Y014955D01*
X031824Y015574D01*
X031859Y015559D01*
X032017Y015559D01*
X032163Y015620D01*
X032275Y015732D01*
X032335Y015878D01*
X032335Y016036D01*
X032275Y016182D01*
X032163Y016294D01*
X032017Y016354D01*
X031859Y016354D01*
X031713Y016294D01*
X031601Y016182D01*
X031540Y016036D01*
X031540Y015878D01*
X031555Y015843D01*
X031008Y015295D01*
X031008Y015559D01*
X031033Y015559D01*
X031179Y015620D01*
X031291Y015732D01*
X031351Y015878D01*
X031351Y016036D01*
X031291Y016182D01*
X031179Y016294D01*
X031033Y016354D01*
X030874Y016354D01*
X030728Y016294D01*
X030617Y016182D01*
X030556Y016036D01*
X030556Y015878D01*
X030617Y015732D01*
X030628Y015721D01*
X030628Y015567D01*
X030352Y015843D01*
X030367Y015878D01*
X030367Y016036D01*
X030306Y016182D01*
X030194Y016294D01*
X030048Y016354D01*
X029890Y016354D01*
X029744Y016294D01*
X029632Y016182D01*
X029572Y016036D01*
X029572Y015878D01*
X029632Y015732D01*
X029744Y015620D01*
X029890Y015559D01*
X030048Y015559D01*
X030084Y015574D01*
X030431Y015227D01*
X030431Y014780D01*
X029368Y015843D01*
X029383Y015878D01*
X029383Y016036D01*
X029322Y016182D01*
X029210Y016294D01*
X029064Y016354D01*
X028906Y016354D01*
X028760Y016294D01*
X028648Y016182D01*
X028588Y016036D01*
X028588Y015878D01*
X028648Y015732D01*
X028760Y015620D01*
X028906Y015559D01*
X029064Y015559D01*
X029099Y015574D01*
X030234Y014439D01*
X030234Y013992D01*
X029368Y014858D01*
X029383Y014894D01*
X029383Y015052D01*
X029322Y015198D01*
X029210Y015310D01*
X029064Y015370D01*
X028906Y015370D01*
X028760Y015310D01*
X028712Y015262D01*
X028712Y015514D01*
X028601Y015625D01*
X028384Y015843D01*
X028398Y015878D01*
X028398Y016036D01*
X028338Y016182D01*
X028226Y016294D01*
X028080Y016354D01*
X027922Y016354D01*
X027776Y016294D01*
X027664Y016182D01*
X027603Y016036D01*
X027603Y015878D01*
X027664Y015732D01*
X027776Y015620D01*
X027922Y015559D01*
X028080Y015559D01*
X028115Y015574D01*
X028332Y015357D01*
X028332Y015203D01*
X028226Y015310D01*
X028080Y015370D01*
X027922Y015370D01*
X027776Y015310D01*
X027664Y015198D01*
X027603Y015052D01*
X027603Y014894D01*
X027664Y014747D01*
X027776Y014636D01*
X027922Y014575D01*
X028080Y014575D01*
X028115Y014590D01*
X029643Y013061D01*
X029643Y012615D01*
X027399Y014858D01*
X027414Y014894D01*
X027414Y015052D01*
X027354Y015198D01*
X027242Y015310D01*
X027096Y015370D01*
X026937Y015370D01*
X026792Y015310D01*
X026792Y015464D01*
X026902Y015574D01*
X026937Y015559D01*
X027096Y015559D01*
X027242Y015620D01*
X027354Y015732D01*
X027414Y015878D01*
X027414Y016036D01*
X027354Y016182D01*
X027242Y016294D01*
X027096Y016354D01*
X026937Y016354D01*
X026791Y016294D01*
X026680Y016182D01*
X026619Y016036D01*
X026619Y015878D01*
X026634Y015843D01*
X026412Y015621D01*
X026412Y014621D01*
X029231Y011803D01*
X029231Y011489D01*
X029313Y011407D01*
X031312Y011407D01*
X031276Y011372D01*
X031224Y011247D01*
X031224Y011113D01*
X031276Y010988D01*
X031362Y010902D01*
X031362Y010883D01*
X031225Y011020D01*
X029859Y011020D01*
X029742Y010903D01*
X029742Y010903D01*
X029562Y010723D01*
X029562Y010183D01*
X029424Y010045D01*
X029275Y010045D01*
X029275Y010132D01*
X029264Y010172D01*
X029255Y010188D01*
X029255Y011350D01*
X029173Y011432D01*
X028525Y011432D01*
X028443Y011350D01*
X028443Y011019D01*
X028224Y011019D01*
X028140Y011027D01*
X028084Y011050D01*
X028084Y011304D01*
X028002Y011386D01*
X027571Y011386D01*
X027489Y011304D01*
X027489Y010716D01*
X027570Y010635D01*
X027350Y010635D01*
X027322Y010663D01*
X027375Y010716D01*
X027375Y011304D01*
X027293Y011386D01*
X026862Y011386D01*
X026780Y011304D01*
X026780Y011210D01*
X026550Y011210D01*
X026474Y011287D01*
X026350Y011338D01*
X026215Y011338D01*
X026091Y011287D01*
X025996Y011192D01*
X025944Y011067D01*
X025944Y010933D01*
X025996Y010808D01*
X026091Y010713D01*
X026215Y010662D01*
X026350Y010662D01*
X026474Y010713D01*
X026569Y010808D01*
X026570Y010810D01*
X026780Y010810D01*
X026780Y010716D01*
X026862Y010634D01*
X026862Y010557D01*
X026979Y010440D01*
X027184Y010235D01*
X028443Y010235D01*
X028443Y010188D01*
X028434Y010172D01*
X028423Y010132D01*
X028423Y010042D01*
X028513Y010042D01*
X028513Y010042D01*
X028513Y010042D01*
X028423Y010042D01*
X028423Y010035D01*
X026910Y010035D01*
X026844Y009996D01*
X026581Y009996D01*
X026499Y009914D01*
X026499Y009520D01*
X026439Y009460D01*
X026405Y009460D01*
X026405Y009601D01*
X026107Y009601D01*
X026107Y009639D01*
X026069Y009639D01*
X026069Y010016D01*
X025909Y010016D01*
X025869Y010005D01*
X025832Y009984D01*
X025802Y009954D01*
X025781Y009918D01*
X025770Y009877D01*
X025770Y009639D01*
X026069Y009639D01*
X026069Y009601D01*
X025770Y009601D01*
X025770Y009363D01*
X025781Y009322D01*
X025795Y009298D01*
X025622Y009298D01*
X025622Y012667D01*
X025653Y012679D01*
X025763Y012789D01*
X025822Y012932D01*
X025822Y013588D01*
X025763Y013731D01*
X025653Y013841D01*
X025510Y013900D01*
X025355Y013900D01*
X025211Y013841D01*
X025182Y013812D01*
X025153Y013841D01*
X025010Y013900D01*
X024855Y013900D01*
X024711Y013841D01*
X024682Y013812D01*
X024653Y013841D01*
X024510Y013900D01*
X024355Y013900D01*
X024211Y013841D01*
X024182Y013812D01*
X024153Y013841D01*
X024010Y013900D01*
X023855Y013900D01*
X023711Y013841D01*
X023602Y013731D01*
X023542Y013588D01*
X023542Y012932D01*
X023602Y012789D01*
X023711Y012679D01*
X023742Y012667D01*
X023742Y007353D01*
X023711Y007341D01*
X023602Y007231D01*
X023542Y007088D01*
X023542Y006490D01*
X022112Y006490D01*
X022112Y009203D01*
X022001Y009314D01*
X021751Y009564D01*
X021715Y009564D01*
X021760Y009673D01*
X021760Y009807D01*
X021709Y009932D01*
X021614Y010027D01*
X021499Y010074D01*
X021505Y010080D01*
X021924Y010080D01*
X022011Y009993D01*
X022135Y009942D01*
X022270Y009942D01*
X022394Y009993D01*
X022489Y010088D01*
X022540Y010213D01*
X022540Y010347D01*
X022489Y010472D01*
X022394Y010567D01*
X022270Y010618D01*
X022135Y010618D01*
X022011Y010567D01*
X021924Y010480D01*
X021339Y010480D01*
X021222Y010363D01*
X020881Y010022D01*
X020881Y011470D01*
X020799Y011552D01*
X020152Y011552D01*
X020070Y011470D01*
X020070Y009995D01*
X019960Y010105D01*
X019960Y010227D01*
X019909Y010352D01*
X019814Y010447D01*
X019690Y010498D01*
X019555Y010498D01*
X019431Y010447D01*
X019415Y010431D01*
X019415Y010790D01*
X019333Y010872D01*
X018272Y010872D01*
X018190Y010790D01*
X018190Y009730D01*
X018272Y009648D01*
X019333Y009648D01*
X019415Y009730D01*
X019415Y009889D01*
X019431Y009873D01*
X019555Y009822D01*
X019678Y009822D01*
X019814Y009685D01*
X019932Y009568D01*
X020070Y009568D01*
X020070Y009050D01*
X020152Y008968D01*
X020799Y008968D01*
X020881Y009050D01*
X020881Y009184D01*
X021594Y009184D01*
X021732Y009045D01*
X021732Y006490D01*
X020841Y006490D01*
X020075Y007256D01*
X020075Y008244D01*
X020094Y008263D01*
X020094Y008911D01*
X021732Y008911D01*
X021732Y009029D02*
X020860Y009029D01*
X020881Y009148D02*
X021630Y009148D01*
X021732Y008792D02*
X020094Y008792D01*
X020094Y008674D02*
X021732Y008674D01*
X021732Y008555D02*
X020094Y008555D01*
X020094Y008437D02*
X021732Y008437D01*
X021732Y008318D02*
X020094Y008318D01*
X020075Y008200D02*
X021732Y008200D01*
X021732Y008081D02*
X020075Y008081D01*
X020075Y007963D02*
X021732Y007963D01*
X021732Y007844D02*
X020075Y007844D01*
X020075Y007726D02*
X021732Y007726D01*
X021732Y007607D02*
X020075Y007607D01*
X020075Y007489D02*
X021732Y007489D01*
X021732Y007370D02*
X020075Y007370D01*
X020079Y007252D02*
X021732Y007252D01*
X021732Y007133D02*
X020198Y007133D01*
X020316Y007015D02*
X021732Y007015D01*
X021732Y006896D02*
X020435Y006896D01*
X020553Y006778D02*
X021732Y006778D01*
X021732Y006659D02*
X020672Y006659D01*
X020790Y006541D02*
X021732Y006541D01*
X022112Y006541D02*
X023542Y006541D01*
X023542Y006659D02*
X022112Y006659D01*
X022112Y006778D02*
X023542Y006778D01*
X023542Y006896D02*
X022112Y006896D01*
X022112Y007015D02*
X023542Y007015D01*
X023561Y007133D02*
X022112Y007133D01*
X022112Y007252D02*
X023622Y007252D01*
X023742Y007370D02*
X022112Y007370D01*
X022112Y007489D02*
X023742Y007489D01*
X023742Y007607D02*
X022112Y007607D01*
X022112Y007726D02*
X023742Y007726D01*
X023742Y007844D02*
X022112Y007844D01*
X022112Y007963D02*
X023742Y007963D01*
X023742Y008081D02*
X022112Y008081D01*
X022112Y008200D02*
X023742Y008200D01*
X023742Y008318D02*
X022112Y008318D01*
X022112Y008437D02*
X023742Y008437D01*
X023742Y008555D02*
X022112Y008555D01*
X022112Y008674D02*
X023742Y008674D01*
X023742Y008792D02*
X022112Y008792D01*
X022112Y008911D02*
X023742Y008911D01*
X023742Y009029D02*
X022112Y009029D01*
X022112Y009148D02*
X023742Y009148D01*
X023742Y009266D02*
X022049Y009266D01*
X021931Y009385D02*
X023742Y009385D01*
X023742Y009503D02*
X021812Y009503D01*
X021739Y009622D02*
X023742Y009622D01*
X023742Y009740D02*
X021760Y009740D01*
X021739Y009859D02*
X023742Y009859D01*
X023742Y009977D02*
X022354Y009977D01*
X022492Y010096D02*
X023742Y010096D01*
X023742Y010214D02*
X022540Y010214D01*
X022540Y010333D02*
X023742Y010333D01*
X023742Y010451D02*
X022497Y010451D01*
X022387Y010570D02*
X023742Y010570D01*
X023742Y010688D02*
X020881Y010688D01*
X020881Y010570D02*
X022018Y010570D01*
X022202Y010280D02*
X021422Y010280D01*
X020910Y009768D01*
X020476Y009768D01*
X020014Y009768D01*
X019622Y010160D01*
X019467Y009859D02*
X019415Y009859D01*
X019415Y009740D02*
X019759Y009740D01*
X019878Y009622D02*
X017535Y009622D01*
X017535Y009610D02*
X017535Y010015D01*
X017544Y010031D01*
X017555Y010072D01*
X017555Y010162D01*
X017555Y010252D01*
X017544Y010292D01*
X017535Y010308D01*
X017535Y011470D01*
X017453Y011552D01*
X016805Y011552D01*
X016723Y011470D01*
X016723Y011139D01*
X016334Y011139D01*
X016334Y011304D01*
X016252Y011386D01*
X015821Y011386D01*
X015739Y011304D01*
X015739Y010755D01*
X015710Y010755D01*
X015625Y010840D01*
X015625Y011304D01*
X015543Y011386D01*
X015112Y011386D01*
X015030Y011304D01*
X015030Y011210D01*
X014826Y011210D01*
X014809Y011252D01*
X014714Y011347D01*
X014590Y011398D01*
X014455Y011398D01*
X014331Y011347D01*
X014236Y011252D01*
X014184Y011127D01*
X014184Y010993D01*
X014236Y010868D01*
X014331Y010773D01*
X014455Y010722D01*
X014590Y010722D01*
X014714Y010773D01*
X014750Y010810D01*
X015030Y010810D01*
X015030Y010716D01*
X015112Y010634D01*
X015266Y010634D01*
X015279Y010620D01*
X015544Y010355D01*
X016723Y010355D01*
X016723Y010308D01*
X016714Y010292D01*
X016703Y010252D01*
X016703Y010162D01*
X016793Y010162D01*
X016793Y010162D01*
X016793Y010162D01*
X016703Y010162D01*
X016703Y010155D01*
X015303Y010155D01*
X015144Y009996D01*
X014821Y009996D01*
X014739Y009914D01*
X014739Y009605D01*
X014645Y009512D01*
X014645Y009601D01*
X014347Y009601D01*
X014347Y009639D01*
X014309Y009639D01*
X014309Y010016D01*
X014149Y010016D01*
X014109Y010005D01*
X014072Y009984D01*
X014042Y009954D01*
X014021Y009918D01*
X014010Y009877D01*
X014010Y009639D01*
X014309Y009639D01*
X014309Y009601D01*
X014347Y009601D01*
X014347Y009224D01*
X014358Y009224D01*
X014192Y009058D01*
X013966Y009058D01*
X013884Y008976D01*
X013884Y008464D01*
X013966Y008382D01*
X014478Y008382D01*
X014560Y008464D01*
X014560Y008508D01*
X014572Y008496D01*
X014609Y008475D01*
X014649Y008464D01*
X014809Y008464D01*
X014809Y008841D01*
X014847Y008841D01*
X014847Y008879D01*
X015145Y008879D01*
X015145Y009117D01*
X015135Y009158D01*
X015113Y009194D01*
X015084Y009224D01*
X015050Y009244D01*
X015252Y009244D01*
X015334Y009326D01*
X015334Y009649D01*
X015412Y009727D01*
X015412Y009236D01*
X015321Y009236D01*
X015239Y009154D01*
X015239Y008845D01*
X015145Y008752D01*
X015145Y008841D01*
X014847Y008841D01*
X014847Y008464D01*
X014858Y008464D01*
X014622Y008229D01*
X014622Y007978D01*
X014566Y007978D01*
X014484Y007896D01*
X014484Y007384D01*
X014566Y007302D01*
X015078Y007302D01*
X015160Y007384D01*
X015160Y007704D01*
X015309Y007704D01*
X015309Y008081D01*
X015347Y008081D01*
X015347Y008119D01*
X015645Y008119D01*
X015645Y008357D01*
X015635Y008398D01*
X015613Y008434D01*
X015584Y008464D01*
X015550Y008484D01*
X015752Y008484D01*
X015834Y008566D01*
X015834Y009154D01*
X015792Y009196D01*
X015792Y009578D01*
X015971Y009578D01*
X015892Y009499D01*
X015892Y008476D01*
X015821Y008476D01*
X015739Y008394D01*
X015739Y007806D01*
X015821Y007724D01*
X015982Y007724D01*
X015982Y007598D01*
X015926Y007598D01*
X015844Y007516D01*
X015844Y007004D01*
X015926Y006922D01*
X016195Y006922D01*
X014084Y004810D01*
X013161Y004810D01*
X012192Y005779D01*
X012192Y009019D01*
X012081Y009130D01*
X012081Y009130D01*
X011880Y009331D01*
X012053Y009331D01*
X012111Y009273D01*
X012235Y009222D01*
X012370Y009222D01*
X012494Y009273D01*
X012589Y009368D01*
X012640Y009493D01*
X012640Y009627D01*
X012589Y009752D01*
X012494Y009847D01*
X012370Y009898D01*
X012263Y009898D01*
X012265Y009900D01*
X012804Y009900D01*
X012891Y009813D01*
X013015Y009762D01*
X013150Y009762D01*
X013274Y009813D01*
X013369Y009908D01*
X013420Y010033D01*
X013420Y010167D01*
X013369Y010292D01*
X013274Y010387D01*
X013150Y010438D01*
X013015Y010438D01*
X012891Y010387D01*
X012804Y010300D01*
X012099Y010300D01*
X011982Y010183D01*
X011739Y009940D01*
X011661Y009940D01*
X011661Y011430D01*
X011579Y011512D01*
X010932Y011512D01*
X010850Y011430D01*
X010850Y009010D01*
X010932Y008928D01*
X011579Y008928D01*
X011661Y009010D01*
X011661Y009012D01*
X011812Y008861D01*
X011812Y005621D01*
X011910Y005524D01*
X011901Y005528D01*
X011743Y005528D01*
X011597Y005467D01*
X011485Y005355D01*
X011465Y005306D01*
X010512Y006259D01*
X010512Y006499D01*
X010264Y006747D01*
X010264Y008141D01*
X010792Y008141D01*
X010874Y008223D01*
X010874Y008871D01*
X010792Y008953D01*
X010311Y008953D01*
X010360Y009073D01*
X010360Y009207D01*
X010309Y009332D01*
X010214Y009427D01*
X010090Y009478D01*
X009967Y009478D01*
X009838Y009608D01*
X010113Y009608D01*
X010195Y009690D01*
X010195Y010750D01*
X010113Y010832D01*
X009052Y010832D01*
X008970Y010750D01*
X008970Y010055D01*
X008900Y010125D01*
X008335Y010125D01*
X008335Y010212D01*
X008324Y010252D01*
X008315Y010268D01*
X008315Y011430D01*
X008233Y011512D01*
X007585Y011512D01*
X007503Y011430D01*
X007503Y011099D01*
X007084Y011099D01*
X007084Y011304D01*
X007002Y011386D01*
X006571Y011386D01*
X006489Y011304D01*
X006489Y010882D01*
X006375Y010995D01*
X006375Y011304D01*
X006293Y011386D01*
X005862Y011386D01*
X005780Y011304D01*
X005780Y010960D01*
X005460Y010960D01*
X005374Y011047D01*
X005250Y011098D01*
X005115Y011098D01*
X004991Y011047D01*
X004896Y010952D01*
X004844Y010827D01*
X004844Y010693D01*
X004896Y010568D01*
X004991Y010473D01*
X005115Y010422D01*
X005250Y010422D01*
X005374Y010473D01*
X005460Y010560D01*
X006099Y010560D01*
X006344Y010315D01*
X007503Y010315D01*
X007503Y010268D01*
X007494Y010252D01*
X007483Y010212D01*
X007483Y010122D01*
X007573Y010122D01*
X007573Y010122D01*
X007573Y010122D01*
X007483Y010122D01*
X007483Y010115D01*
X006274Y010115D01*
X006252Y010136D01*
X005821Y010136D01*
X005739Y010054D01*
X005739Y009466D01*
X005821Y009384D01*
X006252Y009384D01*
X006334Y009466D01*
X006334Y009735D01*
X006525Y009735D01*
X006458Y009668D01*
X006347Y009557D01*
X006347Y009136D01*
X006321Y009136D01*
X006239Y009054D01*
X006239Y008466D01*
X006321Y008384D01*
X006752Y008384D01*
X006834Y008466D01*
X006834Y009054D01*
X006752Y009136D01*
X006727Y009136D01*
X006727Y009399D01*
X006865Y009538D01*
X007025Y009538D01*
X006958Y009471D01*
X006847Y009360D01*
X006847Y008136D01*
X006821Y008136D01*
X006739Y008054D01*
X006739Y007466D01*
X006821Y007384D01*
X007252Y007384D01*
X007334Y007466D01*
X007334Y008054D01*
X007252Y008136D01*
X007227Y008136D01*
X007227Y009202D01*
X007365Y009341D01*
X007503Y009341D01*
X007503Y009010D01*
X007585Y008928D01*
X008233Y008928D01*
X008315Y009010D01*
X008315Y009047D01*
X008356Y008948D01*
X008362Y008942D01*
X008291Y008871D01*
X008291Y008223D01*
X008310Y008204D01*
X008310Y007792D01*
X006031Y005513D01*
X005996Y005528D01*
X005837Y005528D01*
X005691Y005467D01*
X005580Y005355D01*
X005519Y005209D01*
X005519Y005051D01*
X005580Y004905D01*
X005691Y004793D01*
X005837Y004733D01*
X005996Y004733D01*
X006142Y004793D01*
X006254Y004905D01*
X006292Y004999D01*
X006292Y004790D01*
X006031Y004529D01*
X005996Y004543D01*
X005837Y004543D01*
X005691Y004483D01*
X005580Y004371D01*
X005519Y004225D01*
X005519Y004067D01*
X005580Y003921D01*
X005691Y003809D01*
X005837Y003748D01*
X005996Y003748D01*
X006142Y003809D01*
X006254Y003921D01*
X006314Y004067D01*
X006314Y004225D01*
X006299Y004260D01*
X006561Y004522D01*
X006672Y004633D01*
X006672Y004796D01*
X006676Y004793D01*
X006822Y004733D01*
X006980Y004733D01*
X007126Y004793D01*
X007238Y004905D01*
X007252Y004940D01*
X007252Y004766D01*
X007015Y004529D01*
X006980Y004543D01*
X006822Y004543D01*
X006676Y004483D01*
X006564Y004371D01*
X006503Y004225D01*
X006503Y004067D01*
X006564Y003921D01*
X006676Y003809D01*
X006822Y003748D01*
X006980Y003748D01*
X007126Y003809D01*
X007238Y003921D01*
X007298Y004067D01*
X007298Y004225D01*
X007284Y004260D01*
X007521Y004497D01*
X007632Y004609D01*
X007632Y005261D01*
X007732Y005361D01*
X007732Y004513D01*
X007660Y004483D01*
X007548Y004371D01*
X007488Y004225D01*
X007488Y004067D01*
X007548Y003921D01*
X007660Y003809D01*
X007806Y003748D01*
X007964Y003748D01*
X008110Y003809D01*
X008222Y003921D01*
X008283Y004067D01*
X008283Y004225D01*
X008222Y004371D01*
X008112Y004481D01*
X008112Y005501D01*
X008812Y006201D01*
X008812Y004543D01*
X008790Y004543D01*
X008644Y004483D01*
X008532Y004371D01*
X008472Y004225D01*
X008472Y004067D01*
X008532Y003921D01*
X008644Y003809D01*
X008790Y003748D01*
X008948Y003748D01*
X009094Y003809D01*
X009206Y003921D01*
X009267Y004067D01*
X009267Y004225D01*
X009206Y004371D01*
X009192Y004385D01*
X009192Y006101D01*
X009542Y006451D01*
X009602Y006392D01*
X009652Y006341D01*
X009652Y004493D01*
X009628Y004483D01*
X009517Y004371D01*
X009456Y004225D01*
X009456Y004067D01*
X009517Y003921D01*
X009628Y003809D01*
X009774Y003748D01*
X009933Y003748D01*
X010079Y003809D01*
X010191Y003921D01*
X010251Y004067D01*
X010251Y004225D01*
X010191Y004371D01*
X010079Y004483D01*
X010032Y004502D01*
X010032Y005667D01*
X010455Y005244D01*
X010440Y005209D01*
X010440Y005051D01*
X010501Y004905D01*
X010613Y004793D01*
X010759Y004733D01*
X010917Y004733D01*
X011063Y004793D01*
X011175Y004905D01*
X011212Y004996D01*
X011212Y004789D01*
X010952Y004529D01*
X010917Y004543D01*
X010759Y004543D01*
X010613Y004483D01*
X010501Y004371D01*
X010440Y004225D01*
X010440Y004067D01*
X010501Y003921D01*
X010613Y003809D01*
X010759Y003748D01*
X010917Y003748D01*
X011063Y003809D01*
X011175Y003921D01*
X011235Y004067D01*
X011235Y004225D01*
X011221Y004260D01*
X011481Y004520D01*
X011592Y004632D01*
X011592Y004798D01*
X011597Y004793D01*
X011743Y004733D01*
X011901Y004733D01*
X012047Y004793D01*
X012159Y004905D01*
X012220Y005051D01*
X012220Y005209D01*
X012216Y005218D01*
X012892Y004541D01*
X012894Y004540D01*
X012885Y004543D01*
X012727Y004543D01*
X012581Y004483D01*
X012469Y004371D01*
X012409Y004225D01*
X012409Y004067D01*
X012469Y003921D01*
X012581Y003809D01*
X012727Y003748D01*
X012885Y003748D01*
X013031Y003809D01*
X013143Y003921D01*
X013204Y004067D01*
X013204Y004225D01*
X013143Y004371D01*
X013084Y004430D01*
X014241Y004430D01*
X014796Y004985D01*
X014830Y004905D01*
X014941Y004793D01*
X015087Y004733D01*
X015246Y004733D01*
X015392Y004793D01*
X015504Y004905D01*
X015532Y004974D01*
X015532Y004780D01*
X015281Y004529D01*
X015246Y004543D01*
X015087Y004543D01*
X014941Y004483D01*
X014830Y004371D01*
X014769Y004225D01*
X014769Y004067D01*
X014830Y003921D01*
X014941Y003809D01*
X015087Y003748D01*
X015246Y003748D01*
X015392Y003809D01*
X015504Y003921D01*
X015564Y004067D01*
X015564Y004225D01*
X015549Y004260D01*
X015801Y004512D01*
X015912Y004623D01*
X015912Y004806D01*
X015926Y004793D01*
X016072Y004733D01*
X016230Y004733D01*
X016376Y004793D01*
X016488Y004905D01*
X016548Y005051D01*
X016548Y005209D01*
X016534Y005244D01*
X016612Y005323D01*
X016612Y004876D01*
X016265Y004529D01*
X016230Y004543D01*
X016072Y004543D01*
X015926Y004483D01*
X015814Y004371D01*
X015753Y004225D01*
X015753Y004067D01*
X015814Y003921D01*
X015926Y003809D01*
X016072Y003748D01*
X016230Y003748D01*
X016376Y003809D01*
X016488Y003921D01*
X016548Y004067D01*
X016548Y004225D01*
X016534Y004260D01*
X016881Y004607D01*
X016972Y004699D01*
X016972Y004509D01*
X016910Y004483D01*
X016798Y004371D01*
X016738Y004225D01*
X016738Y004067D01*
X016798Y003921D01*
X016910Y003809D01*
X017056Y003748D01*
X017214Y003748D01*
X017360Y003809D01*
X017472Y003921D01*
X017533Y004067D01*
X017533Y004225D01*
X017472Y004371D01*
X017360Y004483D01*
X017352Y004486D01*
X017352Y005381D01*
X017932Y005961D01*
X017932Y004499D01*
X017894Y004483D01*
X017782Y004371D01*
X017722Y004225D01*
X017722Y004067D01*
X017782Y003921D01*
X017894Y003809D01*
X018040Y003748D01*
X018198Y003748D01*
X018344Y003809D01*
X018456Y003921D01*
X018517Y004067D01*
X018517Y004225D01*
X018456Y004371D01*
X018344Y004483D01*
X018312Y004496D01*
X018312Y006101D01*
X018782Y006571D01*
X018822Y006532D01*
X018892Y006461D01*
X018892Y004489D01*
X018878Y004483D01*
X018767Y004371D01*
X018706Y004225D01*
X018706Y004067D01*
X018767Y003921D01*
X018878Y003809D01*
X019024Y003748D01*
X019183Y003748D01*
X019329Y003809D01*
X019441Y003921D01*
X019501Y004067D01*
X019501Y004225D01*
X019441Y004371D01*
X019329Y004483D01*
X019272Y004506D01*
X019272Y005677D01*
X019705Y005244D01*
X019690Y005209D01*
X019690Y005051D01*
X019751Y004905D01*
X019863Y004793D01*
X020009Y004733D01*
X020167Y004733D01*
X020313Y004793D01*
X020425Y004905D01*
X020452Y004971D01*
X020452Y004779D01*
X020202Y004529D01*
X020167Y004543D01*
X020009Y004543D01*
X019863Y004483D01*
X019751Y004371D01*
X019690Y004225D01*
X019690Y004067D01*
X019751Y003921D01*
X019863Y003809D01*
X020009Y003748D01*
X020167Y003748D01*
X020313Y003809D01*
X020425Y003921D01*
X020485Y004067D01*
X020485Y004225D01*
X020471Y004260D01*
X020721Y004510D01*
X020832Y004622D01*
X020832Y004808D01*
X020847Y004793D01*
X020993Y004733D01*
X021151Y004733D01*
X021297Y004793D01*
X021409Y004905D01*
X021470Y005051D01*
X021470Y005209D01*
X021409Y005355D01*
X021297Y005467D01*
X021151Y005528D01*
X020993Y005528D01*
X020847Y005467D01*
X020735Y005355D01*
X020712Y005299D01*
X019752Y006259D01*
X019752Y006441D01*
X020452Y005741D01*
X020564Y005630D01*
X021732Y005630D01*
X021732Y005620D01*
X021652Y005540D01*
X021604Y005423D01*
X021604Y005297D01*
X021652Y005180D01*
X021742Y005090D01*
X021859Y005042D01*
X021986Y005042D01*
X022103Y005090D01*
X022192Y005180D01*
X022241Y005297D01*
X022241Y005423D01*
X022192Y005540D01*
X022112Y005620D01*
X022112Y005630D01*
X025261Y005630D01*
X025511Y005880D01*
X025622Y005991D01*
X025622Y006167D01*
X025653Y006179D01*
X025763Y006289D01*
X025822Y006432D01*
X025822Y007088D01*
X025763Y007231D01*
X025653Y007341D01*
X025622Y007353D01*
X025622Y008622D01*
X026030Y008622D01*
X026030Y008603D01*
X026037Y008578D01*
X026026Y008578D01*
X025944Y008496D01*
X025944Y007984D01*
X026026Y007902D01*
X026410Y007902D01*
X026410Y007843D01*
X026421Y007802D01*
X026442Y007766D01*
X026472Y007736D01*
X026509Y007715D01*
X026549Y007704D01*
X026709Y007704D01*
X026709Y008081D01*
X026747Y008081D01*
X026747Y008119D01*
X027045Y008119D01*
X027045Y008357D01*
X027035Y008398D01*
X027013Y008434D01*
X026984Y008464D01*
X026975Y008469D01*
X026989Y008484D01*
X027237Y008484D01*
X027237Y008476D01*
X027221Y008476D01*
X027139Y008394D01*
X027139Y007806D01*
X027221Y007724D01*
X027237Y007724D01*
X027237Y007598D01*
X026926Y007598D01*
X026844Y007516D01*
X026844Y007004D01*
X026926Y006922D01*
X027438Y006922D01*
X027520Y007004D01*
X027520Y007315D01*
X027637Y007431D01*
X027637Y007724D01*
X027652Y007724D01*
X027734Y007806D01*
X027734Y008394D01*
X027652Y008476D01*
X027637Y008476D01*
X027637Y008989D01*
X027909Y009261D01*
X028443Y009261D01*
X028443Y008930D01*
X028525Y008848D01*
X029092Y008848D01*
X029092Y008089D01*
X028903Y007899D01*
X026354Y005675D01*
X026346Y005678D01*
X026219Y005678D01*
X026102Y005630D01*
X026012Y005540D01*
X025964Y005423D01*
X025964Y005297D01*
X026012Y005180D01*
X026102Y005090D01*
X026219Y005042D01*
X026346Y005042D01*
X026463Y005090D01*
X026552Y005180D01*
X026601Y005297D01*
X026601Y005386D01*
X029104Y007570D01*
X029111Y007570D01*
X029162Y007621D01*
X029217Y007669D01*
X029217Y007676D01*
X029250Y007709D01*
X029250Y007632D01*
X027131Y005513D01*
X027096Y005528D01*
X026937Y005528D01*
X026791Y005467D01*
X026680Y005355D01*
X026619Y005209D01*
X026619Y005051D01*
X026680Y004905D01*
X026791Y004793D01*
X026937Y004733D01*
X027096Y004733D01*
X027242Y004793D01*
X027354Y004905D01*
X027372Y004950D01*
X027372Y004770D01*
X027131Y004529D01*
X027096Y004543D01*
X026937Y004543D01*
X026791Y004483D01*
X026680Y004371D01*
X026619Y004225D01*
X026619Y004067D01*
X026680Y003921D01*
X026791Y003809D01*
X026937Y003748D01*
X027096Y003748D01*
X027242Y003809D01*
X027354Y003921D01*
X027414Y004067D01*
X027414Y004225D01*
X027399Y004260D01*
X027641Y004502D01*
X027752Y004613D01*
X027752Y004816D01*
X027776Y004793D01*
X027922Y004733D01*
X028080Y004733D01*
X028226Y004793D01*
X028338Y004905D01*
X028398Y005051D01*
X028398Y005209D01*
X028384Y005244D01*
X028452Y005313D01*
X028452Y004866D01*
X028115Y004529D01*
X028080Y004543D01*
X027922Y004543D01*
X027776Y004483D01*
X027664Y004371D01*
X027603Y004225D01*
X027603Y004067D01*
X027664Y003921D01*
X027776Y003809D01*
X027922Y003748D01*
X028080Y003748D01*
X028226Y003809D01*
X028338Y003921D01*
X028398Y004067D01*
X028398Y004225D01*
X028384Y004260D01*
X028721Y004597D01*
X028812Y004689D01*
X028812Y004504D01*
X028760Y004483D01*
X028648Y004371D01*
X028588Y004225D01*
X028588Y004067D01*
X028648Y003921D01*
X028760Y003809D01*
X028906Y003748D01*
X029064Y003748D01*
X029210Y003809D01*
X029322Y003921D01*
X029383Y004067D01*
X029383Y004225D01*
X029322Y004371D01*
X029210Y004483D01*
X029192Y004490D01*
X029192Y005261D01*
X029892Y005961D01*
X029892Y004543D01*
X029890Y004543D01*
X029744Y004483D01*
X029632Y004371D01*
X029572Y004225D01*
X029572Y004067D01*
X029632Y003921D01*
X029744Y003809D01*
X029890Y003748D01*
X030048Y003748D01*
X030194Y003809D01*
X030306Y003921D01*
X030367Y004067D01*
X030367Y004225D01*
X030306Y004371D01*
X030272Y004405D01*
X030272Y006101D01*
X030502Y006331D01*
X030542Y006292D01*
X030732Y006101D01*
X030732Y004484D01*
X030728Y004483D01*
X030617Y004371D01*
X030556Y004225D01*
X030556Y004067D01*
X030617Y003921D01*
X030728Y003809D01*
X030874Y003748D01*
X031033Y003748D01*
X031179Y003809D01*
X031291Y003921D01*
X031351Y004067D01*
X031351Y004225D01*
X031291Y004371D01*
X031179Y004483D01*
X031112Y004510D01*
X031112Y005687D01*
X031555Y005244D01*
X031540Y005209D01*
X031540Y005051D01*
X031601Y004905D01*
X031713Y004793D01*
X031859Y004733D01*
X032017Y004733D01*
X032163Y004793D01*
X032275Y004905D01*
X032292Y004947D01*
X032292Y004769D01*
X032052Y004529D01*
X032017Y004543D01*
X031859Y004543D01*
X031713Y004483D01*
X031601Y004371D01*
X031540Y004225D01*
X031540Y004067D01*
X031601Y003921D01*
X031713Y003809D01*
X031859Y003748D01*
X032017Y003748D01*
X032163Y003809D01*
X032275Y003921D01*
X032335Y004067D01*
X032335Y004225D01*
X032321Y004260D01*
X032561Y004500D01*
X032672Y004612D01*
X032672Y004818D01*
X032697Y004793D01*
X032843Y004733D01*
X033001Y004733D01*
X033147Y004793D01*
X033259Y004905D01*
X033320Y005051D01*
X033320Y005209D01*
X033259Y005355D01*
X033147Y005467D01*
X033001Y005528D01*
X032843Y005528D01*
X032697Y005467D01*
X032600Y005371D01*
X031204Y006767D01*
X031204Y008061D01*
X031732Y008061D01*
X031814Y008143D01*
X031814Y008791D01*
X031732Y008873D01*
X030573Y008873D01*
X030589Y008888D01*
X030640Y009013D01*
X030640Y009147D01*
X030589Y009272D01*
X030494Y009367D01*
X030370Y009418D01*
X030247Y009418D01*
X030138Y009528D01*
X031053Y009528D01*
X031112Y009587D01*
X031104Y009567D01*
X031104Y009433D01*
X031156Y009308D01*
X031251Y009213D01*
X031375Y009162D01*
X031510Y009162D01*
X031634Y009213D01*
X031729Y009308D01*
X031780Y009433D01*
X031780Y009448D01*
X031790Y009448D01*
X031790Y008930D01*
X031872Y008848D01*
X032519Y008848D01*
X032601Y008930D01*
X032601Y009064D01*
X032755Y009064D01*
X032761Y009070D01*
X032854Y009070D01*
X032992Y008931D01*
X032992Y006181D01*
X033992Y005181D01*
X034104Y005070D01*
X035869Y005070D01*
X035869Y005051D01*
X035930Y004905D01*
X036041Y004793D01*
X036187Y004733D01*
X036346Y004733D01*
X036492Y004793D01*
X036592Y004894D01*
X036592Y004740D01*
X036381Y004529D01*
X036346Y004543D01*
X036187Y004543D01*
X036041Y004483D01*
X035930Y004371D01*
X035869Y004225D01*
X035869Y004067D01*
X035930Y003921D01*
X036041Y003809D01*
X036187Y003748D01*
X036346Y003748D01*
X036492Y003809D01*
X036604Y003921D01*
X036664Y004067D01*
X036664Y004225D01*
X036649Y004260D01*
X036972Y004583D01*
X036972Y004846D01*
X037026Y004793D01*
X037172Y004733D01*
X037330Y004733D01*
X037476Y004793D01*
X037588Y004905D01*
X037592Y004916D01*
X037592Y004756D01*
X037365Y004529D01*
X037330Y004543D01*
X037172Y004543D01*
X037026Y004483D01*
X036914Y004371D01*
X036853Y004225D01*
X036853Y004067D01*
X036914Y003921D01*
X037026Y003809D01*
X037172Y003748D01*
X037330Y003748D01*
X037476Y003809D01*
X037588Y003921D01*
X037648Y004067D01*
X037648Y004225D01*
X037634Y004260D01*
X037972Y004599D01*
X037972Y005181D01*
X038092Y005301D01*
X038092Y004517D01*
X038010Y004483D01*
X037898Y004371D01*
X037838Y004225D01*
X037838Y004067D01*
X037898Y003921D01*
X038010Y003809D01*
X038156Y003748D01*
X038314Y003748D01*
X038460Y003809D01*
X038572Y003921D01*
X038633Y004067D01*
X038633Y004225D01*
X038572Y004371D01*
X038472Y004471D01*
X038472Y005181D01*
X039092Y005801D01*
X039092Y004523D01*
X038994Y004483D01*
X038882Y004371D01*
X038822Y004225D01*
X038822Y004067D01*
X038882Y003921D01*
X038994Y003809D01*
X039140Y003748D01*
X039298Y003748D01*
X039444Y003809D01*
X039556Y003921D01*
X039617Y004067D01*
X039617Y004225D01*
X039556Y004371D01*
X039472Y004455D01*
X039472Y005681D01*
X039782Y005991D01*
X040092Y005681D01*
X040092Y004530D01*
X039978Y004483D01*
X039867Y004371D01*
X039806Y004225D01*
X039806Y004067D01*
X039867Y003921D01*
X039978Y003809D01*
X040124Y003748D01*
X040283Y003748D01*
X040429Y003809D01*
X040541Y003921D01*
X040601Y004067D01*
X040601Y004225D01*
X040541Y004371D01*
X040472Y004439D01*
X040472Y005577D01*
X040805Y005244D01*
X040790Y005209D01*
X040790Y005051D01*
X040851Y004905D01*
X040963Y004793D01*
X041109Y004733D01*
X041267Y004733D01*
X041413Y004793D01*
X041525Y004905D01*
X041532Y004923D01*
X041532Y004759D01*
X041302Y004529D01*
X041267Y004543D01*
X041109Y004543D01*
X040963Y004483D01*
X040851Y004371D01*
X040790Y004225D01*
X040790Y004067D01*
X040851Y003921D01*
X040963Y003809D01*
X041109Y003748D01*
X041267Y003748D01*
X041413Y003809D01*
X041525Y003921D01*
X041585Y004067D01*
X041585Y004225D01*
X041571Y004260D01*
X041912Y004602D01*
X041912Y004828D01*
X041947Y004793D01*
X042093Y004733D01*
X042251Y004733D01*
X042325Y004763D02*
X044682Y004763D01*
X044682Y004645D02*
X041912Y004645D01*
X041912Y004763D02*
X042020Y004763D01*
X042051Y004526D02*
X041837Y004526D01*
X041872Y004408D02*
X041718Y004408D01*
X041801Y004289D02*
X041600Y004289D01*
X041585Y004171D02*
X041775Y004171D01*
X041781Y004052D02*
X041579Y004052D01*
X041530Y003934D02*
X041830Y003934D01*
X041941Y003815D02*
X041419Y003815D01*
X040956Y003815D02*
X040435Y003815D01*
X040546Y003934D02*
X040846Y003934D01*
X040796Y004052D02*
X040595Y004052D01*
X040601Y004171D02*
X040790Y004171D01*
X040817Y004289D02*
X040574Y004289D01*
X040504Y004408D02*
X040887Y004408D01*
X041067Y004526D02*
X040472Y004526D01*
X040472Y004645D02*
X041418Y004645D01*
X041340Y004763D02*
X041532Y004763D01*
X041532Y004882D02*
X041501Y004882D01*
X041035Y004763D02*
X040472Y004763D01*
X040472Y004882D02*
X040874Y004882D01*
X040811Y005000D02*
X040472Y005000D01*
X040472Y005119D02*
X040790Y005119D01*
X040802Y005237D02*
X040472Y005237D01*
X040472Y005356D02*
X040694Y005356D01*
X040575Y005474D02*
X040472Y005474D01*
X040092Y005474D02*
X039472Y005474D01*
X039472Y005356D02*
X040092Y005356D01*
X040092Y005237D02*
X039472Y005237D01*
X039472Y005119D02*
X040092Y005119D01*
X040092Y005000D02*
X039472Y005000D01*
X039472Y004882D02*
X040092Y004882D01*
X040092Y004763D02*
X039472Y004763D01*
X039472Y004645D02*
X040092Y004645D01*
X040083Y004526D02*
X039472Y004526D01*
X039520Y004408D02*
X039903Y004408D01*
X039833Y004289D02*
X039590Y004289D01*
X039617Y004171D02*
X039806Y004171D01*
X039812Y004052D02*
X039611Y004052D01*
X039562Y003934D02*
X039861Y003934D01*
X039972Y003815D02*
X039451Y003815D01*
X038988Y003815D02*
X038466Y003815D01*
X038577Y003934D02*
X038877Y003934D01*
X038828Y004052D02*
X038626Y004052D01*
X038633Y004171D02*
X038822Y004171D01*
X038848Y004289D02*
X038606Y004289D01*
X038535Y004408D02*
X038919Y004408D01*
X039092Y004526D02*
X038472Y004526D01*
X038472Y004645D02*
X039092Y004645D01*
X039092Y004763D02*
X038472Y004763D01*
X038472Y004882D02*
X039092Y004882D01*
X039092Y005000D02*
X038472Y005000D01*
X038472Y005119D02*
X039092Y005119D01*
X039092Y005237D02*
X038528Y005237D01*
X038646Y005356D02*
X039092Y005356D01*
X039092Y005474D02*
X038765Y005474D01*
X038883Y005593D02*
X039092Y005593D01*
X039092Y005711D02*
X039002Y005711D01*
X039472Y005593D02*
X040092Y005593D01*
X040063Y005711D02*
X039502Y005711D01*
X039620Y005830D02*
X039944Y005830D01*
X039826Y005948D02*
X039739Y005948D01*
X040790Y006541D02*
X044682Y006541D01*
X044682Y006659D02*
X040672Y006659D01*
X040553Y006778D02*
X044682Y006778D01*
X044682Y006896D02*
X040464Y006896D01*
X040464Y007015D02*
X044682Y007015D01*
X044682Y007133D02*
X040464Y007133D01*
X040464Y007252D02*
X044682Y007252D01*
X044682Y007370D02*
X040464Y007370D01*
X040464Y007489D02*
X044682Y007489D01*
X044682Y007607D02*
X040464Y007607D01*
X040464Y007726D02*
X044682Y007726D01*
X044682Y007844D02*
X040464Y007844D01*
X040464Y007963D02*
X044682Y007963D01*
X044682Y008081D02*
X041012Y008081D01*
X041074Y008200D02*
X044682Y008200D01*
X044682Y008318D02*
X041074Y008318D01*
X041074Y008437D02*
X044682Y008437D01*
X044682Y008555D02*
X041074Y008555D01*
X041074Y008674D02*
X044682Y008674D01*
X044682Y008792D02*
X041072Y008792D01*
X041070Y008911D02*
X040263Y008911D01*
X040280Y009029D02*
X041050Y009029D01*
X041050Y009148D02*
X040353Y009148D01*
X040373Y009451D02*
X039942Y009020D01*
X039629Y009148D02*
X039428Y009148D01*
X039604Y009029D02*
X038712Y009029D01*
X038712Y008911D02*
X039622Y008911D01*
X038937Y009148D02*
X038712Y009148D01*
X038717Y009266D02*
X038864Y009266D01*
X038844Y009385D02*
X038706Y009385D01*
X038867Y009503D02*
X038515Y009503D01*
X038515Y009622D02*
X038946Y009622D01*
X039170Y009740D02*
X038515Y009740D01*
X038515Y009859D02*
X039170Y009859D01*
X039170Y009977D02*
X038535Y009977D01*
X038535Y010042D02*
X038445Y010042D01*
X038535Y010042D01*
X038535Y010096D02*
X039170Y010096D01*
X039170Y010214D02*
X038515Y010214D01*
X038515Y010333D02*
X039170Y010333D01*
X039170Y010451D02*
X038515Y010451D01*
X038515Y010570D02*
X039170Y010570D01*
X039187Y010688D02*
X038515Y010688D01*
X038515Y010807D02*
X041050Y010807D01*
X041050Y010925D02*
X038515Y010925D01*
X038515Y011044D02*
X041050Y011044D01*
X041050Y011162D02*
X038515Y011162D01*
X038515Y011281D02*
X041050Y011281D01*
X041099Y011399D02*
X038465Y011399D01*
X038491Y011489D02*
X038573Y011407D01*
X040992Y011407D01*
X041074Y011489D01*
X041074Y012137D01*
X041055Y012156D01*
X041055Y013014D01*
X042810Y014769D01*
X042819Y014747D01*
X042931Y014636D01*
X043077Y014575D01*
X043235Y014575D01*
X043381Y014636D01*
X043493Y014747D01*
X043554Y014894D01*
X043554Y015052D01*
X043493Y015198D01*
X043381Y015310D01*
X043235Y015370D01*
X043077Y015370D01*
X042972Y015327D01*
X042972Y015504D01*
X043042Y015574D01*
X043077Y015559D01*
X043235Y015559D01*
X043381Y015620D01*
X043493Y015732D01*
X043554Y015878D01*
X043554Y016036D01*
X043493Y016182D01*
X043381Y016294D01*
X043235Y016354D01*
X043077Y016354D01*
X042931Y016294D01*
X042819Y016182D01*
X042759Y016036D01*
X042759Y015878D01*
X042773Y015843D01*
X042592Y015662D01*
X042592Y015089D01*
X042565Y015062D01*
X042509Y015198D01*
X042397Y015310D01*
X042251Y015370D01*
X042093Y015370D01*
X042058Y015356D01*
X041963Y015450D01*
X041741Y015450D01*
X041929Y015638D01*
X041947Y015620D01*
X042093Y015559D01*
X042251Y015559D01*
X042397Y015620D01*
X042509Y015732D01*
X042570Y015878D01*
X042570Y016036D01*
X042509Y016182D01*
X042397Y016294D01*
X042251Y016354D01*
X042093Y016354D01*
X041947Y016294D01*
X041835Y016182D01*
X041775Y016036D01*
X041775Y016021D01*
X041553Y015799D01*
X041585Y015878D01*
X041585Y016036D01*
X041525Y016182D01*
X041413Y016294D01*
X041267Y016354D01*
X041109Y016354D01*
X040963Y016294D01*
X040851Y016182D01*
X040790Y016036D01*
X040790Y015878D01*
X040805Y015843D01*
X040268Y015305D01*
X040268Y015559D01*
X040283Y015559D01*
X040429Y015620D01*
X040541Y015732D01*
X040601Y015878D01*
X040601Y016036D01*
X040541Y016182D01*
X040429Y016294D01*
X040283Y016354D01*
X040124Y016354D01*
X039978Y016294D01*
X039867Y016182D01*
X039806Y016036D01*
X039806Y015878D01*
X039867Y015732D01*
X039888Y015711D01*
X039888Y015557D01*
X039602Y015843D01*
X039617Y015878D01*
X039617Y016036D01*
X039556Y016182D01*
X039444Y016294D01*
X039298Y016354D01*
X039140Y016354D01*
X038994Y016294D01*
X038882Y016182D01*
X038822Y016036D01*
X038822Y015878D01*
X038882Y015732D01*
X038994Y015620D01*
X039140Y015559D01*
X039298Y015559D01*
X039334Y015574D01*
X039691Y015217D01*
X039691Y014770D01*
X038618Y015843D01*
X038633Y015878D01*
X038633Y016036D01*
X038572Y016182D01*
X038460Y016294D01*
X038314Y016354D01*
X038156Y016354D01*
X038010Y016294D01*
X037898Y016182D01*
X037838Y016036D01*
X037838Y015878D01*
X037898Y015732D01*
X038010Y015620D01*
X038156Y015559D01*
X038314Y015559D01*
X038349Y015574D01*
X038473Y015450D01*
X038454Y015450D01*
X038356Y015353D01*
X038314Y015370D01*
X038156Y015370D01*
X038010Y015310D01*
X037972Y015272D01*
X037972Y015339D01*
X037584Y015727D01*
X037588Y015732D01*
X037648Y015878D01*
X037648Y016036D01*
X037588Y016182D01*
X037476Y016294D01*
X037330Y016354D01*
X037172Y016354D01*
X037026Y016294D01*
X036914Y016182D01*
X036853Y016036D01*
X036853Y015878D01*
X036914Y015732D01*
X037026Y015620D01*
X037172Y015559D01*
X037214Y015559D01*
X037456Y015318D01*
X037330Y015370D01*
X037172Y015370D01*
X037026Y015310D01*
X036914Y015198D01*
X036853Y015052D01*
X036853Y014894D01*
X036914Y014747D01*
X037026Y014636D01*
X037172Y014575D01*
X037330Y014575D01*
X037365Y014590D01*
X038903Y013051D01*
X038903Y012605D01*
X036649Y014858D01*
X036664Y014894D01*
X036664Y015052D01*
X036604Y015198D01*
X036492Y015310D01*
X036346Y015370D01*
X036187Y015370D01*
X036041Y015310D01*
X035972Y015240D01*
X035972Y015394D01*
X036152Y015574D01*
X036187Y015559D01*
X036346Y015559D01*
X036492Y015620D01*
X036604Y015732D01*
X036664Y015878D01*
X036664Y016036D01*
X036604Y016182D01*
X036492Y016294D01*
X036346Y016354D01*
X036187Y016354D01*
X036041Y016294D01*
X035930Y016182D01*
X035869Y016036D01*
X035869Y015878D01*
X035884Y015843D01*
X035592Y015551D01*
X035592Y014681D01*
X035704Y014570D01*
X038465Y011808D01*
X038491Y011775D01*
X038491Y011489D01*
X038491Y011518D02*
X031814Y011518D01*
X031814Y011636D02*
X038491Y011636D01*
X038491Y011755D02*
X031814Y011755D01*
X031814Y011873D02*
X038401Y011873D01*
X038282Y011992D02*
X031814Y011992D01*
X031814Y012110D02*
X038164Y012110D01*
X038045Y012229D02*
X031795Y012229D01*
X031795Y012347D02*
X037927Y012347D01*
X037808Y012466D02*
X031795Y012466D01*
X031795Y012584D02*
X037690Y012584D01*
X037571Y012703D02*
X031795Y012703D01*
X031795Y012821D02*
X037453Y012821D01*
X037334Y012940D02*
X031795Y012940D01*
X031829Y013058D02*
X037216Y013058D01*
X037097Y013177D02*
X031948Y013177D01*
X032066Y013295D02*
X036979Y013295D01*
X036860Y013414D02*
X032185Y013414D01*
X032303Y013532D02*
X036742Y013532D01*
X036623Y013651D02*
X032422Y013651D01*
X032540Y013769D02*
X036505Y013769D01*
X036386Y013888D02*
X032659Y013888D01*
X032777Y014006D02*
X036268Y014006D01*
X036149Y014125D02*
X032896Y014125D01*
X033014Y014243D02*
X036031Y014243D01*
X035912Y014362D02*
X033133Y014362D01*
X033251Y014480D02*
X035794Y014480D01*
X035675Y014599D02*
X034042Y014599D01*
X034213Y014717D02*
X035592Y014717D01*
X035592Y014836D02*
X034280Y014836D01*
X034304Y014954D02*
X035592Y014954D01*
X035592Y015073D02*
X034295Y015073D01*
X034246Y015191D02*
X035592Y015191D01*
X035592Y015310D02*
X034131Y015310D01*
X033838Y015547D02*
X035592Y015547D01*
X035592Y015428D02*
X033719Y015428D01*
X033681Y015310D02*
X033632Y015310D01*
X033252Y015310D02*
X033147Y015310D01*
X033252Y015428D02*
X032743Y015428D01*
X032780Y015547D02*
X033300Y015547D01*
X033192Y015665D02*
X033419Y015665D01*
X033537Y015784D02*
X033280Y015784D01*
X033320Y015902D02*
X033509Y015902D01*
X033509Y016021D02*
X033320Y016021D01*
X033277Y016139D02*
X033552Y016139D01*
X033645Y016258D02*
X033183Y016258D01*
X032661Y016258D02*
X032199Y016258D01*
X032293Y016139D02*
X032567Y016139D01*
X032525Y016021D02*
X032335Y016021D01*
X032335Y015902D02*
X032525Y015902D01*
X032480Y015784D02*
X032296Y015784D01*
X032362Y015665D02*
X032208Y015665D01*
X032243Y015547D02*
X031796Y015547D01*
X031678Y015428D02*
X032125Y015428D01*
X032006Y015310D02*
X031559Y015310D01*
X031441Y015191D02*
X031888Y015191D01*
X031769Y015073D02*
X031322Y015073D01*
X031204Y014954D02*
X031651Y014954D01*
X031532Y014836D02*
X031204Y014836D01*
X031204Y014717D02*
X031414Y014717D01*
X031295Y014599D02*
X031204Y014599D01*
X031022Y015310D02*
X031008Y015310D01*
X031008Y015428D02*
X031140Y015428D01*
X031259Y015547D02*
X031008Y015547D01*
X031224Y015665D02*
X031377Y015665D01*
X031312Y015784D02*
X031496Y015784D01*
X031540Y015902D02*
X031351Y015902D01*
X031351Y016021D02*
X031540Y016021D01*
X031583Y016139D02*
X031308Y016139D01*
X031215Y016258D02*
X031676Y016258D01*
X030692Y016258D02*
X030231Y016258D01*
X030324Y016139D02*
X030599Y016139D01*
X030556Y016021D02*
X030367Y016021D01*
X030367Y015902D02*
X030556Y015902D01*
X030595Y015784D02*
X030411Y015784D01*
X030530Y015665D02*
X030628Y015665D01*
X030229Y015428D02*
X029783Y015428D01*
X029901Y015310D02*
X030348Y015310D01*
X030431Y015191D02*
X030020Y015191D01*
X030138Y015073D02*
X030431Y015073D01*
X030431Y014954D02*
X030257Y014954D01*
X030375Y014836D02*
X030431Y014836D01*
X030193Y014480D02*
X029746Y014480D01*
X029628Y014599D02*
X030075Y014599D01*
X029956Y014717D02*
X029509Y014717D01*
X029391Y014836D02*
X029838Y014836D01*
X029719Y014954D02*
X029383Y014954D01*
X029374Y015073D02*
X029601Y015073D01*
X029482Y015191D02*
X029325Y015191D01*
X029364Y015310D02*
X029210Y015310D01*
X029245Y015428D02*
X028712Y015428D01*
X028712Y015310D02*
X028760Y015310D01*
X028680Y015547D02*
X029127Y015547D01*
X029427Y015784D02*
X029611Y015784D01*
X029572Y015902D02*
X029383Y015902D01*
X029383Y016021D02*
X029572Y016021D01*
X029615Y016139D02*
X029340Y016139D01*
X029246Y016258D02*
X029708Y016258D01*
X029699Y015665D02*
X029546Y015665D01*
X029664Y015547D02*
X030111Y015547D01*
X028715Y015665D02*
X028561Y015665D01*
X028627Y015784D02*
X028443Y015784D01*
X028398Y015902D02*
X028588Y015902D01*
X028588Y016021D02*
X028398Y016021D01*
X028356Y016139D02*
X028630Y016139D01*
X028724Y016258D02*
X028262Y016258D01*
X027739Y016258D02*
X027278Y016258D01*
X027371Y016139D02*
X027646Y016139D01*
X027603Y016021D02*
X027414Y016021D01*
X027414Y015902D02*
X027603Y015902D01*
X027642Y015784D02*
X027375Y015784D01*
X027287Y015665D02*
X027730Y015665D01*
X028142Y015547D02*
X026875Y015547D01*
X026792Y015428D02*
X028261Y015428D01*
X028226Y015310D02*
X028332Y015310D01*
X027776Y015310D02*
X027242Y015310D01*
X027356Y015191D02*
X027661Y015191D01*
X027612Y015073D02*
X027405Y015073D01*
X027414Y014954D02*
X027603Y014954D01*
X027627Y014836D02*
X027422Y014836D01*
X027541Y014717D02*
X027694Y014717D01*
X027659Y014599D02*
X027865Y014599D01*
X027778Y014480D02*
X028225Y014480D01*
X028343Y014362D02*
X027896Y014362D01*
X028015Y014243D02*
X028462Y014243D01*
X028580Y014125D02*
X028133Y014125D01*
X028252Y014006D02*
X028699Y014006D01*
X028817Y013888D02*
X028370Y013888D01*
X028489Y013769D02*
X028936Y013769D01*
X029054Y013651D02*
X028607Y013651D01*
X028726Y013532D02*
X029173Y013532D01*
X029291Y013414D02*
X028844Y013414D01*
X028963Y013295D02*
X029410Y013295D01*
X029528Y013177D02*
X029081Y013177D01*
X029200Y013058D02*
X029643Y013058D01*
X029643Y012940D02*
X029318Y012940D01*
X029437Y012821D02*
X029643Y012821D01*
X029643Y012703D02*
X029555Y012703D01*
X028924Y012110D02*
X025622Y012110D01*
X025622Y011992D02*
X029042Y011992D01*
X029161Y011873D02*
X025622Y011873D01*
X025622Y011755D02*
X029231Y011755D01*
X029231Y011636D02*
X025622Y011636D01*
X025622Y011518D02*
X029231Y011518D01*
X029205Y011399D02*
X031303Y011399D01*
X031238Y011281D02*
X029255Y011281D01*
X029255Y011162D02*
X031224Y011162D01*
X031253Y011044D02*
X029255Y011044D01*
X029255Y010925D02*
X029764Y010925D01*
X029646Y010807D02*
X029255Y010807D01*
X029255Y010688D02*
X029562Y010688D01*
X029562Y010570D02*
X029255Y010570D01*
X029255Y010451D02*
X029562Y010451D01*
X029562Y010333D02*
X029255Y010333D01*
X029255Y010214D02*
X029562Y010214D01*
X029475Y010096D02*
X029275Y010096D01*
X029507Y009845D02*
X028849Y009845D01*
X028847Y010040D02*
X027902Y010040D01*
X027842Y010100D01*
X027962Y010100D01*
X027842Y010100D02*
X027782Y010100D01*
X027267Y010435D02*
X027062Y010640D01*
X027062Y010994D01*
X027078Y011010D01*
X026292Y011010D01*
X026282Y011000D01*
X026152Y010688D02*
X025622Y010688D01*
X025622Y010570D02*
X026862Y010570D01*
X026808Y010688D02*
X026413Y010688D01*
X026567Y010807D02*
X026780Y010807D01*
X026968Y010451D02*
X025622Y010451D01*
X025622Y010333D02*
X027087Y010333D01*
X027267Y010435D02*
X028849Y010435D01*
X028849Y010238D01*
X028849Y010042D02*
X028847Y010040D01*
X028849Y009648D02*
X029734Y009648D01*
X030302Y009080D01*
X030451Y009385D02*
X031124Y009385D01*
X031104Y009503D02*
X030162Y009503D01*
X030591Y009266D02*
X031198Y009266D01*
X031442Y009500D02*
X031322Y009620D01*
X031322Y010640D01*
X031142Y010820D01*
X029942Y010820D01*
X029762Y010640D01*
X029762Y010100D01*
X029507Y009845D01*
X029271Y009451D02*
X029642Y009080D01*
X029271Y009451D02*
X028849Y009451D01*
X028443Y009148D02*
X027796Y009148D01*
X027677Y009029D02*
X028443Y009029D01*
X028463Y008911D02*
X027637Y008911D01*
X027637Y008792D02*
X029092Y008792D01*
X029092Y008674D02*
X027637Y008674D01*
X027637Y008555D02*
X029092Y008555D01*
X029092Y008437D02*
X027692Y008437D01*
X027734Y008318D02*
X029092Y008318D01*
X029092Y008200D02*
X027734Y008200D01*
X027734Y008081D02*
X029085Y008081D01*
X028966Y007963D02*
X027734Y007963D01*
X027734Y007844D02*
X028840Y007844D01*
X028704Y007726D02*
X027654Y007726D01*
X027637Y007607D02*
X028568Y007607D01*
X028432Y007489D02*
X027637Y007489D01*
X027575Y007370D02*
X028296Y007370D01*
X028161Y007252D02*
X027520Y007252D01*
X027520Y007133D02*
X028025Y007133D01*
X027889Y007015D02*
X027520Y007015D01*
X027618Y006778D02*
X025822Y006778D01*
X025822Y006896D02*
X027753Y006896D01*
X027482Y006659D02*
X025822Y006659D01*
X025822Y006541D02*
X027346Y006541D01*
X027210Y006422D02*
X025818Y006422D01*
X025769Y006304D02*
X027074Y006304D01*
X026939Y006185D02*
X025659Y006185D01*
X025622Y006067D02*
X026803Y006067D01*
X026667Y005948D02*
X025579Y005948D01*
X025460Y005830D02*
X026531Y005830D01*
X026396Y005711D02*
X025342Y005711D01*
X025964Y005356D02*
X022241Y005356D01*
X022220Y005474D02*
X025985Y005474D01*
X026064Y005593D02*
X022140Y005593D01*
X021704Y005593D02*
X020418Y005593D01*
X020483Y005711D02*
X020300Y005711D01*
X020364Y005830D02*
X020181Y005830D01*
X020246Y005948D02*
X020063Y005948D01*
X020127Y006067D02*
X019944Y006067D01*
X020009Y006185D02*
X019826Y006185D01*
X019890Y006304D02*
X019752Y006304D01*
X019752Y006422D02*
X019772Y006422D01*
X018892Y006422D02*
X018633Y006422D01*
X018514Y006304D02*
X018892Y006304D01*
X018892Y006185D02*
X018396Y006185D01*
X018312Y006067D02*
X018892Y006067D01*
X018892Y005948D02*
X018312Y005948D01*
X018312Y005830D02*
X018892Y005830D01*
X018892Y005711D02*
X018312Y005711D01*
X018312Y005593D02*
X018892Y005593D01*
X018892Y005474D02*
X018312Y005474D01*
X018312Y005356D02*
X018892Y005356D01*
X018892Y005237D02*
X018312Y005237D01*
X018312Y005119D02*
X018892Y005119D01*
X018892Y005000D02*
X018312Y005000D01*
X018312Y004882D02*
X018892Y004882D01*
X018892Y004763D02*
X018312Y004763D01*
X018312Y004645D02*
X018892Y004645D01*
X018892Y004526D02*
X018312Y004526D01*
X018420Y004408D02*
X018803Y004408D01*
X018733Y004289D02*
X018490Y004289D01*
X018517Y004171D02*
X018706Y004171D01*
X018712Y004052D02*
X018511Y004052D01*
X018462Y003934D02*
X018761Y003934D01*
X018872Y003815D02*
X018351Y003815D01*
X017888Y003815D02*
X017366Y003815D01*
X017477Y003934D02*
X017777Y003934D01*
X017728Y004052D02*
X017526Y004052D01*
X017533Y004171D02*
X017722Y004171D01*
X017748Y004289D02*
X017506Y004289D01*
X017435Y004408D02*
X017819Y004408D01*
X017932Y004526D02*
X017352Y004526D01*
X017352Y004645D02*
X017932Y004645D01*
X017932Y004763D02*
X017352Y004763D01*
X017352Y004882D02*
X017932Y004882D01*
X017932Y005000D02*
X017352Y005000D01*
X017352Y005119D02*
X017932Y005119D01*
X017932Y005237D02*
X017352Y005237D01*
X017352Y005356D02*
X017932Y005356D01*
X017932Y005474D02*
X017445Y005474D01*
X017563Y005593D02*
X017932Y005593D01*
X017932Y005711D02*
X017682Y005711D01*
X017800Y005830D02*
X017932Y005830D01*
X017919Y005948D02*
X017932Y005948D01*
X018751Y006541D02*
X018813Y006541D01*
X019272Y005593D02*
X019357Y005593D01*
X019272Y005474D02*
X019475Y005474D01*
X019594Y005356D02*
X019272Y005356D01*
X019272Y005237D02*
X019702Y005237D01*
X019690Y005119D02*
X019272Y005119D01*
X019272Y005000D02*
X019711Y005000D01*
X019774Y004882D02*
X019272Y004882D01*
X019272Y004763D02*
X019935Y004763D01*
X019967Y004526D02*
X019272Y004526D01*
X019272Y004645D02*
X020318Y004645D01*
X020240Y004763D02*
X020436Y004763D01*
X020452Y004882D02*
X020401Y004882D01*
X020832Y004763D02*
X020920Y004763D01*
X020832Y004645D02*
X027247Y004645D01*
X027169Y004763D02*
X027365Y004763D01*
X027372Y004882D02*
X027330Y004882D01*
X027752Y004763D02*
X027848Y004763D01*
X027752Y004645D02*
X028231Y004645D01*
X028153Y004763D02*
X028349Y004763D01*
X028314Y004882D02*
X028452Y004882D01*
X028452Y005000D02*
X028377Y005000D01*
X028398Y005119D02*
X028452Y005119D01*
X028452Y005237D02*
X028387Y005237D01*
X029192Y005237D02*
X029892Y005237D01*
X029892Y005119D02*
X029192Y005119D01*
X029192Y005000D02*
X029892Y005000D01*
X029892Y004882D02*
X029192Y004882D01*
X029192Y004763D02*
X029892Y004763D01*
X029892Y004645D02*
X029192Y004645D01*
X029192Y004526D02*
X029848Y004526D01*
X029669Y004408D02*
X029285Y004408D01*
X029356Y004289D02*
X029598Y004289D01*
X029572Y004171D02*
X029383Y004171D01*
X029376Y004052D02*
X029578Y004052D01*
X029627Y003934D02*
X029327Y003934D01*
X029216Y003815D02*
X029738Y003815D01*
X030201Y003815D02*
X030722Y003815D01*
X030611Y003934D02*
X030312Y003934D01*
X030361Y004052D02*
X030562Y004052D01*
X030556Y004171D02*
X030367Y004171D01*
X030340Y004289D02*
X030583Y004289D01*
X030653Y004408D02*
X030272Y004408D01*
X030272Y004526D02*
X030732Y004526D01*
X030732Y004645D02*
X030272Y004645D01*
X030272Y004763D02*
X030732Y004763D01*
X030732Y004882D02*
X030272Y004882D01*
X030272Y005000D02*
X030732Y005000D01*
X030732Y005119D02*
X030272Y005119D01*
X030272Y005237D02*
X030732Y005237D01*
X030732Y005356D02*
X030272Y005356D01*
X030272Y005474D02*
X030732Y005474D01*
X030732Y005593D02*
X030272Y005593D01*
X030272Y005711D02*
X030732Y005711D01*
X030732Y005830D02*
X030272Y005830D01*
X030272Y005948D02*
X030732Y005948D01*
X030732Y006067D02*
X030272Y006067D01*
X030356Y006185D02*
X030649Y006185D01*
X030530Y006304D02*
X030474Y006304D01*
X029892Y005948D02*
X029879Y005948D01*
X029892Y005830D02*
X029760Y005830D01*
X029642Y005711D02*
X029892Y005711D01*
X029892Y005593D02*
X029523Y005593D01*
X029405Y005474D02*
X029892Y005474D01*
X029892Y005356D02*
X029286Y005356D01*
X028812Y004645D02*
X028768Y004645D01*
X028812Y004526D02*
X028650Y004526D01*
X028685Y004408D02*
X028531Y004408D01*
X028614Y004289D02*
X028413Y004289D01*
X028398Y004171D02*
X028588Y004171D01*
X028594Y004052D02*
X028392Y004052D01*
X028343Y003934D02*
X028643Y003934D01*
X028754Y003815D02*
X028232Y003815D01*
X027769Y003815D02*
X027248Y003815D01*
X027359Y003934D02*
X027659Y003934D01*
X027609Y004052D02*
X027408Y004052D01*
X027414Y004171D02*
X027603Y004171D01*
X027630Y004289D02*
X027428Y004289D01*
X027547Y004408D02*
X027700Y004408D01*
X027665Y004526D02*
X027880Y004526D01*
X026896Y004526D02*
X022177Y004526D01*
X022135Y004543D02*
X021977Y004543D01*
X021831Y004483D01*
X021719Y004371D01*
X021659Y004225D01*
X021659Y004067D01*
X021719Y003921D01*
X021831Y003809D01*
X021977Y003748D01*
X022135Y003748D01*
X022281Y003809D01*
X022393Y003921D01*
X022454Y004067D01*
X022454Y004225D01*
X022393Y004371D01*
X022281Y004483D01*
X022135Y004543D01*
X021935Y004526D02*
X021193Y004526D01*
X021151Y004543D02*
X020993Y004543D01*
X020847Y004483D01*
X020735Y004371D01*
X020675Y004225D01*
X020675Y004067D01*
X020735Y003921D01*
X020847Y003809D01*
X020993Y003748D01*
X021151Y003748D01*
X021297Y003809D01*
X021409Y003921D01*
X021470Y004067D01*
X021470Y004225D01*
X021409Y004371D01*
X021297Y004483D01*
X021151Y004543D01*
X020951Y004526D02*
X020737Y004526D01*
X020772Y004408D02*
X020618Y004408D01*
X020701Y004289D02*
X020500Y004289D01*
X020485Y004171D02*
X020675Y004171D01*
X020681Y004052D02*
X020479Y004052D01*
X020430Y003934D02*
X020730Y003934D01*
X020841Y003815D02*
X020319Y003815D01*
X019856Y003815D02*
X019335Y003815D01*
X019446Y003934D02*
X019746Y003934D01*
X019696Y004052D02*
X019495Y004052D01*
X019501Y004171D02*
X019690Y004171D01*
X019717Y004289D02*
X019474Y004289D01*
X019404Y004408D02*
X019787Y004408D01*
X021225Y004763D02*
X026864Y004763D01*
X026703Y004882D02*
X021386Y004882D01*
X021448Y005000D02*
X026640Y005000D01*
X026619Y005119D02*
X026491Y005119D01*
X026576Y005237D02*
X026631Y005237D01*
X026601Y005356D02*
X026680Y005356D01*
X026702Y005474D02*
X026808Y005474D01*
X026838Y005593D02*
X027210Y005593D01*
X027329Y005711D02*
X026973Y005711D01*
X027109Y005830D02*
X027447Y005830D01*
X027566Y005948D02*
X027245Y005948D01*
X027381Y006067D02*
X027684Y006067D01*
X027803Y006185D02*
X027517Y006185D01*
X027652Y006304D02*
X027921Y006304D01*
X028040Y006422D02*
X027788Y006422D01*
X027924Y006541D02*
X028158Y006541D01*
X028060Y006659D02*
X028277Y006659D01*
X028195Y006778D02*
X028395Y006778D01*
X028331Y006896D02*
X028514Y006896D01*
X028467Y007015D02*
X028632Y007015D01*
X028603Y007133D02*
X028751Y007133D01*
X028739Y007252D02*
X028869Y007252D01*
X028874Y007370D02*
X028988Y007370D01*
X029010Y007489D02*
X029106Y007489D01*
X029148Y007607D02*
X029225Y007607D01*
X027437Y007514D02*
X027182Y007260D01*
X026844Y007252D02*
X025742Y007252D01*
X025803Y007133D02*
X026844Y007133D01*
X026844Y007015D02*
X025822Y007015D01*
X025622Y007370D02*
X026844Y007370D01*
X026844Y007489D02*
X025622Y007489D01*
X025622Y007607D02*
X027237Y007607D01*
X027219Y007726D02*
X026966Y007726D01*
X026984Y007736D02*
X027013Y007766D01*
X027035Y007802D01*
X027045Y007843D01*
X027045Y008081D01*
X027139Y008081D01*
X027045Y008081D02*
X026747Y008081D01*
X026747Y007704D01*
X026906Y007704D01*
X026947Y007715D01*
X026984Y007736D01*
X027045Y007844D02*
X027139Y007844D01*
X027139Y007963D02*
X027045Y007963D01*
X027045Y008200D02*
X027139Y008200D01*
X027139Y008318D02*
X027045Y008318D01*
X027011Y008437D02*
X027181Y008437D01*
X027057Y008834D02*
X026702Y008480D01*
X026522Y008480D01*
X026282Y008240D01*
X025944Y008200D02*
X025622Y008200D01*
X025622Y008318D02*
X025944Y008318D01*
X025944Y008437D02*
X025622Y008437D01*
X025622Y008555D02*
X026003Y008555D01*
X025968Y008480D02*
X025742Y008480D01*
X025742Y008540D02*
X025802Y008600D01*
X026162Y008600D01*
X026348Y008786D01*
X026348Y008860D01*
X025968Y008480D01*
X026329Y008578D02*
X026329Y008841D01*
X026367Y008841D01*
X026367Y008879D01*
X026665Y008879D01*
X026665Y009117D01*
X026665Y009120D01*
X026722Y009177D01*
X026789Y009244D01*
X026857Y009244D01*
X026857Y009236D01*
X026841Y009236D01*
X026759Y009154D01*
X026759Y008820D01*
X026665Y008726D01*
X026665Y008841D01*
X026367Y008841D01*
X026367Y008607D01*
X026338Y008578D01*
X026329Y008578D01*
X026329Y008674D02*
X026367Y008674D01*
X026367Y008792D02*
X026329Y008792D01*
X026665Y008792D02*
X026731Y008792D01*
X026759Y008911D02*
X026665Y008911D01*
X026665Y009029D02*
X026759Y009029D01*
X026759Y009148D02*
X026693Y009148D01*
X026522Y009260D02*
X026162Y009260D01*
X025862Y008960D01*
X025770Y009385D02*
X025622Y009385D01*
X025622Y009503D02*
X025770Y009503D01*
X025622Y009622D02*
X026069Y009622D01*
X026107Y009622D02*
X026499Y009622D01*
X026405Y009639D02*
X026405Y009877D01*
X026395Y009918D01*
X026373Y009954D01*
X026344Y009984D01*
X026307Y010005D01*
X026266Y010016D01*
X026107Y010016D01*
X026107Y009639D01*
X026405Y009639D01*
X026405Y009740D02*
X026499Y009740D01*
X026499Y009859D02*
X026405Y009859D01*
X026351Y009977D02*
X026562Y009977D01*
X026797Y009620D02*
X026797Y009534D01*
X026522Y009260D01*
X026482Y009503D02*
X026405Y009503D01*
X026107Y009740D02*
X026069Y009740D01*
X026069Y009859D02*
X026107Y009859D01*
X026107Y009977D02*
X026069Y009977D01*
X025825Y009977D02*
X025622Y009977D01*
X025622Y009859D02*
X025770Y009859D01*
X025770Y009740D02*
X025622Y009740D01*
X025622Y010096D02*
X028423Y010096D01*
X028443Y010214D02*
X025622Y010214D01*
X025622Y010807D02*
X025998Y010807D01*
X025947Y010925D02*
X025622Y010925D01*
X025622Y011044D02*
X025944Y011044D01*
X025983Y011162D02*
X025622Y011162D01*
X025622Y011281D02*
X026085Y011281D01*
X026480Y011281D02*
X026780Y011281D01*
X027375Y011281D02*
X027489Y011281D01*
X027489Y011162D02*
X027375Y011162D01*
X027375Y011044D02*
X027489Y011044D01*
X027489Y010925D02*
X027375Y010925D01*
X027375Y010807D02*
X027489Y010807D01*
X027517Y010688D02*
X027348Y010688D01*
X028101Y011044D02*
X028443Y011044D01*
X028443Y011162D02*
X028084Y011162D01*
X028084Y011281D02*
X028443Y011281D01*
X028493Y011399D02*
X025622Y011399D01*
X025622Y012229D02*
X028805Y012229D01*
X028687Y012347D02*
X025622Y012347D01*
X025622Y012466D02*
X028568Y012466D01*
X028450Y012584D02*
X025622Y012584D01*
X025676Y012703D02*
X028331Y012703D01*
X028213Y012821D02*
X025776Y012821D01*
X025822Y012940D02*
X028094Y012940D01*
X027976Y013058D02*
X025822Y013058D01*
X025822Y013177D02*
X027857Y013177D01*
X027739Y013295D02*
X025822Y013295D01*
X025822Y013414D02*
X027620Y013414D01*
X027502Y013532D02*
X025822Y013532D01*
X025796Y013651D02*
X027383Y013651D01*
X027265Y013769D02*
X025725Y013769D01*
X025540Y013888D02*
X027146Y013888D01*
X027028Y014006D02*
X021057Y014006D01*
X020939Y013888D02*
X023825Y013888D01*
X024040Y013888D02*
X024325Y013888D01*
X024540Y013888D02*
X024825Y013888D01*
X025040Y013888D02*
X025325Y013888D01*
X026435Y014599D02*
X022192Y014599D01*
X022135Y014575D02*
X022281Y014636D01*
X022393Y014747D01*
X022454Y014894D01*
X022454Y015052D01*
X022393Y015198D01*
X022281Y015310D01*
X022135Y015370D01*
X021977Y015370D01*
X021831Y015310D01*
X021792Y015271D01*
X021792Y015424D01*
X021942Y015574D01*
X021977Y015559D01*
X022135Y015559D01*
X022281Y015620D01*
X022393Y015732D01*
X022454Y015878D01*
X022454Y016036D01*
X022393Y016182D01*
X022281Y016294D01*
X022135Y016354D01*
X021977Y016354D01*
X021831Y016294D01*
X021719Y016182D01*
X021659Y016036D01*
X021659Y015878D01*
X021673Y015843D01*
X021412Y015582D01*
X021412Y015190D01*
X021409Y015198D01*
X021297Y015310D01*
X021151Y015370D01*
X020993Y015370D01*
X020847Y015310D01*
X020735Y015198D01*
X020675Y015052D01*
X020675Y014894D01*
X020689Y014858D01*
X019681Y013851D01*
X019681Y014297D01*
X020958Y015574D01*
X020993Y015559D01*
X021151Y015559D01*
X021297Y015620D01*
X021409Y015732D01*
X021470Y015878D01*
X021470Y016036D01*
X021409Y016182D01*
X021297Y016294D01*
X021151Y016354D01*
X020993Y016354D01*
X020847Y016294D01*
X020735Y016182D01*
X020675Y016036D01*
X020675Y015878D01*
X020689Y015843D01*
X019484Y014638D01*
X019484Y015085D01*
X019974Y015574D01*
X020009Y015559D01*
X020167Y015559D01*
X020313Y015620D01*
X020425Y015732D01*
X020485Y015878D01*
X020485Y016036D01*
X020425Y016182D01*
X020313Y016294D01*
X020167Y016354D01*
X020009Y016354D01*
X019863Y016294D01*
X019751Y016182D01*
X019690Y016036D01*
X019690Y015878D01*
X019705Y015843D01*
X019288Y015425D01*
X019288Y015603D01*
X019329Y015620D01*
X019441Y015732D01*
X019501Y015878D01*
X019501Y016036D01*
X019441Y016182D01*
X019329Y016294D01*
X019183Y016354D01*
X019024Y016354D01*
X018878Y016294D01*
X018767Y016182D01*
X018706Y016036D01*
X018706Y015878D01*
X018767Y015732D01*
X018878Y015620D01*
X018908Y015608D01*
X018908Y015437D01*
X018502Y015843D01*
X018517Y015878D01*
X018517Y016036D01*
X018456Y016182D01*
X018344Y016294D01*
X018198Y016354D01*
X018040Y016354D01*
X017894Y016294D01*
X017782Y016182D01*
X017722Y016036D01*
X017722Y015878D01*
X017782Y015732D01*
X017894Y015620D01*
X018040Y015559D01*
X018198Y015559D01*
X018234Y015574D01*
X018711Y015097D01*
X018711Y014650D01*
X017518Y015843D01*
X017533Y015878D01*
X017533Y016036D01*
X017472Y016182D01*
X017360Y016294D01*
X017214Y016354D01*
X017056Y016354D01*
X016910Y016294D01*
X016798Y016182D01*
X016738Y016036D01*
X016738Y015878D01*
X016798Y015732D01*
X016910Y015620D01*
X017056Y015559D01*
X017214Y015559D01*
X017249Y015574D01*
X018514Y014309D01*
X018514Y013862D01*
X017518Y014858D01*
X017533Y014894D01*
X017533Y015052D01*
X017472Y015198D01*
X017360Y015310D01*
X017214Y015370D01*
X017056Y015370D01*
X016910Y015310D01*
X016872Y015272D01*
X016872Y015504D01*
X016761Y015615D01*
X016534Y015843D01*
X016548Y015878D01*
X016548Y016036D01*
X016488Y016182D01*
X016376Y016294D01*
X016230Y016354D01*
X016072Y016354D01*
X015926Y016294D01*
X015814Y016182D01*
X015753Y016036D01*
X015753Y015878D01*
X015814Y015732D01*
X015926Y015620D01*
X016072Y015559D01*
X016230Y015559D01*
X016265Y015574D01*
X016492Y015347D01*
X016492Y015187D01*
X016488Y015198D01*
X016376Y015310D01*
X016230Y015370D01*
X016072Y015370D01*
X015926Y015310D01*
X015814Y015198D01*
X015753Y015052D01*
X015753Y014894D01*
X015814Y014747D01*
X015926Y014636D01*
X016072Y014575D01*
X016230Y014575D01*
X016265Y014590D01*
X017923Y012931D01*
X017923Y012485D01*
X015549Y014858D01*
X015564Y014894D01*
X015564Y015052D01*
X015504Y015198D01*
X015392Y015310D01*
X015246Y015370D01*
X015087Y015370D01*
X014941Y015310D01*
X014872Y015240D01*
X014872Y015394D01*
X015052Y015574D01*
X015087Y015559D01*
X015246Y015559D01*
X015392Y015620D01*
X015504Y015732D01*
X015564Y015878D01*
X015564Y016036D01*
X015504Y016182D01*
X015392Y016294D01*
X015246Y016354D01*
X015087Y016354D01*
X014941Y016294D01*
X014830Y016182D01*
X014769Y016036D01*
X014769Y015878D01*
X014784Y015843D01*
X014604Y015663D01*
X014492Y015551D01*
X014492Y014681D01*
X017319Y011855D01*
X017430Y011743D01*
X017511Y011743D01*
X017511Y011609D01*
X017593Y011527D01*
X020012Y011527D01*
X020094Y011609D01*
X020094Y012257D01*
X020075Y012276D01*
X020075Y013024D01*
X021759Y014708D01*
X021831Y014636D01*
X021977Y014575D01*
X022135Y014575D01*
X021921Y014599D02*
X021650Y014599D01*
X021531Y014480D02*
X026554Y014480D01*
X026672Y014362D02*
X021413Y014362D01*
X021294Y014243D02*
X026791Y014243D01*
X026909Y014125D02*
X021176Y014125D01*
X020311Y014480D02*
X019864Y014480D01*
X019982Y014599D02*
X020429Y014599D01*
X020548Y014717D02*
X020101Y014717D01*
X020219Y014836D02*
X020666Y014836D01*
X020675Y014954D02*
X020338Y014954D01*
X020456Y015073D02*
X020683Y015073D01*
X020732Y015191D02*
X020575Y015191D01*
X020693Y015310D02*
X020847Y015310D01*
X020812Y015428D02*
X021412Y015428D01*
X021412Y015310D02*
X021297Y015310D01*
X021412Y015191D02*
X021412Y015191D01*
X021412Y015547D02*
X020930Y015547D01*
X020630Y015784D02*
X020446Y015784D01*
X020485Y015902D02*
X020675Y015902D01*
X020675Y016021D02*
X020485Y016021D01*
X020443Y016139D02*
X020717Y016139D01*
X020811Y016258D02*
X020349Y016258D01*
X019826Y016258D02*
X019365Y016258D01*
X019458Y016139D02*
X019733Y016139D01*
X019690Y016021D02*
X019501Y016021D01*
X019501Y015902D02*
X019690Y015902D01*
X019646Y015784D02*
X019462Y015784D01*
X019527Y015665D02*
X019374Y015665D01*
X019409Y015547D02*
X019288Y015547D01*
X019288Y015428D02*
X019290Y015428D01*
X019591Y015191D02*
X020038Y015191D01*
X020156Y015310D02*
X019709Y015310D01*
X019828Y015428D02*
X020275Y015428D01*
X020393Y015547D02*
X019946Y015547D01*
X020358Y015665D02*
X020512Y015665D01*
X021342Y015665D02*
X021496Y015665D01*
X021430Y015784D02*
X021614Y015784D01*
X021659Y015902D02*
X021470Y015902D01*
X021470Y016021D02*
X021659Y016021D01*
X021702Y016139D02*
X021427Y016139D01*
X021333Y016258D02*
X021795Y016258D01*
X022318Y016258D02*
X026755Y016258D01*
X026662Y016139D02*
X022411Y016139D01*
X022454Y016021D02*
X026619Y016021D01*
X026619Y015902D02*
X022454Y015902D01*
X022415Y015784D02*
X026575Y015784D01*
X026456Y015665D02*
X022327Y015665D01*
X021915Y015547D02*
X026412Y015547D01*
X026412Y015428D02*
X021796Y015428D01*
X021792Y015310D02*
X021831Y015310D01*
X022281Y015310D02*
X026412Y015310D01*
X026412Y015191D02*
X022396Y015191D01*
X022445Y015073D02*
X026412Y015073D01*
X026412Y014954D02*
X022454Y014954D01*
X022430Y014836D02*
X026412Y014836D01*
X026412Y014717D02*
X022363Y014717D01*
X023640Y013769D02*
X020820Y013769D01*
X020702Y013651D02*
X023568Y013651D01*
X023542Y013532D02*
X020583Y013532D01*
X020465Y013414D02*
X023542Y013414D01*
X023542Y013295D02*
X020346Y013295D01*
X020228Y013177D02*
X023542Y013177D01*
X023542Y013058D02*
X020109Y013058D01*
X020075Y012940D02*
X023542Y012940D01*
X023588Y012821D02*
X020075Y012821D01*
X020075Y012703D02*
X023688Y012703D01*
X023742Y012584D02*
X020075Y012584D01*
X020075Y012466D02*
X023742Y012466D01*
X023742Y012347D02*
X020075Y012347D01*
X020094Y012229D02*
X023742Y012229D01*
X023742Y012110D02*
X020094Y012110D01*
X020094Y011992D02*
X023742Y011992D01*
X023742Y011873D02*
X020094Y011873D01*
X020094Y011755D02*
X023742Y011755D01*
X023742Y011636D02*
X020094Y011636D01*
X020118Y011518D02*
X017487Y011518D01*
X017511Y011636D02*
X010874Y011636D01*
X010874Y011569D02*
X010874Y012217D01*
X010855Y012236D01*
X010855Y013044D01*
X012514Y014703D01*
X012581Y014636D01*
X012727Y014575D01*
X012885Y014575D01*
X013031Y014636D01*
X013143Y014747D01*
X013204Y014894D01*
X013204Y015052D01*
X013143Y015198D01*
X013031Y015310D01*
X012885Y015370D01*
X012727Y015370D01*
X012581Y015310D01*
X012552Y015281D01*
X012552Y015434D01*
X012692Y015574D01*
X012727Y015559D01*
X012885Y015559D01*
X013031Y015620D01*
X013143Y015732D01*
X013204Y015878D01*
X013204Y016036D01*
X013143Y016182D01*
X013031Y016294D01*
X012885Y016354D01*
X012727Y016354D01*
X012581Y016294D01*
X012469Y016182D01*
X012409Y016036D01*
X012409Y015878D01*
X012423Y015843D01*
X012284Y015703D01*
X012172Y015592D01*
X012172Y015166D01*
X012159Y015198D01*
X012047Y015310D01*
X011901Y015370D01*
X011743Y015370D01*
X011597Y015310D01*
X011485Y015198D01*
X011425Y015052D01*
X011425Y014894D01*
X011439Y014858D01*
X010461Y013881D01*
X010461Y014327D01*
X011708Y015574D01*
X011743Y015559D01*
X011901Y015559D01*
X012047Y015620D01*
X012159Y015732D01*
X012220Y015878D01*
X012220Y016036D01*
X012159Y016182D01*
X012047Y016294D01*
X011901Y016354D01*
X011743Y016354D01*
X011597Y016294D01*
X011485Y016182D01*
X011425Y016036D01*
X011425Y015878D01*
X011439Y015843D01*
X010264Y014668D01*
X010264Y015115D01*
X010724Y015574D01*
X010759Y015559D01*
X010917Y015559D01*
X011063Y015620D01*
X011175Y015732D01*
X011235Y015878D01*
X011235Y016036D01*
X011175Y016182D01*
X011063Y016294D01*
X010917Y016354D01*
X010759Y016354D01*
X010613Y016294D01*
X010501Y016182D01*
X010440Y016036D01*
X010440Y015878D01*
X010455Y015843D01*
X010068Y015455D01*
X010068Y015615D01*
X010079Y015620D01*
X010191Y015732D01*
X010251Y015878D01*
X010251Y016036D01*
X010191Y016182D01*
X010079Y016294D01*
X009933Y016354D01*
X009774Y016354D01*
X009628Y016294D01*
X009517Y016182D01*
X009456Y016036D01*
X009456Y015878D01*
X009517Y015732D01*
X009628Y015620D01*
X009688Y015595D01*
X009688Y015407D01*
X009252Y015843D01*
X009267Y015878D01*
X009267Y016036D01*
X009206Y016182D01*
X009094Y016294D01*
X008948Y016354D01*
X008790Y016354D01*
X008644Y016294D01*
X008532Y016182D01*
X008472Y016036D01*
X008472Y015878D01*
X008532Y015732D01*
X008644Y015620D01*
X008790Y015559D01*
X008948Y015559D01*
X008984Y015574D01*
X009491Y015067D01*
X009491Y014620D01*
X008268Y015843D01*
X008283Y015878D01*
X008283Y016036D01*
X008222Y016182D01*
X008110Y016294D01*
X007964Y016354D01*
X007806Y016354D01*
X007660Y016294D01*
X007548Y016182D01*
X007488Y016036D01*
X007488Y015878D01*
X007548Y015732D01*
X007660Y015620D01*
X007806Y015559D01*
X007964Y015559D01*
X007999Y015574D01*
X009294Y014279D01*
X009294Y013832D01*
X008268Y014858D01*
X008283Y014894D01*
X008283Y015052D01*
X008222Y015198D01*
X008110Y015310D01*
X007964Y015370D01*
X007806Y015370D01*
X007660Y015310D01*
X007632Y015282D01*
X007632Y015494D01*
X007521Y015605D01*
X007284Y015843D01*
X007298Y015878D01*
X007298Y016036D01*
X007238Y016182D01*
X007126Y016294D01*
X006980Y016354D01*
X006822Y016354D01*
X006676Y016294D01*
X006564Y016182D01*
X006503Y016036D01*
X006503Y015878D01*
X006564Y015732D01*
X006676Y015620D01*
X006822Y015559D01*
X006980Y015559D01*
X007015Y015574D01*
X007252Y015337D01*
X007252Y015163D01*
X007238Y015198D01*
X007126Y015310D01*
X006980Y015370D01*
X006822Y015370D01*
X006676Y015310D01*
X006564Y015198D01*
X006503Y015052D01*
X006503Y014894D01*
X006564Y014747D01*
X006676Y014636D01*
X006822Y014575D01*
X006980Y014575D01*
X007015Y014590D01*
X008703Y012901D01*
X008703Y012455D01*
X006299Y014858D01*
X006314Y014894D01*
X006314Y015052D01*
X006254Y015198D01*
X006142Y015310D01*
X005996Y015370D01*
X005837Y015370D01*
X005691Y015310D01*
X005592Y015210D01*
X005592Y015364D01*
X005802Y015574D01*
X005837Y015559D01*
X005996Y015559D01*
X006142Y015620D01*
X006254Y015732D01*
X006314Y015878D01*
X006314Y016036D01*
X006254Y016182D01*
X006142Y016294D01*
X005996Y016354D01*
X005837Y016354D01*
X005691Y016294D01*
X005580Y016182D01*
X005519Y016036D01*
X005519Y015878D01*
X005534Y015843D01*
X005324Y015633D01*
X005212Y015521D01*
X005212Y014741D01*
X008139Y011815D01*
X008250Y011703D01*
X008291Y011703D01*
X008291Y011569D01*
X008373Y011487D01*
X010792Y011487D01*
X010874Y011569D01*
X010822Y011518D02*
X016771Y011518D01*
X016723Y011399D02*
X011661Y011399D01*
X011661Y011281D02*
X014265Y011281D01*
X014199Y011162D02*
X011661Y011162D01*
X011661Y011044D02*
X014184Y011044D01*
X014212Y010925D02*
X011661Y010925D01*
X011661Y010807D02*
X014298Y010807D01*
X014522Y011060D02*
X014572Y011010D01*
X015328Y011010D01*
X015362Y010976D01*
X015362Y010820D01*
X015627Y010555D01*
X017129Y010555D01*
X017129Y010358D01*
X017129Y010162D02*
X016281Y010162D01*
X016182Y010260D01*
X016703Y010214D02*
X013401Y010214D01*
X013420Y010096D02*
X015243Y010096D01*
X015448Y010451D02*
X011661Y010451D01*
X011661Y010333D02*
X012837Y010333D01*
X013082Y010100D02*
X012182Y010100D01*
X011822Y009740D01*
X011268Y009740D01*
X011256Y009728D01*
X011256Y009531D02*
X012273Y009531D01*
X012302Y009560D01*
X012465Y009859D02*
X012846Y009859D01*
X012594Y009740D02*
X014010Y009740D01*
X014010Y009859D02*
X013319Y009859D01*
X013397Y009977D02*
X014065Y009977D01*
X014309Y009977D02*
X014347Y009977D01*
X014347Y010016D02*
X014347Y009639D01*
X014645Y009639D01*
X014645Y009877D01*
X014635Y009918D01*
X014613Y009954D01*
X014584Y009984D01*
X014547Y010005D01*
X014506Y010016D01*
X014347Y010016D01*
X014347Y009859D02*
X014309Y009859D01*
X014309Y009740D02*
X014347Y009740D01*
X014347Y009622D02*
X014739Y009622D01*
X014739Y009740D02*
X014645Y009740D01*
X014645Y009859D02*
X014739Y009859D01*
X014802Y009977D02*
X014591Y009977D01*
X014309Y009622D02*
X012640Y009622D01*
X012640Y009503D02*
X014010Y009503D01*
X014010Y009601D02*
X014010Y009363D01*
X014021Y009322D01*
X014042Y009286D01*
X014072Y009256D01*
X014109Y009235D01*
X014149Y009224D01*
X014309Y009224D01*
X014309Y009601D01*
X014010Y009601D01*
X014010Y009385D02*
X012596Y009385D01*
X012476Y009266D02*
X014062Y009266D01*
X014309Y009266D02*
X014347Y009266D01*
X014347Y009385D02*
X014309Y009385D01*
X014309Y009503D02*
X014347Y009503D01*
X014281Y009148D02*
X012063Y009148D01*
X012128Y009266D02*
X011945Y009266D01*
X012182Y009029D02*
X013937Y009029D01*
X013884Y008911D02*
X012192Y008911D01*
X012192Y008792D02*
X013884Y008792D01*
X013884Y008674D02*
X012192Y008674D01*
X012192Y008555D02*
X013884Y008555D01*
X013912Y008437D02*
X012192Y008437D01*
X012192Y008318D02*
X014712Y008318D01*
X014622Y008200D02*
X012192Y008200D01*
X012192Y008081D02*
X014622Y008081D01*
X014551Y007963D02*
X012192Y007963D01*
X012192Y007844D02*
X014484Y007844D01*
X014484Y007726D02*
X012192Y007726D01*
X012192Y007607D02*
X014484Y007607D01*
X014484Y007489D02*
X012192Y007489D01*
X012192Y007370D02*
X014498Y007370D01*
X014822Y007640D02*
X014822Y008146D01*
X015537Y008860D01*
X015834Y008911D02*
X015892Y008911D01*
X015892Y009029D02*
X015834Y009029D01*
X015834Y009148D02*
X015892Y009148D01*
X015892Y009266D02*
X015792Y009266D01*
X015792Y009385D02*
X015892Y009385D01*
X015897Y009503D02*
X015792Y009503D01*
X015412Y009503D02*
X015334Y009503D01*
X015334Y009385D02*
X015412Y009385D01*
X015412Y009266D02*
X015274Y009266D01*
X015239Y009148D02*
X015137Y009148D01*
X015145Y009029D02*
X015239Y009029D01*
X015239Y008911D02*
X015145Y008911D01*
X015145Y008792D02*
X015186Y008792D01*
X014847Y008792D02*
X014809Y008792D01*
X014809Y008674D02*
X014847Y008674D01*
X014847Y008555D02*
X014809Y008555D01*
X014830Y008437D02*
X014533Y008437D01*
X014222Y008720D02*
X014222Y008806D01*
X015037Y009620D01*
X015334Y009622D02*
X015412Y009622D01*
X015834Y008792D02*
X015892Y008792D01*
X015892Y008674D02*
X015834Y008674D01*
X015823Y008555D02*
X015892Y008555D01*
X015781Y008437D02*
X015611Y008437D01*
X015645Y008318D02*
X015739Y008318D01*
X015739Y008200D02*
X015645Y008200D01*
X015645Y008081D02*
X015347Y008081D01*
X015347Y007704D01*
X015506Y007704D01*
X015547Y007715D01*
X015584Y007736D01*
X015613Y007766D01*
X015635Y007802D01*
X015645Y007843D01*
X015645Y008081D01*
X015739Y008081D01*
X015739Y007963D02*
X015645Y007963D01*
X015645Y007844D02*
X015739Y007844D01*
X015819Y007726D02*
X015566Y007726D01*
X015347Y007726D02*
X015309Y007726D01*
X015309Y007844D02*
X015347Y007844D01*
X015347Y007963D02*
X015309Y007963D01*
X015309Y008081D02*
X015347Y008081D01*
X016037Y008100D02*
X016182Y007954D01*
X016182Y007260D01*
X015844Y007252D02*
X012192Y007252D01*
X012192Y007133D02*
X015844Y007133D01*
X015844Y007015D02*
X012192Y007015D01*
X012192Y006896D02*
X016170Y006896D01*
X016051Y006778D02*
X012192Y006778D01*
X012192Y006659D02*
X015933Y006659D01*
X015814Y006541D02*
X012192Y006541D01*
X012192Y006422D02*
X015696Y006422D01*
X015577Y006304D02*
X012192Y006304D01*
X012192Y006185D02*
X015459Y006185D01*
X015340Y006067D02*
X012192Y006067D01*
X012192Y005948D02*
X015222Y005948D01*
X015103Y005830D02*
X012192Y005830D01*
X012260Y005711D02*
X014985Y005711D01*
X014866Y005593D02*
X012378Y005593D01*
X012497Y005474D02*
X014748Y005474D01*
X014629Y005356D02*
X012615Y005356D01*
X012734Y005237D02*
X014511Y005237D01*
X014392Y005119D02*
X012852Y005119D01*
X012971Y005000D02*
X014274Y005000D01*
X014155Y004882D02*
X013089Y004882D01*
X012789Y004645D02*
X011592Y004645D01*
X011592Y004763D02*
X011670Y004763D01*
X011743Y004543D02*
X011597Y004483D01*
X011485Y004371D01*
X011425Y004225D01*
X011425Y004067D01*
X011485Y003921D01*
X011597Y003809D01*
X011743Y003748D01*
X011901Y003748D01*
X012047Y003809D01*
X012159Y003921D01*
X012220Y004067D01*
X012220Y004225D01*
X012159Y004371D01*
X012047Y004483D01*
X011901Y004543D01*
X011743Y004543D01*
X011701Y004526D02*
X011487Y004526D01*
X011522Y004408D02*
X011368Y004408D01*
X011451Y004289D02*
X011250Y004289D01*
X011235Y004171D02*
X011425Y004171D01*
X011431Y004052D02*
X011229Y004052D01*
X011180Y003934D02*
X011480Y003934D01*
X011591Y003815D02*
X011069Y003815D01*
X010606Y003815D02*
X010085Y003815D01*
X010196Y003934D02*
X010496Y003934D01*
X010446Y004052D02*
X010245Y004052D01*
X010251Y004171D02*
X010440Y004171D01*
X010467Y004289D02*
X010224Y004289D01*
X010154Y004408D02*
X010537Y004408D01*
X010717Y004526D02*
X010032Y004526D01*
X010032Y004645D02*
X011068Y004645D01*
X010990Y004763D02*
X011186Y004763D01*
X011212Y004882D02*
X011151Y004882D01*
X010685Y004763D02*
X010032Y004763D01*
X010032Y004882D02*
X010524Y004882D01*
X010461Y005000D02*
X010032Y005000D01*
X010032Y005119D02*
X010440Y005119D01*
X010452Y005237D02*
X010032Y005237D01*
X010032Y005356D02*
X010344Y005356D01*
X010225Y005474D02*
X010032Y005474D01*
X010032Y005593D02*
X010107Y005593D01*
X009652Y005593D02*
X009192Y005593D01*
X009192Y005711D02*
X009652Y005711D01*
X009652Y005830D02*
X009192Y005830D01*
X009192Y005948D02*
X009652Y005948D01*
X009652Y006067D02*
X009192Y006067D01*
X009276Y006185D02*
X009652Y006185D01*
X009652Y006304D02*
X009394Y006304D01*
X009513Y006422D02*
X009572Y006422D01*
X010264Y006778D02*
X011812Y006778D01*
X011812Y006896D02*
X010264Y006896D01*
X010264Y007015D02*
X011812Y007015D01*
X011812Y007133D02*
X010264Y007133D01*
X010264Y007252D02*
X011812Y007252D01*
X011812Y007370D02*
X010264Y007370D01*
X010264Y007489D02*
X011812Y007489D01*
X011812Y007607D02*
X010264Y007607D01*
X010264Y007726D02*
X011812Y007726D01*
X011812Y007844D02*
X010264Y007844D01*
X010264Y007963D02*
X011812Y007963D01*
X011812Y008081D02*
X010264Y008081D01*
X010850Y008200D02*
X011812Y008200D01*
X011812Y008318D02*
X010874Y008318D01*
X010874Y008437D02*
X011812Y008437D01*
X011812Y008555D02*
X010874Y008555D01*
X010874Y008674D02*
X011812Y008674D01*
X011812Y008792D02*
X010874Y008792D01*
X010834Y008911D02*
X011763Y008911D01*
X010850Y009029D02*
X010342Y009029D01*
X010360Y009148D02*
X010850Y009148D01*
X010850Y009266D02*
X010336Y009266D01*
X010256Y009385D02*
X010850Y009385D01*
X010850Y009503D02*
X009942Y009503D01*
X010127Y009622D02*
X010850Y009622D01*
X010850Y009740D02*
X010195Y009740D01*
X010195Y009859D02*
X010850Y009859D01*
X010850Y009977D02*
X010195Y009977D01*
X010195Y010096D02*
X010850Y010096D01*
X010850Y010214D02*
X010195Y010214D01*
X010195Y010333D02*
X010850Y010333D01*
X010850Y010451D02*
X010195Y010451D01*
X010195Y010570D02*
X010850Y010570D01*
X010850Y010688D02*
X010195Y010688D01*
X010139Y010807D02*
X010850Y010807D01*
X010850Y010925D02*
X008315Y010925D01*
X008315Y010807D02*
X009026Y010807D01*
X008970Y010688D02*
X008315Y010688D01*
X008315Y010570D02*
X008970Y010570D01*
X008970Y010451D02*
X008315Y010451D01*
X008315Y010333D02*
X008970Y010333D01*
X008970Y010214D02*
X008334Y010214D01*
X007909Y010122D02*
X007321Y010122D01*
X007182Y010260D01*
X007484Y010214D02*
X004682Y010214D01*
X004682Y010096D02*
X005044Y010096D01*
X005042Y010094D02*
X005021Y010058D01*
X005010Y010017D01*
X005010Y009779D01*
X005309Y009779D01*
X005309Y010156D01*
X005149Y010156D01*
X005109Y010145D01*
X005072Y010124D01*
X005042Y010094D01*
X005010Y009977D02*
X004682Y009977D01*
X004682Y009859D02*
X005010Y009859D01*
X005010Y009741D02*
X005010Y009503D01*
X004682Y009503D01*
X004682Y009385D02*
X005092Y009385D01*
X005109Y009375D02*
X005149Y009364D01*
X005309Y009364D01*
X005309Y009741D01*
X005347Y009741D01*
X005347Y009779D01*
X005309Y009779D01*
X005309Y009741D01*
X005010Y009741D01*
X005010Y009740D02*
X004682Y009740D01*
X004682Y009622D02*
X005010Y009622D01*
X005010Y009503D02*
X005021Y009462D01*
X005042Y009426D01*
X005072Y009396D01*
X005109Y009375D01*
X005309Y009385D02*
X005347Y009385D01*
X005347Y009364D02*
X005506Y009364D01*
X005547Y009375D01*
X005584Y009396D01*
X005613Y009426D01*
X005635Y009462D01*
X005645Y009503D01*
X005739Y009503D01*
X005645Y009503D02*
X005645Y009741D01*
X005347Y009741D01*
X005347Y009364D01*
X005347Y009503D02*
X005309Y009503D01*
X005309Y009622D02*
X005347Y009622D01*
X005347Y009740D02*
X005309Y009740D01*
X005347Y009779D02*
X005347Y010156D01*
X005506Y010156D01*
X005547Y010145D01*
X005584Y010124D01*
X005613Y010094D01*
X005635Y010058D01*
X005645Y010017D01*
X005645Y009779D01*
X005347Y009779D01*
X005347Y009859D02*
X005309Y009859D01*
X005309Y009977D02*
X005347Y009977D01*
X005347Y010096D02*
X005309Y010096D01*
X005612Y010096D02*
X005780Y010096D01*
X005739Y009977D02*
X005645Y009977D01*
X005645Y009859D02*
X005739Y009859D01*
X005739Y009740D02*
X005645Y009740D01*
X005645Y009622D02*
X005739Y009622D01*
X005820Y009385D02*
X005564Y009385D01*
X005617Y009148D02*
X004682Y009148D01*
X004682Y009266D02*
X006347Y009266D01*
X006347Y009148D02*
X006039Y009148D01*
X006047Y009145D02*
X006006Y009156D01*
X005847Y009156D01*
X005847Y008779D01*
X005809Y008779D01*
X005809Y009156D01*
X005649Y009156D01*
X005609Y009145D01*
X005572Y009124D01*
X005542Y009094D01*
X005521Y009058D01*
X005510Y009017D01*
X005510Y008779D01*
X005809Y008779D01*
X005809Y008741D01*
X005847Y008741D01*
X005847Y008779D01*
X006145Y008779D01*
X006145Y009017D01*
X006135Y009058D01*
X006113Y009094D01*
X006084Y009124D01*
X006047Y009145D01*
X006142Y009029D02*
X006239Y009029D01*
X006239Y008911D02*
X006145Y008911D01*
X006145Y008792D02*
X006239Y008792D01*
X006145Y008741D02*
X005847Y008741D01*
X005847Y008364D01*
X006006Y008364D01*
X006047Y008375D01*
X006084Y008396D01*
X006113Y008426D01*
X006135Y008462D01*
X006145Y008503D01*
X006145Y008741D01*
X006145Y008674D02*
X006239Y008674D01*
X006239Y008555D02*
X006145Y008555D01*
X006120Y008437D02*
X006268Y008437D01*
X006309Y008156D02*
X006149Y008156D01*
X006109Y008145D01*
X006072Y008124D01*
X006042Y008094D01*
X006021Y008058D01*
X006010Y008017D01*
X006010Y007779D01*
X006309Y007779D01*
X006309Y008156D01*
X006347Y008156D02*
X006347Y007779D01*
X006309Y007779D01*
X006309Y007741D01*
X006347Y007741D01*
X006347Y007779D01*
X006645Y007779D01*
X006645Y008017D01*
X006635Y008058D01*
X006613Y008094D01*
X006584Y008124D01*
X006547Y008145D01*
X006506Y008156D01*
X006347Y008156D01*
X006347Y008081D02*
X006309Y008081D01*
X006309Y007963D02*
X006347Y007963D01*
X006347Y007844D02*
X006309Y007844D01*
X006309Y007741D02*
X006010Y007741D01*
X006010Y007503D01*
X006021Y007462D01*
X006042Y007426D01*
X006072Y007396D01*
X006109Y007375D01*
X006149Y007364D01*
X006309Y007364D01*
X006309Y007741D01*
X006309Y007726D02*
X006347Y007726D01*
X006347Y007741D02*
X006347Y007364D01*
X006506Y007364D01*
X006547Y007375D01*
X006584Y007396D01*
X006613Y007426D01*
X006635Y007462D01*
X006645Y007503D01*
X006645Y007741D01*
X006347Y007741D01*
X006347Y007607D02*
X006309Y007607D01*
X006309Y007489D02*
X006347Y007489D01*
X006347Y007370D02*
X006309Y007370D01*
X006126Y007370D02*
X004682Y007370D01*
X004682Y007252D02*
X007769Y007252D01*
X007888Y007370D02*
X006530Y007370D01*
X006642Y007489D02*
X006739Y007489D01*
X006739Y007607D02*
X006645Y007607D01*
X006645Y007726D02*
X006739Y007726D01*
X006739Y007844D02*
X006645Y007844D01*
X006645Y007963D02*
X006739Y007963D01*
X006766Y008081D02*
X006621Y008081D01*
X006847Y008200D02*
X004682Y008200D01*
X004682Y008318D02*
X006847Y008318D01*
X006847Y008437D02*
X006805Y008437D01*
X006834Y008555D02*
X006847Y008555D01*
X006834Y008674D02*
X006847Y008674D01*
X006834Y008792D02*
X006847Y008792D01*
X006834Y008911D02*
X006847Y008911D01*
X006834Y009029D02*
X006847Y009029D01*
X006847Y009148D02*
X006727Y009148D01*
X006727Y009266D02*
X006847Y009266D01*
X006871Y009385D02*
X006727Y009385D01*
X006830Y009503D02*
X006990Y009503D01*
X007290Y009266D02*
X007503Y009266D01*
X007503Y009148D02*
X007227Y009148D01*
X007227Y009029D02*
X007503Y009029D01*
X007227Y008911D02*
X008331Y008911D01*
X008322Y009029D02*
X008315Y009029D01*
X008291Y008792D02*
X007227Y008792D01*
X007227Y008674D02*
X008291Y008674D01*
X008291Y008555D02*
X007227Y008555D01*
X007227Y008437D02*
X008291Y008437D01*
X008291Y008318D02*
X007227Y008318D01*
X007227Y008200D02*
X008310Y008200D01*
X008310Y008081D02*
X007307Y008081D01*
X007334Y007963D02*
X008310Y007963D01*
X008310Y007844D02*
X007334Y007844D01*
X007334Y007726D02*
X008243Y007726D01*
X008125Y007607D02*
X007334Y007607D01*
X007334Y007489D02*
X008006Y007489D01*
X007651Y007133D02*
X004682Y007133D01*
X004682Y007015D02*
X007532Y007015D01*
X007414Y006896D02*
X004682Y006896D01*
X004682Y006778D02*
X007295Y006778D01*
X007177Y006659D02*
X004682Y006659D01*
X004682Y006541D02*
X007058Y006541D01*
X006940Y006422D02*
X004682Y006422D01*
X004682Y006304D02*
X006821Y006304D01*
X006703Y006185D02*
X004682Y006185D01*
X004682Y006067D02*
X006584Y006067D01*
X006466Y005948D02*
X004682Y005948D01*
X004682Y005830D02*
X006347Y005830D01*
X006229Y005711D02*
X004682Y005711D01*
X004682Y005593D02*
X006110Y005593D01*
X005708Y005474D02*
X004682Y005474D01*
X004682Y005356D02*
X005580Y005356D01*
X005531Y005237D02*
X004682Y005237D01*
X004682Y005119D02*
X005519Y005119D01*
X005540Y005000D02*
X004682Y005000D01*
X004682Y004882D02*
X005603Y004882D01*
X005764Y004763D02*
X004682Y004763D01*
X004682Y004645D02*
X006147Y004645D01*
X006069Y004763D02*
X006265Y004763D01*
X006292Y004882D02*
X006230Y004882D01*
X006672Y004763D02*
X006748Y004763D01*
X006672Y004645D02*
X007131Y004645D01*
X007053Y004763D02*
X007249Y004763D01*
X007252Y004882D02*
X007214Y004882D01*
X007632Y004882D02*
X007732Y004882D01*
X007732Y005000D02*
X007632Y005000D01*
X007632Y005119D02*
X007732Y005119D01*
X007732Y005237D02*
X007632Y005237D01*
X007726Y005356D02*
X007732Y005356D01*
X008112Y005356D02*
X008812Y005356D01*
X008812Y005474D02*
X008112Y005474D01*
X008203Y005593D02*
X008812Y005593D01*
X008812Y005711D02*
X008322Y005711D01*
X008440Y005830D02*
X008812Y005830D01*
X008812Y005948D02*
X008559Y005948D01*
X008677Y006067D02*
X008812Y006067D01*
X008812Y006185D02*
X008796Y006185D01*
X009192Y005474D02*
X009652Y005474D01*
X009652Y005356D02*
X009192Y005356D01*
X009192Y005237D02*
X009652Y005237D01*
X009652Y005119D02*
X009192Y005119D01*
X009192Y005000D02*
X009652Y005000D01*
X009652Y004882D02*
X009192Y004882D01*
X009192Y004763D02*
X009652Y004763D01*
X009652Y004645D02*
X009192Y004645D01*
X009192Y004526D02*
X009652Y004526D01*
X009553Y004408D02*
X009192Y004408D01*
X009240Y004289D02*
X009483Y004289D01*
X009456Y004171D02*
X009267Y004171D01*
X009261Y004052D02*
X009462Y004052D01*
X009511Y003934D02*
X009212Y003934D01*
X009101Y003815D02*
X009622Y003815D01*
X008638Y003815D02*
X008116Y003815D01*
X008227Y003934D02*
X008527Y003934D01*
X008478Y004052D02*
X008276Y004052D01*
X008283Y004171D02*
X008472Y004171D01*
X008498Y004289D02*
X008256Y004289D01*
X008185Y004408D02*
X008569Y004408D01*
X008748Y004526D02*
X008112Y004526D01*
X008112Y004645D02*
X008812Y004645D01*
X008812Y004763D02*
X008112Y004763D01*
X008112Y004882D02*
X008812Y004882D01*
X008812Y005000D02*
X008112Y005000D01*
X008112Y005119D02*
X008812Y005119D01*
X008812Y005237D02*
X008112Y005237D01*
X007732Y004763D02*
X007632Y004763D01*
X007632Y004645D02*
X007732Y004645D01*
X007732Y004526D02*
X007550Y004526D01*
X007585Y004408D02*
X007431Y004408D01*
X007514Y004289D02*
X007313Y004289D01*
X007298Y004171D02*
X007488Y004171D01*
X007494Y004052D02*
X007292Y004052D01*
X007243Y003934D02*
X007543Y003934D01*
X007654Y003815D02*
X007132Y003815D01*
X006669Y003815D02*
X006148Y003815D01*
X006259Y003934D02*
X006559Y003934D01*
X006509Y004052D02*
X006308Y004052D01*
X006314Y004171D02*
X006503Y004171D01*
X006530Y004289D02*
X006328Y004289D01*
X006447Y004408D02*
X006600Y004408D01*
X006565Y004526D02*
X006780Y004526D01*
X005796Y004526D02*
X004682Y004526D01*
X004682Y004408D02*
X005616Y004408D01*
X005546Y004289D02*
X004682Y004289D01*
X004682Y004171D02*
X005519Y004171D01*
X005525Y004052D02*
X004682Y004052D01*
X004682Y003934D02*
X005574Y003934D01*
X005685Y003815D02*
X004682Y003815D01*
X010352Y006659D02*
X011812Y006659D01*
X011812Y006541D02*
X010470Y006541D01*
X010512Y006422D02*
X011812Y006422D01*
X011812Y006304D02*
X010512Y006304D01*
X010586Y006185D02*
X011812Y006185D01*
X011812Y006067D02*
X010704Y006067D01*
X010823Y005948D02*
X011812Y005948D01*
X011812Y005830D02*
X010941Y005830D01*
X011060Y005711D02*
X011812Y005711D01*
X011841Y005593D02*
X011178Y005593D01*
X011297Y005474D02*
X011614Y005474D01*
X011485Y005356D02*
X011415Y005356D01*
X012220Y005119D02*
X012315Y005119D01*
X012198Y005000D02*
X012434Y005000D01*
X012552Y004882D02*
X012136Y004882D01*
X011975Y004763D02*
X012671Y004763D01*
X012685Y004526D02*
X011943Y004526D01*
X012122Y004408D02*
X012506Y004408D01*
X012435Y004289D02*
X012193Y004289D01*
X012220Y004171D02*
X012409Y004171D01*
X012415Y004052D02*
X012213Y004052D01*
X012164Y003934D02*
X012464Y003934D01*
X012575Y003815D02*
X012053Y003815D01*
X013038Y003815D02*
X014935Y003815D01*
X014824Y003934D02*
X013149Y003934D01*
X013198Y004052D02*
X014775Y004052D01*
X014769Y004171D02*
X013204Y004171D01*
X013177Y004289D02*
X014796Y004289D01*
X014866Y004408D02*
X013107Y004408D01*
X014337Y004526D02*
X015046Y004526D01*
X015014Y004763D02*
X014574Y004763D01*
X014455Y004645D02*
X015397Y004645D01*
X015319Y004763D02*
X015515Y004763D01*
X015532Y004882D02*
X015480Y004882D01*
X015912Y004763D02*
X015998Y004763D01*
X015912Y004645D02*
X016381Y004645D01*
X016303Y004763D02*
X016499Y004763D01*
X016464Y004882D02*
X016612Y004882D01*
X016612Y005000D02*
X016527Y005000D01*
X016548Y005119D02*
X016612Y005119D01*
X016612Y005237D02*
X016537Y005237D01*
X016918Y004645D02*
X016972Y004645D01*
X016972Y004526D02*
X016800Y004526D01*
X016835Y004408D02*
X016681Y004408D01*
X016764Y004289D02*
X016563Y004289D01*
X016548Y004171D02*
X016738Y004171D01*
X016744Y004052D02*
X016542Y004052D01*
X016493Y003934D02*
X016793Y003934D01*
X016904Y003815D02*
X016382Y003815D01*
X015919Y003815D02*
X015398Y003815D01*
X015509Y003934D02*
X015809Y003934D01*
X015759Y004052D02*
X015558Y004052D01*
X015564Y004171D02*
X015753Y004171D01*
X015780Y004289D02*
X015578Y004289D01*
X015697Y004408D02*
X015850Y004408D01*
X015815Y004526D02*
X016030Y004526D01*
X014853Y004882D02*
X014692Y004882D01*
X015147Y007370D02*
X015844Y007370D01*
X015844Y007489D02*
X015160Y007489D01*
X015160Y007607D02*
X015982Y007607D01*
X017712Y008993D02*
X017712Y009499D01*
X017601Y009610D01*
X017535Y009610D01*
X017535Y009740D02*
X018190Y009740D01*
X018190Y009859D02*
X017535Y009859D01*
X017535Y009977D02*
X018190Y009977D01*
X018190Y010096D02*
X017555Y010096D01*
X017555Y010162D02*
X017465Y010162D01*
X017555Y010162D01*
X017555Y010214D02*
X018190Y010214D01*
X018190Y010333D02*
X017535Y010333D01*
X017535Y010451D02*
X018190Y010451D01*
X018190Y010570D02*
X017535Y010570D01*
X017535Y010688D02*
X018190Y010688D01*
X018206Y010807D02*
X017535Y010807D01*
X017535Y010925D02*
X020070Y010925D01*
X020070Y010807D02*
X019399Y010807D01*
X019415Y010688D02*
X020070Y010688D01*
X020070Y010570D02*
X019415Y010570D01*
X019415Y010451D02*
X019441Y010451D01*
X019803Y010451D02*
X020070Y010451D01*
X020070Y010333D02*
X019917Y010333D01*
X019960Y010214D02*
X020070Y010214D01*
X020070Y010096D02*
X019970Y010096D01*
X020476Y009571D02*
X021253Y009571D01*
X021422Y009740D01*
X021663Y009977D02*
X022050Y009977D01*
X021310Y010451D02*
X020881Y010451D01*
X020881Y010333D02*
X021192Y010333D01*
X021073Y010214D02*
X020881Y010214D01*
X020881Y010096D02*
X020955Y010096D01*
X020881Y010807D02*
X023742Y010807D01*
X023742Y010925D02*
X020881Y010925D01*
X020881Y011044D02*
X023742Y011044D01*
X023742Y011162D02*
X020881Y011162D01*
X020881Y011281D02*
X023742Y011281D01*
X023742Y011399D02*
X020881Y011399D01*
X020833Y011518D02*
X023742Y011518D01*
X020070Y011399D02*
X017535Y011399D01*
X017535Y011281D02*
X020070Y011281D01*
X020070Y011162D02*
X017535Y011162D01*
X017535Y011044D02*
X020070Y011044D01*
X020070Y009503D02*
X017708Y009503D01*
X017712Y009385D02*
X020070Y009385D01*
X020070Y009266D02*
X017712Y009266D01*
X017712Y009148D02*
X020070Y009148D01*
X020091Y009029D02*
X017712Y009029D01*
X017712Y008993D02*
X020012Y008993D01*
X020094Y008911D01*
X017465Y010162D02*
X017465Y010162D01*
X017465Y010162D01*
X016723Y010333D02*
X013328Y010333D01*
X012013Y010214D02*
X011661Y010214D01*
X011661Y010096D02*
X011895Y010096D01*
X011776Y009977D02*
X011661Y009977D01*
X011661Y010570D02*
X015330Y010570D01*
X015058Y010688D02*
X011661Y010688D01*
X010850Y011044D02*
X008315Y011044D01*
X008315Y011162D02*
X010850Y011162D01*
X010850Y011281D02*
X008315Y011281D01*
X008315Y011399D02*
X010850Y011399D01*
X010874Y011755D02*
X017419Y011755D01*
X017301Y011873D02*
X010874Y011873D01*
X010874Y011992D02*
X017182Y011992D01*
X017064Y012110D02*
X010874Y012110D01*
X010862Y012229D02*
X016945Y012229D01*
X016827Y012347D02*
X010855Y012347D01*
X010855Y012466D02*
X016708Y012466D01*
X016590Y012584D02*
X010855Y012584D01*
X010855Y012703D02*
X016471Y012703D01*
X016353Y012821D02*
X010855Y012821D01*
X010855Y012940D02*
X016234Y012940D01*
X016116Y013058D02*
X010869Y013058D01*
X010988Y013177D02*
X015997Y013177D01*
X015879Y013295D02*
X011106Y013295D01*
X011225Y013414D02*
X015760Y013414D01*
X015642Y013532D02*
X011343Y013532D01*
X011462Y013651D02*
X015523Y013651D01*
X015405Y013769D02*
X011580Y013769D01*
X011699Y013888D02*
X015286Y013888D01*
X015168Y014006D02*
X011817Y014006D01*
X011936Y014125D02*
X015049Y014125D01*
X014931Y014243D02*
X012054Y014243D01*
X012173Y014362D02*
X014812Y014362D01*
X014694Y014480D02*
X012291Y014480D01*
X012410Y014599D02*
X012671Y014599D01*
X012942Y014599D02*
X014575Y014599D01*
X014492Y014717D02*
X013113Y014717D01*
X013180Y014836D02*
X014492Y014836D01*
X014492Y014954D02*
X013204Y014954D01*
X013195Y015073D02*
X014492Y015073D01*
X014492Y015191D02*
X013146Y015191D01*
X013031Y015310D02*
X014492Y015310D01*
X014492Y015428D02*
X012552Y015428D01*
X012552Y015310D02*
X012581Y015310D01*
X012665Y015547D02*
X014492Y015547D01*
X014606Y015665D02*
X013077Y015665D01*
X013165Y015784D02*
X014725Y015784D01*
X014769Y015902D02*
X013204Y015902D01*
X013204Y016021D02*
X014769Y016021D01*
X014812Y016139D02*
X013161Y016139D01*
X013068Y016258D02*
X014905Y016258D01*
X015428Y016258D02*
X015889Y016258D01*
X015796Y016139D02*
X015521Y016139D01*
X015564Y016021D02*
X015753Y016021D01*
X015753Y015902D02*
X015564Y015902D01*
X015525Y015784D02*
X015792Y015784D01*
X015880Y015665D02*
X015437Y015665D01*
X015025Y015547D02*
X016292Y015547D01*
X016411Y015428D02*
X014906Y015428D01*
X014872Y015310D02*
X014941Y015310D01*
X015392Y015310D02*
X015926Y015310D01*
X015811Y015191D02*
X015506Y015191D01*
X015555Y015073D02*
X015762Y015073D01*
X015753Y014954D02*
X015564Y014954D01*
X015572Y014836D02*
X015777Y014836D01*
X015844Y014717D02*
X015691Y014717D01*
X015809Y014599D02*
X016015Y014599D01*
X015928Y014480D02*
X016375Y014480D01*
X016493Y014362D02*
X016046Y014362D01*
X016165Y014243D02*
X016612Y014243D01*
X016730Y014125D02*
X016283Y014125D01*
X016402Y014006D02*
X016849Y014006D01*
X016967Y013888D02*
X016520Y013888D01*
X016639Y013769D02*
X017086Y013769D01*
X017204Y013651D02*
X016757Y013651D01*
X016876Y013532D02*
X017323Y013532D01*
X017441Y013414D02*
X016994Y013414D01*
X017113Y013295D02*
X017560Y013295D01*
X017678Y013177D02*
X017231Y013177D01*
X017350Y013058D02*
X017797Y013058D01*
X017915Y012940D02*
X017468Y012940D01*
X017587Y012821D02*
X017923Y012821D01*
X017923Y012703D02*
X017705Y012703D01*
X017824Y012584D02*
X017923Y012584D01*
X018489Y013888D02*
X018514Y013888D01*
X018514Y014006D02*
X018370Y014006D01*
X018252Y014125D02*
X018514Y014125D01*
X018514Y014243D02*
X018133Y014243D01*
X018015Y014362D02*
X018462Y014362D01*
X018343Y014480D02*
X017896Y014480D01*
X017778Y014599D02*
X018225Y014599D01*
X018106Y014717D02*
X017659Y014717D01*
X017541Y014836D02*
X017988Y014836D01*
X017869Y014954D02*
X017533Y014954D01*
X017524Y015073D02*
X017751Y015073D01*
X017632Y015191D02*
X017475Y015191D01*
X017514Y015310D02*
X017360Y015310D01*
X017395Y015428D02*
X016872Y015428D01*
X016872Y015310D02*
X016910Y015310D01*
X016830Y015547D02*
X017277Y015547D01*
X017577Y015784D02*
X017761Y015784D01*
X017722Y015902D02*
X017533Y015902D01*
X017533Y016021D02*
X017722Y016021D01*
X017765Y016139D02*
X017490Y016139D01*
X017396Y016258D02*
X017858Y016258D01*
X018381Y016258D02*
X018842Y016258D01*
X018749Y016139D02*
X018474Y016139D01*
X018517Y016021D02*
X018706Y016021D01*
X018706Y015902D02*
X018517Y015902D01*
X018561Y015784D02*
X018745Y015784D01*
X018680Y015665D02*
X018833Y015665D01*
X018798Y015547D02*
X018908Y015547D01*
X018616Y015191D02*
X018170Y015191D01*
X018288Y015073D02*
X018711Y015073D01*
X018711Y014954D02*
X018407Y014954D01*
X018525Y014836D02*
X018711Y014836D01*
X018711Y014717D02*
X018644Y014717D01*
X018498Y015310D02*
X018051Y015310D01*
X017933Y015428D02*
X018379Y015428D01*
X018261Y015547D02*
X017814Y015547D01*
X017849Y015665D02*
X017696Y015665D01*
X016865Y015665D02*
X016711Y015665D01*
X016777Y015784D02*
X016593Y015784D01*
X016548Y015902D02*
X016738Y015902D01*
X016738Y016021D02*
X016548Y016021D01*
X016506Y016139D02*
X016780Y016139D01*
X016874Y016258D02*
X016412Y016258D01*
X016376Y015310D02*
X016492Y015310D01*
X016491Y015191D02*
X016492Y015191D01*
X019484Y015073D02*
X019919Y015073D01*
X019801Y014954D02*
X019484Y014954D01*
X019484Y014836D02*
X019682Y014836D01*
X019564Y014717D02*
X019484Y014717D01*
X019745Y014362D02*
X020192Y014362D01*
X020074Y014243D02*
X019681Y014243D01*
X019681Y014125D02*
X019955Y014125D01*
X019837Y014006D02*
X019681Y014006D01*
X019681Y013888D02*
X019718Y013888D01*
X016723Y011281D02*
X016334Y011281D01*
X016334Y011162D02*
X016723Y011162D01*
X015739Y011162D02*
X015625Y011162D01*
X015625Y011044D02*
X015739Y011044D01*
X015739Y010925D02*
X015625Y010925D01*
X015659Y010807D02*
X015739Y010807D01*
X015739Y011281D02*
X015625Y011281D01*
X015030Y011281D02*
X014780Y011281D01*
X014747Y010807D02*
X015030Y010807D01*
X010022Y009140D02*
X009542Y009620D01*
X009122Y009620D01*
X008818Y009925D01*
X007909Y009925D01*
X007909Y009728D02*
X008774Y009728D01*
X009362Y009140D01*
X008642Y009140D02*
X008251Y009531D01*
X007909Y009531D01*
X007909Y010318D02*
X007909Y010515D01*
X006427Y010515D01*
X006182Y010760D01*
X005182Y010760D01*
X005045Y010451D02*
X004682Y010451D01*
X004682Y010333D02*
X006327Y010333D01*
X006208Y010451D02*
X005320Y010451D01*
X004895Y010570D02*
X004682Y010570D01*
X004682Y010688D02*
X004846Y010688D01*
X004844Y010807D02*
X004682Y010807D01*
X004682Y010925D02*
X004885Y010925D01*
X004988Y011044D02*
X004682Y011044D01*
X004682Y011162D02*
X005780Y011162D01*
X005780Y011044D02*
X005377Y011044D01*
X005780Y011281D02*
X004682Y011281D01*
X004682Y011399D02*
X007503Y011399D01*
X007503Y011281D02*
X007084Y011281D01*
X007084Y011162D02*
X007503Y011162D01*
X008343Y011518D02*
X004682Y011518D01*
X004682Y011636D02*
X008291Y011636D01*
X008199Y011755D02*
X004682Y011755D01*
X004682Y011873D02*
X008081Y011873D01*
X007962Y011992D02*
X004682Y011992D01*
X004682Y012110D02*
X007844Y012110D01*
X007725Y012229D02*
X004682Y012229D01*
X004682Y012347D02*
X007607Y012347D01*
X007488Y012466D02*
X004682Y012466D01*
X004682Y012584D02*
X007370Y012584D01*
X007251Y012703D02*
X004682Y012703D01*
X004682Y012821D02*
X007133Y012821D01*
X007014Y012940D02*
X004682Y012940D01*
X004682Y013058D02*
X006896Y013058D01*
X006777Y013177D02*
X004682Y013177D01*
X004682Y013295D02*
X006659Y013295D01*
X006540Y013414D02*
X004682Y013414D01*
X004682Y013532D02*
X006422Y013532D01*
X006303Y013651D02*
X004682Y013651D01*
X004682Y013769D02*
X006185Y013769D01*
X006066Y013888D02*
X004682Y013888D01*
X004682Y014006D02*
X005948Y014006D01*
X005829Y014125D02*
X004682Y014125D01*
X004682Y014243D02*
X005711Y014243D01*
X005592Y014362D02*
X004682Y014362D01*
X004682Y014480D02*
X005474Y014480D01*
X005355Y014599D02*
X004682Y014599D01*
X004682Y014717D02*
X005237Y014717D01*
X005212Y014836D02*
X004682Y014836D01*
X004682Y014954D02*
X005212Y014954D01*
X005212Y015073D02*
X004682Y015073D01*
X004682Y015191D02*
X005212Y015191D01*
X005212Y015310D02*
X004682Y015310D01*
X004682Y015428D02*
X005212Y015428D01*
X005238Y015547D02*
X004682Y015547D01*
X004682Y015665D02*
X005356Y015665D01*
X005475Y015784D02*
X004682Y015784D01*
X004682Y015902D02*
X005519Y015902D01*
X005519Y016021D02*
X004682Y016021D01*
X004682Y016139D02*
X005562Y016139D01*
X005655Y016258D02*
X004682Y016258D01*
X004682Y016376D02*
X044682Y016376D01*
X044682Y016258D02*
X043418Y016258D01*
X043511Y016139D02*
X044682Y016139D01*
X044682Y016021D02*
X043554Y016021D01*
X043554Y015902D02*
X044682Y015902D01*
X044682Y015784D02*
X043515Y015784D01*
X043427Y015665D02*
X044682Y015665D01*
X044682Y015547D02*
X043015Y015547D01*
X042972Y015428D02*
X044682Y015428D01*
X044682Y015310D02*
X043381Y015310D01*
X043496Y015191D02*
X044682Y015191D01*
X044682Y015073D02*
X043545Y015073D01*
X043554Y014954D02*
X044682Y014954D01*
X044682Y014836D02*
X043530Y014836D01*
X043463Y014717D02*
X044682Y014717D01*
X044682Y014599D02*
X043292Y014599D01*
X043021Y014599D02*
X042640Y014599D01*
X042758Y014717D02*
X042850Y014717D01*
X042521Y014480D02*
X044682Y014480D01*
X044682Y014362D02*
X042403Y014362D01*
X042284Y014243D02*
X044682Y014243D01*
X044682Y014125D02*
X042166Y014125D01*
X042047Y014006D02*
X044682Y014006D01*
X044682Y013888D02*
X041929Y013888D01*
X041810Y013769D02*
X044682Y013769D01*
X044682Y013651D02*
X041692Y013651D01*
X041573Y013532D02*
X044682Y013532D01*
X044682Y013414D02*
X041455Y013414D01*
X041336Y013295D02*
X044682Y013295D01*
X044682Y013177D02*
X041218Y013177D01*
X041099Y013058D02*
X044682Y013058D01*
X044682Y012940D02*
X041055Y012940D01*
X041055Y012821D02*
X044682Y012821D01*
X044682Y012703D02*
X041055Y012703D01*
X041055Y012584D02*
X044682Y012584D01*
X044682Y012466D02*
X041055Y012466D01*
X041055Y012347D02*
X044682Y012347D01*
X044682Y012229D02*
X041055Y012229D01*
X041074Y012110D02*
X044682Y012110D01*
X044682Y011992D02*
X041074Y011992D01*
X041074Y011873D02*
X044682Y011873D01*
X044682Y011755D02*
X041074Y011755D01*
X041074Y011636D02*
X044682Y011636D01*
X044682Y011518D02*
X041074Y011518D01*
X041812Y011399D02*
X044682Y011399D01*
X044682Y011281D02*
X041861Y011281D01*
X041861Y011162D02*
X044682Y011162D01*
X044682Y011044D02*
X041861Y011044D01*
X041861Y010925D02*
X044682Y010925D01*
X044682Y010807D02*
X041861Y010807D01*
X041861Y010688D02*
X044682Y010688D01*
X044682Y010570D02*
X041861Y010570D01*
X041861Y010451D02*
X044682Y010451D01*
X044682Y010333D02*
X041861Y010333D01*
X041861Y010214D02*
X044682Y010214D01*
X044682Y010096D02*
X041861Y010096D01*
X041861Y009977D02*
X043971Y009977D01*
X043852Y009859D02*
X041861Y009859D01*
X041861Y009740D02*
X043734Y009740D01*
X043615Y009622D02*
X041861Y009622D01*
X041861Y009503D02*
X043497Y009503D01*
X043797Y009266D02*
X044682Y009266D01*
X044682Y009148D02*
X043679Y009148D01*
X043916Y009385D02*
X044682Y009385D01*
X044682Y009503D02*
X044034Y009503D01*
X044153Y009622D02*
X044682Y009622D01*
X044682Y009740D02*
X044271Y009740D01*
X044352Y009859D02*
X044682Y009859D01*
X044682Y009977D02*
X044352Y009977D01*
X044682Y009029D02*
X041861Y009029D01*
X041841Y008911D02*
X044682Y008911D01*
X041456Y009451D02*
X040373Y009451D01*
X040350Y009648D02*
X040082Y009380D01*
X039182Y009380D01*
X038445Y010042D02*
X038445Y010042D01*
X038445Y010042D01*
X038109Y010238D02*
X038109Y010435D01*
X036567Y010435D01*
X036362Y010640D01*
X036362Y010976D01*
X036328Y011010D01*
X035712Y011010D01*
X035702Y011000D01*
X035572Y010688D02*
X032601Y010688D01*
X032601Y010570D02*
X034046Y010570D01*
X033895Y010451D02*
X032601Y010451D01*
X032601Y010333D02*
X033846Y010333D01*
X033844Y010214D02*
X032601Y010214D01*
X032601Y010096D02*
X033735Y010096D01*
X033616Y009977D02*
X032601Y009977D01*
X032601Y009859D02*
X033498Y009859D01*
X033373Y009451D02*
X032196Y009451D01*
X032196Y009648D02*
X031834Y009648D01*
X031562Y009920D01*
X031562Y011180D01*
X031339Y010925D02*
X031320Y010925D01*
X031821Y011399D02*
X031839Y011399D01*
X032552Y011399D02*
X037753Y011399D01*
X037703Y011281D02*
X037334Y011281D01*
X037334Y011162D02*
X037703Y011162D01*
X037703Y011044D02*
X037351Y011044D01*
X036739Y011044D02*
X036625Y011044D01*
X036625Y011162D02*
X036739Y011162D01*
X036739Y011281D02*
X036625Y011281D01*
X036625Y010925D02*
X036739Y010925D01*
X036739Y010807D02*
X036625Y010807D01*
X036598Y010688D02*
X036767Y010688D01*
X036367Y010352D02*
X036367Y010352D01*
X036387Y010333D02*
X035108Y010333D01*
X035181Y010214D02*
X037703Y010214D01*
X037683Y010096D02*
X035200Y010096D01*
X035130Y009890D02*
X035130Y009659D01*
X035429Y009659D01*
X035429Y009621D01*
X035130Y009621D01*
X035130Y009383D01*
X035141Y009342D01*
X035143Y009340D01*
X035020Y009340D01*
X034934Y009427D01*
X034810Y009478D01*
X034675Y009478D01*
X034551Y009427D01*
X034456Y009332D01*
X034404Y009207D01*
X034404Y009073D01*
X034456Y008948D01*
X034551Y008853D01*
X034675Y008802D01*
X034810Y008802D01*
X034934Y008853D01*
X035020Y008940D01*
X035430Y008940D01*
X035430Y008879D01*
X035729Y008879D01*
X035729Y008841D01*
X035430Y008841D01*
X035430Y008603D01*
X035441Y008562D01*
X035462Y008526D01*
X035492Y008496D01*
X035529Y008475D01*
X035569Y008464D01*
X035583Y008464D01*
X035499Y008380D01*
X035020Y008380D01*
X034934Y008467D01*
X034810Y008518D01*
X034675Y008518D01*
X034551Y008467D01*
X034456Y008372D01*
X034404Y008247D01*
X034404Y008113D01*
X034456Y007988D01*
X034551Y007893D01*
X034675Y007842D01*
X034810Y007842D01*
X034934Y007893D01*
X035020Y007980D01*
X035665Y007980D01*
X035730Y008045D01*
X035730Y008019D01*
X036029Y008019D01*
X036029Y007981D01*
X036067Y007981D01*
X036067Y008019D01*
X036365Y008019D01*
X036365Y008257D01*
X036355Y008298D01*
X036333Y008334D01*
X036304Y008364D01*
X036267Y008385D01*
X036265Y008386D01*
X036363Y008484D01*
X036567Y008484D01*
X036567Y008376D01*
X036541Y008376D01*
X036459Y008294D01*
X036459Y007985D01*
X036365Y007892D01*
X036365Y007981D01*
X036067Y007981D01*
X036067Y007604D01*
X036078Y007604D01*
X035954Y007480D01*
X035020Y007480D01*
X034934Y007567D01*
X034810Y007618D01*
X034675Y007618D01*
X034551Y007567D01*
X034456Y007472D01*
X034404Y007347D01*
X034404Y007213D01*
X034456Y007088D01*
X034551Y006993D01*
X034675Y006942D01*
X034810Y006942D01*
X034934Y006993D01*
X035020Y007080D01*
X036119Y007080D01*
X036663Y007624D01*
X036972Y007624D01*
X037054Y007706D01*
X037054Y008294D01*
X036972Y008376D01*
X036947Y008376D01*
X036947Y008536D01*
X037672Y009261D01*
X037703Y009261D01*
X037703Y008930D01*
X037785Y008848D01*
X038332Y008848D01*
X038332Y008059D01*
X035724Y005450D01*
X034261Y005450D01*
X033372Y006339D01*
X033372Y009089D01*
X033261Y009200D01*
X033210Y009251D01*
X033456Y009251D01*
X033573Y009368D01*
X033653Y009448D01*
X034493Y009448D01*
X034610Y009565D01*
X034807Y009762D01*
X034930Y009762D01*
X035054Y009813D01*
X035130Y009890D01*
X035130Y009859D02*
X035099Y009859D01*
X035130Y009740D02*
X034785Y009740D01*
X034667Y009622D02*
X035429Y009622D01*
X035467Y009622D02*
X035855Y009622D01*
X035765Y009659D02*
X035765Y009897D01*
X035755Y009938D01*
X035733Y009974D01*
X035704Y010004D01*
X035667Y010025D01*
X035626Y010036D01*
X035467Y010036D01*
X035467Y009659D01*
X035765Y009659D01*
X035765Y009740D02*
X035859Y009740D01*
X035859Y009859D02*
X035765Y009859D01*
X035731Y009977D02*
X035902Y009977D01*
X036157Y009640D02*
X035777Y009260D01*
X035522Y009260D01*
X035402Y009140D01*
X034742Y009140D01*
X034429Y009266D02*
X033471Y009266D01*
X033590Y009385D02*
X034509Y009385D01*
X034548Y009503D02*
X035130Y009503D01*
X035130Y009385D02*
X034976Y009385D01*
X035429Y009740D02*
X035467Y009740D01*
X035467Y009859D02*
X035429Y009859D01*
X035429Y009977D02*
X035467Y009977D01*
X034862Y010100D02*
X034410Y009648D01*
X032196Y009648D01*
X031790Y009385D02*
X031760Y009385D01*
X031790Y009266D02*
X031686Y009266D01*
X031790Y009148D02*
X030640Y009148D01*
X030640Y009029D02*
X031790Y009029D01*
X031810Y008911D02*
X030598Y008911D01*
X031204Y007963D02*
X032992Y007963D01*
X032992Y008081D02*
X031752Y008081D01*
X031814Y008200D02*
X032992Y008200D01*
X032992Y008318D02*
X031814Y008318D01*
X031814Y008437D02*
X032992Y008437D01*
X032992Y008555D02*
X031814Y008555D01*
X031814Y008674D02*
X032992Y008674D01*
X032992Y008792D02*
X031812Y008792D01*
X032581Y008911D02*
X032992Y008911D01*
X032895Y009029D02*
X032601Y009029D01*
X033313Y009148D02*
X034404Y009148D01*
X034422Y009029D02*
X033372Y009029D01*
X033372Y008911D02*
X034494Y008911D01*
X034991Y008911D02*
X035430Y008911D01*
X035430Y008792D02*
X033372Y008792D01*
X033372Y008674D02*
X035430Y008674D01*
X035445Y008555D02*
X033372Y008555D01*
X033372Y008437D02*
X034521Y008437D01*
X034433Y008318D02*
X033372Y008318D01*
X033372Y008200D02*
X034404Y008200D01*
X034417Y008081D02*
X033372Y008081D01*
X033372Y007963D02*
X034482Y007963D01*
X034670Y007844D02*
X033372Y007844D01*
X033372Y007726D02*
X035735Y007726D01*
X035730Y007743D02*
X035741Y007702D01*
X035762Y007666D01*
X035792Y007636D01*
X035829Y007615D01*
X035869Y007604D01*
X036029Y007604D01*
X036029Y007981D01*
X035730Y007981D01*
X035730Y007743D01*
X035730Y007844D02*
X034815Y007844D01*
X035003Y007963D02*
X035730Y007963D01*
X035582Y008180D02*
X035822Y008420D01*
X036017Y008420D01*
X036457Y008860D01*
X036159Y008845D02*
X036159Y009154D01*
X036241Y009236D01*
X036564Y009236D01*
X036983Y009655D01*
X036454Y009655D01*
X036454Y009346D01*
X036372Y009264D01*
X036063Y009264D01*
X036014Y009214D01*
X036033Y009194D01*
X036055Y009158D01*
X036065Y009117D01*
X036065Y008879D01*
X035767Y008879D01*
X035767Y008841D01*
X036065Y008841D01*
X036065Y008752D01*
X036159Y008845D01*
X036159Y008911D02*
X036065Y008911D01*
X036065Y009029D02*
X036159Y009029D01*
X036159Y009148D02*
X036057Y009148D01*
X036374Y009266D02*
X036594Y009266D01*
X036712Y009385D02*
X036454Y009385D01*
X036454Y009503D02*
X036831Y009503D01*
X036949Y009622D02*
X036454Y009622D01*
X037440Y009029D02*
X037703Y009029D01*
X037703Y009148D02*
X037559Y009148D01*
X037723Y008911D02*
X037322Y008911D01*
X037203Y008792D02*
X038332Y008792D01*
X038332Y008674D02*
X037085Y008674D01*
X036966Y008555D02*
X038332Y008555D01*
X038332Y008437D02*
X036947Y008437D01*
X037030Y008318D02*
X038332Y008318D01*
X038332Y008200D02*
X037054Y008200D01*
X037054Y008081D02*
X038332Y008081D01*
X038236Y007963D02*
X037054Y007963D01*
X037054Y007844D02*
X038118Y007844D01*
X037999Y007726D02*
X037054Y007726D01*
X036757Y008000D02*
X036037Y007280D01*
X034742Y007280D01*
X034437Y007133D02*
X033372Y007133D01*
X033372Y007015D02*
X034530Y007015D01*
X034404Y007252D02*
X033372Y007252D01*
X033372Y007370D02*
X034414Y007370D01*
X034473Y007489D02*
X033372Y007489D01*
X033372Y007607D02*
X034648Y007607D01*
X034836Y007607D02*
X035857Y007607D01*
X035962Y007489D02*
X035012Y007489D01*
X034955Y007015D02*
X037288Y007015D01*
X037407Y007133D02*
X036172Y007133D01*
X036291Y007252D02*
X037525Y007252D01*
X037644Y007370D02*
X036409Y007370D01*
X036528Y007489D02*
X037762Y007489D01*
X037881Y007607D02*
X036646Y007607D01*
X036067Y007607D02*
X036029Y007607D01*
X036029Y007726D02*
X036067Y007726D01*
X036067Y007844D02*
X036029Y007844D01*
X036029Y007963D02*
X036067Y007963D01*
X036365Y007963D02*
X036436Y007963D01*
X036459Y008081D02*
X036365Y008081D01*
X036365Y008200D02*
X036459Y008200D01*
X036483Y008318D02*
X036343Y008318D01*
X036316Y008437D02*
X036567Y008437D01*
X036106Y008792D02*
X036065Y008792D01*
X035556Y008437D02*
X034964Y008437D01*
X034742Y008180D02*
X035582Y008180D01*
X037170Y006896D02*
X033372Y006896D01*
X033372Y006778D02*
X037051Y006778D01*
X036933Y006659D02*
X033372Y006659D01*
X033372Y006541D02*
X036814Y006541D01*
X036696Y006422D02*
X033372Y006422D01*
X033407Y006304D02*
X036577Y006304D01*
X036459Y006185D02*
X033526Y006185D01*
X033644Y006067D02*
X036340Y006067D01*
X036222Y005948D02*
X033763Y005948D01*
X033881Y005830D02*
X036103Y005830D01*
X035985Y005711D02*
X034000Y005711D01*
X034118Y005593D02*
X035866Y005593D01*
X035748Y005474D02*
X034237Y005474D01*
X033937Y005237D02*
X033308Y005237D01*
X033320Y005119D02*
X034055Y005119D01*
X033818Y005356D02*
X033259Y005356D01*
X033130Y005474D02*
X033700Y005474D01*
X033581Y005593D02*
X032378Y005593D01*
X032260Y005711D02*
X033463Y005711D01*
X033344Y005830D02*
X032141Y005830D01*
X032023Y005948D02*
X033226Y005948D01*
X033107Y006067D02*
X031904Y006067D01*
X031786Y006185D02*
X032992Y006185D01*
X032992Y006304D02*
X031667Y006304D01*
X031549Y006422D02*
X032992Y006422D01*
X032992Y006541D02*
X031430Y006541D01*
X031312Y006659D02*
X032992Y006659D01*
X032992Y006778D02*
X031204Y006778D01*
X031204Y006896D02*
X032992Y006896D01*
X032992Y007015D02*
X031204Y007015D01*
X031204Y007133D02*
X032992Y007133D01*
X032992Y007252D02*
X031204Y007252D01*
X031204Y007370D02*
X032992Y007370D01*
X032992Y007489D02*
X031204Y007489D01*
X031204Y007607D02*
X032992Y007607D01*
X032992Y007726D02*
X031204Y007726D01*
X031204Y007844D02*
X032992Y007844D01*
X033373Y009451D02*
X034182Y010260D01*
X034319Y010570D02*
X036162Y010570D01*
X036058Y010688D02*
X035833Y010688D01*
X035987Y010807D02*
X036030Y010807D01*
X036268Y010451D02*
X034469Y010451D01*
X034518Y010333D02*
X034617Y010333D01*
X034544Y010214D02*
X034520Y010214D01*
X034524Y010096D02*
X034480Y010096D01*
X034456Y009977D02*
X034377Y009977D01*
X034338Y009859D02*
X034064Y009859D01*
X035418Y010807D02*
X032601Y010807D01*
X032601Y010925D02*
X035367Y010925D01*
X035364Y011044D02*
X032601Y011044D01*
X032601Y011162D02*
X035403Y011162D01*
X035505Y011281D02*
X032601Y011281D01*
X035900Y011281D02*
X036030Y011281D01*
X038568Y012940D02*
X038903Y012940D01*
X038897Y013058D02*
X038450Y013058D01*
X038331Y013177D02*
X038778Y013177D01*
X038660Y013295D02*
X038213Y013295D01*
X038094Y013414D02*
X038541Y013414D01*
X038423Y013532D02*
X037976Y013532D01*
X037857Y013651D02*
X038304Y013651D01*
X038186Y013769D02*
X037739Y013769D01*
X037620Y013888D02*
X038067Y013888D01*
X037949Y014006D02*
X037502Y014006D01*
X037383Y014125D02*
X037830Y014125D01*
X037712Y014243D02*
X037265Y014243D01*
X037146Y014362D02*
X037593Y014362D01*
X037475Y014480D02*
X037028Y014480D01*
X037115Y014599D02*
X036909Y014599D01*
X036944Y014717D02*
X036791Y014717D01*
X036877Y014836D02*
X036672Y014836D01*
X036664Y014954D02*
X036853Y014954D01*
X036862Y015073D02*
X036655Y015073D01*
X036606Y015191D02*
X036911Y015191D01*
X037026Y015310D02*
X036492Y015310D01*
X036125Y015547D02*
X037227Y015547D01*
X037346Y015428D02*
X036006Y015428D01*
X035972Y015310D02*
X036041Y015310D01*
X035706Y015665D02*
X034177Y015665D01*
X034265Y015784D02*
X035825Y015784D01*
X035869Y015902D02*
X034304Y015902D01*
X034304Y016021D02*
X035869Y016021D01*
X035912Y016139D02*
X034261Y016139D01*
X034168Y016258D02*
X036005Y016258D01*
X036528Y016258D02*
X036989Y016258D01*
X036896Y016139D02*
X036621Y016139D01*
X036664Y016021D02*
X036853Y016021D01*
X036853Y015902D02*
X036664Y015902D01*
X036625Y015784D02*
X036892Y015784D01*
X036980Y015665D02*
X036537Y015665D01*
X037609Y015784D02*
X037877Y015784D01*
X037838Y015902D02*
X037648Y015902D01*
X037648Y016021D02*
X037838Y016021D01*
X037880Y016139D02*
X037606Y016139D01*
X037512Y016258D02*
X037974Y016258D01*
X038496Y016258D02*
X038958Y016258D01*
X038865Y016139D02*
X038590Y016139D01*
X038633Y016021D02*
X038822Y016021D01*
X038822Y015902D02*
X038633Y015902D01*
X038677Y015784D02*
X038861Y015784D01*
X038796Y015665D02*
X038949Y015665D01*
X038914Y015547D02*
X039361Y015547D01*
X039479Y015428D02*
X039033Y015428D01*
X039151Y015310D02*
X039598Y015310D01*
X039691Y015191D02*
X039270Y015191D01*
X039388Y015073D02*
X039691Y015073D01*
X039691Y014954D02*
X039507Y014954D01*
X039625Y014836D02*
X039691Y014836D01*
X040268Y015310D02*
X040272Y015310D01*
X040268Y015428D02*
X040390Y015428D01*
X040509Y015547D02*
X040268Y015547D01*
X040474Y015665D02*
X040627Y015665D01*
X040562Y015784D02*
X040746Y015784D01*
X040790Y015902D02*
X040601Y015902D01*
X040601Y016021D02*
X040790Y016021D01*
X040833Y016139D02*
X040558Y016139D01*
X040465Y016258D02*
X040926Y016258D01*
X041449Y016258D02*
X041911Y016258D01*
X041817Y016139D02*
X041543Y016139D01*
X041585Y016021D02*
X041774Y016021D01*
X041656Y015902D02*
X041585Y015902D01*
X041838Y015547D02*
X042592Y015547D01*
X042596Y015665D02*
X042442Y015665D01*
X042530Y015784D02*
X042714Y015784D01*
X042759Y015902D02*
X042570Y015902D01*
X042570Y016021D02*
X042759Y016021D01*
X042802Y016139D02*
X042527Y016139D01*
X042433Y016258D02*
X042895Y016258D01*
X042592Y015428D02*
X041985Y015428D01*
X042397Y015310D02*
X042592Y015310D01*
X042592Y015191D02*
X042512Y015191D01*
X042561Y015073D02*
X042576Y015073D01*
X044682Y016495D02*
X004682Y016495D01*
X004682Y016613D02*
X044682Y016613D01*
X044682Y016732D02*
X004682Y016732D01*
X004682Y016850D02*
X044682Y016850D01*
X044682Y016969D02*
X004682Y016969D01*
X004682Y017087D02*
X044682Y017087D01*
X044682Y017206D02*
X004682Y017206D01*
X004682Y017324D02*
X044682Y017324D01*
X044682Y017443D02*
X004682Y017443D01*
X004682Y017561D02*
X044682Y017561D01*
X044682Y017680D02*
X004682Y017680D01*
X004682Y017798D02*
X044682Y017798D01*
X044682Y017917D02*
X004682Y017917D01*
X004682Y018035D02*
X044682Y018035D01*
X044682Y018154D02*
X004682Y018154D01*
X004682Y018272D02*
X044682Y018272D01*
X044682Y018391D02*
X004682Y018391D01*
X004682Y018509D02*
X044682Y018509D01*
X044682Y018628D02*
X004682Y018628D01*
X004682Y018746D02*
X044682Y018746D01*
X044682Y018865D02*
X004682Y018865D01*
X004682Y018983D02*
X044682Y018983D01*
X044682Y019102D02*
X004682Y019102D01*
X004682Y019220D02*
X044682Y019220D01*
X044682Y019339D02*
X004682Y019339D01*
X004682Y019457D02*
X044682Y019457D01*
X044682Y019576D02*
X004682Y019576D01*
X004682Y019694D02*
X034780Y019694D01*
X034732Y019741D02*
X034844Y019630D01*
X036441Y019630D01*
X037257Y020446D01*
X037363Y020490D01*
X037452Y020580D01*
X037501Y020697D01*
X037501Y020823D01*
X037452Y020940D01*
X037363Y021030D01*
X037246Y021078D01*
X037119Y021078D01*
X037002Y021030D01*
X036912Y020940D01*
X036864Y020823D01*
X036864Y020697D01*
X036895Y020621D01*
X036284Y020010D01*
X035001Y020010D01*
X034872Y020139D01*
X034872Y021339D01*
X034761Y021450D01*
X034711Y021500D01*
X034235Y021500D01*
X034175Y021560D01*
X034247Y021632D01*
X034247Y021988D01*
X034165Y022070D01*
X033795Y022070D01*
X033622Y022243D01*
X033505Y022360D01*
X030759Y022360D01*
X030658Y022258D01*
X030535Y022258D01*
X030411Y022207D01*
X030316Y022112D01*
X030264Y021987D01*
X030264Y021853D01*
X030316Y021728D01*
X030411Y021633D01*
X030535Y021582D01*
X030670Y021582D01*
X030794Y021633D01*
X030889Y021728D01*
X030940Y021853D01*
X030940Y021960D01*
X031333Y021960D01*
X031326Y021933D01*
X031326Y021773D01*
X031704Y021773D01*
X031704Y021736D01*
X031326Y021736D01*
X031326Y021576D01*
X031328Y021570D01*
X030081Y021570D01*
X029352Y022299D01*
X029241Y022410D01*
X009884Y022410D01*
X009404Y021930D01*
X009292Y021819D01*
X009292Y021737D01*
X009160Y021869D01*
X008795Y021869D01*
X008655Y021729D01*
X008300Y021729D01*
X008160Y021869D01*
X007795Y021869D01*
X007538Y021612D01*
X007538Y021247D01*
X007795Y020989D01*
X008160Y020989D01*
X008300Y021129D01*
X008655Y021129D01*
X008795Y020989D01*
X009160Y020989D01*
X009292Y021122D01*
X009292Y021013D01*
X009149Y020869D01*
X008795Y020869D01*
X008538Y020612D01*
X008538Y020247D01*
X008795Y019989D01*
X009160Y019989D01*
X009418Y020247D01*
X009418Y020601D01*
X009672Y020855D01*
X009672Y021112D01*
X009795Y020989D01*
X010160Y020989D01*
X010252Y021082D01*
X010252Y020973D01*
X010149Y020869D01*
X009795Y020869D01*
X009538Y020612D01*
X009538Y020247D01*
X009795Y019989D01*
X010160Y019989D01*
X010418Y020247D01*
X010418Y020601D01*
X010632Y020815D01*
X010632Y021152D01*
X010795Y020989D01*
X011160Y020989D01*
X011418Y021247D01*
X011418Y021612D01*
X011239Y021790D01*
X011716Y021790D01*
X011538Y021612D01*
X011538Y021247D01*
X011795Y020989D01*
X012160Y020989D01*
X012418Y021247D01*
X012418Y021612D01*
X012239Y021790D01*
X012716Y021790D01*
X012538Y021612D01*
X012538Y021247D01*
X012795Y020989D01*
X013160Y020989D01*
X013418Y021247D01*
X013418Y021612D01*
X013239Y021790D01*
X013716Y021790D01*
X013538Y021612D01*
X013538Y021247D01*
X013795Y020989D01*
X014160Y020989D01*
X014418Y021247D01*
X014418Y021612D01*
X014239Y021790D01*
X014716Y021790D01*
X014538Y021612D01*
X014538Y021247D01*
X014795Y020989D01*
X015160Y020989D01*
X015418Y021247D01*
X015418Y021612D01*
X015239Y021790D01*
X015716Y021790D01*
X015538Y021612D01*
X015538Y021247D01*
X015795Y020989D01*
X016160Y020989D01*
X016418Y021247D01*
X016418Y021612D01*
X016239Y021790D01*
X016716Y021790D01*
X016538Y021612D01*
X016538Y021247D01*
X016795Y020989D01*
X017160Y020989D01*
X017418Y021247D01*
X017418Y021612D01*
X017239Y021790D01*
X017716Y021790D01*
X017538Y021612D01*
X017538Y021247D01*
X017795Y020989D01*
X018160Y020989D01*
X018418Y021247D01*
X018418Y021612D01*
X018239Y021790D01*
X018716Y021790D01*
X018538Y021612D01*
X018538Y021247D01*
X018795Y020989D01*
X019160Y020989D01*
X019418Y021247D01*
X019418Y021612D01*
X019239Y021790D01*
X019716Y021790D01*
X019538Y021612D01*
X019538Y021247D01*
X019795Y020989D01*
X020160Y020989D01*
X020418Y021247D01*
X020418Y021612D01*
X020239Y021790D01*
X020716Y021790D01*
X020538Y021612D01*
X020538Y021247D01*
X020795Y020989D01*
X021160Y020989D01*
X021418Y021247D01*
X021418Y021612D01*
X021239Y021790D01*
X021716Y021790D01*
X021538Y021612D01*
X021538Y021247D01*
X021795Y020989D01*
X022160Y020989D01*
X022418Y021247D01*
X022418Y021612D01*
X022239Y021790D01*
X022716Y021790D01*
X022538Y021612D01*
X022538Y021247D01*
X022795Y020989D01*
X023160Y020989D01*
X023418Y021247D01*
X023418Y021612D01*
X023239Y021790D01*
X023716Y021790D01*
X023538Y021612D01*
X023538Y021247D01*
X023795Y020989D01*
X024160Y020989D01*
X024418Y021247D01*
X024418Y021612D01*
X024239Y021790D01*
X024716Y021790D01*
X024538Y021612D01*
X024538Y021247D01*
X024795Y020989D01*
X025160Y020989D01*
X025418Y021247D01*
X025418Y021612D01*
X025239Y021790D01*
X025716Y021790D01*
X025538Y021612D01*
X025538Y021247D01*
X025795Y020989D01*
X026160Y020989D01*
X026418Y021247D01*
X026418Y021612D01*
X026239Y021790D01*
X026716Y021790D01*
X026538Y021612D01*
X026538Y021247D01*
X026795Y020989D01*
X027160Y020989D01*
X027418Y021247D01*
X027418Y021612D01*
X027239Y021790D01*
X028356Y021790D01*
X028328Y021778D01*
X028046Y021497D01*
X027894Y021128D01*
X027894Y020730D01*
X028046Y020362D01*
X028328Y020080D01*
X028696Y019928D01*
X029094Y019928D01*
X029462Y020080D01*
X029744Y020362D01*
X029896Y020730D01*
X029896Y020857D01*
X029898Y020856D01*
X031346Y020856D01*
X031346Y020830D01*
X031428Y020748D01*
X031751Y020748D01*
X032379Y020120D01*
X033109Y020120D01*
X033179Y020050D01*
X034165Y020050D01*
X034247Y020132D01*
X034247Y020488D01*
X034175Y020560D01*
X034247Y020632D01*
X034247Y020988D01*
X034175Y021060D01*
X034235Y021120D01*
X034492Y021120D01*
X034492Y019981D01*
X034732Y019741D01*
X034661Y019813D02*
X004682Y019813D01*
X004682Y019931D02*
X005854Y019931D01*
X005861Y019928D02*
X006259Y019928D01*
X006627Y020080D01*
X006909Y020362D01*
X007062Y020730D01*
X007062Y021128D01*
X006909Y021497D01*
X006627Y021778D01*
X006259Y021931D01*
X005861Y021931D01*
X005493Y021778D01*
X005211Y021497D01*
X005059Y021128D01*
X005059Y020730D01*
X005211Y020362D01*
X005493Y020080D01*
X005861Y019928D01*
X005568Y020050D02*
X004682Y020050D01*
X004682Y020168D02*
X005405Y020168D01*
X005287Y020287D02*
X004682Y020287D01*
X004682Y020405D02*
X005194Y020405D01*
X005144Y020524D02*
X004682Y020524D01*
X004682Y020642D02*
X005095Y020642D01*
X005059Y020761D02*
X004682Y020761D01*
X004682Y020879D02*
X005059Y020879D01*
X005059Y020998D02*
X004682Y020998D01*
X004682Y021116D02*
X005059Y021116D01*
X005103Y021235D02*
X004682Y021235D01*
X004682Y021353D02*
X005152Y021353D01*
X005201Y021472D02*
X004682Y021472D01*
X004682Y021590D02*
X005305Y021590D01*
X005423Y021709D02*
X004682Y021709D01*
X004682Y021827D02*
X005611Y021827D01*
X006509Y021827D02*
X007753Y021827D01*
X007635Y021709D02*
X006697Y021709D01*
X006816Y021590D02*
X007538Y021590D01*
X007538Y021472D02*
X006919Y021472D01*
X006969Y021353D02*
X007538Y021353D01*
X007550Y021235D02*
X007018Y021235D01*
X007062Y021116D02*
X007669Y021116D01*
X007787Y020998D02*
X007062Y020998D01*
X007062Y020879D02*
X007618Y020879D01*
X007616Y020878D02*
X007579Y020857D01*
X007550Y020828D01*
X007528Y020791D01*
X007518Y020750D01*
X007518Y020469D01*
X007938Y020469D01*
X007938Y020889D01*
X007656Y020889D01*
X007616Y020878D01*
X007520Y020761D02*
X007062Y020761D01*
X007025Y020642D02*
X007518Y020642D01*
X007518Y020524D02*
X006976Y020524D01*
X006927Y020405D02*
X007938Y020405D01*
X007938Y020389D02*
X007518Y020389D01*
X007518Y020108D01*
X007528Y020068D01*
X007550Y020031D01*
X007579Y020001D01*
X007616Y019980D01*
X007656Y019969D01*
X007938Y019969D01*
X007938Y020389D01*
X008018Y020389D01*
X008018Y020469D01*
X008438Y020469D01*
X008438Y020750D01*
X008427Y020791D01*
X008406Y020828D01*
X008376Y020857D01*
X008339Y020878D01*
X008299Y020889D01*
X008018Y020889D01*
X008018Y020469D01*
X007938Y020469D01*
X007938Y020389D01*
X008018Y020389D02*
X008018Y019969D01*
X008299Y019969D01*
X008339Y019980D01*
X008376Y020001D01*
X008406Y020031D01*
X008427Y020068D01*
X008438Y020108D01*
X008438Y020389D01*
X008018Y020389D01*
X008018Y020405D02*
X008538Y020405D01*
X008538Y020287D02*
X008438Y020287D01*
X008438Y020168D02*
X008617Y020168D01*
X008735Y020050D02*
X008416Y020050D01*
X008018Y020050D02*
X007938Y020050D01*
X007938Y020168D02*
X008018Y020168D01*
X008018Y020287D02*
X007938Y020287D01*
X007938Y020524D02*
X008018Y020524D01*
X008018Y020642D02*
X007938Y020642D01*
X007938Y020761D02*
X008018Y020761D01*
X008018Y020879D02*
X007938Y020879D01*
X008168Y020998D02*
X008787Y020998D01*
X008669Y021116D02*
X008287Y021116D01*
X008337Y020879D02*
X009159Y020879D01*
X009168Y020998D02*
X009277Y020998D01*
X009287Y021116D02*
X009292Y021116D01*
X009672Y020998D02*
X009787Y020998D01*
X009672Y020879D02*
X010159Y020879D01*
X010168Y020998D02*
X010252Y020998D01*
X010632Y020998D02*
X010787Y020998D01*
X010795Y020869D02*
X010538Y020612D01*
X010538Y020247D01*
X010795Y019989D01*
X011160Y019989D01*
X011418Y020247D01*
X011418Y020612D01*
X011160Y020869D01*
X010795Y020869D01*
X010687Y020761D02*
X010578Y020761D01*
X010568Y020642D02*
X010459Y020642D01*
X010418Y020524D02*
X010538Y020524D01*
X010538Y020405D02*
X010418Y020405D01*
X010418Y020287D02*
X010538Y020287D01*
X010617Y020168D02*
X010339Y020168D01*
X010220Y020050D02*
X010735Y020050D01*
X011220Y020050D02*
X011735Y020050D01*
X011795Y019989D02*
X012160Y019989D01*
X012418Y020247D01*
X012418Y020612D01*
X012160Y020869D01*
X011795Y020869D01*
X011538Y020612D01*
X011538Y020247D01*
X011795Y019989D01*
X011617Y020168D02*
X011339Y020168D01*
X011418Y020287D02*
X011538Y020287D01*
X011538Y020405D02*
X011418Y020405D01*
X011418Y020524D02*
X011538Y020524D01*
X011568Y020642D02*
X011387Y020642D01*
X011269Y020761D02*
X011687Y020761D01*
X011787Y020998D02*
X011168Y020998D01*
X011287Y021116D02*
X011669Y021116D01*
X011550Y021235D02*
X011405Y021235D01*
X011418Y021353D02*
X011538Y021353D01*
X011538Y021472D02*
X011418Y021472D01*
X011418Y021590D02*
X011538Y021590D01*
X011635Y021709D02*
X011321Y021709D01*
X010669Y021116D02*
X010632Y021116D01*
X010632Y020879D02*
X015777Y020879D01*
X015787Y020889D02*
X015518Y020620D01*
X015518Y020469D01*
X015938Y020469D01*
X015938Y020889D01*
X015787Y020889D01*
X015787Y020998D02*
X015168Y020998D01*
X015160Y020869D02*
X014795Y020869D01*
X014538Y020612D01*
X014538Y020247D01*
X014795Y019989D01*
X015160Y019989D01*
X015418Y020247D01*
X015418Y020612D01*
X015160Y020869D01*
X015269Y020761D02*
X015658Y020761D01*
X015540Y020642D02*
X015387Y020642D01*
X015418Y020524D02*
X015518Y020524D01*
X015518Y020389D02*
X015518Y020239D01*
X015787Y019969D01*
X015938Y019969D01*
X015938Y020389D01*
X016018Y020389D01*
X016018Y020469D01*
X016438Y020469D01*
X016438Y020620D01*
X016168Y020889D01*
X016018Y020889D01*
X016018Y020469D01*
X015938Y020469D01*
X015938Y020389D01*
X015518Y020389D01*
X015418Y020405D02*
X015938Y020405D01*
X016018Y020405D02*
X016538Y020405D01*
X016438Y020389D02*
X016018Y020389D01*
X016018Y019969D01*
X016168Y019969D01*
X016438Y020239D01*
X016438Y020389D01*
X016438Y020287D02*
X016538Y020287D01*
X016538Y020247D02*
X016795Y019989D01*
X017160Y019989D01*
X017418Y020247D01*
X017418Y020612D01*
X017160Y020869D01*
X016795Y020869D01*
X016538Y020612D01*
X016538Y020247D01*
X016617Y020168D02*
X016367Y020168D01*
X016248Y020050D02*
X016735Y020050D01*
X017220Y020050D02*
X017735Y020050D01*
X017795Y019989D02*
X018160Y019989D01*
X018418Y020247D01*
X018418Y020612D01*
X018160Y020869D01*
X017795Y020869D01*
X017538Y020612D01*
X017538Y020247D01*
X017795Y019989D01*
X017617Y020168D02*
X017339Y020168D01*
X017418Y020287D02*
X017538Y020287D01*
X017538Y020405D02*
X017418Y020405D01*
X017418Y020524D02*
X017538Y020524D01*
X017568Y020642D02*
X017387Y020642D01*
X017269Y020761D02*
X017687Y020761D01*
X017787Y020998D02*
X017168Y020998D01*
X017287Y021116D02*
X017669Y021116D01*
X017550Y021235D02*
X017405Y021235D01*
X017418Y021353D02*
X017538Y021353D01*
X017538Y021472D02*
X017418Y021472D01*
X017418Y021590D02*
X017538Y021590D01*
X017635Y021709D02*
X017321Y021709D01*
X016635Y021709D02*
X016321Y021709D01*
X016418Y021590D02*
X016538Y021590D01*
X016538Y021472D02*
X016418Y021472D01*
X016418Y021353D02*
X016538Y021353D01*
X016550Y021235D02*
X016405Y021235D01*
X016287Y021116D02*
X016669Y021116D01*
X016787Y020998D02*
X016168Y020998D01*
X016178Y020879D02*
X027894Y020879D01*
X027894Y020761D02*
X027269Y020761D01*
X027160Y020869D02*
X026795Y020869D01*
X026538Y020612D01*
X026538Y020247D01*
X026795Y019989D01*
X027160Y019989D01*
X027418Y020247D01*
X027418Y020612D01*
X027160Y020869D01*
X027168Y020998D02*
X027894Y020998D01*
X027894Y021116D02*
X027287Y021116D01*
X027405Y021235D02*
X027937Y021235D01*
X027987Y021353D02*
X027418Y021353D01*
X027418Y021472D02*
X028036Y021472D01*
X028140Y021590D02*
X027418Y021590D01*
X027321Y021709D02*
X028258Y021709D01*
X029350Y022301D02*
X030700Y022301D01*
X030842Y022160D02*
X030602Y021920D01*
X030296Y022064D02*
X029587Y022064D01*
X029705Y021946D02*
X030264Y021946D01*
X030275Y021827D02*
X029824Y021827D01*
X029942Y021709D02*
X030336Y021709D01*
X030515Y021590D02*
X030061Y021590D01*
X030689Y021590D02*
X031326Y021590D01*
X031326Y021709D02*
X030869Y021709D01*
X030930Y021827D02*
X031326Y021827D01*
X031329Y021946D02*
X030940Y021946D01*
X030842Y022160D02*
X033422Y022160D01*
X033672Y021910D01*
X033672Y021810D01*
X033683Y022183D02*
X044682Y022183D01*
X044682Y022301D02*
X033564Y022301D01*
X034171Y022064D02*
X035209Y022064D01*
X035199Y022058D02*
X035169Y022028D01*
X035148Y021992D01*
X035137Y021951D01*
X035137Y021810D01*
X035137Y021669D01*
X035148Y021628D01*
X035169Y021592D01*
X035199Y021562D01*
X035219Y021550D01*
X035157Y021488D01*
X035157Y021132D01*
X035219Y021070D01*
X035199Y021058D01*
X035169Y021028D01*
X035148Y020992D01*
X035137Y020951D01*
X035137Y020810D01*
X035137Y020669D01*
X035148Y020628D01*
X035169Y020592D01*
X035199Y020562D01*
X035219Y020550D01*
X035157Y020488D01*
X035157Y020132D01*
X035239Y020050D01*
X036225Y020050D01*
X036307Y020132D01*
X036307Y020488D01*
X036245Y020550D01*
X036266Y020562D01*
X036295Y020592D01*
X036316Y020628D01*
X036327Y020669D01*
X036327Y020810D01*
X036327Y020951D01*
X036316Y020992D01*
X036295Y021028D01*
X036266Y021058D01*
X036245Y021070D01*
X036307Y021132D01*
X036307Y021488D01*
X036245Y021550D01*
X036266Y021562D01*
X036295Y021592D01*
X036316Y021628D01*
X036327Y021669D01*
X036327Y021810D01*
X036327Y021951D01*
X036316Y021992D01*
X036295Y022028D01*
X036266Y022058D01*
X036229Y022079D01*
X036188Y022090D01*
X035732Y022090D01*
X035276Y022090D01*
X035236Y022079D01*
X035199Y022058D01*
X035137Y021946D02*
X034247Y021946D01*
X034247Y021827D02*
X035137Y021827D01*
X035137Y021810D02*
X035732Y021810D01*
X035137Y021810D01*
X035137Y021709D02*
X034247Y021709D01*
X034205Y021590D02*
X035171Y021590D01*
X035157Y021472D02*
X034739Y021472D01*
X034858Y021353D02*
X035157Y021353D01*
X035157Y021235D02*
X034872Y021235D01*
X034872Y021116D02*
X035173Y021116D01*
X035152Y020998D02*
X034872Y020998D01*
X034872Y020879D02*
X035137Y020879D01*
X035137Y020810D02*
X035732Y020810D01*
X035137Y020810D01*
X035137Y020761D02*
X034872Y020761D01*
X034872Y020642D02*
X035144Y020642D01*
X035193Y020524D02*
X034872Y020524D01*
X034872Y020405D02*
X035157Y020405D01*
X035157Y020287D02*
X034872Y020287D01*
X034872Y020168D02*
X035157Y020168D01*
X034961Y020050D02*
X036323Y020050D01*
X036307Y020168D02*
X036442Y020168D01*
X036560Y020287D02*
X036307Y020287D01*
X036307Y020405D02*
X036679Y020405D01*
X036797Y020524D02*
X036272Y020524D01*
X036320Y020642D02*
X036886Y020642D01*
X036864Y020761D02*
X036327Y020761D01*
X036327Y020810D02*
X035732Y020810D01*
X035732Y020810D01*
X036327Y020810D01*
X036327Y020879D02*
X036887Y020879D01*
X036970Y020998D02*
X036313Y020998D01*
X036291Y021116D02*
X044682Y021116D01*
X044682Y020998D02*
X037395Y020998D01*
X037478Y020879D02*
X044682Y020879D01*
X044682Y020761D02*
X037501Y020761D01*
X037478Y020642D02*
X044682Y020642D01*
X044682Y020524D02*
X037396Y020524D01*
X037216Y020405D02*
X044682Y020405D01*
X044682Y020287D02*
X037098Y020287D01*
X036979Y020168D02*
X044682Y020168D01*
X044682Y020050D02*
X036861Y020050D01*
X036742Y019931D02*
X044682Y019931D01*
X044682Y019813D02*
X036624Y019813D01*
X036505Y019694D02*
X044682Y019694D01*
X044682Y021235D02*
X036307Y021235D01*
X036307Y021353D02*
X044682Y021353D01*
X044682Y021472D02*
X036307Y021472D01*
X036294Y021590D02*
X044682Y021590D01*
X044682Y021709D02*
X036327Y021709D01*
X036327Y021810D02*
X035732Y021810D01*
X035732Y021810D01*
X035732Y022090D01*
X035732Y021810D01*
X035732Y021810D01*
X036327Y021810D01*
X036327Y021827D02*
X044682Y021827D01*
X044682Y021946D02*
X036327Y021946D01*
X036255Y022064D02*
X044682Y022064D01*
X044682Y022420D02*
X004682Y022420D01*
X004682Y022301D02*
X009775Y022301D01*
X009656Y022183D02*
X004682Y022183D01*
X004682Y022064D02*
X009538Y022064D01*
X009419Y021946D02*
X004682Y021946D01*
X006715Y020168D02*
X007518Y020168D01*
X007518Y020287D02*
X006834Y020287D01*
X006553Y020050D02*
X007539Y020050D01*
X008438Y020524D02*
X008538Y020524D01*
X008568Y020642D02*
X008438Y020642D01*
X008435Y020761D02*
X008687Y020761D01*
X009418Y020524D02*
X009538Y020524D01*
X009538Y020405D02*
X009418Y020405D01*
X009418Y020287D02*
X009538Y020287D01*
X009617Y020168D02*
X009339Y020168D01*
X009220Y020050D02*
X009735Y020050D01*
X009568Y020642D02*
X009459Y020642D01*
X009578Y020761D02*
X009687Y020761D01*
X009301Y021827D02*
X009202Y021827D01*
X008753Y021827D02*
X008202Y021827D01*
X006267Y019931D02*
X028688Y019931D01*
X028402Y020050D02*
X027220Y020050D01*
X027339Y020168D02*
X028240Y020168D01*
X028122Y020287D02*
X027418Y020287D01*
X027418Y020405D02*
X028028Y020405D01*
X027979Y020524D02*
X027418Y020524D01*
X027387Y020642D02*
X027930Y020642D01*
X029102Y019931D02*
X034543Y019931D01*
X034492Y020050D02*
X029388Y020050D01*
X029550Y020168D02*
X032331Y020168D01*
X032213Y020287D02*
X029668Y020287D01*
X029762Y020405D02*
X032094Y020405D01*
X031976Y020524D02*
X029811Y020524D01*
X029860Y020642D02*
X031857Y020642D01*
X031416Y020761D02*
X029896Y020761D01*
X031741Y021736D02*
X031741Y021773D01*
X032119Y021773D01*
X032119Y021933D01*
X032111Y021960D01*
X032133Y021960D01*
X032126Y021933D01*
X032126Y021773D01*
X032504Y021773D01*
X032504Y021736D01*
X032126Y021736D01*
X032126Y021576D01*
X032128Y021570D01*
X032117Y021570D01*
X032119Y021576D01*
X032119Y021736D01*
X031741Y021736D01*
X032119Y021709D02*
X032126Y021709D01*
X032119Y021827D02*
X032126Y021827D01*
X032115Y021946D02*
X032129Y021946D01*
X032119Y021590D02*
X032126Y021590D01*
X032374Y021437D02*
X032504Y021437D01*
X032504Y021736D01*
X032541Y021736D01*
X032541Y021773D01*
X032919Y021773D01*
X032919Y021933D01*
X032911Y021960D01*
X033097Y021960D01*
X033097Y021632D01*
X033169Y021560D01*
X033097Y021488D01*
X033097Y021132D01*
X033169Y021060D01*
X033109Y021000D01*
X032899Y021000D01*
X032899Y021261D01*
X032816Y021343D01*
X032468Y021343D01*
X032374Y021437D01*
X032458Y021353D02*
X033097Y021353D01*
X033097Y021235D02*
X032899Y021235D01*
X032899Y021116D02*
X033113Y021116D01*
X033097Y021472D02*
X032859Y021472D01*
X032857Y021469D02*
X032887Y021499D01*
X032908Y021535D01*
X032919Y021576D01*
X032919Y021736D01*
X032541Y021736D01*
X032541Y021437D01*
X032780Y021437D01*
X032820Y021448D01*
X032857Y021469D01*
X032919Y021590D02*
X033139Y021590D01*
X033097Y021709D02*
X032919Y021709D01*
X032919Y021827D02*
X033097Y021827D01*
X033097Y021946D02*
X032915Y021946D01*
X032541Y021709D02*
X032504Y021709D01*
X032504Y021590D02*
X032541Y021590D01*
X032541Y021472D02*
X032504Y021472D01*
X034231Y021116D02*
X034492Y021116D01*
X034492Y020998D02*
X034238Y020998D01*
X034247Y020879D02*
X034492Y020879D01*
X034492Y020761D02*
X034247Y020761D01*
X034247Y020642D02*
X034492Y020642D01*
X034492Y020524D02*
X034212Y020524D01*
X034247Y020405D02*
X034492Y020405D01*
X034492Y020287D02*
X034247Y020287D01*
X034247Y020168D02*
X034492Y020168D01*
X035732Y020810D02*
X035732Y020810D01*
X035732Y021810D02*
X035732Y021810D01*
X035732Y021827D02*
X035732Y021827D01*
X035732Y021946D02*
X035732Y021946D01*
X035732Y022064D02*
X035732Y022064D01*
X030387Y022183D02*
X029468Y022183D01*
X026635Y021709D02*
X026321Y021709D01*
X026418Y021590D02*
X026538Y021590D01*
X026538Y021472D02*
X026418Y021472D01*
X026418Y021353D02*
X026538Y021353D01*
X026550Y021235D02*
X026405Y021235D01*
X026287Y021116D02*
X026669Y021116D01*
X026787Y020998D02*
X026168Y020998D01*
X026160Y020869D02*
X025795Y020869D01*
X025538Y020612D01*
X025538Y020247D01*
X025795Y019989D01*
X026160Y019989D01*
X026418Y020247D01*
X026418Y020612D01*
X026160Y020869D01*
X026269Y020761D02*
X026687Y020761D01*
X026568Y020642D02*
X026387Y020642D01*
X026418Y020524D02*
X026538Y020524D01*
X026538Y020405D02*
X026418Y020405D01*
X026418Y020287D02*
X026538Y020287D01*
X026617Y020168D02*
X026339Y020168D01*
X026220Y020050D02*
X026735Y020050D01*
X025735Y020050D02*
X025220Y020050D01*
X025160Y019989D02*
X025418Y020247D01*
X025418Y020612D01*
X025160Y020869D01*
X024795Y020869D01*
X024538Y020612D01*
X024538Y020247D01*
X024795Y019989D01*
X025160Y019989D01*
X025339Y020168D02*
X025617Y020168D01*
X025538Y020287D02*
X025418Y020287D01*
X025418Y020405D02*
X025538Y020405D01*
X025538Y020524D02*
X025418Y020524D01*
X025387Y020642D02*
X025568Y020642D01*
X025687Y020761D02*
X025269Y020761D01*
X025168Y020998D02*
X025787Y020998D01*
X025669Y021116D02*
X025287Y021116D01*
X025405Y021235D02*
X025550Y021235D01*
X025538Y021353D02*
X025418Y021353D01*
X025418Y021472D02*
X025538Y021472D01*
X025538Y021590D02*
X025418Y021590D01*
X025321Y021709D02*
X025635Y021709D01*
X024635Y021709D02*
X024321Y021709D01*
X024418Y021590D02*
X024538Y021590D01*
X024538Y021472D02*
X024418Y021472D01*
X024418Y021353D02*
X024538Y021353D01*
X024550Y021235D02*
X024405Y021235D01*
X024287Y021116D02*
X024669Y021116D01*
X024787Y020998D02*
X024168Y020998D01*
X024160Y020869D02*
X023795Y020869D01*
X023538Y020612D01*
X023538Y020247D01*
X023795Y019989D01*
X024160Y019989D01*
X024418Y020247D01*
X024418Y020612D01*
X024160Y020869D01*
X024269Y020761D02*
X024687Y020761D01*
X024568Y020642D02*
X024387Y020642D01*
X024418Y020524D02*
X024538Y020524D01*
X024538Y020405D02*
X024418Y020405D01*
X024418Y020287D02*
X024538Y020287D01*
X024617Y020168D02*
X024339Y020168D01*
X024220Y020050D02*
X024735Y020050D01*
X023735Y020050D02*
X023220Y020050D01*
X023160Y019989D02*
X023418Y020247D01*
X023418Y020612D01*
X023160Y020869D01*
X022795Y020869D01*
X022538Y020612D01*
X022538Y020247D01*
X022795Y019989D01*
X023160Y019989D01*
X023339Y020168D02*
X023617Y020168D01*
X023538Y020287D02*
X023418Y020287D01*
X023418Y020405D02*
X023538Y020405D01*
X023538Y020524D02*
X023418Y020524D01*
X023387Y020642D02*
X023568Y020642D01*
X023687Y020761D02*
X023269Y020761D01*
X023168Y020998D02*
X023787Y020998D01*
X023669Y021116D02*
X023287Y021116D01*
X023405Y021235D02*
X023550Y021235D01*
X023538Y021353D02*
X023418Y021353D01*
X023418Y021472D02*
X023538Y021472D01*
X023538Y021590D02*
X023418Y021590D01*
X023321Y021709D02*
X023635Y021709D01*
X022787Y020998D02*
X022168Y020998D01*
X022160Y020869D02*
X021795Y020869D01*
X021538Y020612D01*
X021538Y020247D01*
X021795Y019989D01*
X022160Y019989D01*
X022418Y020247D01*
X022418Y020612D01*
X022160Y020869D01*
X022269Y020761D02*
X022687Y020761D01*
X022568Y020642D02*
X022387Y020642D01*
X022418Y020524D02*
X022538Y020524D01*
X022538Y020405D02*
X022418Y020405D01*
X022418Y020287D02*
X022538Y020287D01*
X022617Y020168D02*
X022339Y020168D01*
X022220Y020050D02*
X022735Y020050D01*
X021735Y020050D02*
X021220Y020050D01*
X021160Y019989D02*
X021418Y020247D01*
X021418Y020612D01*
X021160Y020869D01*
X020795Y020869D01*
X020538Y020612D01*
X020538Y020247D01*
X020795Y019989D01*
X021160Y019989D01*
X021339Y020168D02*
X021617Y020168D01*
X021538Y020287D02*
X021418Y020287D01*
X021418Y020405D02*
X021538Y020405D01*
X021538Y020524D02*
X021418Y020524D01*
X021387Y020642D02*
X021568Y020642D01*
X021687Y020761D02*
X021269Y020761D01*
X021168Y020998D02*
X021787Y020998D01*
X021669Y021116D02*
X021287Y021116D01*
X021405Y021235D02*
X021550Y021235D01*
X021538Y021353D02*
X021418Y021353D01*
X021418Y021472D02*
X021538Y021472D01*
X021538Y021590D02*
X021418Y021590D01*
X021321Y021709D02*
X021635Y021709D01*
X022321Y021709D02*
X022635Y021709D01*
X022538Y021590D02*
X022418Y021590D01*
X022418Y021472D02*
X022538Y021472D01*
X022538Y021353D02*
X022418Y021353D01*
X022405Y021235D02*
X022550Y021235D01*
X022669Y021116D02*
X022287Y021116D01*
X020787Y020998D02*
X020168Y020998D01*
X020160Y020869D02*
X019795Y020869D01*
X019538Y020612D01*
X019538Y020247D01*
X019795Y019989D01*
X020160Y019989D01*
X020418Y020247D01*
X020418Y020612D01*
X020160Y020869D01*
X020269Y020761D02*
X020687Y020761D01*
X020568Y020642D02*
X020387Y020642D01*
X020418Y020524D02*
X020538Y020524D01*
X020538Y020405D02*
X020418Y020405D01*
X020418Y020287D02*
X020538Y020287D01*
X020617Y020168D02*
X020339Y020168D01*
X020220Y020050D02*
X020735Y020050D01*
X019735Y020050D02*
X019220Y020050D01*
X019160Y019989D02*
X019418Y020247D01*
X019418Y020612D01*
X019160Y020869D01*
X018795Y020869D01*
X018538Y020612D01*
X018538Y020247D01*
X018795Y019989D01*
X019160Y019989D01*
X019339Y020168D02*
X019617Y020168D01*
X019538Y020287D02*
X019418Y020287D01*
X019418Y020405D02*
X019538Y020405D01*
X019538Y020524D02*
X019418Y020524D01*
X019387Y020642D02*
X019568Y020642D01*
X019687Y020761D02*
X019269Y020761D01*
X019168Y020998D02*
X019787Y020998D01*
X019669Y021116D02*
X019287Y021116D01*
X019405Y021235D02*
X019550Y021235D01*
X019538Y021353D02*
X019418Y021353D01*
X019418Y021472D02*
X019538Y021472D01*
X019538Y021590D02*
X019418Y021590D01*
X019321Y021709D02*
X019635Y021709D01*
X020321Y021709D02*
X020635Y021709D01*
X020538Y021590D02*
X020418Y021590D01*
X020418Y021472D02*
X020538Y021472D01*
X020538Y021353D02*
X020418Y021353D01*
X020405Y021235D02*
X020550Y021235D01*
X020669Y021116D02*
X020287Y021116D01*
X018787Y020998D02*
X018168Y020998D01*
X018287Y021116D02*
X018669Y021116D01*
X018550Y021235D02*
X018405Y021235D01*
X018418Y021353D02*
X018538Y021353D01*
X018538Y021472D02*
X018418Y021472D01*
X018418Y021590D02*
X018538Y021590D01*
X018635Y021709D02*
X018321Y021709D01*
X018269Y020761D02*
X018687Y020761D01*
X018568Y020642D02*
X018387Y020642D01*
X018418Y020524D02*
X018538Y020524D01*
X018538Y020405D02*
X018418Y020405D01*
X018418Y020287D02*
X018538Y020287D01*
X018617Y020168D02*
X018339Y020168D01*
X018220Y020050D02*
X018735Y020050D01*
X016687Y020761D02*
X016297Y020761D01*
X016415Y020642D02*
X016568Y020642D01*
X016538Y020524D02*
X016438Y020524D01*
X016018Y020524D02*
X015938Y020524D01*
X015938Y020642D02*
X016018Y020642D01*
X016018Y020761D02*
X015938Y020761D01*
X015938Y020879D02*
X016018Y020879D01*
X015669Y021116D02*
X015287Y021116D01*
X015405Y021235D02*
X015550Y021235D01*
X015538Y021353D02*
X015418Y021353D01*
X015418Y021472D02*
X015538Y021472D01*
X015538Y021590D02*
X015418Y021590D01*
X015321Y021709D02*
X015635Y021709D01*
X014787Y020998D02*
X014168Y020998D01*
X014160Y020869D02*
X013795Y020869D01*
X013538Y020612D01*
X013538Y020247D01*
X013795Y019989D01*
X014160Y019989D01*
X014418Y020247D01*
X014418Y020612D01*
X014160Y020869D01*
X014269Y020761D02*
X014687Y020761D01*
X014568Y020642D02*
X014387Y020642D01*
X014418Y020524D02*
X014538Y020524D01*
X014538Y020405D02*
X014418Y020405D01*
X014418Y020287D02*
X014538Y020287D01*
X014617Y020168D02*
X014339Y020168D01*
X014220Y020050D02*
X014735Y020050D01*
X015220Y020050D02*
X015707Y020050D01*
X015588Y020168D02*
X015339Y020168D01*
X015418Y020287D02*
X015518Y020287D01*
X015938Y020287D02*
X016018Y020287D01*
X016018Y020168D02*
X015938Y020168D01*
X015938Y020050D02*
X016018Y020050D01*
X014669Y021116D02*
X014287Y021116D01*
X014405Y021235D02*
X014550Y021235D01*
X014538Y021353D02*
X014418Y021353D01*
X014418Y021472D02*
X014538Y021472D01*
X014538Y021590D02*
X014418Y021590D01*
X014321Y021709D02*
X014635Y021709D01*
X013635Y021709D02*
X013321Y021709D01*
X013418Y021590D02*
X013538Y021590D01*
X013538Y021472D02*
X013418Y021472D01*
X013418Y021353D02*
X013538Y021353D01*
X013550Y021235D02*
X013405Y021235D01*
X013287Y021116D02*
X013669Y021116D01*
X013787Y020998D02*
X013168Y020998D01*
X013160Y020869D02*
X012795Y020869D01*
X012538Y020612D01*
X012538Y020247D01*
X012795Y019989D01*
X013160Y019989D01*
X013418Y020247D01*
X013418Y020612D01*
X013160Y020869D01*
X013269Y020761D02*
X013687Y020761D01*
X013568Y020642D02*
X013387Y020642D01*
X013418Y020524D02*
X013538Y020524D01*
X013538Y020405D02*
X013418Y020405D01*
X013418Y020287D02*
X013538Y020287D01*
X013617Y020168D02*
X013339Y020168D01*
X013220Y020050D02*
X013735Y020050D01*
X012735Y020050D02*
X012220Y020050D01*
X012339Y020168D02*
X012617Y020168D01*
X012538Y020287D02*
X012418Y020287D01*
X012418Y020405D02*
X012538Y020405D01*
X012538Y020524D02*
X012418Y020524D01*
X012387Y020642D02*
X012568Y020642D01*
X012687Y020761D02*
X012269Y020761D01*
X012168Y020998D02*
X012787Y020998D01*
X012669Y021116D02*
X012287Y021116D01*
X012405Y021235D02*
X012550Y021235D01*
X012538Y021353D02*
X012418Y021353D01*
X012418Y021472D02*
X012538Y021472D01*
X012538Y021590D02*
X012418Y021590D01*
X012321Y021709D02*
X012635Y021709D01*
X012545Y016258D02*
X012083Y016258D01*
X012177Y016139D02*
X012452Y016139D01*
X012409Y016021D02*
X012220Y016021D01*
X012220Y015902D02*
X012409Y015902D01*
X012364Y015784D02*
X012180Y015784D01*
X012246Y015665D02*
X012092Y015665D01*
X012172Y015547D02*
X011680Y015547D01*
X011562Y015428D02*
X012172Y015428D01*
X012172Y015310D02*
X012047Y015310D01*
X012162Y015191D02*
X012172Y015191D01*
X011597Y015310D02*
X011443Y015310D01*
X011482Y015191D02*
X011325Y015191D01*
X011433Y015073D02*
X011206Y015073D01*
X011088Y014954D02*
X011425Y014954D01*
X011416Y014836D02*
X010969Y014836D01*
X010851Y014717D02*
X011298Y014717D01*
X011179Y014599D02*
X010732Y014599D01*
X010614Y014480D02*
X011061Y014480D01*
X010942Y014362D02*
X010495Y014362D01*
X010461Y014243D02*
X010824Y014243D01*
X010705Y014125D02*
X010461Y014125D01*
X010461Y014006D02*
X010587Y014006D01*
X010468Y013888D02*
X010461Y013888D01*
X010314Y014717D02*
X010264Y014717D01*
X010264Y014836D02*
X010432Y014836D01*
X010551Y014954D02*
X010264Y014954D01*
X010264Y015073D02*
X010669Y015073D01*
X010788Y015191D02*
X010341Y015191D01*
X010459Y015310D02*
X010906Y015310D01*
X011025Y015428D02*
X010578Y015428D01*
X010696Y015547D02*
X011143Y015547D01*
X011108Y015665D02*
X011262Y015665D01*
X011196Y015784D02*
X011380Y015784D01*
X011425Y015902D02*
X011235Y015902D01*
X011235Y016021D02*
X011425Y016021D01*
X011467Y016139D02*
X011193Y016139D01*
X011099Y016258D02*
X011561Y016258D01*
X010576Y016258D02*
X010115Y016258D01*
X010208Y016139D02*
X010483Y016139D01*
X010440Y016021D02*
X010251Y016021D01*
X010251Y015902D02*
X010440Y015902D01*
X010396Y015784D02*
X010212Y015784D01*
X010277Y015665D02*
X010124Y015665D01*
X010159Y015547D02*
X010068Y015547D01*
X009688Y015547D02*
X009548Y015547D01*
X009583Y015665D02*
X009430Y015665D01*
X009495Y015784D02*
X009311Y015784D01*
X009267Y015902D02*
X009456Y015902D01*
X009456Y016021D02*
X009267Y016021D01*
X009224Y016139D02*
X009499Y016139D01*
X009592Y016258D02*
X009131Y016258D01*
X008608Y016258D02*
X008146Y016258D01*
X008240Y016139D02*
X008515Y016139D01*
X008472Y016021D02*
X008283Y016021D01*
X008283Y015902D02*
X008472Y015902D01*
X008511Y015784D02*
X008327Y015784D01*
X008446Y015665D02*
X008599Y015665D01*
X008564Y015547D02*
X009011Y015547D01*
X009129Y015428D02*
X008683Y015428D01*
X008801Y015310D02*
X009248Y015310D01*
X009366Y015191D02*
X008920Y015191D01*
X009038Y015073D02*
X009485Y015073D01*
X009491Y014954D02*
X009157Y014954D01*
X009275Y014836D02*
X009491Y014836D01*
X009491Y014717D02*
X009394Y014717D01*
X009093Y014480D02*
X008646Y014480D01*
X008528Y014599D02*
X008975Y014599D01*
X008856Y014717D02*
X008409Y014717D01*
X008291Y014836D02*
X008738Y014836D01*
X008619Y014954D02*
X008283Y014954D01*
X008274Y015073D02*
X008501Y015073D01*
X008382Y015191D02*
X008225Y015191D01*
X008264Y015310D02*
X008110Y015310D01*
X008145Y015428D02*
X007632Y015428D01*
X007632Y015310D02*
X007660Y015310D01*
X007580Y015547D02*
X008027Y015547D01*
X007615Y015665D02*
X007461Y015665D01*
X007527Y015784D02*
X007343Y015784D01*
X007298Y015902D02*
X007488Y015902D01*
X007488Y016021D02*
X007298Y016021D01*
X007256Y016139D02*
X007530Y016139D01*
X007624Y016258D02*
X007162Y016258D01*
X006639Y016258D02*
X006178Y016258D01*
X006271Y016139D02*
X006546Y016139D01*
X006503Y016021D02*
X006314Y016021D01*
X006314Y015902D02*
X006503Y015902D01*
X006542Y015784D02*
X006275Y015784D01*
X006187Y015665D02*
X006630Y015665D01*
X007042Y015547D02*
X005775Y015547D01*
X005656Y015428D02*
X007161Y015428D01*
X007126Y015310D02*
X007252Y015310D01*
X007241Y015191D02*
X007252Y015191D01*
X006676Y015310D02*
X006142Y015310D01*
X006256Y015191D02*
X006561Y015191D01*
X006512Y015073D02*
X006305Y015073D01*
X006314Y014954D02*
X006503Y014954D01*
X006527Y014836D02*
X006322Y014836D01*
X006441Y014717D02*
X006594Y014717D01*
X006559Y014599D02*
X006765Y014599D01*
X006678Y014480D02*
X007125Y014480D01*
X007243Y014362D02*
X006796Y014362D01*
X006915Y014243D02*
X007362Y014243D01*
X007480Y014125D02*
X007033Y014125D01*
X007152Y014006D02*
X007599Y014006D01*
X007717Y013888D02*
X007270Y013888D01*
X007389Y013769D02*
X007836Y013769D01*
X007954Y013651D02*
X007507Y013651D01*
X007626Y013532D02*
X008073Y013532D01*
X008191Y013414D02*
X007744Y013414D01*
X007863Y013295D02*
X008310Y013295D01*
X008428Y013177D02*
X007981Y013177D01*
X008100Y013058D02*
X008547Y013058D01*
X008665Y012940D02*
X008218Y012940D01*
X008337Y012821D02*
X008703Y012821D01*
X008703Y012703D02*
X008455Y012703D01*
X008574Y012584D02*
X008703Y012584D01*
X008692Y012466D02*
X008703Y012466D01*
X009239Y013888D02*
X009294Y013888D01*
X009294Y014006D02*
X009120Y014006D01*
X009002Y014125D02*
X009294Y014125D01*
X009294Y014243D02*
X008883Y014243D01*
X008765Y014362D02*
X009212Y014362D01*
X009667Y015428D02*
X009688Y015428D01*
X005691Y015310D02*
X005592Y015310D01*
X006375Y011281D02*
X006489Y011281D01*
X006489Y011162D02*
X006375Y011162D01*
X006375Y011044D02*
X006489Y011044D01*
X006489Y010925D02*
X006446Y010925D01*
X006078Y011010D02*
X006573Y010515D01*
X007909Y010515D01*
X008930Y010096D02*
X008970Y010096D01*
X006412Y009622D02*
X006334Y009622D01*
X006334Y009503D02*
X006347Y009503D01*
X006347Y009385D02*
X006253Y009385D01*
X005847Y009148D02*
X005809Y009148D01*
X005809Y009029D02*
X005847Y009029D01*
X005847Y008911D02*
X005809Y008911D01*
X005809Y008792D02*
X005847Y008792D01*
X005809Y008741D02*
X005510Y008741D01*
X005510Y008503D01*
X005521Y008462D01*
X005542Y008426D01*
X005572Y008396D01*
X005609Y008375D01*
X005649Y008364D01*
X005809Y008364D01*
X005809Y008741D01*
X005809Y008674D02*
X005847Y008674D01*
X005847Y008555D02*
X005809Y008555D01*
X005809Y008437D02*
X005847Y008437D01*
X005536Y008437D02*
X004682Y008437D01*
X004682Y008555D02*
X005510Y008555D01*
X005510Y008674D02*
X004682Y008674D01*
X004682Y008792D02*
X005510Y008792D01*
X005510Y008911D02*
X004682Y008911D01*
X004682Y009029D02*
X005514Y009029D01*
X006035Y008081D02*
X004682Y008081D01*
X004682Y007963D02*
X006010Y007963D01*
X006010Y007844D02*
X004682Y007844D01*
X004682Y007726D02*
X006010Y007726D01*
X006010Y007607D02*
X004682Y007607D01*
X004682Y007489D02*
X006014Y007489D01*
X020537Y005474D02*
X020864Y005474D01*
X020735Y005356D02*
X020655Y005356D01*
X021280Y005474D02*
X021625Y005474D01*
X021604Y005356D02*
X021409Y005356D01*
X021458Y005237D02*
X021629Y005237D01*
X021713Y005119D02*
X021470Y005119D01*
X022131Y005119D02*
X026073Y005119D01*
X025989Y005237D02*
X022216Y005237D01*
X022357Y004408D02*
X026716Y004408D01*
X026646Y004289D02*
X022427Y004289D01*
X022454Y004171D02*
X026619Y004171D01*
X026625Y004052D02*
X022448Y004052D01*
X022399Y003934D02*
X026674Y003934D01*
X026785Y003815D02*
X022288Y003815D01*
X021825Y003815D02*
X021303Y003815D01*
X021414Y003934D02*
X021714Y003934D01*
X021665Y004052D02*
X021463Y004052D01*
X021470Y004171D02*
X021659Y004171D01*
X021685Y004289D02*
X021443Y004289D01*
X021372Y004408D02*
X021756Y004408D01*
X027437Y007514D02*
X027437Y009057D01*
X027057Y009254D02*
X027057Y008834D01*
X026747Y008081D02*
X026709Y008081D01*
X026709Y007963D02*
X026747Y007963D01*
X026747Y007844D02*
X026709Y007844D01*
X026709Y007726D02*
X026747Y007726D01*
X026490Y007726D02*
X025622Y007726D01*
X025622Y007844D02*
X026410Y007844D01*
X025966Y007963D02*
X025622Y007963D01*
X025622Y008081D02*
X025944Y008081D01*
X031112Y005593D02*
X031207Y005593D01*
X031112Y005474D02*
X031325Y005474D01*
X031444Y005356D02*
X031112Y005356D01*
X031112Y005237D02*
X031552Y005237D01*
X031540Y005119D02*
X031112Y005119D01*
X031112Y005000D02*
X031561Y005000D01*
X031624Y004882D02*
X031112Y004882D01*
X031112Y004763D02*
X031785Y004763D01*
X031817Y004526D02*
X031112Y004526D01*
X031112Y004645D02*
X032168Y004645D01*
X032090Y004763D02*
X032286Y004763D01*
X032292Y004882D02*
X032251Y004882D01*
X032672Y004763D02*
X032770Y004763D01*
X032672Y004645D02*
X036497Y004645D01*
X036419Y004763D02*
X036592Y004763D01*
X036580Y004882D02*
X036592Y004882D01*
X036972Y004763D02*
X037098Y004763D01*
X036972Y004645D02*
X037481Y004645D01*
X037403Y004763D02*
X037592Y004763D01*
X037592Y004882D02*
X037564Y004882D01*
X037972Y004882D02*
X038092Y004882D01*
X038092Y005000D02*
X037972Y005000D01*
X037972Y005119D02*
X038092Y005119D01*
X038092Y005237D02*
X038028Y005237D01*
X037972Y004763D02*
X038092Y004763D01*
X038092Y004645D02*
X037972Y004645D01*
X037900Y004526D02*
X038092Y004526D01*
X037935Y004408D02*
X037781Y004408D01*
X037864Y004289D02*
X037663Y004289D01*
X037648Y004171D02*
X037838Y004171D01*
X037844Y004052D02*
X037642Y004052D01*
X037593Y003934D02*
X037893Y003934D01*
X038004Y003815D02*
X037482Y003815D01*
X037019Y003815D02*
X036498Y003815D01*
X036609Y003934D02*
X036909Y003934D01*
X036859Y004052D02*
X036658Y004052D01*
X036664Y004171D02*
X036853Y004171D01*
X036880Y004289D02*
X036678Y004289D01*
X036797Y004408D02*
X036950Y004408D01*
X036915Y004526D02*
X037130Y004526D01*
X036146Y004526D02*
X034027Y004526D01*
X033985Y004543D02*
X034131Y004483D01*
X034243Y004371D01*
X034304Y004225D01*
X034304Y004067D01*
X034243Y003921D01*
X034131Y003809D01*
X033985Y003748D01*
X033827Y003748D01*
X033681Y003809D01*
X033569Y003921D01*
X033509Y004067D01*
X033509Y004225D01*
X033569Y004371D01*
X033681Y004483D01*
X033827Y004543D01*
X033985Y004543D01*
X033785Y004526D02*
X033043Y004526D01*
X033001Y004543D02*
X032843Y004543D01*
X032697Y004483D01*
X032585Y004371D01*
X032525Y004225D01*
X032525Y004067D01*
X032585Y003921D01*
X032697Y003809D01*
X032843Y003748D01*
X033001Y003748D01*
X033147Y003809D01*
X033259Y003921D01*
X033320Y004067D01*
X033320Y004225D01*
X033259Y004371D01*
X033147Y004483D01*
X033001Y004543D01*
X032801Y004526D02*
X032587Y004526D01*
X032622Y004408D02*
X032468Y004408D01*
X032551Y004289D02*
X032350Y004289D01*
X032335Y004171D02*
X032525Y004171D01*
X032531Y004052D02*
X032329Y004052D01*
X032280Y003934D02*
X032580Y003934D01*
X032691Y003815D02*
X032169Y003815D01*
X031706Y003815D02*
X031185Y003815D01*
X031296Y003934D02*
X031596Y003934D01*
X031546Y004052D02*
X031345Y004052D01*
X031351Y004171D02*
X031540Y004171D01*
X031567Y004289D02*
X031324Y004289D01*
X031254Y004408D02*
X031637Y004408D01*
X032497Y005474D02*
X032714Y005474D01*
X033298Y005000D02*
X035890Y005000D01*
X035953Y004882D02*
X033236Y004882D01*
X033075Y004763D02*
X036114Y004763D01*
X035966Y004408D02*
X034207Y004408D01*
X034277Y004289D02*
X035896Y004289D01*
X035869Y004171D02*
X034304Y004171D01*
X034298Y004052D02*
X035875Y004052D01*
X035924Y003934D02*
X034249Y003934D01*
X034138Y003815D02*
X036035Y003815D01*
X033675Y003815D02*
X033153Y003815D01*
X033264Y003934D02*
X033564Y003934D01*
X033515Y004052D02*
X033313Y004052D01*
X033320Y004171D02*
X033509Y004171D01*
X033535Y004289D02*
X033293Y004289D01*
X033222Y004408D02*
X033606Y004408D01*
X040909Y006422D02*
X044682Y006422D01*
X044682Y006304D02*
X041027Y006304D01*
X041146Y006185D02*
X044682Y006185D01*
X044682Y006067D02*
X041264Y006067D01*
X041383Y005948D02*
X044682Y005948D01*
X044682Y005830D02*
X041501Y005830D01*
X041620Y005711D02*
X044682Y005711D01*
X044682Y005593D02*
X041738Y005593D01*
X041857Y005474D02*
X041964Y005474D01*
X042380Y005474D02*
X044682Y005474D01*
X044682Y005356D02*
X042509Y005356D01*
X042558Y005237D02*
X044682Y005237D01*
X044682Y005119D02*
X042570Y005119D01*
X042548Y005000D02*
X044682Y005000D01*
X044682Y004882D02*
X042486Y004882D01*
X042472Y004408D02*
X042856Y004408D01*
X042785Y004289D02*
X042543Y004289D01*
X042570Y004171D02*
X042759Y004171D01*
X042765Y004052D02*
X042563Y004052D01*
X042514Y003934D02*
X042814Y003934D01*
X042925Y003815D02*
X042403Y003815D01*
X041456Y009648D02*
X040350Y009648D01*
X040395Y009859D02*
X041050Y009859D01*
X041050Y009977D02*
X040395Y009977D01*
X040395Y010096D02*
X041050Y010096D01*
X041050Y010214D02*
X040395Y010214D01*
X040395Y010333D02*
X041050Y010333D01*
X041050Y010451D02*
X040395Y010451D01*
X040395Y010570D02*
X041050Y010570D01*
X041050Y010688D02*
X040377Y010688D01*
X038903Y012703D02*
X038805Y012703D01*
X038903Y012821D02*
X038687Y012821D01*
X038010Y015310D02*
X037972Y015310D01*
X037883Y015428D02*
X038432Y015428D01*
X038377Y015547D02*
X037764Y015547D01*
X037646Y015665D02*
X037965Y015665D01*
X039481Y016258D02*
X039942Y016258D01*
X039849Y016139D02*
X039574Y016139D01*
X039617Y016021D02*
X039806Y016021D01*
X039806Y015902D02*
X039617Y015902D01*
X039661Y015784D02*
X039845Y015784D01*
X039888Y015665D02*
X039780Y015665D01*
X033771Y014599D02*
X033370Y014599D01*
X033488Y014717D02*
X033600Y014717D01*
X030234Y014362D02*
X029865Y014362D01*
X029983Y014243D02*
X030234Y014243D01*
X030234Y014125D02*
X030102Y014125D01*
X030220Y014006D02*
X030234Y014006D01*
D21*
X031562Y011180D03*
X034182Y010260D03*
X034862Y010100D03*
X035702Y011000D03*
X034742Y009140D03*
X034742Y008180D03*
X034742Y007280D03*
X031442Y009500D03*
X030302Y009080D03*
X029642Y009080D03*
X026282Y011000D03*
X022202Y010280D03*
X021422Y009740D03*
X019622Y010160D03*
X014522Y011060D03*
X013082Y010100D03*
X012302Y009560D03*
X010022Y009140D03*
X009362Y009140D03*
X008642Y009140D03*
X005182Y010760D03*
X030602Y021920D03*
X039182Y009380D03*
X039942Y009020D03*
D22*
X008978Y021429D02*
X007978Y021429D01*
D23*
X008978Y020429D02*
X009482Y020934D01*
X009482Y021740D01*
X009962Y022220D01*
X029162Y022220D01*
X030002Y021380D01*
X032162Y021380D01*
X032497Y021046D01*
X032522Y021046D01*
X032758Y020810D01*
X033672Y020810D01*
X033672Y020310D02*
X032458Y020310D01*
X031722Y021046D01*
X029977Y021046D01*
X029042Y021980D01*
X010802Y021980D01*
X010442Y021620D01*
X010442Y020894D01*
X009978Y020429D01*
X009854Y015957D02*
X009878Y015933D01*
X009878Y011893D01*
X010074Y011893D02*
X010074Y015193D01*
X010838Y015957D01*
X011822Y015957D02*
X010271Y014406D01*
X010271Y011893D01*
X010468Y011893D02*
X010468Y013619D01*
X011822Y014973D01*
X012362Y014820D02*
X010665Y013123D01*
X010665Y011893D01*
X009681Y011893D02*
X009681Y015145D01*
X008869Y015957D01*
X007885Y015957D02*
X009484Y014358D01*
X009484Y011893D01*
X009287Y011893D02*
X009287Y013571D01*
X007885Y014973D01*
X007442Y014820D02*
X009090Y013172D01*
X009090Y011893D01*
X008893Y011893D02*
X008893Y012980D01*
X006901Y014973D01*
X007442Y014820D02*
X007442Y015415D01*
X006901Y015957D01*
X005917Y015957D02*
X005402Y015443D01*
X005402Y014820D01*
X008329Y011893D01*
X008500Y011893D01*
X008696Y011893D02*
X008696Y012193D01*
X005917Y014973D01*
X006787Y011010D02*
X006812Y010987D01*
X006839Y010967D01*
X006868Y010950D01*
X006899Y010935D01*
X006931Y010924D01*
X006964Y010916D01*
X006997Y010911D01*
X007031Y010909D01*
X007909Y010909D01*
X007909Y009925D02*
X006201Y009925D01*
X006037Y009760D01*
X006537Y009478D02*
X006537Y008760D01*
X007037Y009281D02*
X007037Y007760D01*
X008500Y007713D02*
X008500Y008547D01*
X008696Y008547D02*
X008696Y007554D01*
X006482Y005340D01*
X006482Y004712D01*
X005917Y004146D01*
X006901Y004146D02*
X007442Y004687D01*
X007442Y005340D01*
X009090Y006988D01*
X009090Y008547D01*
X008893Y008547D02*
X008893Y007123D01*
X006901Y005130D01*
X005917Y005130D02*
X008500Y007713D01*
X009287Y006945D02*
X009287Y008547D01*
X009484Y008547D02*
X009484Y006662D01*
X009002Y006180D01*
X009002Y004279D01*
X008869Y004146D01*
X007922Y004183D02*
X007922Y005580D01*
X009287Y006945D01*
X009681Y006582D02*
X009681Y008547D01*
X009878Y008547D02*
X009878Y006625D01*
X010082Y006420D01*
X010082Y005886D01*
X010838Y005130D01*
X011402Y005100D02*
X011402Y004710D01*
X010838Y004146D01*
X009854Y004146D02*
X009842Y004157D01*
X009842Y006420D01*
X009681Y006582D01*
X010074Y006668D02*
X010074Y008547D01*
X011256Y009334D02*
X011608Y009334D01*
X012002Y008940D01*
X012002Y005700D01*
X013082Y004620D01*
X014162Y004620D01*
X017522Y007980D01*
X017522Y009420D01*
X017175Y009420D01*
X017129Y009374D01*
X017089Y009334D01*
X017129Y009571D02*
X016233Y009571D01*
X016082Y009420D01*
X016082Y008146D01*
X016037Y008100D01*
X015537Y008860D02*
X015602Y008926D01*
X015602Y009660D01*
X015710Y009768D01*
X017129Y009768D01*
X017129Y009965D02*
X015381Y009965D01*
X015037Y009620D01*
X016184Y010949D02*
X017129Y010949D01*
X016184Y010949D02*
X016157Y010951D01*
X016130Y010956D01*
X016104Y010965D01*
X016080Y010977D01*
X016057Y010992D01*
X016037Y011010D01*
X017509Y011933D02*
X017720Y011933D01*
X017916Y011933D02*
X017916Y012223D01*
X015167Y014973D01*
X014682Y014760D02*
X017509Y011933D01*
X018113Y011933D02*
X018113Y013010D01*
X016151Y014973D01*
X016682Y014760D02*
X018310Y013132D01*
X018310Y011933D01*
X018507Y011933D02*
X018507Y013601D01*
X017135Y014973D01*
X016682Y014760D02*
X016682Y015425D01*
X016151Y015957D01*
X017135Y015957D02*
X018704Y014388D01*
X018704Y011933D01*
X018901Y011933D02*
X018901Y015175D01*
X018119Y015957D01*
X019098Y015951D02*
X019098Y011933D01*
X019294Y011933D02*
X019294Y015163D01*
X020088Y015957D01*
X021072Y015957D02*
X019491Y014376D01*
X019491Y011933D01*
X019688Y011933D02*
X019688Y013589D01*
X021072Y014973D01*
X021602Y014820D02*
X019885Y013103D01*
X019885Y011933D01*
X023932Y013260D02*
X023932Y006760D01*
X023882Y006710D01*
X023882Y006550D01*
X023632Y006300D01*
X020762Y006300D01*
X019885Y007177D01*
X019885Y008587D01*
X019688Y008587D02*
X019682Y008587D01*
X019682Y007020D01*
X020642Y006060D01*
X024712Y006060D01*
X024962Y006310D01*
X024962Y006730D01*
X024932Y006760D01*
X024932Y013260D01*
X025432Y013260D02*
X025432Y006760D01*
X025432Y006070D01*
X025182Y005820D01*
X020642Y005820D01*
X019491Y006971D01*
X019491Y008587D01*
X019294Y008587D02*
X019294Y006808D01*
X019562Y006540D01*
X019562Y006180D01*
X020642Y005100D01*
X020642Y004700D01*
X020088Y004146D01*
X019104Y004146D02*
X019082Y004167D01*
X019082Y006540D01*
X018901Y006722D01*
X018901Y008587D01*
X019098Y008587D02*
X019098Y006765D01*
X019322Y006540D01*
X019322Y005896D01*
X020088Y005130D01*
X021922Y005360D02*
X021922Y009124D01*
X021672Y009374D01*
X020476Y009374D01*
X018704Y008587D02*
X018704Y006762D01*
X018122Y006180D01*
X018122Y004149D01*
X018122Y004148D01*
X018121Y004146D01*
X018119Y004146D01*
X017162Y004173D02*
X017162Y005460D01*
X018507Y006805D01*
X018507Y008587D01*
X018310Y008587D02*
X018310Y006968D01*
X016802Y005460D01*
X016802Y004797D01*
X016151Y004146D01*
X015722Y004702D02*
X015722Y005340D01*
X017916Y007534D01*
X017916Y008587D01*
X017720Y008587D02*
X017720Y007683D01*
X015167Y005130D01*
X015722Y004702D02*
X015167Y004146D01*
X016151Y005130D02*
X018113Y007093D01*
X018113Y008587D01*
X011402Y005100D02*
X010322Y006180D01*
X010322Y006420D01*
X010074Y006668D01*
X007287Y009531D02*
X007037Y009281D01*
X007287Y009531D02*
X007909Y009531D01*
X007909Y009728D02*
X006787Y009728D01*
X006537Y009478D01*
X007922Y004183D02*
X007885Y004146D01*
X017135Y004146D02*
X017162Y004173D01*
X026282Y005360D02*
X029032Y007760D01*
X029282Y008010D01*
X029282Y009180D01*
X029208Y009254D01*
X028849Y009254D01*
X028849Y009451D02*
X027830Y009451D01*
X027437Y009057D01*
X027437Y008100D01*
X027057Y008860D02*
X027057Y009254D01*
X027450Y009648D01*
X028849Y009648D01*
X028849Y009845D02*
X027021Y009845D01*
X026994Y009843D01*
X026967Y009838D01*
X026941Y009830D01*
X026916Y009819D01*
X026893Y009805D01*
X026872Y009788D01*
X026853Y009769D01*
X026836Y009748D01*
X026822Y009725D01*
X026811Y009700D01*
X026803Y009674D01*
X026798Y009647D01*
X026796Y009620D01*
X028224Y010829D02*
X028849Y010829D01*
X028224Y010829D02*
X028176Y010831D01*
X028127Y010837D01*
X028080Y010846D01*
X028033Y010859D01*
X027988Y010876D01*
X027943Y010896D01*
X027901Y010920D01*
X027861Y010947D01*
X027823Y010977D01*
X027787Y011010D01*
X029440Y011813D02*
X029440Y011863D01*
X026602Y014700D01*
X026602Y015543D01*
X027017Y015957D01*
X028001Y015957D02*
X028522Y015435D01*
X028522Y014820D01*
X030030Y013312D01*
X030030Y011813D01*
X029833Y011813D02*
X029833Y013140D01*
X028001Y014973D01*
X028985Y014973D02*
X030227Y013731D01*
X030227Y011813D01*
X030424Y011813D02*
X030424Y014518D01*
X028985Y015957D01*
X029969Y015957D02*
X030621Y015305D01*
X030621Y011813D01*
X030818Y011813D02*
X030818Y015821D01*
X030954Y015957D01*
X031014Y015033D02*
X031938Y015957D01*
X032922Y015957D02*
X031211Y014246D01*
X031211Y011813D01*
X031014Y011813D02*
X031014Y015033D01*
X031408Y014106D02*
X032602Y015300D01*
X032602Y015292D01*
X032922Y014973D01*
X033442Y014940D02*
X031605Y013103D01*
X031605Y011813D01*
X031408Y011813D02*
X031408Y014106D01*
X033442Y014940D02*
X033442Y015420D01*
X033906Y015884D01*
X033906Y015957D01*
X035782Y015473D02*
X036267Y015957D01*
X035782Y015473D02*
X035782Y014760D01*
X038609Y011933D01*
X038700Y011813D01*
X038896Y011813D02*
X038896Y012343D01*
X036267Y014973D01*
X037251Y014973D02*
X039093Y013130D01*
X039093Y011813D01*
X039290Y011813D02*
X039282Y011941D01*
X039282Y013260D01*
X037782Y014760D01*
X037782Y015260D01*
X037251Y015791D01*
X037251Y015957D01*
X038235Y015957D02*
X039684Y014508D01*
X039684Y011813D01*
X039881Y011813D02*
X039881Y015295D01*
X039219Y015957D01*
X040078Y015831D02*
X040204Y015957D01*
X040078Y015831D02*
X040078Y011813D01*
X040274Y011813D02*
X040274Y015043D01*
X041188Y015957D01*
X042032Y016010D02*
X042119Y016010D01*
X042172Y015957D01*
X042032Y016010D02*
X040471Y014449D01*
X040471Y011813D01*
X040668Y011813D02*
X040668Y014146D01*
X041782Y015260D01*
X041885Y015260D01*
X042172Y014973D01*
X042782Y015010D02*
X042782Y015583D01*
X043156Y015957D01*
X042782Y015010D02*
X040865Y013093D01*
X040865Y011813D01*
X039487Y011813D02*
X039487Y014305D01*
X038532Y015260D01*
X037037Y011010D02*
X037073Y010977D01*
X037111Y010947D01*
X037151Y010920D01*
X037193Y010896D01*
X037238Y010876D01*
X037283Y010859D01*
X037330Y010846D01*
X037377Y010837D01*
X037426Y010831D01*
X037474Y010829D01*
X038109Y010829D01*
X038109Y009845D02*
X036157Y009845D01*
X036157Y009640D01*
X036457Y008860D02*
X037244Y009648D01*
X038109Y009648D01*
X038109Y009451D02*
X037562Y009451D01*
X037562Y009420D01*
X036757Y008614D01*
X036757Y008000D01*
X038522Y007980D02*
X038522Y009300D01*
X038109Y009254D01*
X038700Y008467D02*
X038700Y007563D01*
X036267Y005130D01*
X035802Y005260D02*
X038522Y007980D01*
X038896Y008467D02*
X038896Y007374D01*
X036782Y005260D01*
X036782Y004662D01*
X036267Y004146D01*
X037251Y004146D02*
X037782Y004677D01*
X037782Y005260D01*
X039290Y006768D01*
X039290Y008467D01*
X039093Y008467D02*
X039093Y006973D01*
X037251Y005130D01*
X038282Y005260D02*
X038282Y004193D01*
X038235Y004146D01*
X039219Y004146D02*
X039282Y004209D01*
X039282Y005760D01*
X039684Y006162D01*
X039684Y008467D01*
X039881Y008467D02*
X039881Y006162D01*
X040282Y005760D01*
X040282Y004225D01*
X040204Y004146D01*
X041188Y004146D02*
X041722Y004680D01*
X041722Y005340D01*
X040274Y006788D01*
X040274Y008467D01*
X040078Y008467D02*
X040078Y006240D01*
X041188Y005130D01*
X039487Y006465D02*
X038282Y005260D01*
X039487Y006465D02*
X039487Y008467D01*
X041456Y009254D02*
X043516Y009254D01*
X044162Y009900D01*
X035802Y005260D02*
X034182Y005260D01*
X033182Y006260D01*
X033182Y009010D01*
X032932Y009260D01*
X032682Y009260D01*
X032676Y009254D01*
X032196Y009254D01*
X031014Y008467D02*
X031014Y006688D01*
X032482Y005220D01*
X032482Y004690D01*
X031938Y004146D01*
X030954Y004146D02*
X030922Y004177D01*
X030922Y006180D01*
X030621Y006482D01*
X030621Y008467D01*
X030818Y008467D02*
X030818Y006525D01*
X031162Y006180D01*
X031162Y005906D01*
X031938Y005130D01*
X030082Y004259D02*
X029969Y004146D01*
X030082Y004259D02*
X030082Y006180D01*
X030424Y006522D01*
X030424Y008467D01*
X030227Y008467D02*
X030227Y006565D01*
X029002Y005340D01*
X029002Y004163D01*
X028985Y004146D01*
X028642Y004787D02*
X028001Y004146D01*
X027562Y004692D02*
X027562Y005340D01*
X029636Y007414D01*
X029636Y008467D01*
X029440Y008467D02*
X029440Y007553D01*
X027017Y005130D01*
X027562Y004692D02*
X027017Y004146D01*
X028642Y004787D02*
X028642Y005340D01*
X030030Y006728D01*
X030030Y008467D01*
X029833Y008467D02*
X029833Y006963D01*
X028001Y005130D01*
X029636Y011813D02*
X029636Y012353D01*
X027017Y014973D01*
X022056Y015957D02*
X021602Y015503D01*
X021602Y014820D01*
X019104Y015957D02*
X019098Y015951D01*
X015167Y015957D02*
X014682Y015473D01*
X014682Y014760D01*
X012806Y015957D02*
X012362Y015513D01*
X012362Y014820D01*
X033672Y021310D02*
X034632Y021310D01*
X034682Y021260D01*
X034682Y020060D01*
X034922Y019820D01*
X036362Y019820D01*
X037182Y020640D01*
X037182Y020760D01*
X037152Y020730D01*
D24*
X025862Y008960D03*
X026282Y008240D03*
X027182Y007260D03*
X016182Y007260D03*
X014822Y007640D03*
X014222Y008720D03*
D25*
X021922Y005360D03*
X026282Y005360D03*
X037182Y020760D03*
M02*
