G75*
%MOIN*%
%OFA0B0*%
%FSLAX24Y24*%
%IPPOS*%
%LPD*%
%AMOC8*
5,1,8,0,0,1.08239X$1,22.5*
%
%ADD10C,0.1163*%
%ADD11R,0.0680X0.0680*%
%ADD12OC8,0.0680*%
%ADD13C,0.0595*%
%ADD14R,0.1025X0.1025*%
%ADD15R,0.0611X0.0218*%
%ADD16R,0.0218X0.0611*%
%ADD17R,0.0950X0.0320*%
%ADD18R,0.0395X0.0552*%
%ADD19R,0.0552X0.0395*%
%ADD20C,0.0740*%
%ADD21OC8,0.0740*%
%ADD22C,0.0476*%
%ADD23C,0.0437*%
D10*
X006060Y001638D03*
X028895Y001638D03*
X028895Y020929D03*
X006060Y020929D03*
D11*
X007978Y020429D03*
D12*
X008978Y020429D03*
X009978Y020429D03*
X010978Y020429D03*
X011978Y020429D03*
X012978Y020429D03*
X013978Y020429D03*
X014978Y020429D03*
X015978Y020429D03*
X016978Y020429D03*
X017978Y020429D03*
X018978Y020429D03*
X019978Y020429D03*
X020978Y020429D03*
X021978Y020429D03*
X022978Y020429D03*
X023978Y020429D03*
X024978Y020429D03*
X025978Y020429D03*
X026978Y020429D03*
X026978Y021429D03*
X025978Y021429D03*
X024978Y021429D03*
X023978Y021429D03*
X022978Y021429D03*
X021978Y021429D03*
X020978Y021429D03*
X019978Y021429D03*
X018978Y021429D03*
X017978Y021429D03*
X016978Y021429D03*
X015978Y021429D03*
X014978Y021429D03*
X013978Y021429D03*
X012978Y021429D03*
X011978Y021429D03*
X010978Y021429D03*
X009978Y021429D03*
X008978Y021429D03*
X007978Y021429D03*
D13*
X007885Y015957D03*
X006901Y015957D03*
X005917Y015957D03*
X005917Y014973D03*
X006901Y014973D03*
X007885Y014973D03*
X008869Y015957D03*
X009854Y015957D03*
X010838Y015957D03*
X011822Y015957D03*
X012806Y015957D03*
X012806Y014973D03*
X011822Y014973D03*
X015167Y014973D03*
X016151Y014973D03*
X017135Y014973D03*
X017135Y015957D03*
X016151Y015957D03*
X015167Y015957D03*
X018119Y015957D03*
X019104Y015957D03*
X020088Y015957D03*
X021072Y015957D03*
X022056Y015957D03*
X022056Y014973D03*
X021072Y014973D03*
X027017Y014973D03*
X028001Y014973D03*
X028985Y014973D03*
X028985Y015957D03*
X028001Y015957D03*
X027017Y015957D03*
X029969Y015957D03*
X030954Y015957D03*
X031938Y015957D03*
X032922Y015957D03*
X033906Y015957D03*
X033906Y014973D03*
X032922Y014973D03*
X036267Y014973D03*
X037251Y014973D03*
X038235Y014973D03*
X038235Y015957D03*
X037251Y015957D03*
X036267Y015957D03*
X039219Y015957D03*
X040204Y015957D03*
X041188Y015957D03*
X042172Y015957D03*
X043156Y015957D03*
X043156Y014973D03*
X042172Y014973D03*
X042172Y005130D03*
X041188Y005130D03*
X041188Y004146D03*
X042172Y004146D03*
X043156Y004146D03*
X040204Y004146D03*
X039219Y004146D03*
X038235Y004146D03*
X037251Y004146D03*
X036267Y004146D03*
X036267Y005130D03*
X037251Y005130D03*
X033906Y004146D03*
X032922Y004146D03*
X031938Y004146D03*
X030954Y004146D03*
X029969Y004146D03*
X028985Y004146D03*
X028001Y004146D03*
X027017Y004146D03*
X027017Y005130D03*
X028001Y005130D03*
X031938Y005130D03*
X032922Y005130D03*
X022056Y004146D03*
X021072Y004146D03*
X020088Y004146D03*
X019104Y004146D03*
X018119Y004146D03*
X017135Y004146D03*
X016151Y004146D03*
X015167Y004146D03*
X015167Y005130D03*
X016151Y005130D03*
X012806Y004146D03*
X011822Y004146D03*
X010838Y004146D03*
X009854Y004146D03*
X008869Y004146D03*
X007885Y004146D03*
X006901Y004146D03*
X005917Y004146D03*
X005917Y005130D03*
X006901Y005130D03*
X010838Y005130D03*
X011822Y005130D03*
X020088Y005130D03*
X021072Y005130D03*
D14*
X018802Y010260D03*
X009582Y010220D03*
X030522Y010140D03*
X039782Y010140D03*
D15*
X041456Y010042D03*
X041456Y010238D03*
X041456Y010435D03*
X041456Y010632D03*
X041456Y010829D03*
X041456Y011026D03*
X041456Y011223D03*
X041456Y009845D03*
X041456Y009648D03*
X041456Y009451D03*
X041456Y009254D03*
X041456Y009057D03*
X038109Y009057D03*
X038109Y009254D03*
X038109Y009451D03*
X038109Y009648D03*
X038109Y009845D03*
X038109Y010042D03*
X038109Y010238D03*
X038109Y010435D03*
X038109Y010632D03*
X038109Y010829D03*
X038109Y011026D03*
X038109Y011223D03*
X032196Y011223D03*
X032196Y011026D03*
X032196Y010829D03*
X032196Y010632D03*
X032196Y010435D03*
X032196Y010238D03*
X032196Y010042D03*
X032196Y009845D03*
X032196Y009648D03*
X032196Y009451D03*
X032196Y009254D03*
X032196Y009057D03*
X028849Y009057D03*
X028849Y009254D03*
X028849Y009451D03*
X028849Y009648D03*
X028849Y009845D03*
X028849Y010042D03*
X028849Y010238D03*
X028849Y010435D03*
X028849Y010632D03*
X028849Y010829D03*
X028849Y011026D03*
X028849Y011223D03*
X020476Y011146D03*
X020476Y011343D03*
X020476Y010949D03*
X020476Y010752D03*
X020476Y010555D03*
X020476Y010358D03*
X020476Y010162D03*
X020476Y009965D03*
X020476Y009768D03*
X020476Y009571D03*
X020476Y009374D03*
X020476Y009177D03*
X017129Y009177D03*
X017129Y009374D03*
X017129Y009571D03*
X017129Y009768D03*
X017129Y009965D03*
X017129Y010162D03*
X017129Y010358D03*
X017129Y010555D03*
X017129Y010752D03*
X017129Y010949D03*
X017129Y011146D03*
X017129Y011343D03*
X011256Y011303D03*
X011256Y011106D03*
X011256Y010909D03*
X011256Y010712D03*
X011256Y010515D03*
X011256Y010318D03*
X011256Y010122D03*
X011256Y009925D03*
X011256Y009728D03*
X011256Y009531D03*
X011256Y009334D03*
X011256Y009137D03*
X007909Y009137D03*
X007909Y009334D03*
X007909Y009531D03*
X007909Y009728D03*
X007909Y009925D03*
X007909Y010122D03*
X007909Y010318D03*
X007909Y010515D03*
X007909Y010712D03*
X007909Y010909D03*
X007909Y011106D03*
X007909Y011303D03*
D16*
X008500Y011893D03*
X008696Y011893D03*
X008893Y011893D03*
X009090Y011893D03*
X009287Y011893D03*
X009484Y011893D03*
X009681Y011893D03*
X009878Y011893D03*
X010074Y011893D03*
X010271Y011893D03*
X010468Y011893D03*
X010665Y011893D03*
X010665Y008547D03*
X010468Y008547D03*
X010271Y008547D03*
X010074Y008547D03*
X009878Y008547D03*
X009681Y008547D03*
X009484Y008547D03*
X009287Y008547D03*
X009090Y008547D03*
X008893Y008547D03*
X008696Y008547D03*
X008500Y008547D03*
X017720Y008587D03*
X017916Y008587D03*
X018113Y008587D03*
X018310Y008587D03*
X018507Y008587D03*
X018704Y008587D03*
X018901Y008587D03*
X019098Y008587D03*
X019294Y008587D03*
X019491Y008587D03*
X019688Y008587D03*
X019885Y008587D03*
X019885Y011933D03*
X019688Y011933D03*
X019491Y011933D03*
X019294Y011933D03*
X019098Y011933D03*
X018901Y011933D03*
X018704Y011933D03*
X018507Y011933D03*
X018310Y011933D03*
X018113Y011933D03*
X017916Y011933D03*
X017720Y011933D03*
X029440Y011813D03*
X029636Y011813D03*
X029833Y011813D03*
X030030Y011813D03*
X030227Y011813D03*
X030424Y011813D03*
X030621Y011813D03*
X030818Y011813D03*
X031014Y011813D03*
X031211Y011813D03*
X031408Y011813D03*
X031605Y011813D03*
X031605Y008467D03*
X031408Y008467D03*
X031211Y008467D03*
X031014Y008467D03*
X030818Y008467D03*
X030621Y008467D03*
X030424Y008467D03*
X030227Y008467D03*
X030030Y008467D03*
X029833Y008467D03*
X029636Y008467D03*
X029440Y008467D03*
X038700Y008467D03*
X038896Y008467D03*
X039093Y008467D03*
X039290Y008467D03*
X039487Y008467D03*
X039684Y008467D03*
X039881Y008467D03*
X040078Y008467D03*
X040274Y008467D03*
X040471Y008467D03*
X040668Y008467D03*
X040865Y008467D03*
X040865Y011813D03*
X040668Y011813D03*
X040471Y011813D03*
X040274Y011813D03*
X040078Y011813D03*
X039881Y011813D03*
X039684Y011813D03*
X039487Y011813D03*
X039290Y011813D03*
X039093Y011813D03*
X038896Y011813D03*
X038700Y011813D03*
D17*
X035732Y020310D03*
X035732Y020810D03*
X035732Y021310D03*
X035732Y021810D03*
X033672Y021810D03*
X033672Y021310D03*
X033672Y020810D03*
X033672Y020310D03*
D18*
X036828Y021760D03*
X037537Y021760D03*
X037408Y011730D03*
X038117Y011730D03*
X028807Y011790D03*
X028098Y011790D03*
X016937Y011850D03*
X016228Y011850D03*
X007747Y011790D03*
X007038Y011790D03*
D19*
X031722Y021046D03*
X032522Y021046D03*
X032522Y021754D03*
X031722Y021754D03*
D20*
X024932Y014981D03*
X023732Y014981D03*
X025432Y014219D03*
X024992Y005921D03*
X023792Y005921D03*
X025492Y005159D03*
D21*
X024392Y005159D03*
X024332Y014219D03*
D22*
X027722Y012920D03*
X037022Y012920D03*
X030602Y021920D03*
X015902Y012860D03*
X006602Y012920D03*
D23*
X010422Y011120D03*
X009522Y009140D03*
X007362Y008420D03*
X006342Y007940D03*
X006882Y007520D03*
X013602Y009140D03*
X015762Y008000D03*
X016182Y007520D03*
X016542Y008420D03*
X018702Y009140D03*
X019722Y011120D03*
X022722Y008420D03*
X023142Y007520D03*
X022662Y006860D03*
X025962Y008000D03*
X027582Y008000D03*
X027942Y007520D03*
X027522Y006860D03*
X028362Y008420D03*
X030462Y009140D03*
X031422Y011120D03*
X036702Y008000D03*
X037002Y007520D03*
X037482Y008420D03*
X039762Y009140D03*
X040722Y011120D03*
X037182Y020760D03*
X014382Y011120D03*
M02*
