G75*
%MOIN*%
%OFA0B0*%
%FSLAX24Y24*%
%IPPOS*%
%LPD*%
%AMOC8*
5,1,8,0,0,1.08239X$1,22.5*
%
%ADD10C,0.1163*%
%ADD11R,0.0680X0.0680*%
%ADD12OC8,0.0680*%
%ADD13C,0.3230*%
%ADD14R,0.1330X0.1330*%
%ADD15C,0.0595*%
%ADD16C,0.0740*%
%ADD17OC8,0.0740*%
%ADD18C,0.0476*%
%ADD19C,0.0437*%
D10*
X006060Y001638D03*
X028895Y001638D03*
X028895Y020929D03*
X006060Y020929D03*
D11*
X007978Y020429D03*
D12*
X008978Y020429D03*
X009978Y020429D03*
X010978Y020429D03*
X011978Y020429D03*
X012978Y020429D03*
X013978Y020429D03*
X014978Y020429D03*
X015978Y020429D03*
X016978Y020429D03*
X017978Y020429D03*
X018978Y020429D03*
X019978Y020429D03*
X020978Y020429D03*
X021978Y020429D03*
X022978Y020429D03*
X023978Y020429D03*
X024978Y020429D03*
X025978Y020429D03*
X026978Y020429D03*
X026978Y021429D03*
X025978Y021429D03*
X024978Y021429D03*
X023978Y021429D03*
X022978Y021429D03*
X021978Y021429D03*
X020978Y021429D03*
X019978Y021429D03*
X018978Y021429D03*
X017978Y021429D03*
X016978Y021429D03*
X015978Y021429D03*
X014978Y021429D03*
X013978Y021429D03*
X012978Y021429D03*
X011978Y021429D03*
X010978Y021429D03*
X009978Y021429D03*
X008978Y021429D03*
X007978Y021429D03*
D13*
X040432Y019760D03*
D14*
X037332Y019760D03*
X043532Y019760D03*
D15*
X043156Y015957D03*
X042172Y015957D03*
X041188Y015957D03*
X040204Y015957D03*
X039219Y015957D03*
X038235Y015957D03*
X037251Y015957D03*
X036267Y015957D03*
X036267Y014973D03*
X037251Y014973D03*
X038235Y014973D03*
X042172Y014973D03*
X043156Y014973D03*
X033906Y014973D03*
X032922Y014973D03*
X032922Y015957D03*
X031938Y015957D03*
X030954Y015957D03*
X029969Y015957D03*
X028985Y015957D03*
X028001Y015957D03*
X027017Y015957D03*
X027017Y014973D03*
X028001Y014973D03*
X028985Y014973D03*
X033906Y015957D03*
X022056Y015957D03*
X021072Y015957D03*
X020088Y015957D03*
X019104Y015957D03*
X018119Y015957D03*
X017135Y015957D03*
X016151Y015957D03*
X015167Y015957D03*
X015167Y014973D03*
X016151Y014973D03*
X017135Y014973D03*
X021072Y014973D03*
X022056Y014973D03*
X012806Y014973D03*
X011822Y014973D03*
X011822Y015957D03*
X012806Y015957D03*
X010838Y015957D03*
X009854Y015957D03*
X008869Y015957D03*
X007885Y015957D03*
X006901Y015957D03*
X005917Y015957D03*
X005917Y014973D03*
X006901Y014973D03*
X007885Y014973D03*
X006901Y005130D03*
X005917Y005130D03*
X005917Y004146D03*
X006901Y004146D03*
X007885Y004146D03*
X008869Y004146D03*
X009854Y004146D03*
X010838Y004146D03*
X011822Y004146D03*
X012806Y004146D03*
X011822Y005130D03*
X010838Y005130D03*
X015167Y005130D03*
X016151Y005130D03*
X016151Y004146D03*
X017135Y004146D03*
X018119Y004146D03*
X019104Y004146D03*
X020088Y004146D03*
X021072Y004146D03*
X022056Y004146D03*
X021072Y005130D03*
X020088Y005130D03*
X015167Y004146D03*
X027017Y004146D03*
X028001Y004146D03*
X028985Y004146D03*
X029969Y004146D03*
X030954Y004146D03*
X031938Y004146D03*
X032922Y004146D03*
X033906Y004146D03*
X032922Y005130D03*
X031938Y005130D03*
X028001Y005130D03*
X027017Y005130D03*
X036267Y005130D03*
X037251Y005130D03*
X037251Y004146D03*
X038235Y004146D03*
X039219Y004146D03*
X040204Y004146D03*
X041188Y004146D03*
X042172Y004146D03*
X043156Y004146D03*
X042172Y005130D03*
X041188Y005130D03*
X036267Y004146D03*
D16*
X025492Y005159D03*
X024992Y005921D03*
X023792Y005921D03*
X025432Y014219D03*
X024932Y014981D03*
X023732Y014981D03*
D17*
X024332Y014219D03*
X024392Y005159D03*
D18*
X027722Y012920D03*
X037022Y012920D03*
X030602Y021920D03*
X015902Y012860D03*
X006602Y012920D03*
D19*
X010422Y011120D03*
X009522Y009140D03*
X007362Y008420D03*
X006342Y007940D03*
X006882Y007520D03*
X013602Y009140D03*
X015762Y008000D03*
X016182Y007520D03*
X016542Y008420D03*
X018702Y009140D03*
X019722Y011120D03*
X022722Y008420D03*
X023142Y007520D03*
X022662Y006860D03*
X025962Y008000D03*
X027582Y008000D03*
X027942Y007520D03*
X027522Y006860D03*
X028362Y008420D03*
X030462Y009140D03*
X031422Y011120D03*
X036702Y008000D03*
X037002Y007520D03*
X037482Y008420D03*
X039762Y009140D03*
X040722Y011120D03*
X037182Y020760D03*
X014382Y011120D03*
M02*
