G75*
%MOIN*%
%OFA0B0*%
%FSLAX24Y24*%
%IPPOS*%
%LPD*%
%AMOC8*
5,1,8,0,0,1.08239X$1,22.5*
%
%ADD10R,0.0600X0.0600*%
%ADD11OC8,0.0600*%
%ADD12C,0.3150*%
%ADD13R,0.1250X0.1250*%
%ADD14C,0.0515*%
%ADD15C,0.0660*%
%ADD16OC8,0.0660*%
%ADD17C,0.0320*%
%ADD18C,0.0396*%
%ADD19C,0.0120*%
%ADD20C,0.0357*%
%ADD21C,0.0100*%
D10*
X007978Y020429D03*
D11*
X008978Y020429D03*
X009978Y020429D03*
X010978Y020429D03*
X011978Y020429D03*
X012978Y020429D03*
X013978Y020429D03*
X014978Y020429D03*
X015978Y020429D03*
X016978Y020429D03*
X017978Y020429D03*
X018978Y020429D03*
X019978Y020429D03*
X020978Y020429D03*
X021978Y020429D03*
X022978Y020429D03*
X023978Y020429D03*
X024978Y020429D03*
X025978Y020429D03*
X026978Y020429D03*
X026978Y021429D03*
X025978Y021429D03*
X024978Y021429D03*
X023978Y021429D03*
X022978Y021429D03*
X021978Y021429D03*
X020978Y021429D03*
X019978Y021429D03*
X018978Y021429D03*
X017978Y021429D03*
X016978Y021429D03*
X015978Y021429D03*
X014978Y021429D03*
X013978Y021429D03*
X012978Y021429D03*
X011978Y021429D03*
X010978Y021429D03*
X009978Y021429D03*
X008978Y021429D03*
X007978Y021429D03*
D12*
X040432Y019760D03*
D13*
X037332Y019760D03*
X043532Y019760D03*
D14*
X043156Y015957D03*
X042172Y015957D03*
X041188Y015957D03*
X040204Y015957D03*
X039219Y015957D03*
X038235Y015957D03*
X037251Y015957D03*
X036267Y015957D03*
X036267Y014973D03*
X037251Y014973D03*
X038235Y014973D03*
X042172Y014973D03*
X043156Y014973D03*
X033906Y014973D03*
X032922Y014973D03*
X032922Y015957D03*
X031938Y015957D03*
X030954Y015957D03*
X029969Y015957D03*
X028985Y015957D03*
X028001Y015957D03*
X027017Y015957D03*
X027017Y014973D03*
X028001Y014973D03*
X028985Y014973D03*
X033906Y015957D03*
X022056Y015957D03*
X021072Y015957D03*
X020088Y015957D03*
X019104Y015957D03*
X018119Y015957D03*
X017135Y015957D03*
X016151Y015957D03*
X015167Y015957D03*
X015167Y014973D03*
X016151Y014973D03*
X017135Y014973D03*
X021072Y014973D03*
X022056Y014973D03*
X012806Y014973D03*
X011822Y014973D03*
X011822Y015957D03*
X012806Y015957D03*
X010838Y015957D03*
X009854Y015957D03*
X008869Y015957D03*
X007885Y015957D03*
X006901Y015957D03*
X005917Y015957D03*
X005917Y014973D03*
X006901Y014973D03*
X007885Y014973D03*
X006901Y005130D03*
X005917Y005130D03*
X005917Y004146D03*
X006901Y004146D03*
X007885Y004146D03*
X008869Y004146D03*
X009854Y004146D03*
X010838Y004146D03*
X011822Y004146D03*
X012806Y004146D03*
X011822Y005130D03*
X010838Y005130D03*
X015167Y005130D03*
X016151Y005130D03*
X016151Y004146D03*
X017135Y004146D03*
X018119Y004146D03*
X019104Y004146D03*
X020088Y004146D03*
X021072Y004146D03*
X022056Y004146D03*
X021072Y005130D03*
X020088Y005130D03*
X015167Y004146D03*
X027017Y004146D03*
X028001Y004146D03*
X028985Y004146D03*
X029969Y004146D03*
X030954Y004146D03*
X031938Y004146D03*
X032922Y004146D03*
X033906Y004146D03*
X032922Y005130D03*
X031938Y005130D03*
X028001Y005130D03*
X027017Y005130D03*
X036267Y005130D03*
X037251Y005130D03*
X037251Y004146D03*
X038235Y004146D03*
X039219Y004146D03*
X040204Y004146D03*
X041188Y004146D03*
X042172Y004146D03*
X043156Y004146D03*
X042172Y005130D03*
X041188Y005130D03*
X036267Y004146D03*
D15*
X025492Y005159D03*
X024992Y005921D03*
X023792Y005921D03*
X025432Y014219D03*
X024932Y014981D03*
X023732Y014981D03*
D16*
X024332Y014219D03*
X024392Y005159D03*
D17*
X004682Y000260D02*
X044682Y000260D01*
X004682Y000260D01*
X004682Y022260D01*
X044682Y022260D01*
X044682Y000260D01*
X044682Y000579D02*
X029196Y000579D01*
X029320Y000612D02*
X029040Y000537D01*
X028750Y000537D01*
X028470Y000612D01*
X028219Y000757D01*
X028014Y000962D01*
X027869Y001213D01*
X027794Y001493D01*
X027794Y001783D01*
X027869Y002063D01*
X028014Y002314D01*
X028219Y002519D01*
X028470Y002664D01*
X028750Y002739D01*
X029040Y002739D01*
X029320Y002664D01*
X029571Y002519D01*
X029776Y002314D01*
X029921Y002063D01*
X029996Y001783D01*
X029996Y001493D01*
X029921Y001213D01*
X029776Y000962D01*
X029571Y000757D01*
X029320Y000612D01*
X029711Y000897D02*
X044682Y000897D01*
X044682Y001216D02*
X029922Y001216D01*
X029996Y001534D02*
X044682Y001534D01*
X044682Y001853D02*
X029978Y001853D01*
X029859Y002171D02*
X044682Y002171D01*
X044682Y002490D02*
X029601Y002490D01*
X028189Y002490D02*
X006766Y002490D01*
X006736Y002519D02*
X006485Y002664D01*
X006205Y002739D01*
X005915Y002739D01*
X005635Y002664D01*
X005384Y002519D01*
X005179Y002314D01*
X005034Y002063D01*
X004959Y001783D01*
X004959Y001493D01*
X005034Y001213D01*
X005179Y000962D01*
X005384Y000757D01*
X005635Y000612D01*
X005915Y000537D01*
X006205Y000537D01*
X006485Y000612D01*
X006736Y000757D01*
X006942Y000962D01*
X007087Y001213D01*
X007162Y001493D01*
X007162Y001783D01*
X007087Y002063D01*
X006942Y002314D01*
X006736Y002519D01*
X007024Y002171D02*
X027931Y002171D01*
X027812Y001853D02*
X007143Y001853D01*
X007162Y001534D02*
X027794Y001534D01*
X027868Y001216D02*
X007087Y001216D01*
X006877Y000897D02*
X028078Y000897D01*
X028594Y000579D02*
X006362Y000579D01*
X005759Y000579D02*
X004682Y000579D01*
X004682Y000897D02*
X005244Y000897D01*
X005033Y001216D02*
X004682Y001216D01*
X004682Y001534D02*
X004959Y001534D01*
X004978Y001853D02*
X004682Y001853D01*
X004682Y002171D02*
X005096Y002171D01*
X005354Y002490D02*
X004682Y002490D01*
X004682Y002808D02*
X044682Y002808D01*
X044682Y003127D02*
X004682Y003127D01*
X004682Y003445D02*
X044682Y003445D01*
X044682Y003764D02*
X043435Y003764D01*
X043421Y003750D02*
X043553Y003881D01*
X043624Y004053D01*
X043624Y004239D01*
X043553Y004411D01*
X043421Y004542D01*
X043249Y004613D01*
X043063Y004613D01*
X042891Y004542D01*
X042760Y004411D01*
X042689Y004239D01*
X042689Y004053D01*
X042760Y003881D01*
X042891Y003750D01*
X043063Y003678D01*
X043249Y003678D01*
X043421Y003750D01*
X043624Y004082D02*
X044682Y004082D01*
X044682Y004401D02*
X043557Y004401D01*
X042756Y004401D02*
X042573Y004401D01*
X042568Y004411D02*
X042437Y004542D01*
X042265Y004613D01*
X042079Y004613D01*
X041907Y004542D01*
X041776Y004411D01*
X041705Y004239D01*
X041705Y004053D01*
X041776Y003881D01*
X041907Y003750D01*
X042079Y003678D01*
X042265Y003678D01*
X042437Y003750D01*
X042568Y003881D01*
X042640Y004053D01*
X042640Y004239D01*
X042568Y004411D01*
X042640Y004082D02*
X042689Y004082D01*
X042878Y003764D02*
X042451Y003764D01*
X041893Y003764D02*
X041467Y003764D01*
X041453Y003750D02*
X041584Y003881D01*
X041655Y004053D01*
X041655Y004239D01*
X041584Y004411D01*
X041453Y004542D01*
X041281Y004613D01*
X041095Y004613D01*
X040923Y004542D01*
X040791Y004411D01*
X040720Y004239D01*
X040720Y004053D01*
X040791Y003881D01*
X040923Y003750D01*
X041095Y003678D01*
X041281Y003678D01*
X041453Y003750D01*
X041655Y004082D02*
X041705Y004082D01*
X041772Y004401D02*
X041588Y004401D01*
X041453Y004734D02*
X041584Y004865D01*
X041655Y005037D01*
X041655Y005223D01*
X041584Y005395D01*
X041453Y005526D01*
X041281Y005598D01*
X041095Y005598D01*
X040923Y005526D01*
X040791Y005395D01*
X040720Y005223D01*
X040720Y005037D01*
X040791Y004865D01*
X040923Y004734D01*
X041095Y004663D01*
X041281Y004663D01*
X041453Y004734D01*
X041417Y004719D02*
X041943Y004719D01*
X041907Y004734D02*
X042079Y004663D01*
X042265Y004663D01*
X042437Y004734D01*
X042568Y004865D01*
X042640Y005037D01*
X042640Y005223D01*
X042568Y005395D01*
X042437Y005526D01*
X042265Y005598D01*
X042079Y005598D01*
X041907Y005526D01*
X041776Y005395D01*
X041705Y005223D01*
X041705Y005037D01*
X041776Y004865D01*
X041907Y004734D01*
X041705Y005038D02*
X041655Y005038D01*
X042401Y004719D02*
X044682Y004719D01*
X044682Y005038D02*
X042640Y005038D01*
X042584Y005356D02*
X044682Y005356D01*
X044682Y005675D02*
X025658Y005675D01*
X025600Y005699D02*
X025485Y005699D01*
X025532Y005814D01*
X025532Y006029D01*
X025450Y006227D01*
X025298Y006379D01*
X025100Y006461D01*
X024885Y006461D01*
X024686Y006379D01*
X024534Y006227D01*
X024452Y006029D01*
X024452Y005814D01*
X024500Y005699D01*
X024285Y005699D01*
X024332Y005814D01*
X024332Y006029D01*
X024250Y006227D01*
X024098Y006379D01*
X023900Y006461D01*
X023685Y006461D01*
X023486Y006379D01*
X023334Y006227D01*
X023252Y006029D01*
X023252Y005814D01*
X023334Y005615D01*
X023486Y005463D01*
X023685Y005381D01*
X023852Y005381D01*
X023852Y004935D01*
X024169Y004619D01*
X024616Y004619D01*
X024932Y004935D01*
X024932Y005381D01*
X025000Y005381D01*
X024952Y005266D01*
X024952Y005051D01*
X025034Y004853D01*
X025186Y004701D01*
X025385Y004619D01*
X025600Y004619D01*
X025798Y004701D01*
X025950Y004853D01*
X026032Y005051D01*
X026032Y005266D01*
X025950Y005465D01*
X025798Y005617D01*
X025600Y005699D01*
X025532Y005993D02*
X044682Y005993D01*
X044682Y006312D02*
X025366Y006312D01*
X024619Y006312D02*
X024166Y006312D01*
X024332Y005993D02*
X024452Y005993D01*
X024932Y005356D02*
X024990Y005356D01*
X024958Y005038D02*
X024932Y005038D01*
X024716Y004719D02*
X025168Y004719D01*
X025816Y004719D02*
X026787Y004719D01*
X026752Y004734D02*
X026924Y004663D01*
X027110Y004663D01*
X027281Y004734D01*
X027413Y004865D01*
X027484Y005037D01*
X027484Y005223D01*
X027413Y005395D01*
X027281Y005526D01*
X027110Y005598D01*
X026924Y005598D01*
X026752Y005526D01*
X026620Y005395D01*
X026549Y005223D01*
X026549Y005037D01*
X026620Y004865D01*
X026752Y004734D01*
X026752Y004542D02*
X026620Y004411D01*
X026549Y004239D01*
X026549Y004053D01*
X026620Y003881D01*
X026752Y003750D01*
X026924Y003678D01*
X027110Y003678D01*
X027281Y003750D01*
X027413Y003881D01*
X027484Y004053D01*
X027484Y004239D01*
X027413Y004411D01*
X027281Y004542D01*
X027110Y004613D01*
X026924Y004613D01*
X026752Y004542D01*
X026616Y004401D02*
X022457Y004401D01*
X022453Y004411D02*
X022321Y004542D01*
X022149Y004613D01*
X021963Y004613D01*
X021791Y004542D01*
X021660Y004411D01*
X021589Y004239D01*
X021589Y004053D01*
X021660Y003881D01*
X021791Y003750D01*
X021963Y003678D01*
X022149Y003678D01*
X022321Y003750D01*
X022453Y003881D01*
X022524Y004053D01*
X022524Y004239D01*
X022453Y004411D01*
X022524Y004082D02*
X026549Y004082D01*
X026738Y003764D02*
X022335Y003764D01*
X021778Y003764D02*
X021351Y003764D01*
X021337Y003750D02*
X021468Y003881D01*
X021540Y004053D01*
X021540Y004239D01*
X021468Y004411D01*
X021337Y004542D01*
X021165Y004613D01*
X020979Y004613D01*
X020807Y004542D01*
X020676Y004411D01*
X020605Y004239D01*
X020605Y004053D01*
X020676Y003881D01*
X020807Y003750D01*
X020979Y003678D01*
X021165Y003678D01*
X021337Y003750D01*
X021540Y004082D02*
X021589Y004082D01*
X021656Y004401D02*
X021473Y004401D01*
X021337Y004734D02*
X021165Y004663D01*
X020979Y004663D01*
X020807Y004734D01*
X020676Y004865D01*
X020605Y005037D01*
X020605Y005223D01*
X020676Y005395D01*
X020807Y005526D01*
X020979Y005598D01*
X021165Y005598D01*
X021337Y005526D01*
X021468Y005395D01*
X021540Y005223D01*
X021540Y005037D01*
X021468Y004865D01*
X021337Y004734D01*
X021301Y004719D02*
X024068Y004719D01*
X023852Y005038D02*
X021540Y005038D01*
X020843Y004719D02*
X020317Y004719D01*
X020353Y004734D02*
X020484Y004865D01*
X020555Y005037D01*
X020555Y005223D01*
X020484Y005395D01*
X020353Y005526D01*
X020181Y005598D01*
X019995Y005598D01*
X019823Y005526D01*
X019691Y005395D01*
X019620Y005223D01*
X019620Y005037D01*
X019691Y004865D01*
X019823Y004734D01*
X019995Y004663D01*
X020181Y004663D01*
X020353Y004734D01*
X020353Y004542D02*
X020181Y004613D01*
X019995Y004613D01*
X019823Y004542D01*
X019691Y004411D01*
X019620Y004239D01*
X019620Y004053D01*
X019691Y003881D01*
X019823Y003750D01*
X019995Y003678D01*
X020181Y003678D01*
X020353Y003750D01*
X020484Y003881D01*
X020555Y004053D01*
X020555Y004239D01*
X020484Y004411D01*
X020353Y004542D01*
X020488Y004401D02*
X020672Y004401D01*
X020605Y004082D02*
X020555Y004082D01*
X020367Y003764D02*
X020793Y003764D01*
X019809Y003764D02*
X019382Y003764D01*
X019368Y003750D02*
X019500Y003881D01*
X019571Y004053D01*
X019571Y004239D01*
X019500Y004411D01*
X019368Y004542D01*
X019197Y004613D01*
X019011Y004613D01*
X018839Y004542D01*
X018707Y004411D01*
X018636Y004239D01*
X018636Y004053D01*
X018707Y003881D01*
X018839Y003750D01*
X019011Y003678D01*
X019197Y003678D01*
X019368Y003750D01*
X019571Y004082D02*
X019620Y004082D01*
X019687Y004401D02*
X019504Y004401D01*
X019859Y004719D02*
X016380Y004719D01*
X016416Y004734D02*
X016547Y004865D01*
X016618Y005037D01*
X016618Y005223D01*
X016547Y005395D01*
X016416Y005526D01*
X016244Y005598D01*
X016058Y005598D01*
X015886Y005526D01*
X015754Y005395D01*
X015683Y005223D01*
X015683Y005037D01*
X015754Y004865D01*
X015886Y004734D01*
X016058Y004663D01*
X016244Y004663D01*
X016416Y004734D01*
X016416Y004542D02*
X016244Y004613D01*
X016058Y004613D01*
X015886Y004542D01*
X015754Y004411D01*
X015683Y004239D01*
X015683Y004053D01*
X015754Y003881D01*
X015886Y003750D01*
X016058Y003678D01*
X016244Y003678D01*
X016416Y003750D01*
X016547Y003881D01*
X016618Y004053D01*
X016618Y004239D01*
X016547Y004411D01*
X016416Y004542D01*
X016551Y004401D02*
X016735Y004401D01*
X016739Y004411D02*
X016668Y004239D01*
X016668Y004053D01*
X016739Y003881D01*
X016870Y003750D01*
X017042Y003678D01*
X017228Y003678D01*
X017400Y003750D01*
X017531Y003881D01*
X017603Y004053D01*
X017603Y004239D01*
X017531Y004411D01*
X017400Y004542D01*
X017228Y004613D01*
X017042Y004613D01*
X016870Y004542D01*
X016739Y004411D01*
X016668Y004082D02*
X016618Y004082D01*
X016430Y003764D02*
X016856Y003764D01*
X017414Y003764D02*
X017841Y003764D01*
X017854Y003750D02*
X018026Y003678D01*
X018212Y003678D01*
X018384Y003750D01*
X018516Y003881D01*
X018587Y004053D01*
X018587Y004239D01*
X018516Y004411D01*
X018384Y004542D01*
X018212Y004613D01*
X018026Y004613D01*
X017854Y004542D01*
X017723Y004411D01*
X017652Y004239D01*
X017652Y004053D01*
X017723Y003881D01*
X017854Y003750D01*
X017652Y004082D02*
X017603Y004082D01*
X017536Y004401D02*
X017719Y004401D01*
X018520Y004401D02*
X018703Y004401D01*
X018636Y004082D02*
X018587Y004082D01*
X018398Y003764D02*
X018825Y003764D01*
X019620Y005038D02*
X016618Y005038D01*
X016563Y005356D02*
X019675Y005356D01*
X020500Y005356D02*
X020660Y005356D01*
X020605Y005038D02*
X020555Y005038D01*
X021484Y005356D02*
X023852Y005356D01*
X023310Y005675D02*
X004682Y005675D01*
X004682Y005993D02*
X023252Y005993D01*
X023419Y006312D02*
X004682Y006312D01*
X004682Y006630D02*
X022343Y006630D01*
X022333Y006640D02*
X022442Y006531D01*
X022585Y006472D01*
X022740Y006472D01*
X022882Y006531D01*
X022942Y006590D01*
X027243Y006590D01*
X027302Y006531D01*
X027445Y006472D01*
X027600Y006472D01*
X027742Y006531D01*
X027852Y006640D01*
X027911Y006783D01*
X027911Y006937D01*
X027852Y007080D01*
X027754Y007178D01*
X027865Y007132D01*
X028020Y007132D01*
X028162Y007191D01*
X028222Y007250D01*
X036723Y007250D01*
X036782Y007191D01*
X036925Y007132D01*
X037080Y007132D01*
X037222Y007191D01*
X037332Y007300D01*
X037391Y007443D01*
X037391Y007597D01*
X037332Y007740D01*
X037222Y007849D01*
X037084Y007907D01*
X037091Y007923D01*
X037091Y008077D01*
X037061Y008150D01*
X037203Y008150D01*
X037262Y008091D01*
X037405Y008032D01*
X037560Y008032D01*
X037702Y008091D01*
X037812Y008200D01*
X037871Y008343D01*
X037871Y008497D01*
X037812Y008640D01*
X037702Y008749D01*
X037560Y008808D01*
X037405Y008808D01*
X037262Y008749D01*
X037203Y008690D01*
X028642Y008690D01*
X028582Y008749D01*
X028440Y008808D01*
X028285Y008808D01*
X028142Y008749D01*
X028083Y008690D01*
X023002Y008690D01*
X022942Y008749D01*
X022800Y008808D01*
X022645Y008808D01*
X022502Y008749D01*
X022443Y008690D01*
X016822Y008690D01*
X016762Y008749D01*
X016620Y008808D01*
X016465Y008808D01*
X016322Y008749D01*
X016263Y008690D01*
X007642Y008690D01*
X007582Y008749D01*
X007440Y008808D01*
X007285Y008808D01*
X007142Y008749D01*
X007033Y008640D01*
X006974Y008497D01*
X006974Y008343D01*
X007004Y008270D01*
X006561Y008270D01*
X006420Y008328D01*
X006265Y008328D01*
X006122Y008269D01*
X006013Y008160D01*
X005954Y008017D01*
X005954Y007863D01*
X006013Y007720D01*
X006122Y007611D01*
X006265Y007552D01*
X006420Y007552D01*
X006494Y007582D01*
X006494Y007443D01*
X006553Y007300D01*
X006662Y007191D01*
X006805Y007132D01*
X006960Y007132D01*
X007102Y007191D01*
X007162Y007250D01*
X015903Y007250D01*
X015962Y007191D01*
X016105Y007132D01*
X016260Y007132D01*
X016402Y007191D01*
X016462Y007250D01*
X022863Y007250D01*
X022922Y007191D01*
X023065Y007132D01*
X023220Y007132D01*
X023362Y007191D01*
X023422Y007250D01*
X027663Y007250D01*
X027711Y007202D01*
X027600Y007248D01*
X027445Y007248D01*
X027302Y007189D01*
X027243Y007130D01*
X022942Y007130D01*
X022882Y007189D01*
X022740Y007248D01*
X022585Y007248D01*
X022442Y007189D01*
X022333Y007080D01*
X022274Y006937D01*
X022274Y006783D01*
X022333Y006640D01*
X022279Y006949D02*
X004682Y006949D01*
X004682Y007267D02*
X006586Y007267D01*
X006183Y007586D02*
X004682Y007586D01*
X004682Y007904D02*
X005954Y007904D01*
X006075Y008223D02*
X004682Y008223D01*
X004682Y008541D02*
X006992Y008541D01*
X009134Y009063D02*
X009193Y008920D01*
X009302Y008811D01*
X009445Y008752D01*
X009600Y008752D01*
X009742Y008811D01*
X009802Y008870D01*
X013323Y008870D01*
X013382Y008811D01*
X013525Y008752D01*
X013680Y008752D01*
X013822Y008811D01*
X013882Y008870D01*
X018423Y008870D01*
X018482Y008811D01*
X018625Y008752D01*
X018780Y008752D01*
X018922Y008811D01*
X018982Y008870D01*
X030183Y008870D01*
X030242Y008811D01*
X030385Y008752D01*
X030540Y008752D01*
X030682Y008811D01*
X030742Y008870D01*
X039483Y008870D01*
X039542Y008811D01*
X039685Y008752D01*
X039840Y008752D01*
X039982Y008811D01*
X040092Y008920D01*
X040151Y009063D01*
X040151Y009217D01*
X040092Y009360D01*
X039982Y009469D01*
X039840Y009528D01*
X039685Y009528D01*
X039542Y009469D01*
X039483Y009410D01*
X030742Y009410D01*
X030682Y009469D01*
X030540Y009528D01*
X030385Y009528D01*
X030242Y009469D01*
X030183Y009410D01*
X018982Y009410D01*
X018922Y009469D01*
X018780Y009528D01*
X018625Y009528D01*
X018482Y009469D01*
X018423Y009410D01*
X013882Y009410D01*
X013822Y009469D01*
X013680Y009528D01*
X013525Y009528D01*
X013382Y009469D01*
X013323Y009410D01*
X009802Y009410D01*
X009742Y009469D01*
X009600Y009528D01*
X009445Y009528D01*
X009302Y009469D01*
X009193Y009360D01*
X009134Y009217D01*
X009134Y009063D01*
X009134Y009178D02*
X004682Y009178D01*
X004682Y008860D02*
X009253Y008860D01*
X009791Y008860D02*
X013333Y008860D01*
X013871Y008860D02*
X018433Y008860D01*
X018971Y008860D02*
X030193Y008860D01*
X030731Y008860D02*
X039493Y008860D01*
X040031Y008860D02*
X044682Y008860D01*
X044682Y009178D02*
X040151Y009178D01*
X039917Y009497D02*
X044682Y009497D01*
X044682Y009815D02*
X004682Y009815D01*
X004682Y010134D02*
X044682Y010134D01*
X044682Y010452D02*
X004682Y010452D01*
X004682Y010771D02*
X010251Y010771D01*
X010202Y010791D02*
X010345Y010732D01*
X010500Y010732D01*
X010642Y010791D01*
X010702Y010850D01*
X014103Y010850D01*
X014162Y010791D01*
X014305Y010732D01*
X014460Y010732D01*
X014602Y010791D01*
X014662Y010850D01*
X019443Y010850D01*
X019502Y010791D01*
X019645Y010732D01*
X019800Y010732D01*
X019942Y010791D01*
X020002Y010850D01*
X031143Y010850D01*
X031202Y010791D01*
X031345Y010732D01*
X031500Y010732D01*
X031642Y010791D01*
X031702Y010850D01*
X040443Y010850D01*
X040502Y010791D01*
X040645Y010732D01*
X040800Y010732D01*
X040942Y010791D01*
X041052Y010900D01*
X041111Y011043D01*
X041111Y011197D01*
X041052Y011340D01*
X040942Y011449D01*
X040800Y011508D01*
X040645Y011508D01*
X040502Y011449D01*
X040443Y011390D01*
X031702Y011390D01*
X031642Y011449D01*
X031500Y011508D01*
X031345Y011508D01*
X031202Y011449D01*
X031143Y011390D01*
X020002Y011390D01*
X019942Y011449D01*
X019800Y011508D01*
X019645Y011508D01*
X019502Y011449D01*
X019443Y011390D01*
X014662Y011390D01*
X014602Y011449D01*
X014460Y011508D01*
X014305Y011508D01*
X014162Y011449D01*
X014103Y011390D01*
X010702Y011390D01*
X010642Y011449D01*
X010500Y011508D01*
X010345Y011508D01*
X010202Y011449D01*
X010093Y011340D01*
X010034Y011197D01*
X010034Y011043D01*
X010093Y010900D01*
X010202Y010791D01*
X010034Y011089D02*
X004682Y011089D01*
X004682Y011408D02*
X010160Y011408D01*
X010684Y011408D02*
X014120Y011408D01*
X014644Y011408D02*
X019460Y011408D01*
X019984Y011408D02*
X031160Y011408D01*
X031684Y011408D02*
X040460Y011408D01*
X040984Y011408D02*
X044682Y011408D01*
X044682Y011726D02*
X004682Y011726D01*
X004682Y012045D02*
X044682Y012045D01*
X044682Y012363D02*
X004682Y012363D01*
X004682Y012682D02*
X044682Y012682D01*
X044682Y013000D02*
X004682Y013000D01*
X004682Y013319D02*
X044682Y013319D01*
X044682Y013637D02*
X004682Y013637D01*
X004682Y013956D02*
X023832Y013956D01*
X023792Y013995D02*
X024109Y013679D01*
X024556Y013679D01*
X024872Y013995D01*
X024872Y014441D01*
X024940Y014441D01*
X024892Y014326D01*
X024892Y014111D01*
X024974Y013913D01*
X025126Y013761D01*
X025325Y013679D01*
X025540Y013679D01*
X025738Y013761D01*
X025890Y013913D01*
X025972Y014111D01*
X025972Y014326D01*
X025890Y014525D01*
X025738Y014677D01*
X025540Y014759D01*
X025425Y014759D01*
X025472Y014874D01*
X025472Y015089D01*
X025390Y015287D01*
X025238Y015439D01*
X025040Y015521D01*
X024825Y015521D01*
X024626Y015439D01*
X024602Y015415D01*
X024602Y016390D01*
X026841Y016390D01*
X026752Y016353D01*
X026620Y016222D01*
X026549Y016050D01*
X026549Y015864D01*
X026620Y015692D01*
X026752Y015561D01*
X026924Y015489D01*
X027110Y015489D01*
X027281Y015561D01*
X027413Y015692D01*
X027484Y015864D01*
X027484Y016050D01*
X027413Y016222D01*
X027281Y016353D01*
X027192Y016390D01*
X027825Y016390D01*
X027736Y016353D01*
X027604Y016222D01*
X027533Y016050D01*
X027533Y015864D01*
X027604Y015692D01*
X027736Y015561D01*
X027908Y015489D01*
X028094Y015489D01*
X028266Y015561D01*
X028397Y015692D01*
X028468Y015864D01*
X028468Y016050D01*
X028397Y016222D01*
X028266Y016353D01*
X028177Y016390D01*
X028809Y016390D01*
X028720Y016353D01*
X028589Y016222D01*
X028518Y016050D01*
X028518Y015864D01*
X028589Y015692D01*
X028720Y015561D01*
X028892Y015489D01*
X029078Y015489D01*
X029250Y015561D01*
X029381Y015692D01*
X029453Y015864D01*
X029453Y016050D01*
X029381Y016222D01*
X029250Y016353D01*
X029161Y016390D01*
X029793Y016390D01*
X029704Y016353D01*
X029573Y016222D01*
X029502Y016050D01*
X029502Y015864D01*
X029573Y015692D01*
X029704Y015561D01*
X029876Y015489D01*
X030062Y015489D01*
X030234Y015561D01*
X030366Y015692D01*
X030437Y015864D01*
X030437Y016050D01*
X030366Y016222D01*
X030234Y016353D01*
X030145Y016390D01*
X030778Y016390D01*
X030689Y016353D01*
X030557Y016222D01*
X030486Y016050D01*
X030486Y015864D01*
X030557Y015692D01*
X030689Y015561D01*
X030861Y015489D01*
X031047Y015489D01*
X031218Y015561D01*
X031350Y015692D01*
X031421Y015864D01*
X031421Y016050D01*
X031350Y016222D01*
X031218Y016353D01*
X031129Y016390D01*
X031762Y016390D01*
X031673Y016353D01*
X031541Y016222D01*
X031470Y016050D01*
X031470Y015864D01*
X031541Y015692D01*
X031673Y015561D01*
X031845Y015489D01*
X032031Y015489D01*
X032203Y015561D01*
X032334Y015692D01*
X032405Y015864D01*
X032405Y016050D01*
X032334Y016222D01*
X032203Y016353D01*
X032114Y016390D01*
X032746Y016390D01*
X032657Y016353D01*
X032526Y016222D01*
X032455Y016050D01*
X032455Y015864D01*
X032526Y015692D01*
X032657Y015561D01*
X032829Y015489D01*
X033015Y015489D01*
X033187Y015561D01*
X033318Y015692D01*
X033390Y015864D01*
X033390Y016050D01*
X033318Y016222D01*
X033187Y016353D01*
X033098Y016390D01*
X033730Y016390D01*
X033641Y016353D01*
X033510Y016222D01*
X033439Y016050D01*
X033439Y015864D01*
X033510Y015692D01*
X033641Y015561D01*
X033813Y015489D01*
X033888Y015489D01*
X033839Y015440D01*
X033813Y015440D01*
X033641Y015369D01*
X033510Y015237D01*
X033439Y015066D01*
X033439Y014880D01*
X033510Y014708D01*
X033641Y014576D01*
X033813Y014505D01*
X033999Y014505D01*
X034171Y014576D01*
X034303Y014708D01*
X034374Y014880D01*
X034374Y014928D01*
X034892Y015446D01*
X034996Y015550D01*
X035052Y015686D01*
X035052Y016390D01*
X036091Y016390D01*
X036002Y016353D01*
X035870Y016222D01*
X035799Y016050D01*
X035799Y015864D01*
X035870Y015692D01*
X036002Y015561D01*
X036174Y015489D01*
X036360Y015489D01*
X036531Y015561D01*
X036663Y015692D01*
X036734Y015864D01*
X036734Y016050D01*
X036663Y016222D01*
X036531Y016353D01*
X036442Y016390D01*
X037075Y016390D01*
X036986Y016353D01*
X036854Y016222D01*
X036783Y016050D01*
X036783Y015864D01*
X036854Y015692D01*
X036986Y015561D01*
X037158Y015489D01*
X037344Y015489D01*
X037516Y015561D01*
X037647Y015692D01*
X037718Y015864D01*
X037718Y016050D01*
X037647Y016222D01*
X037516Y016353D01*
X037427Y016390D01*
X038059Y016390D01*
X037970Y016353D01*
X037839Y016222D01*
X037768Y016050D01*
X037768Y015864D01*
X037839Y015692D01*
X037970Y015561D01*
X038142Y015489D01*
X038328Y015489D01*
X038500Y015561D01*
X038631Y015692D01*
X038703Y015864D01*
X038703Y016050D01*
X038631Y016222D01*
X038500Y016353D01*
X038411Y016390D01*
X039043Y016390D01*
X038954Y016353D01*
X038823Y016222D01*
X038752Y016050D01*
X038752Y015864D01*
X038823Y015692D01*
X038954Y015561D01*
X039126Y015489D01*
X039312Y015489D01*
X039484Y015561D01*
X039616Y015692D01*
X039687Y015864D01*
X039687Y016050D01*
X039616Y016222D01*
X039484Y016353D01*
X039395Y016390D01*
X040028Y016390D01*
X039939Y016353D01*
X039807Y016222D01*
X039736Y016050D01*
X039736Y015864D01*
X039807Y015692D01*
X039939Y015561D01*
X040111Y015489D01*
X040297Y015489D01*
X040468Y015561D01*
X040600Y015692D01*
X040671Y015864D01*
X040671Y016050D01*
X040600Y016222D01*
X040468Y016353D01*
X040379Y016390D01*
X041012Y016390D01*
X040923Y016353D01*
X040791Y016222D01*
X040720Y016050D01*
X040720Y015864D01*
X040791Y015692D01*
X040923Y015561D01*
X041095Y015489D01*
X041281Y015489D01*
X041453Y015561D01*
X041584Y015692D01*
X041655Y015864D01*
X041655Y016050D01*
X041584Y016222D01*
X041453Y016353D01*
X041364Y016390D01*
X041996Y016390D01*
X041907Y016353D01*
X041776Y016222D01*
X041705Y016050D01*
X041705Y015864D01*
X041776Y015692D01*
X041907Y015561D01*
X042079Y015489D01*
X042265Y015489D01*
X042437Y015561D01*
X042568Y015692D01*
X042640Y015864D01*
X042640Y016050D01*
X042568Y016222D01*
X042437Y016353D01*
X042348Y016390D01*
X042980Y016390D01*
X042891Y016353D01*
X042760Y016222D01*
X042689Y016050D01*
X042689Y015864D01*
X042760Y015692D01*
X042891Y015561D01*
X043063Y015489D01*
X043249Y015489D01*
X043421Y015561D01*
X043553Y015692D01*
X043624Y015864D01*
X043624Y016050D01*
X043553Y016222D01*
X043421Y016353D01*
X043332Y016390D01*
X043529Y016390D01*
X043812Y016107D01*
X043812Y015413D01*
X043577Y015178D01*
X043553Y015237D01*
X043421Y015369D01*
X043249Y015440D01*
X043063Y015440D01*
X042891Y015369D01*
X042760Y015237D01*
X042689Y015066D01*
X042689Y014880D01*
X042760Y014708D01*
X042891Y014576D01*
X043063Y014505D01*
X043101Y014505D01*
X043159Y014446D01*
X043295Y014390D01*
X043756Y014390D01*
X043892Y014446D01*
X043996Y014550D01*
X044496Y015050D01*
X044552Y015186D01*
X044552Y016334D01*
X044496Y016470D01*
X044392Y016574D01*
X043892Y017074D01*
X043756Y017130D01*
X008336Y017130D01*
X007552Y017913D01*
X007552Y019958D01*
X007591Y019919D01*
X008365Y019919D01*
X008488Y020042D01*
X008488Y020198D01*
X008766Y019919D01*
X009189Y019919D01*
X009478Y020208D01*
X009766Y019919D01*
X010189Y019919D01*
X010478Y020208D01*
X010766Y019919D01*
X011189Y019919D01*
X011442Y020173D01*
X011746Y019869D01*
X011978Y019869D01*
X012210Y019869D01*
X012513Y020173D01*
X012766Y019919D01*
X013189Y019919D01*
X013478Y020208D01*
X013766Y019919D01*
X014189Y019919D01*
X014478Y020208D01*
X014766Y019919D01*
X015189Y019919D01*
X015478Y020208D01*
X015766Y019919D01*
X016189Y019919D01*
X016478Y020208D01*
X016766Y019919D01*
X017189Y019919D01*
X017478Y020208D01*
X017766Y019919D01*
X018189Y019919D01*
X018478Y020208D01*
X018766Y019919D01*
X019189Y019919D01*
X019442Y020173D01*
X019746Y019869D01*
X019978Y019869D01*
X020210Y019869D01*
X020513Y020173D01*
X020766Y019919D01*
X021189Y019919D01*
X021478Y020208D01*
X021766Y019919D01*
X022189Y019919D01*
X022478Y020208D01*
X022766Y019919D01*
X023189Y019919D01*
X023478Y020208D01*
X023766Y019919D01*
X024189Y019919D01*
X024478Y020208D01*
X024766Y019919D01*
X025189Y019919D01*
X025478Y020208D01*
X025766Y019919D01*
X026189Y019919D01*
X026442Y020173D01*
X026746Y019869D01*
X026978Y019869D01*
X027210Y019869D01*
X027538Y020197D01*
X027538Y020429D01*
X026978Y020429D01*
X026978Y020429D01*
X026978Y019869D01*
X026978Y020429D01*
X026978Y020429D01*
X027538Y020429D01*
X027538Y020661D01*
X027234Y020965D01*
X027488Y021218D01*
X027488Y021641D01*
X027189Y021939D01*
X026766Y021939D01*
X026478Y021651D01*
X026189Y021939D01*
X025766Y021939D01*
X025478Y021651D01*
X025189Y021939D01*
X024766Y021939D01*
X024513Y021686D01*
X024210Y021989D01*
X023978Y021989D01*
X023978Y021429D01*
X023978Y021429D01*
X023978Y021989D01*
X023746Y021989D01*
X023442Y021686D01*
X023189Y021939D01*
X022766Y021939D01*
X022513Y021686D01*
X022210Y021989D01*
X021978Y021989D01*
X021978Y021429D01*
X021978Y021429D01*
X021978Y021989D01*
X021746Y021989D01*
X021442Y021686D01*
X021189Y021939D01*
X020766Y021939D01*
X020478Y021651D01*
X020189Y021939D01*
X019766Y021939D01*
X019478Y021651D01*
X019189Y021939D01*
X018766Y021939D01*
X018478Y021651D01*
X018189Y021939D01*
X017766Y021939D01*
X017513Y021686D01*
X017210Y021989D01*
X016978Y021989D01*
X016978Y021429D01*
X016978Y021429D01*
X016978Y021989D01*
X016746Y021989D01*
X016442Y021686D01*
X016189Y021939D01*
X015766Y021939D01*
X015478Y021651D01*
X015189Y021939D01*
X014766Y021939D01*
X014513Y021686D01*
X014210Y021989D01*
X013978Y021989D01*
X013978Y021429D01*
X013978Y021429D01*
X013978Y021989D01*
X013746Y021989D01*
X013442Y021686D01*
X013189Y021939D01*
X012766Y021939D01*
X012478Y021651D01*
X012189Y021939D01*
X011766Y021939D01*
X011478Y021651D01*
X011189Y021939D01*
X010766Y021939D01*
X010513Y021686D01*
X010210Y021989D01*
X009978Y021989D01*
X009978Y021429D01*
X009978Y021429D01*
X009978Y021989D01*
X009746Y021989D01*
X009442Y021686D01*
X009189Y021939D01*
X008766Y021939D01*
X008626Y021799D01*
X008329Y021799D01*
X008189Y021939D01*
X007766Y021939D01*
X007626Y021799D01*
X007278Y021799D01*
X007142Y021743D01*
X006973Y021574D01*
X006965Y021566D01*
X006942Y021606D01*
X006736Y021811D01*
X006485Y021956D01*
X006205Y022031D01*
X005915Y022031D01*
X005635Y021956D01*
X005384Y021811D01*
X005179Y021606D01*
X005034Y021354D01*
X004959Y021074D01*
X004959Y020784D01*
X005034Y020504D01*
X005179Y020253D01*
X005384Y020048D01*
X005635Y019903D01*
X005915Y019828D01*
X006205Y019828D01*
X006485Y019903D01*
X006736Y020048D01*
X006812Y020124D01*
X006812Y017686D01*
X006869Y017550D01*
X007869Y016550D01*
X007973Y016446D01*
X008109Y016390D01*
X008693Y016390D01*
X008604Y016353D01*
X008473Y016222D01*
X008402Y016050D01*
X008402Y015864D01*
X008473Y015692D01*
X008604Y015561D01*
X008776Y015489D01*
X008962Y015489D01*
X009134Y015561D01*
X009266Y015692D01*
X009337Y015864D01*
X009337Y016050D01*
X009266Y016222D01*
X009134Y016353D01*
X009045Y016390D01*
X009678Y016390D01*
X009589Y016353D01*
X009457Y016222D01*
X009386Y016050D01*
X009386Y015864D01*
X009457Y015692D01*
X009589Y015561D01*
X009761Y015489D01*
X009947Y015489D01*
X010118Y015561D01*
X010250Y015692D01*
X010321Y015864D01*
X010321Y016050D01*
X010250Y016222D01*
X010118Y016353D01*
X010029Y016390D01*
X010662Y016390D01*
X010573Y016353D01*
X010441Y016222D01*
X010370Y016050D01*
X010370Y015864D01*
X010441Y015692D01*
X010573Y015561D01*
X010745Y015489D01*
X010931Y015489D01*
X011103Y015561D01*
X011234Y015692D01*
X011305Y015864D01*
X011305Y016050D01*
X011234Y016222D01*
X011103Y016353D01*
X011014Y016390D01*
X011646Y016390D01*
X011557Y016353D01*
X011426Y016222D01*
X011355Y016050D01*
X011355Y015864D01*
X011426Y015692D01*
X011557Y015561D01*
X011729Y015489D01*
X011915Y015489D01*
X012087Y015561D01*
X012218Y015692D01*
X012290Y015864D01*
X012290Y016050D01*
X012218Y016222D01*
X012087Y016353D01*
X011998Y016390D01*
X012630Y016390D01*
X012541Y016353D01*
X012410Y016222D01*
X012339Y016050D01*
X012339Y015864D01*
X012410Y015692D01*
X012541Y015561D01*
X012713Y015489D01*
X012888Y015489D01*
X012839Y015440D01*
X012713Y015440D01*
X012541Y015369D01*
X012410Y015237D01*
X012339Y015066D01*
X012339Y014880D01*
X012410Y014708D01*
X012541Y014576D01*
X012713Y014505D01*
X012899Y014505D01*
X013071Y014576D01*
X013203Y014708D01*
X013237Y014792D01*
X013892Y015446D01*
X013996Y015550D01*
X014052Y015686D01*
X014052Y016390D01*
X014991Y016390D01*
X014902Y016353D01*
X014770Y016222D01*
X014699Y016050D01*
X014699Y015864D01*
X014770Y015692D01*
X014902Y015561D01*
X015074Y015489D01*
X015260Y015489D01*
X015431Y015561D01*
X015563Y015692D01*
X015634Y015864D01*
X015634Y016050D01*
X015563Y016222D01*
X015431Y016353D01*
X015342Y016390D01*
X015975Y016390D01*
X015886Y016353D01*
X015754Y016222D01*
X015683Y016050D01*
X015683Y015864D01*
X015754Y015692D01*
X015886Y015561D01*
X016058Y015489D01*
X016244Y015489D01*
X016416Y015561D01*
X016547Y015692D01*
X016618Y015864D01*
X016618Y016050D01*
X016547Y016222D01*
X016416Y016353D01*
X016327Y016390D01*
X016959Y016390D01*
X016870Y016353D01*
X016739Y016222D01*
X016668Y016050D01*
X016668Y015864D01*
X016739Y015692D01*
X016870Y015561D01*
X017042Y015489D01*
X017228Y015489D01*
X017400Y015561D01*
X017531Y015692D01*
X017603Y015864D01*
X017603Y016050D01*
X017531Y016222D01*
X017400Y016353D01*
X017311Y016390D01*
X017943Y016390D01*
X017854Y016353D01*
X017723Y016222D01*
X017652Y016050D01*
X017652Y015864D01*
X017723Y015692D01*
X017854Y015561D01*
X018026Y015489D01*
X018212Y015489D01*
X018384Y015561D01*
X018516Y015692D01*
X018587Y015864D01*
X018587Y016050D01*
X018516Y016222D01*
X018384Y016353D01*
X018295Y016390D01*
X018928Y016390D01*
X018839Y016353D01*
X018707Y016222D01*
X018636Y016050D01*
X018636Y015864D01*
X018707Y015692D01*
X018839Y015561D01*
X019011Y015489D01*
X019197Y015489D01*
X019368Y015561D01*
X019500Y015692D01*
X019571Y015864D01*
X019571Y016050D01*
X019500Y016222D01*
X019368Y016353D01*
X019279Y016390D01*
X019912Y016390D01*
X019823Y016353D01*
X019691Y016222D01*
X019620Y016050D01*
X019620Y015864D01*
X019691Y015692D01*
X019823Y015561D01*
X019995Y015489D01*
X020181Y015489D01*
X020353Y015561D01*
X020484Y015692D01*
X020555Y015864D01*
X020555Y016050D01*
X020484Y016222D01*
X020353Y016353D01*
X020264Y016390D01*
X020896Y016390D01*
X020807Y016353D01*
X020676Y016222D01*
X020605Y016050D01*
X020605Y015864D01*
X020676Y015692D01*
X020807Y015561D01*
X020979Y015489D01*
X021165Y015489D01*
X021337Y015561D01*
X021468Y015692D01*
X021540Y015864D01*
X021540Y016050D01*
X021468Y016222D01*
X021337Y016353D01*
X021248Y016390D01*
X021880Y016390D01*
X021791Y016353D01*
X021660Y016222D01*
X021589Y016050D01*
X021589Y015864D01*
X021660Y015692D01*
X021791Y015561D01*
X021963Y015489D01*
X022149Y015489D01*
X022321Y015561D01*
X022453Y015692D01*
X022524Y015864D01*
X022524Y016050D01*
X022453Y016222D01*
X022321Y016353D01*
X022232Y016390D01*
X022812Y016390D01*
X022812Y015913D01*
X022284Y015384D01*
X022149Y015440D01*
X021963Y015440D01*
X021791Y015369D01*
X021660Y015237D01*
X021589Y015066D01*
X021589Y014880D01*
X021660Y014708D01*
X021791Y014576D01*
X021963Y014505D01*
X022149Y014505D01*
X022321Y014576D01*
X022347Y014603D01*
X022468Y014603D01*
X022604Y014659D01*
X023392Y015446D01*
X023496Y015550D01*
X023552Y015686D01*
X023552Y016390D01*
X024062Y016390D01*
X024062Y015415D01*
X024038Y015439D01*
X023840Y015521D01*
X023625Y015521D01*
X023426Y015439D01*
X023274Y015287D01*
X023192Y015089D01*
X023192Y014874D01*
X023274Y014675D01*
X023426Y014523D01*
X023625Y014441D01*
X023792Y014441D01*
X023792Y013995D01*
X023792Y014274D02*
X004682Y014274D01*
X004682Y014593D02*
X005636Y014593D01*
X005652Y014576D02*
X005520Y014708D01*
X005449Y014880D01*
X005449Y015066D01*
X005520Y015237D01*
X005652Y015369D01*
X005824Y015440D01*
X006010Y015440D01*
X006181Y015369D01*
X006313Y015237D01*
X006384Y015066D01*
X006384Y014880D01*
X006313Y014708D01*
X006181Y014576D01*
X006010Y014505D01*
X005824Y014505D01*
X005652Y014576D01*
X005449Y014911D02*
X004682Y014911D01*
X004682Y015230D02*
X005517Y015230D01*
X005652Y015561D02*
X005824Y015489D01*
X006010Y015489D01*
X006181Y015561D01*
X006313Y015692D01*
X006384Y015864D01*
X006384Y016050D01*
X006313Y016222D01*
X006181Y016353D01*
X006010Y016424D01*
X005824Y016424D01*
X005652Y016353D01*
X005520Y016222D01*
X005449Y016050D01*
X005449Y015864D01*
X005520Y015692D01*
X005652Y015561D01*
X005682Y015548D02*
X004682Y015548D01*
X004682Y015867D02*
X005449Y015867D01*
X005505Y016185D02*
X004682Y016185D01*
X004682Y016504D02*
X007916Y016504D01*
X007978Y016424D02*
X007792Y016424D01*
X007620Y016353D01*
X007489Y016222D01*
X007418Y016050D01*
X007418Y015864D01*
X007489Y015692D01*
X007620Y015561D01*
X007792Y015489D01*
X007978Y015489D01*
X008150Y015561D01*
X008281Y015692D01*
X008353Y015864D01*
X008353Y016050D01*
X008281Y016222D01*
X008150Y016353D01*
X007978Y016424D01*
X008297Y016185D02*
X008458Y016185D01*
X008402Y015867D02*
X008353Y015867D01*
X008120Y015548D02*
X008635Y015548D01*
X009104Y015548D02*
X009619Y015548D01*
X009386Y015867D02*
X009337Y015867D01*
X009281Y016185D02*
X009442Y016185D01*
X010265Y016185D02*
X010426Y016185D01*
X011249Y016185D02*
X011411Y016185D01*
X012234Y016185D02*
X012395Y016185D01*
X012339Y015867D02*
X012290Y015867D01*
X012057Y015548D02*
X012572Y015548D01*
X012407Y015230D02*
X012222Y015230D01*
X012218Y015237D02*
X012087Y015369D01*
X011915Y015440D01*
X011729Y015440D01*
X011557Y015369D01*
X011426Y015237D01*
X011355Y015066D01*
X011355Y014880D01*
X011426Y014708D01*
X011557Y014576D01*
X011729Y014505D01*
X011915Y014505D01*
X012087Y014576D01*
X012218Y014708D01*
X012290Y014880D01*
X012290Y015066D01*
X012218Y015237D01*
X012290Y014911D02*
X012339Y014911D01*
X012525Y014593D02*
X012103Y014593D01*
X011541Y014593D02*
X008166Y014593D01*
X008150Y014576D02*
X008281Y014708D01*
X008353Y014880D01*
X008353Y015066D01*
X008281Y015237D01*
X008150Y015369D01*
X007978Y015440D01*
X007792Y015440D01*
X007620Y015369D01*
X007489Y015237D01*
X007418Y015066D01*
X007418Y014880D01*
X007489Y014708D01*
X007620Y014576D01*
X007792Y014505D01*
X007978Y014505D01*
X008150Y014576D01*
X007604Y014593D02*
X007182Y014593D01*
X007166Y014576D02*
X007297Y014708D01*
X007368Y014880D01*
X007368Y015066D01*
X007297Y015237D01*
X007166Y015369D01*
X006994Y015440D01*
X006808Y015440D01*
X006636Y015369D01*
X006504Y015237D01*
X006433Y015066D01*
X006433Y014880D01*
X006504Y014708D01*
X006636Y014576D01*
X006808Y014505D01*
X006994Y014505D01*
X007166Y014576D01*
X006620Y014593D02*
X006198Y014593D01*
X006384Y014911D02*
X006433Y014911D01*
X006501Y015230D02*
X006316Y015230D01*
X006151Y015548D02*
X006666Y015548D01*
X006636Y015561D02*
X006808Y015489D01*
X006994Y015489D01*
X007166Y015561D01*
X007297Y015692D01*
X007368Y015864D01*
X007368Y016050D01*
X007297Y016222D01*
X007166Y016353D01*
X006994Y016424D01*
X006808Y016424D01*
X006636Y016353D01*
X006504Y016222D01*
X006433Y016050D01*
X006433Y015864D01*
X006504Y015692D01*
X006636Y015561D01*
X006433Y015867D02*
X006384Y015867D01*
X006328Y016185D02*
X006489Y016185D01*
X007312Y016185D02*
X007474Y016185D01*
X007418Y015867D02*
X007368Y015867D01*
X007135Y015548D02*
X007650Y015548D01*
X007485Y015230D02*
X007300Y015230D01*
X007368Y014911D02*
X007418Y014911D01*
X008285Y015230D02*
X011422Y015230D01*
X011355Y014911D02*
X008353Y014911D01*
X010088Y015548D02*
X010603Y015548D01*
X010370Y015867D02*
X010321Y015867D01*
X011072Y015548D02*
X011587Y015548D01*
X011355Y015867D02*
X011305Y015867D01*
X012806Y014973D02*
X012895Y014973D01*
X013682Y015760D01*
X013682Y016760D01*
X023182Y016760D01*
X023182Y015760D01*
X022395Y014973D01*
X022056Y014973D01*
X021589Y014911D02*
X021540Y014911D01*
X021540Y014880D02*
X021468Y014708D01*
X021337Y014576D01*
X021165Y014505D01*
X020979Y014505D01*
X020807Y014576D01*
X020676Y014708D01*
X020605Y014880D01*
X020605Y015066D01*
X020676Y015237D01*
X020807Y015369D01*
X020979Y015440D01*
X021165Y015440D01*
X021337Y015369D01*
X021468Y015237D01*
X021540Y015066D01*
X021540Y014880D01*
X021353Y014593D02*
X021775Y014593D01*
X022337Y014593D02*
X023357Y014593D01*
X023192Y014911D02*
X022857Y014911D01*
X023175Y015230D02*
X023251Y015230D01*
X023494Y015548D02*
X024062Y015548D01*
X024062Y015867D02*
X023552Y015867D01*
X022766Y015867D02*
X022524Y015867D01*
X022447Y015548D02*
X022291Y015548D01*
X021822Y015548D02*
X021307Y015548D01*
X021472Y015230D02*
X021657Y015230D01*
X020837Y015548D02*
X020322Y015548D01*
X020555Y015867D02*
X020605Y015867D01*
X019853Y015548D02*
X019338Y015548D01*
X019571Y015867D02*
X019620Y015867D01*
X019676Y016185D02*
X019515Y016185D01*
X018692Y016185D02*
X018531Y016185D01*
X018587Y015867D02*
X018636Y015867D01*
X018869Y015548D02*
X018354Y015548D01*
X017885Y015548D02*
X017370Y015548D01*
X017228Y015440D02*
X017042Y015440D01*
X016870Y015369D01*
X016739Y015237D01*
X016668Y015066D01*
X016668Y014880D01*
X016739Y014708D01*
X016870Y014576D01*
X017042Y014505D01*
X017228Y014505D01*
X017400Y014576D01*
X017531Y014708D01*
X017603Y014880D01*
X017603Y015066D01*
X017531Y015237D01*
X017400Y015369D01*
X017228Y015440D01*
X016900Y015548D02*
X016385Y015548D01*
X016244Y015440D02*
X016058Y015440D01*
X015886Y015369D01*
X015754Y015237D01*
X015683Y015066D01*
X015683Y014880D01*
X015754Y014708D01*
X015886Y014576D01*
X016058Y014505D01*
X016244Y014505D01*
X016416Y014576D01*
X016547Y014708D01*
X016618Y014880D01*
X016618Y015066D01*
X016547Y015237D01*
X016416Y015369D01*
X016244Y015440D01*
X015916Y015548D02*
X015401Y015548D01*
X015260Y015440D02*
X015074Y015440D01*
X014902Y015369D01*
X014770Y015237D01*
X014699Y015066D01*
X014699Y014880D01*
X014770Y014708D01*
X014902Y014576D01*
X015074Y014505D01*
X015260Y014505D01*
X015431Y014576D01*
X015563Y014708D01*
X015634Y014880D01*
X015634Y015066D01*
X015563Y015237D01*
X015431Y015369D01*
X015260Y015440D01*
X014932Y015548D02*
X013994Y015548D01*
X014052Y015867D02*
X014699Y015867D01*
X014755Y016185D02*
X014052Y016185D01*
X013682Y016760D02*
X008182Y016760D01*
X007182Y017760D01*
X007182Y021260D01*
X007352Y021429D01*
X008978Y021429D01*
X009210Y021918D02*
X009674Y021918D01*
X009978Y021918D02*
X009978Y021918D01*
X010281Y021918D02*
X010745Y021918D01*
X011210Y021918D02*
X011745Y021918D01*
X012210Y021918D02*
X012745Y021918D01*
X013210Y021918D02*
X013674Y021918D01*
X013978Y021918D02*
X013978Y021918D01*
X014281Y021918D02*
X014745Y021918D01*
X015210Y021918D02*
X015745Y021918D01*
X016210Y021918D02*
X016674Y021918D01*
X016978Y021918D02*
X016978Y021918D01*
X017281Y021918D02*
X017745Y021918D01*
X018210Y021918D02*
X018745Y021918D01*
X019210Y021918D02*
X019745Y021918D01*
X020210Y021918D02*
X020745Y021918D01*
X021210Y021918D02*
X021674Y021918D01*
X021978Y021918D02*
X021978Y021918D01*
X022281Y021918D02*
X022745Y021918D01*
X023210Y021918D02*
X023674Y021918D01*
X023978Y021918D02*
X023978Y021918D01*
X024281Y021918D02*
X024745Y021918D01*
X025210Y021918D02*
X025745Y021918D01*
X026210Y021918D02*
X026745Y021918D01*
X027210Y021918D02*
X028405Y021918D01*
X028470Y021956D02*
X028219Y021811D01*
X028014Y021606D01*
X027869Y021354D01*
X027794Y021074D01*
X027794Y020784D01*
X027869Y020504D01*
X028014Y020253D01*
X028219Y020048D01*
X028470Y019903D01*
X028750Y019828D01*
X029040Y019828D01*
X029320Y019903D01*
X029571Y020048D01*
X029776Y020253D01*
X029921Y020504D01*
X029996Y020784D01*
X029996Y021074D01*
X029921Y021354D01*
X029776Y021606D01*
X029571Y021811D01*
X029320Y021956D01*
X029040Y022031D01*
X028750Y022031D01*
X028470Y021956D01*
X028010Y021600D02*
X027488Y021600D01*
X027488Y021281D02*
X027849Y021281D01*
X027794Y020963D02*
X027236Y020963D01*
X027538Y020644D02*
X027831Y020644D01*
X027972Y020326D02*
X027538Y020326D01*
X027347Y020007D02*
X028290Y020007D01*
X026978Y020007D02*
X026978Y020007D01*
X026978Y020326D02*
X026978Y020326D01*
X026608Y020007D02*
X026277Y020007D01*
X025679Y020007D02*
X025277Y020007D01*
X024679Y020007D02*
X024277Y020007D01*
X023679Y020007D02*
X023277Y020007D01*
X022679Y020007D02*
X022277Y020007D01*
X021679Y020007D02*
X021277Y020007D01*
X020679Y020007D02*
X020347Y020007D01*
X019978Y020007D02*
X019978Y020007D01*
X019978Y019869D02*
X019978Y020429D01*
X019978Y020429D01*
X019978Y019869D01*
X019608Y020007D02*
X019277Y020007D01*
X018679Y020007D02*
X018277Y020007D01*
X017679Y020007D02*
X017277Y020007D01*
X016679Y020007D02*
X016277Y020007D01*
X015679Y020007D02*
X015277Y020007D01*
X014679Y020007D02*
X014277Y020007D01*
X013679Y020007D02*
X013277Y020007D01*
X012679Y020007D02*
X012347Y020007D01*
X011978Y020007D02*
X011978Y020007D01*
X011978Y019869D02*
X011978Y020429D01*
X011978Y020429D01*
X011978Y019869D01*
X011608Y020007D02*
X011277Y020007D01*
X010679Y020007D02*
X010277Y020007D01*
X009679Y020007D02*
X009277Y020007D01*
X008679Y020007D02*
X008452Y020007D01*
X007552Y019689D02*
X036497Y019689D01*
X036497Y020007D02*
X029500Y020007D01*
X029818Y020326D02*
X036497Y020326D01*
X036497Y020472D02*
X036497Y019048D01*
X036620Y018925D01*
X038044Y018925D01*
X038167Y019048D01*
X038167Y020472D01*
X038139Y020500D01*
X038799Y020500D01*
X038769Y020449D01*
X038647Y019995D01*
X038647Y019525D01*
X038769Y019071D01*
X039004Y018664D01*
X039336Y018332D01*
X039743Y018097D01*
X040197Y017975D01*
X040667Y017975D01*
X041121Y018097D01*
X041528Y018332D01*
X041860Y018664D01*
X042095Y019071D01*
X042217Y019525D01*
X042217Y019995D01*
X042095Y020449D01*
X041860Y020856D01*
X041528Y021188D01*
X041121Y021423D01*
X040667Y021545D01*
X040197Y021545D01*
X039743Y021423D01*
X039336Y021188D01*
X039168Y021020D01*
X037472Y021020D01*
X037402Y021089D01*
X037260Y021148D01*
X037105Y021148D01*
X036962Y021089D01*
X036853Y020980D01*
X036794Y020837D01*
X036794Y020683D01*
X036830Y020595D01*
X036620Y020595D01*
X036497Y020472D01*
X036810Y020644D02*
X029959Y020644D01*
X029996Y020963D02*
X036846Y020963D01*
X038167Y020326D02*
X038736Y020326D01*
X038651Y020007D02*
X038167Y020007D01*
X038167Y019689D02*
X038647Y019689D01*
X038689Y019370D02*
X038167Y019370D01*
X038167Y019052D02*
X038780Y019052D01*
X038964Y018733D02*
X007552Y018733D01*
X007552Y018415D02*
X039254Y018415D01*
X039746Y018096D02*
X007552Y018096D01*
X007688Y017778D02*
X044682Y017778D01*
X044682Y018096D02*
X041118Y018096D01*
X041611Y018415D02*
X044682Y018415D01*
X044682Y018733D02*
X041900Y018733D01*
X042084Y019052D02*
X042660Y019052D01*
X042657Y019059D02*
X042677Y019012D01*
X042705Y018969D01*
X042742Y018933D01*
X042784Y018905D01*
X042831Y018885D01*
X042882Y018875D01*
X043380Y018875D01*
X043380Y019607D01*
X043685Y019607D01*
X043685Y018875D01*
X044183Y018875D01*
X044233Y018885D01*
X044280Y018905D01*
X044323Y018933D01*
X044359Y018969D01*
X044388Y019012D01*
X044407Y019059D01*
X044417Y019109D01*
X044417Y019607D01*
X043685Y019607D01*
X043685Y019913D01*
X043380Y019913D01*
X043380Y020645D01*
X042882Y020645D01*
X042831Y020635D01*
X042784Y020615D01*
X042742Y020587D01*
X042705Y020551D01*
X042677Y020508D01*
X042657Y020461D01*
X042647Y020411D01*
X042647Y019913D01*
X043380Y019913D01*
X043380Y019607D01*
X042647Y019607D01*
X042647Y019109D01*
X042657Y019059D01*
X043380Y019052D02*
X043685Y019052D01*
X043685Y019370D02*
X043380Y019370D01*
X043380Y019689D02*
X042217Y019689D01*
X042214Y020007D02*
X042647Y020007D01*
X042647Y020326D02*
X042129Y020326D01*
X041983Y020644D02*
X042877Y020644D01*
X043380Y020644D02*
X043685Y020644D01*
X043685Y020645D02*
X043685Y019913D01*
X044417Y019913D01*
X044417Y020411D01*
X044407Y020461D01*
X044388Y020508D01*
X044359Y020551D01*
X044323Y020587D01*
X044280Y020615D01*
X044233Y020635D01*
X044183Y020645D01*
X043685Y020645D01*
X043685Y020326D02*
X043380Y020326D01*
X043380Y020007D02*
X043685Y020007D01*
X043685Y019689D02*
X044682Y019689D01*
X044682Y020007D02*
X044417Y020007D01*
X044417Y020326D02*
X044682Y020326D01*
X044682Y020644D02*
X044188Y020644D01*
X044682Y020963D02*
X041754Y020963D01*
X041367Y021281D02*
X044682Y021281D01*
X044682Y021600D02*
X029780Y021600D01*
X029941Y021281D02*
X039497Y021281D01*
X042176Y019370D02*
X042647Y019370D01*
X044417Y019370D02*
X044682Y019370D01*
X044682Y019052D02*
X044404Y019052D01*
X044682Y017459D02*
X008007Y017459D01*
X008325Y017141D02*
X044682Y017141D01*
X044682Y016822D02*
X044144Y016822D01*
X044462Y016504D02*
X044682Y016504D01*
X044682Y016185D02*
X044552Y016185D01*
X044182Y016260D02*
X044182Y015260D01*
X043682Y014760D01*
X043369Y014760D01*
X043156Y014973D01*
X042689Y014911D02*
X042640Y014911D01*
X042640Y014880D02*
X042568Y014708D01*
X042437Y014576D01*
X042265Y014505D01*
X042079Y014505D01*
X041907Y014576D01*
X041776Y014708D01*
X041705Y014880D01*
X041705Y015066D01*
X041776Y015237D01*
X041907Y015369D01*
X042079Y015440D01*
X042265Y015440D01*
X042437Y015369D01*
X042568Y015237D01*
X042640Y015066D01*
X042640Y014880D01*
X042453Y014593D02*
X042875Y014593D01*
X042757Y015230D02*
X042572Y015230D01*
X042407Y015548D02*
X042922Y015548D01*
X042689Y015867D02*
X042640Y015867D01*
X043391Y015548D02*
X043812Y015548D01*
X043812Y015867D02*
X043624Y015867D01*
X043568Y016185D02*
X043734Y016185D01*
X044182Y016260D02*
X043682Y016760D01*
X034682Y016760D01*
X034682Y015760D01*
X033906Y014984D01*
X033906Y014973D01*
X033439Y014911D02*
X033390Y014911D01*
X033390Y014880D02*
X033318Y014708D01*
X033187Y014576D01*
X033015Y014505D01*
X032829Y014505D01*
X032657Y014576D01*
X032526Y014708D01*
X032455Y014880D01*
X032455Y015066D01*
X032526Y015237D01*
X032657Y015369D01*
X032829Y015440D01*
X033015Y015440D01*
X033187Y015369D01*
X033318Y015237D01*
X033390Y015066D01*
X033390Y014880D01*
X033203Y014593D02*
X033625Y014593D01*
X034187Y014593D02*
X035986Y014593D01*
X036002Y014576D02*
X036174Y014505D01*
X036360Y014505D01*
X036531Y014576D01*
X036663Y014708D01*
X036734Y014880D01*
X036734Y015066D01*
X036663Y015237D01*
X036531Y015369D01*
X036360Y015440D01*
X036174Y015440D01*
X036002Y015369D01*
X035870Y015237D01*
X035799Y015066D01*
X035799Y014880D01*
X035870Y014708D01*
X036002Y014576D01*
X036548Y014593D02*
X036970Y014593D01*
X036986Y014576D02*
X036854Y014708D01*
X036783Y014880D01*
X036783Y015066D01*
X036854Y015237D01*
X036986Y015369D01*
X037158Y015440D01*
X037344Y015440D01*
X037516Y015369D01*
X037647Y015237D01*
X037718Y015066D01*
X037718Y014880D01*
X037647Y014708D01*
X037516Y014576D01*
X037344Y014505D01*
X037158Y014505D01*
X036986Y014576D01*
X037532Y014593D02*
X037954Y014593D01*
X037970Y014576D02*
X037839Y014708D01*
X037768Y014880D01*
X037768Y015066D01*
X037839Y015237D01*
X037970Y015369D01*
X038142Y015440D01*
X038328Y015440D01*
X038500Y015369D01*
X038631Y015237D01*
X038703Y015066D01*
X038703Y014880D01*
X038631Y014708D01*
X038500Y014576D01*
X038328Y014505D01*
X038142Y014505D01*
X037970Y014576D01*
X038516Y014593D02*
X041891Y014593D01*
X041705Y014911D02*
X038703Y014911D01*
X038635Y015230D02*
X041772Y015230D01*
X041937Y015548D02*
X041422Y015548D01*
X041655Y015867D02*
X041705Y015867D01*
X041761Y016185D02*
X041599Y016185D01*
X040776Y016185D02*
X040615Y016185D01*
X040671Y015867D02*
X040720Y015867D01*
X040953Y015548D02*
X040438Y015548D01*
X039969Y015548D02*
X039454Y015548D01*
X039687Y015867D02*
X039736Y015867D01*
X039792Y016185D02*
X039631Y016185D01*
X038808Y016185D02*
X038647Y016185D01*
X037824Y016185D02*
X037662Y016185D01*
X036839Y016185D02*
X036678Y016185D01*
X036734Y015867D02*
X036783Y015867D01*
X037016Y015548D02*
X036501Y015548D01*
X036666Y015230D02*
X036851Y015230D01*
X036783Y014911D02*
X036734Y014911D01*
X035867Y015230D02*
X034675Y015230D01*
X034374Y014911D02*
X035799Y014911D01*
X036032Y015548D02*
X034994Y015548D01*
X035052Y015867D02*
X035799Y015867D01*
X035855Y016185D02*
X035052Y016185D01*
X034682Y016760D02*
X024182Y016760D01*
X023182Y016760D01*
X022812Y016185D02*
X022468Y016185D01*
X021645Y016185D02*
X021484Y016185D01*
X021540Y015867D02*
X021589Y015867D01*
X020661Y016185D02*
X020499Y016185D01*
X020672Y015230D02*
X017535Y015230D01*
X017603Y014911D02*
X020605Y014911D01*
X020791Y014593D02*
X017416Y014593D01*
X016854Y014593D02*
X016432Y014593D01*
X016618Y014911D02*
X016668Y014911D01*
X016735Y015230D02*
X016550Y015230D01*
X016618Y015867D02*
X016668Y015867D01*
X016724Y016185D02*
X016562Y016185D01*
X015739Y016185D02*
X015578Y016185D01*
X015634Y015867D02*
X015683Y015867D01*
X015751Y015230D02*
X015566Y015230D01*
X015634Y014911D02*
X015683Y014911D01*
X015870Y014593D02*
X015448Y014593D01*
X014886Y014593D02*
X013087Y014593D01*
X013357Y014911D02*
X014699Y014911D01*
X014767Y015230D02*
X013675Y015230D01*
X017603Y015867D02*
X017652Y015867D01*
X017708Y016185D02*
X017547Y016185D01*
X023552Y016185D02*
X024062Y016185D01*
X024602Y016185D02*
X026605Y016185D01*
X026549Y015867D02*
X024602Y015867D01*
X024602Y015548D02*
X026782Y015548D01*
X026924Y015440D02*
X026752Y015369D01*
X026620Y015237D01*
X026549Y015066D01*
X026549Y014880D01*
X026620Y014708D01*
X026752Y014576D01*
X026924Y014505D01*
X027110Y014505D01*
X027281Y014576D01*
X027413Y014708D01*
X027484Y014880D01*
X027484Y015066D01*
X027413Y015237D01*
X027281Y015369D01*
X027110Y015440D01*
X026924Y015440D01*
X027251Y015548D02*
X027766Y015548D01*
X027908Y015440D02*
X027736Y015369D01*
X027604Y015237D01*
X027533Y015066D01*
X027533Y014880D01*
X027604Y014708D01*
X027736Y014576D01*
X027908Y014505D01*
X028094Y014505D01*
X028266Y014576D01*
X028397Y014708D01*
X028468Y014880D01*
X028468Y015066D01*
X028397Y015237D01*
X028266Y015369D01*
X028094Y015440D01*
X027908Y015440D01*
X028235Y015548D02*
X028750Y015548D01*
X028892Y015440D02*
X028720Y015369D01*
X028589Y015237D01*
X028518Y015066D01*
X028518Y014880D01*
X028589Y014708D01*
X028720Y014576D01*
X028892Y014505D01*
X029078Y014505D01*
X029250Y014576D01*
X029381Y014708D01*
X029453Y014880D01*
X029453Y015066D01*
X029381Y015237D01*
X029250Y015369D01*
X029078Y015440D01*
X028892Y015440D01*
X029220Y015548D02*
X029735Y015548D01*
X029502Y015867D02*
X029453Y015867D01*
X030204Y015548D02*
X030719Y015548D01*
X030486Y015867D02*
X030437Y015867D01*
X030381Y016185D02*
X030542Y016185D01*
X031365Y016185D02*
X031526Y016185D01*
X031470Y015867D02*
X031421Y015867D01*
X031188Y015548D02*
X031703Y015548D01*
X032172Y015548D02*
X032687Y015548D01*
X032522Y015230D02*
X029385Y015230D01*
X029453Y014911D02*
X032455Y014911D01*
X032641Y014593D02*
X029266Y014593D01*
X028704Y014593D02*
X028282Y014593D01*
X028468Y014911D02*
X028518Y014911D01*
X028585Y015230D02*
X028400Y015230D01*
X028468Y015867D02*
X028518Y015867D01*
X028574Y016185D02*
X028412Y016185D01*
X027589Y016185D02*
X027428Y016185D01*
X027484Y015867D02*
X027533Y015867D01*
X027601Y015230D02*
X027416Y015230D01*
X027484Y014911D02*
X027533Y014911D01*
X027720Y014593D02*
X027298Y014593D01*
X026736Y014593D02*
X025822Y014593D01*
X025472Y014911D02*
X026549Y014911D01*
X026617Y015230D02*
X025414Y015230D01*
X024892Y014274D02*
X024872Y014274D01*
X024833Y013956D02*
X024957Y013956D01*
X025908Y013956D02*
X044682Y013956D01*
X044682Y014274D02*
X025972Y014274D01*
X029397Y016185D02*
X029558Y016185D01*
X032349Y016185D02*
X032511Y016185D01*
X032455Y015867D02*
X032405Y015867D01*
X033157Y015548D02*
X033672Y015548D01*
X033507Y015230D02*
X033322Y015230D01*
X033390Y015867D02*
X033439Y015867D01*
X033495Y016185D02*
X033334Y016185D01*
X037485Y015548D02*
X038000Y015548D01*
X037835Y015230D02*
X037650Y015230D01*
X037718Y014911D02*
X037768Y014911D01*
X038470Y015548D02*
X038985Y015548D01*
X038752Y015867D02*
X038703Y015867D01*
X037768Y015867D02*
X037718Y015867D01*
X042584Y016185D02*
X042745Y016185D01*
X043556Y015230D02*
X043629Y015230D01*
X044357Y014911D02*
X044682Y014911D01*
X044682Y014593D02*
X044038Y014593D01*
X044552Y015230D02*
X044682Y015230D01*
X044682Y015548D02*
X044552Y015548D01*
X044552Y015867D02*
X044682Y015867D01*
X036497Y019052D02*
X007552Y019052D01*
X006812Y019052D02*
X004682Y019052D01*
X004682Y018733D02*
X006812Y018733D01*
X006812Y018415D02*
X004682Y018415D01*
X004682Y018096D02*
X006812Y018096D01*
X006812Y017778D02*
X004682Y017778D01*
X004682Y017459D02*
X006960Y017459D01*
X007279Y017141D02*
X004682Y017141D01*
X004682Y016822D02*
X007597Y016822D01*
X007552Y019370D02*
X036497Y019370D01*
X029385Y021918D02*
X044682Y021918D01*
X044682Y022237D02*
X004682Y022237D01*
X004682Y021918D02*
X005570Y021918D01*
X005175Y021600D02*
X004682Y021600D01*
X004682Y021281D02*
X005014Y021281D01*
X004959Y020963D02*
X004682Y020963D01*
X004682Y020644D02*
X004996Y020644D01*
X005137Y020326D02*
X004682Y020326D01*
X004682Y020007D02*
X005455Y020007D01*
X004682Y019689D02*
X006812Y019689D01*
X006812Y020007D02*
X006665Y020007D01*
X006812Y019370D02*
X004682Y019370D01*
X006945Y021600D02*
X006999Y021600D01*
X006550Y021918D02*
X007745Y021918D01*
X008210Y021918D02*
X008745Y021918D01*
X009978Y021600D02*
X009978Y021600D01*
X011978Y020326D02*
X011978Y020326D01*
X013978Y021600D02*
X013978Y021600D01*
X016978Y021600D02*
X016978Y021600D01*
X019978Y020326D02*
X019978Y020326D01*
X021978Y021600D02*
X021978Y021600D01*
X023978Y021600D02*
X023978Y021600D01*
X041111Y011089D02*
X044682Y011089D01*
X044682Y010771D02*
X040894Y010771D01*
X040551Y010771D02*
X031594Y010771D01*
X031251Y010771D02*
X019894Y010771D01*
X019551Y010771D02*
X014554Y010771D01*
X014211Y010771D02*
X010594Y010771D01*
X009677Y009497D02*
X013448Y009497D01*
X013757Y009497D02*
X018548Y009497D01*
X018857Y009497D02*
X030308Y009497D01*
X030617Y009497D02*
X039608Y009497D01*
X037853Y008541D02*
X044682Y008541D01*
X044682Y008223D02*
X037821Y008223D01*
X037090Y007904D02*
X044682Y007904D01*
X044682Y007586D02*
X037391Y007586D01*
X037299Y007267D02*
X044682Y007267D01*
X044682Y006949D02*
X027906Y006949D01*
X027842Y006630D02*
X044682Y006630D01*
X041760Y005356D02*
X041600Y005356D01*
X040775Y005356D02*
X037663Y005356D01*
X037647Y005395D02*
X037516Y005526D01*
X037344Y005598D01*
X037158Y005598D01*
X036986Y005526D01*
X036854Y005395D01*
X036783Y005223D01*
X036783Y005037D01*
X036854Y004865D01*
X036986Y004734D01*
X037158Y004663D01*
X037344Y004663D01*
X037516Y004734D01*
X037647Y004865D01*
X037718Y005037D01*
X037718Y005223D01*
X037647Y005395D01*
X036838Y005356D02*
X036679Y005356D01*
X036663Y005395D02*
X036531Y005526D01*
X036360Y005598D01*
X036174Y005598D01*
X036002Y005526D01*
X035870Y005395D01*
X035799Y005223D01*
X035799Y005037D01*
X035870Y004865D01*
X036002Y004734D01*
X036174Y004663D01*
X036360Y004663D01*
X036531Y004734D01*
X036663Y004865D01*
X036734Y005037D01*
X036734Y005223D01*
X036663Y005395D01*
X036734Y005038D02*
X036783Y005038D01*
X037022Y004719D02*
X036496Y004719D01*
X036360Y004613D02*
X036531Y004542D01*
X036663Y004411D01*
X036734Y004239D01*
X036734Y004053D01*
X036663Y003881D01*
X036531Y003750D01*
X036360Y003678D01*
X036174Y003678D01*
X036002Y003750D01*
X035870Y003881D01*
X035799Y004053D01*
X035799Y004239D01*
X035870Y004411D01*
X036002Y004542D01*
X036174Y004613D01*
X036360Y004613D01*
X036037Y004719D02*
X033151Y004719D01*
X033187Y004734D02*
X033318Y004865D01*
X033390Y005037D01*
X033390Y005223D01*
X033318Y005395D01*
X033187Y005526D01*
X033015Y005598D01*
X032829Y005598D01*
X032657Y005526D01*
X032526Y005395D01*
X032455Y005223D01*
X032455Y005037D01*
X032526Y004865D01*
X032657Y004734D01*
X032829Y004663D01*
X033015Y004663D01*
X033187Y004734D01*
X033187Y004542D02*
X033015Y004613D01*
X032829Y004613D01*
X032657Y004542D01*
X032526Y004411D01*
X032455Y004239D01*
X032455Y004053D01*
X032526Y003881D01*
X032657Y003750D01*
X032829Y003678D01*
X033015Y003678D01*
X033187Y003750D01*
X033318Y003881D01*
X033390Y004053D01*
X033390Y004239D01*
X033318Y004411D01*
X033187Y004542D01*
X033323Y004401D02*
X033506Y004401D01*
X033510Y004411D02*
X033439Y004239D01*
X033439Y004053D01*
X033510Y003881D01*
X033641Y003750D01*
X033813Y003678D01*
X033999Y003678D01*
X034171Y003750D01*
X034303Y003881D01*
X034374Y004053D01*
X034374Y004239D01*
X034303Y004411D01*
X034171Y004542D01*
X033999Y004613D01*
X033813Y004613D01*
X033641Y004542D01*
X033510Y004411D01*
X033439Y004082D02*
X033390Y004082D01*
X033201Y003764D02*
X033628Y003764D01*
X034185Y003764D02*
X035988Y003764D01*
X035799Y004082D02*
X034374Y004082D01*
X034307Y004401D02*
X035866Y004401D01*
X035799Y005038D02*
X033390Y005038D01*
X032693Y004719D02*
X032167Y004719D01*
X032203Y004734D02*
X032334Y004865D01*
X032405Y005037D01*
X032405Y005223D01*
X032334Y005395D01*
X032203Y005526D01*
X032031Y005598D01*
X031845Y005598D01*
X031673Y005526D01*
X031541Y005395D01*
X031470Y005223D01*
X031470Y005037D01*
X031541Y004865D01*
X031673Y004734D01*
X031845Y004663D01*
X032031Y004663D01*
X032203Y004734D01*
X032203Y004542D02*
X032031Y004613D01*
X031845Y004613D01*
X031673Y004542D01*
X031541Y004411D01*
X031470Y004239D01*
X031470Y004053D01*
X031541Y003881D01*
X031673Y003750D01*
X031845Y003678D01*
X032031Y003678D01*
X032203Y003750D01*
X032334Y003881D01*
X032405Y004053D01*
X032405Y004239D01*
X032334Y004411D01*
X032203Y004542D01*
X032338Y004401D02*
X032522Y004401D01*
X032455Y004082D02*
X032405Y004082D01*
X032217Y003764D02*
X032643Y003764D01*
X031659Y003764D02*
X031232Y003764D01*
X031218Y003750D02*
X031350Y003881D01*
X031421Y004053D01*
X031421Y004239D01*
X031350Y004411D01*
X031218Y004542D01*
X031047Y004613D01*
X030861Y004613D01*
X030689Y004542D01*
X030557Y004411D01*
X030486Y004239D01*
X030486Y004053D01*
X030557Y003881D01*
X030689Y003750D01*
X030861Y003678D01*
X031047Y003678D01*
X031218Y003750D01*
X031421Y004082D02*
X031470Y004082D01*
X031537Y004401D02*
X031354Y004401D01*
X031709Y004719D02*
X028230Y004719D01*
X028266Y004734D02*
X028397Y004865D01*
X028468Y005037D01*
X028468Y005223D01*
X028397Y005395D01*
X028266Y005526D01*
X028094Y005598D01*
X027908Y005598D01*
X027736Y005526D01*
X027604Y005395D01*
X027533Y005223D01*
X027533Y005037D01*
X027604Y004865D01*
X027736Y004734D01*
X027908Y004663D01*
X028094Y004663D01*
X028266Y004734D01*
X028266Y004542D02*
X028094Y004613D01*
X027908Y004613D01*
X027736Y004542D01*
X027604Y004411D01*
X027533Y004239D01*
X027533Y004053D01*
X027604Y003881D01*
X027736Y003750D01*
X027908Y003678D01*
X028094Y003678D01*
X028266Y003750D01*
X028397Y003881D01*
X028468Y004053D01*
X028468Y004239D01*
X028397Y004411D01*
X028266Y004542D01*
X028401Y004401D02*
X028585Y004401D01*
X028589Y004411D02*
X028518Y004239D01*
X028518Y004053D01*
X028589Y003881D01*
X028720Y003750D01*
X028892Y003678D01*
X029078Y003678D01*
X029250Y003750D01*
X029381Y003881D01*
X029453Y004053D01*
X029453Y004239D01*
X029381Y004411D01*
X029250Y004542D01*
X029078Y004613D01*
X028892Y004613D01*
X028720Y004542D01*
X028589Y004411D01*
X028518Y004082D02*
X028468Y004082D01*
X028280Y003764D02*
X028706Y003764D01*
X029264Y003764D02*
X029691Y003764D01*
X029704Y003750D02*
X029876Y003678D01*
X030062Y003678D01*
X030234Y003750D01*
X030366Y003881D01*
X030437Y004053D01*
X030437Y004239D01*
X030366Y004411D01*
X030234Y004542D01*
X030062Y004613D01*
X029876Y004613D01*
X029704Y004542D01*
X029573Y004411D01*
X029502Y004239D01*
X029502Y004053D01*
X029573Y003881D01*
X029704Y003750D01*
X029502Y004082D02*
X029453Y004082D01*
X029386Y004401D02*
X029569Y004401D01*
X030370Y004401D02*
X030553Y004401D01*
X030486Y004082D02*
X030437Y004082D01*
X030248Y003764D02*
X030675Y003764D01*
X031470Y005038D02*
X028468Y005038D01*
X028413Y005356D02*
X031525Y005356D01*
X032350Y005356D02*
X032510Y005356D01*
X032455Y005038D02*
X032405Y005038D01*
X033334Y005356D02*
X035854Y005356D01*
X036854Y004411D02*
X036986Y004542D01*
X037158Y004613D01*
X037344Y004613D01*
X037516Y004542D01*
X037647Y004411D01*
X037718Y004239D01*
X037718Y004053D01*
X037647Y003881D01*
X037516Y003750D01*
X037344Y003678D01*
X037158Y003678D01*
X036986Y003750D01*
X036854Y003881D01*
X036783Y004053D01*
X036783Y004239D01*
X036854Y004411D01*
X036850Y004401D02*
X036667Y004401D01*
X036734Y004082D02*
X036783Y004082D01*
X036972Y003764D02*
X036545Y003764D01*
X037530Y003764D02*
X037956Y003764D01*
X037970Y003750D02*
X038142Y003678D01*
X038328Y003678D01*
X038500Y003750D01*
X038631Y003881D01*
X038703Y004053D01*
X038703Y004239D01*
X038631Y004411D01*
X038500Y004542D01*
X038328Y004613D01*
X038142Y004613D01*
X037970Y004542D01*
X037839Y004411D01*
X037768Y004239D01*
X037768Y004053D01*
X037839Y003881D01*
X037970Y003750D01*
X037768Y004082D02*
X037718Y004082D01*
X037651Y004401D02*
X037835Y004401D01*
X037480Y004719D02*
X040959Y004719D01*
X040787Y004401D02*
X040604Y004401D01*
X040600Y004411D02*
X040468Y004542D01*
X040297Y004613D01*
X040111Y004613D01*
X039939Y004542D01*
X039807Y004411D01*
X039736Y004239D01*
X039736Y004053D01*
X039807Y003881D01*
X039939Y003750D01*
X040111Y003678D01*
X040297Y003678D01*
X040468Y003750D01*
X040600Y003881D01*
X040671Y004053D01*
X040671Y004239D01*
X040600Y004411D01*
X040671Y004082D02*
X040720Y004082D01*
X040909Y003764D02*
X040482Y003764D01*
X039925Y003764D02*
X039498Y003764D01*
X039484Y003750D02*
X039616Y003881D01*
X039687Y004053D01*
X039687Y004239D01*
X039616Y004411D01*
X039484Y004542D01*
X039312Y004613D01*
X039126Y004613D01*
X038954Y004542D01*
X038823Y004411D01*
X038752Y004239D01*
X038752Y004053D01*
X038823Y003881D01*
X038954Y003750D01*
X039126Y003678D01*
X039312Y003678D01*
X039484Y003750D01*
X039687Y004082D02*
X039736Y004082D01*
X039803Y004401D02*
X039620Y004401D01*
X038819Y004401D02*
X038636Y004401D01*
X038703Y004082D02*
X038752Y004082D01*
X038941Y003764D02*
X038514Y003764D01*
X037718Y005038D02*
X040720Y005038D01*
X027772Y004719D02*
X027246Y004719D01*
X027417Y004401D02*
X027600Y004401D01*
X027533Y004082D02*
X027484Y004082D01*
X027295Y003764D02*
X027722Y003764D01*
X027533Y005038D02*
X027484Y005038D01*
X027429Y005356D02*
X027588Y005356D01*
X026604Y005356D02*
X025995Y005356D01*
X026027Y005038D02*
X026549Y005038D01*
X015922Y004719D02*
X015396Y004719D01*
X015431Y004734D02*
X015563Y004865D01*
X015634Y005037D01*
X015634Y005223D01*
X015563Y005395D01*
X015431Y005526D01*
X015260Y005598D01*
X015074Y005598D01*
X014902Y005526D01*
X014770Y005395D01*
X014699Y005223D01*
X014699Y005037D01*
X014770Y004865D01*
X014902Y004734D01*
X015074Y004663D01*
X015260Y004663D01*
X015431Y004734D01*
X015431Y004542D02*
X015260Y004613D01*
X015074Y004613D01*
X014902Y004542D01*
X014770Y004411D01*
X014699Y004239D01*
X014699Y004053D01*
X014770Y003881D01*
X014902Y003750D01*
X015074Y003678D01*
X015260Y003678D01*
X015431Y003750D01*
X015563Y003881D01*
X015634Y004053D01*
X015634Y004239D01*
X015563Y004411D01*
X015431Y004542D01*
X015567Y004401D02*
X015750Y004401D01*
X015683Y004082D02*
X015634Y004082D01*
X015445Y003764D02*
X015872Y003764D01*
X014888Y003764D02*
X013085Y003764D01*
X013071Y003750D02*
X013203Y003881D01*
X013274Y004053D01*
X013274Y004239D01*
X013203Y004411D01*
X013071Y004542D01*
X012899Y004613D01*
X012713Y004613D01*
X012541Y004542D01*
X012410Y004411D01*
X012339Y004239D01*
X012339Y004053D01*
X012410Y003881D01*
X012541Y003750D01*
X012713Y003678D01*
X012899Y003678D01*
X013071Y003750D01*
X013274Y004082D02*
X014699Y004082D01*
X014766Y004401D02*
X013207Y004401D01*
X012406Y004401D02*
X012223Y004401D01*
X012218Y004411D02*
X012087Y004542D01*
X011915Y004613D01*
X011729Y004613D01*
X011557Y004542D01*
X011426Y004411D01*
X011355Y004239D01*
X011355Y004053D01*
X011426Y003881D01*
X011557Y003750D01*
X011729Y003678D01*
X011915Y003678D01*
X012087Y003750D01*
X012218Y003881D01*
X012290Y004053D01*
X012290Y004239D01*
X012218Y004411D01*
X012290Y004082D02*
X012339Y004082D01*
X012528Y003764D02*
X012101Y003764D01*
X011543Y003764D02*
X011117Y003764D01*
X011103Y003750D02*
X011234Y003881D01*
X011305Y004053D01*
X011305Y004239D01*
X011234Y004411D01*
X011103Y004542D01*
X010931Y004613D01*
X010745Y004613D01*
X010573Y004542D01*
X010441Y004411D01*
X010370Y004239D01*
X010370Y004053D01*
X010441Y003881D01*
X010573Y003750D01*
X010745Y003678D01*
X010931Y003678D01*
X011103Y003750D01*
X011305Y004082D02*
X011355Y004082D01*
X011422Y004401D02*
X011238Y004401D01*
X011103Y004734D02*
X011234Y004865D01*
X011305Y005037D01*
X011305Y005223D01*
X011234Y005395D01*
X011103Y005526D01*
X010931Y005598D01*
X010745Y005598D01*
X010573Y005526D01*
X010441Y005395D01*
X010370Y005223D01*
X010370Y005037D01*
X010441Y004865D01*
X010573Y004734D01*
X010745Y004663D01*
X010931Y004663D01*
X011103Y004734D01*
X011067Y004719D02*
X011593Y004719D01*
X011557Y004734D02*
X011729Y004663D01*
X011915Y004663D01*
X012087Y004734D01*
X012218Y004865D01*
X012290Y005037D01*
X012290Y005223D01*
X012218Y005395D01*
X012087Y005526D01*
X011915Y005598D01*
X011729Y005598D01*
X011557Y005526D01*
X011426Y005395D01*
X011355Y005223D01*
X011355Y005037D01*
X011426Y004865D01*
X011557Y004734D01*
X011355Y005038D02*
X011305Y005038D01*
X010609Y004719D02*
X007130Y004719D01*
X007166Y004734D02*
X007297Y004865D01*
X007368Y005037D01*
X007368Y005223D01*
X007297Y005395D01*
X007166Y005526D01*
X006994Y005598D01*
X006808Y005598D01*
X006636Y005526D01*
X006504Y005395D01*
X006433Y005223D01*
X006433Y005037D01*
X006504Y004865D01*
X006636Y004734D01*
X006808Y004663D01*
X006994Y004663D01*
X007166Y004734D01*
X007166Y004542D02*
X006994Y004613D01*
X006808Y004613D01*
X006636Y004542D01*
X006504Y004411D01*
X006433Y004239D01*
X006433Y004053D01*
X006504Y003881D01*
X006636Y003750D01*
X006808Y003678D01*
X006994Y003678D01*
X007166Y003750D01*
X007297Y003881D01*
X007368Y004053D01*
X007368Y004239D01*
X007297Y004411D01*
X007166Y004542D01*
X007301Y004401D02*
X007485Y004401D01*
X007489Y004411D02*
X007418Y004239D01*
X007418Y004053D01*
X007489Y003881D01*
X007620Y003750D01*
X007792Y003678D01*
X007978Y003678D01*
X008150Y003750D01*
X008281Y003881D01*
X008353Y004053D01*
X008353Y004239D01*
X008281Y004411D01*
X008150Y004542D01*
X007978Y004613D01*
X007792Y004613D01*
X007620Y004542D01*
X007489Y004411D01*
X007418Y004082D02*
X007368Y004082D01*
X007180Y003764D02*
X007606Y003764D01*
X008164Y003764D02*
X008591Y003764D01*
X008604Y003750D02*
X008776Y003678D01*
X008962Y003678D01*
X009134Y003750D01*
X009266Y003881D01*
X009337Y004053D01*
X009337Y004239D01*
X009266Y004411D01*
X009134Y004542D01*
X008962Y004613D01*
X008776Y004613D01*
X008604Y004542D01*
X008473Y004411D01*
X008402Y004239D01*
X008402Y004053D01*
X008473Y003881D01*
X008604Y003750D01*
X008402Y004082D02*
X008353Y004082D01*
X008286Y004401D02*
X008469Y004401D01*
X009270Y004401D02*
X009453Y004401D01*
X009457Y004411D02*
X009386Y004239D01*
X009386Y004053D01*
X009457Y003881D01*
X009589Y003750D01*
X009761Y003678D01*
X009947Y003678D01*
X010118Y003750D01*
X010250Y003881D01*
X010321Y004053D01*
X010321Y004239D01*
X010250Y004411D01*
X010118Y004542D01*
X009947Y004613D01*
X009761Y004613D01*
X009589Y004542D01*
X009457Y004411D01*
X009386Y004082D02*
X009337Y004082D01*
X009148Y003764D02*
X009575Y003764D01*
X010132Y003764D02*
X010559Y003764D01*
X010370Y004082D02*
X010321Y004082D01*
X010254Y004401D02*
X010437Y004401D01*
X010370Y005038D02*
X007368Y005038D01*
X006672Y004719D02*
X006146Y004719D01*
X006181Y004734D02*
X006313Y004865D01*
X006384Y005037D01*
X006384Y005223D01*
X006313Y005395D01*
X006181Y005526D01*
X006010Y005598D01*
X005824Y005598D01*
X005652Y005526D01*
X005520Y005395D01*
X005449Y005223D01*
X005449Y005037D01*
X005520Y004865D01*
X005652Y004734D01*
X005824Y004663D01*
X006010Y004663D01*
X006181Y004734D01*
X006181Y004542D02*
X006010Y004613D01*
X005824Y004613D01*
X005652Y004542D01*
X005520Y004411D01*
X005449Y004239D01*
X005449Y004053D01*
X005520Y003881D01*
X005652Y003750D01*
X005824Y003678D01*
X006010Y003678D01*
X006181Y003750D01*
X006313Y003881D01*
X006384Y004053D01*
X006384Y004239D01*
X006313Y004411D01*
X006181Y004542D01*
X006317Y004401D02*
X006500Y004401D01*
X006433Y004082D02*
X006384Y004082D01*
X006195Y003764D02*
X006622Y003764D01*
X005638Y003764D02*
X004682Y003764D01*
X004682Y004082D02*
X005449Y004082D01*
X005516Y004401D02*
X004682Y004401D01*
X004682Y004719D02*
X005687Y004719D01*
X005449Y005038D02*
X004682Y005038D01*
X004682Y005356D02*
X005504Y005356D01*
X006329Y005356D02*
X006488Y005356D01*
X006433Y005038D02*
X006384Y005038D01*
X007313Y005356D02*
X010425Y005356D01*
X011250Y005356D02*
X011410Y005356D01*
X012234Y005356D02*
X014754Y005356D01*
X015579Y005356D02*
X015738Y005356D01*
X015683Y005038D02*
X015634Y005038D01*
X014937Y004719D02*
X012051Y004719D01*
X012290Y005038D02*
X014699Y005038D01*
X009368Y009497D02*
X004682Y009497D01*
D18*
X006602Y012920D03*
X015902Y012860D03*
X027722Y012920D03*
X037022Y012920D03*
X030602Y021920D03*
D19*
X030602Y021800D01*
X024332Y016610D02*
X024182Y016760D01*
X024332Y016610D02*
X024332Y014219D01*
X027542Y013160D02*
X027722Y012980D01*
X027722Y012920D01*
X027602Y012980D02*
X027542Y013040D01*
X027542Y013160D01*
X031422Y011120D02*
X019722Y011120D01*
X014562Y011120D01*
X014382Y011120D01*
X010422Y011120D01*
X009522Y009140D02*
X013242Y009140D01*
X013602Y009140D01*
X018702Y009140D01*
X030462Y009140D01*
X039762Y009140D01*
X037482Y008420D02*
X028362Y008420D01*
X022722Y008420D01*
X022542Y008420D01*
X016542Y008420D01*
X007362Y008420D01*
X006402Y008000D02*
X006342Y007940D01*
X006402Y008000D02*
X015762Y008000D01*
X025962Y008000D01*
X026322Y008000D01*
X027582Y008000D01*
X036702Y008000D01*
X037002Y007520D02*
X027942Y007520D01*
X023142Y007520D01*
X022782Y007520D01*
X016182Y007520D01*
X006882Y007520D01*
X006602Y012920D02*
X006422Y013100D01*
X015602Y013160D02*
X015662Y013160D01*
X015902Y012920D01*
X015902Y012860D01*
X022662Y006860D02*
X027522Y006860D01*
X031422Y011120D02*
X040722Y011120D01*
X037022Y012920D02*
X037022Y012980D01*
X036902Y013100D01*
D20*
X040722Y011120D03*
X039762Y009140D03*
X037482Y008420D03*
X036702Y008000D03*
X037002Y007520D03*
X031422Y011120D03*
X030462Y009140D03*
X028362Y008420D03*
X027582Y008000D03*
X027942Y007520D03*
X027522Y006860D03*
X025962Y008000D03*
X023142Y007520D03*
X022662Y006860D03*
X022722Y008420D03*
X018702Y009140D03*
X016542Y008420D03*
X015762Y008000D03*
X016182Y007520D03*
X013602Y009140D03*
X014382Y011120D03*
X010422Y011120D03*
X009522Y009140D03*
X007362Y008420D03*
X006342Y007940D03*
X006882Y007520D03*
X019722Y011120D03*
X037182Y020760D03*
D21*
X039432Y020760D01*
X040432Y019760D01*
M02*
