G75*
%MOIN*%
%OFA0B0*%
%FSLAX24Y24*%
%IPPOS*%
%LPD*%
%AMOC8*
5,1,8,0,0,1.08239X$1,22.5*
%
%ADD10R,0.0600X0.0600*%
%ADD11OC8,0.0600*%
%ADD12C,0.0515*%
%ADD13R,0.0945X0.0945*%
%ADD14R,0.0531X0.0138*%
%ADD15R,0.0138X0.0531*%
%ADD16R,0.0870X0.0240*%
%ADD17R,0.0315X0.0472*%
%ADD18R,0.0472X0.0315*%
%ADD19C,0.0660*%
%ADD20OC8,0.0660*%
%ADD21C,0.0120*%
%ADD22C,0.0396*%
%ADD23C,0.0320*%
%ADD24C,0.0100*%
%ADD25C,0.0357*%
D10*
X007978Y020429D03*
D11*
X008978Y020429D03*
X009978Y020429D03*
X010978Y020429D03*
X011978Y020429D03*
X012978Y020429D03*
X013978Y020429D03*
X014978Y020429D03*
X015978Y020429D03*
X016978Y020429D03*
X017978Y020429D03*
X018978Y020429D03*
X019978Y020429D03*
X020978Y020429D03*
X021978Y020429D03*
X022978Y020429D03*
X023978Y020429D03*
X024978Y020429D03*
X025978Y020429D03*
X026978Y020429D03*
X026978Y021429D03*
X025978Y021429D03*
X024978Y021429D03*
X023978Y021429D03*
X022978Y021429D03*
X021978Y021429D03*
X020978Y021429D03*
X019978Y021429D03*
X018978Y021429D03*
X017978Y021429D03*
X016978Y021429D03*
X015978Y021429D03*
X014978Y021429D03*
X013978Y021429D03*
X012978Y021429D03*
X011978Y021429D03*
X010978Y021429D03*
X009978Y021429D03*
X008978Y021429D03*
X007978Y021429D03*
D12*
X007885Y015957D03*
X006901Y015957D03*
X005917Y015957D03*
X005917Y014973D03*
X006901Y014973D03*
X007885Y014973D03*
X008869Y015957D03*
X009854Y015957D03*
X010838Y015957D03*
X011822Y015957D03*
X012806Y015957D03*
X012806Y014973D03*
X011822Y014973D03*
X015167Y014973D03*
X016151Y014973D03*
X017135Y014973D03*
X017135Y015957D03*
X016151Y015957D03*
X015167Y015957D03*
X018119Y015957D03*
X019104Y015957D03*
X020088Y015957D03*
X021072Y015957D03*
X022056Y015957D03*
X022056Y014973D03*
X021072Y014973D03*
X027017Y014973D03*
X028001Y014973D03*
X028985Y014973D03*
X028985Y015957D03*
X028001Y015957D03*
X027017Y015957D03*
X029969Y015957D03*
X030954Y015957D03*
X031938Y015957D03*
X032922Y015957D03*
X033906Y015957D03*
X033906Y014973D03*
X032922Y014973D03*
X036267Y014973D03*
X037251Y014973D03*
X038235Y014973D03*
X038235Y015957D03*
X037251Y015957D03*
X036267Y015957D03*
X039219Y015957D03*
X040204Y015957D03*
X041188Y015957D03*
X042172Y015957D03*
X043156Y015957D03*
X043156Y014973D03*
X042172Y014973D03*
X042172Y005130D03*
X041188Y005130D03*
X041188Y004146D03*
X042172Y004146D03*
X043156Y004146D03*
X040204Y004146D03*
X039219Y004146D03*
X038235Y004146D03*
X037251Y004146D03*
X036267Y004146D03*
X036267Y005130D03*
X037251Y005130D03*
X033906Y004146D03*
X032922Y004146D03*
X031938Y004146D03*
X030954Y004146D03*
X029969Y004146D03*
X028985Y004146D03*
X028001Y004146D03*
X027017Y004146D03*
X027017Y005130D03*
X028001Y005130D03*
X031938Y005130D03*
X032922Y005130D03*
X022056Y004146D03*
X021072Y004146D03*
X020088Y004146D03*
X019104Y004146D03*
X018119Y004146D03*
X017135Y004146D03*
X016151Y004146D03*
X015167Y004146D03*
X015167Y005130D03*
X016151Y005130D03*
X012806Y004146D03*
X011822Y004146D03*
X010838Y004146D03*
X009854Y004146D03*
X008869Y004146D03*
X007885Y004146D03*
X006901Y004146D03*
X005917Y004146D03*
X005917Y005130D03*
X006901Y005130D03*
X010838Y005130D03*
X011822Y005130D03*
X020088Y005130D03*
X021072Y005130D03*
D13*
X018802Y010260D03*
X009582Y010220D03*
X030522Y010140D03*
X039782Y010140D03*
D14*
X041456Y010042D03*
X041456Y010238D03*
X041456Y010435D03*
X041456Y010632D03*
X041456Y010829D03*
X041456Y011026D03*
X041456Y011223D03*
X041456Y009845D03*
X041456Y009648D03*
X041456Y009451D03*
X041456Y009254D03*
X041456Y009057D03*
X038109Y009057D03*
X038109Y009254D03*
X038109Y009451D03*
X038109Y009648D03*
X038109Y009845D03*
X038109Y010042D03*
X038109Y010238D03*
X038109Y010435D03*
X038109Y010632D03*
X038109Y010829D03*
X038109Y011026D03*
X038109Y011223D03*
X032196Y011223D03*
X032196Y011026D03*
X032196Y010829D03*
X032196Y010632D03*
X032196Y010435D03*
X032196Y010238D03*
X032196Y010042D03*
X032196Y009845D03*
X032196Y009648D03*
X032196Y009451D03*
X032196Y009254D03*
X032196Y009057D03*
X028849Y009057D03*
X028849Y009254D03*
X028849Y009451D03*
X028849Y009648D03*
X028849Y009845D03*
X028849Y010042D03*
X028849Y010238D03*
X028849Y010435D03*
X028849Y010632D03*
X028849Y010829D03*
X028849Y011026D03*
X028849Y011223D03*
X020476Y011146D03*
X020476Y011343D03*
X020476Y010949D03*
X020476Y010752D03*
X020476Y010555D03*
X020476Y010358D03*
X020476Y010162D03*
X020476Y009965D03*
X020476Y009768D03*
X020476Y009571D03*
X020476Y009374D03*
X020476Y009177D03*
X017129Y009177D03*
X017129Y009374D03*
X017129Y009571D03*
X017129Y009768D03*
X017129Y009965D03*
X017129Y010162D03*
X017129Y010358D03*
X017129Y010555D03*
X017129Y010752D03*
X017129Y010949D03*
X017129Y011146D03*
X017129Y011343D03*
X011256Y011303D03*
X011256Y011106D03*
X011256Y010909D03*
X011256Y010712D03*
X011256Y010515D03*
X011256Y010318D03*
X011256Y010122D03*
X011256Y009925D03*
X011256Y009728D03*
X011256Y009531D03*
X011256Y009334D03*
X011256Y009137D03*
X007909Y009137D03*
X007909Y009334D03*
X007909Y009531D03*
X007909Y009728D03*
X007909Y009925D03*
X007909Y010122D03*
X007909Y010318D03*
X007909Y010515D03*
X007909Y010712D03*
X007909Y010909D03*
X007909Y011106D03*
X007909Y011303D03*
D15*
X008500Y011893D03*
X008696Y011893D03*
X008893Y011893D03*
X009090Y011893D03*
X009287Y011893D03*
X009484Y011893D03*
X009681Y011893D03*
X009878Y011893D03*
X010074Y011893D03*
X010271Y011893D03*
X010468Y011893D03*
X010665Y011893D03*
X010665Y008547D03*
X010468Y008547D03*
X010271Y008547D03*
X010074Y008547D03*
X009878Y008547D03*
X009681Y008547D03*
X009484Y008547D03*
X009287Y008547D03*
X009090Y008547D03*
X008893Y008547D03*
X008696Y008547D03*
X008500Y008547D03*
X017720Y008587D03*
X017916Y008587D03*
X018113Y008587D03*
X018310Y008587D03*
X018507Y008587D03*
X018704Y008587D03*
X018901Y008587D03*
X019098Y008587D03*
X019294Y008587D03*
X019491Y008587D03*
X019688Y008587D03*
X019885Y008587D03*
X019885Y011933D03*
X019688Y011933D03*
X019491Y011933D03*
X019294Y011933D03*
X019098Y011933D03*
X018901Y011933D03*
X018704Y011933D03*
X018507Y011933D03*
X018310Y011933D03*
X018113Y011933D03*
X017916Y011933D03*
X017720Y011933D03*
X029440Y011813D03*
X029636Y011813D03*
X029833Y011813D03*
X030030Y011813D03*
X030227Y011813D03*
X030424Y011813D03*
X030621Y011813D03*
X030818Y011813D03*
X031014Y011813D03*
X031211Y011813D03*
X031408Y011813D03*
X031605Y011813D03*
X031605Y008467D03*
X031408Y008467D03*
X031211Y008467D03*
X031014Y008467D03*
X030818Y008467D03*
X030621Y008467D03*
X030424Y008467D03*
X030227Y008467D03*
X030030Y008467D03*
X029833Y008467D03*
X029636Y008467D03*
X029440Y008467D03*
X038700Y008467D03*
X038896Y008467D03*
X039093Y008467D03*
X039290Y008467D03*
X039487Y008467D03*
X039684Y008467D03*
X039881Y008467D03*
X040078Y008467D03*
X040274Y008467D03*
X040471Y008467D03*
X040668Y008467D03*
X040865Y008467D03*
X040865Y011813D03*
X040668Y011813D03*
X040471Y011813D03*
X040274Y011813D03*
X040078Y011813D03*
X039881Y011813D03*
X039684Y011813D03*
X039487Y011813D03*
X039290Y011813D03*
X039093Y011813D03*
X038896Y011813D03*
X038700Y011813D03*
D16*
X035732Y020310D03*
X035732Y020810D03*
X035732Y021310D03*
X035732Y021810D03*
X033672Y021810D03*
X033672Y021310D03*
X033672Y020810D03*
X033672Y020310D03*
D17*
X036828Y021760D03*
X037537Y021760D03*
X037408Y011730D03*
X038117Y011730D03*
X028807Y011790D03*
X028098Y011790D03*
X016937Y011850D03*
X016228Y011850D03*
X007747Y011790D03*
X007038Y011790D03*
D18*
X031722Y021046D03*
X032522Y021046D03*
X032522Y021754D03*
X031722Y021754D03*
D19*
X024932Y014981D03*
X023732Y014981D03*
X025432Y014219D03*
X024992Y005921D03*
X023792Y005921D03*
X025492Y005159D03*
D20*
X024392Y005159D03*
X024332Y014219D03*
D21*
X004682Y000260D02*
X044682Y000260D01*
X004682Y000260D01*
X004682Y022460D01*
X044682Y022460D01*
X044682Y000260D01*
X044682Y000379D02*
X004682Y000379D01*
X004682Y000497D02*
X044682Y000497D01*
X044682Y000616D02*
X004682Y000616D01*
X004682Y000734D02*
X005626Y000734D01*
X005493Y000789D02*
X005861Y000637D01*
X006259Y000637D01*
X006627Y000789D01*
X006909Y001071D01*
X007062Y001439D01*
X007062Y001837D01*
X006909Y002205D01*
X006627Y002487D01*
X006259Y002639D01*
X005861Y002639D01*
X005493Y002487D01*
X005211Y002205D01*
X005059Y001837D01*
X005059Y001439D01*
X005211Y001071D01*
X005493Y000789D01*
X005430Y000853D02*
X004682Y000853D01*
X004682Y000971D02*
X005311Y000971D01*
X005204Y001090D02*
X004682Y001090D01*
X004682Y001208D02*
X005154Y001208D01*
X005105Y001327D02*
X004682Y001327D01*
X004682Y001445D02*
X005059Y001445D01*
X005059Y001564D02*
X004682Y001564D01*
X004682Y001682D02*
X005059Y001682D01*
X005059Y001801D02*
X004682Y001801D01*
X004682Y001919D02*
X005093Y001919D01*
X005142Y002038D02*
X004682Y002038D01*
X004682Y002156D02*
X005191Y002156D01*
X005281Y002275D02*
X004682Y002275D01*
X004682Y002393D02*
X005399Y002393D01*
X005553Y002512D02*
X004682Y002512D01*
X004682Y002630D02*
X005839Y002630D01*
X006282Y002630D02*
X028673Y002630D01*
X028696Y002639D02*
X028328Y002487D01*
X028046Y002205D01*
X027894Y001837D01*
X027894Y001439D01*
X028046Y001071D01*
X028328Y000789D01*
X028696Y000637D01*
X029094Y000637D01*
X029462Y000789D01*
X029744Y001071D01*
X029896Y001439D01*
X029896Y001837D01*
X029744Y002205D01*
X029462Y002487D01*
X029094Y002639D01*
X028696Y002639D01*
X028387Y002512D02*
X006568Y002512D01*
X006721Y002393D02*
X028234Y002393D01*
X028115Y002275D02*
X006840Y002275D01*
X006929Y002156D02*
X028026Y002156D01*
X027977Y002038D02*
X006979Y002038D01*
X007028Y001919D02*
X027927Y001919D01*
X027894Y001801D02*
X007062Y001801D01*
X007062Y001682D02*
X027894Y001682D01*
X027894Y001564D02*
X007062Y001564D01*
X007062Y001445D02*
X027894Y001445D01*
X027940Y001327D02*
X007015Y001327D01*
X006966Y001208D02*
X027989Y001208D01*
X028038Y001090D02*
X006917Y001090D01*
X006809Y000971D02*
X028146Y000971D01*
X028264Y000853D02*
X006691Y000853D01*
X006495Y000734D02*
X028461Y000734D01*
X029329Y000734D02*
X044682Y000734D01*
X044682Y000853D02*
X029526Y000853D01*
X029644Y000971D02*
X044682Y000971D01*
X044682Y001090D02*
X029752Y001090D01*
X029801Y001208D02*
X044682Y001208D01*
X044682Y001327D02*
X029850Y001327D01*
X029896Y001445D02*
X044682Y001445D01*
X044682Y001564D02*
X029896Y001564D01*
X029896Y001682D02*
X044682Y001682D01*
X044682Y001801D02*
X029896Y001801D01*
X029862Y001919D02*
X044682Y001919D01*
X044682Y002038D02*
X029813Y002038D01*
X029764Y002156D02*
X044682Y002156D01*
X044682Y002275D02*
X029674Y002275D01*
X029556Y002393D02*
X044682Y002393D01*
X044682Y002512D02*
X029403Y002512D01*
X029116Y002630D02*
X044682Y002630D01*
X044682Y002749D02*
X004682Y002749D01*
X004682Y002867D02*
X044682Y002867D01*
X044682Y002986D02*
X004682Y002986D01*
X004682Y003104D02*
X044682Y003104D01*
X044682Y003223D02*
X004682Y003223D01*
X004682Y003341D02*
X044682Y003341D01*
X044682Y003460D02*
X004682Y003460D01*
X004682Y003578D02*
X044682Y003578D01*
X044682Y003697D02*
X004682Y003697D01*
X004682Y003815D02*
X005755Y003815D01*
X005708Y003834D02*
X005843Y003778D01*
X005990Y003778D01*
X006125Y003834D01*
X006228Y003938D01*
X006284Y004073D01*
X006284Y004219D01*
X006264Y004267D01*
X006549Y004552D01*
X006642Y004645D01*
X006642Y004869D01*
X006693Y004819D01*
X006828Y004763D01*
X006974Y004763D01*
X007109Y004819D01*
X007212Y004922D01*
X007268Y005057D01*
X007268Y005203D01*
X007248Y005251D01*
X007282Y005285D01*
X007282Y004754D01*
X007022Y004493D01*
X006974Y004513D01*
X006828Y004513D01*
X006693Y004457D01*
X006589Y004354D01*
X006533Y004219D01*
X006533Y004073D01*
X006589Y003938D01*
X006693Y003834D01*
X006828Y003778D01*
X006974Y003778D01*
X007109Y003834D01*
X007212Y003938D01*
X007268Y004073D01*
X007268Y004219D01*
X007248Y004267D01*
X007509Y004527D01*
X007602Y004621D01*
X007602Y005274D01*
X007762Y005434D01*
X007762Y004493D01*
X007677Y004457D01*
X007574Y004354D01*
X007518Y004219D01*
X007518Y004073D01*
X007574Y003938D01*
X007677Y003834D01*
X007812Y003778D01*
X007958Y003778D01*
X008093Y003834D01*
X008197Y003938D01*
X008253Y004073D01*
X008253Y004219D01*
X008197Y004354D01*
X008093Y004457D01*
X008082Y004462D01*
X008082Y005514D01*
X009324Y006755D01*
X009324Y006728D01*
X008842Y006246D01*
X008842Y004513D01*
X008796Y004513D01*
X008661Y004457D01*
X008558Y004354D01*
X008502Y004219D01*
X008502Y004073D01*
X008558Y003938D01*
X008661Y003834D01*
X008796Y003778D01*
X008942Y003778D01*
X009077Y003834D01*
X009181Y003938D01*
X009237Y004073D01*
X009237Y004219D01*
X009181Y004354D01*
X009162Y004373D01*
X009162Y006114D01*
X009542Y006494D01*
X009614Y006422D01*
X009471Y006422D01*
X009614Y006422D02*
X009682Y006354D01*
X009682Y004473D01*
X009645Y004457D01*
X009542Y004354D01*
X009486Y004219D01*
X009486Y004073D01*
X009542Y003938D01*
X009645Y003834D01*
X009780Y003778D01*
X009927Y003778D01*
X010062Y003834D01*
X010165Y003938D01*
X010221Y004073D01*
X010221Y004219D01*
X010165Y004354D01*
X010062Y004457D01*
X010002Y004482D01*
X010002Y005739D01*
X010016Y005726D01*
X010490Y005251D01*
X010470Y005203D01*
X010470Y005057D01*
X010526Y004922D01*
X010630Y004819D01*
X010765Y004763D01*
X010911Y004763D01*
X011046Y004819D01*
X011149Y004922D01*
X011205Y005057D01*
X011205Y005071D01*
X011242Y005034D01*
X011242Y004777D01*
X010959Y004493D01*
X010911Y004513D01*
X010765Y004513D01*
X010630Y004457D01*
X010526Y004354D01*
X010470Y004219D01*
X010470Y004073D01*
X010526Y003938D01*
X010630Y003834D01*
X010765Y003778D01*
X010911Y003778D01*
X011046Y003834D01*
X011149Y003938D01*
X011205Y004073D01*
X011205Y004219D01*
X011185Y004267D01*
X011469Y004550D01*
X011562Y004644D01*
X011562Y004870D01*
X011614Y004819D01*
X011749Y004763D01*
X011895Y004763D01*
X012030Y004819D01*
X012134Y004922D01*
X012190Y005057D01*
X012190Y005203D01*
X012134Y005338D01*
X012030Y005442D01*
X011895Y005498D01*
X011749Y005498D01*
X011614Y005442D01*
X011511Y005338D01*
X011475Y005253D01*
X010482Y006246D01*
X010482Y006486D01*
X010234Y006734D01*
X010234Y008171D01*
X010779Y008171D01*
X010844Y008235D01*
X010844Y008858D01*
X010779Y008923D01*
X009713Y008923D01*
X009767Y008977D01*
X009811Y009083D01*
X009811Y009188D01*
X009984Y009361D01*
X010880Y009361D01*
X010880Y009023D01*
X010944Y008958D01*
X011567Y008958D01*
X011631Y009023D01*
X011631Y009085D01*
X011842Y008874D01*
X011842Y005634D01*
X012922Y004554D01*
X012922Y004554D01*
X013016Y004460D01*
X014169Y004460D01*
X014799Y005090D01*
X014799Y005057D01*
X014855Y004922D01*
X014958Y004819D01*
X015093Y004763D01*
X015092Y004763D02*
X014472Y004763D01*
X014590Y004882D02*
X014895Y004882D01*
X014823Y005000D02*
X014709Y005000D01*
X014493Y005237D02*
X012692Y005237D01*
X012810Y005119D02*
X014375Y005119D01*
X014256Y005000D02*
X012929Y005000D01*
X013047Y004882D02*
X014138Y004882D01*
X014036Y004780D02*
X013149Y004780D01*
X012162Y005766D01*
X012162Y009006D01*
X011674Y009494D01*
X011631Y009494D01*
X011631Y011417D01*
X011567Y011482D01*
X010944Y011482D01*
X010880Y011417D01*
X010880Y009898D01*
X010743Y009898D01*
X010592Y010048D01*
X010592Y010882D01*
X010667Y010957D01*
X010711Y011063D01*
X010711Y011177D01*
X010667Y011283D01*
X010586Y011365D01*
X010480Y011408D01*
X010365Y011408D01*
X010259Y011365D01*
X010178Y011283D01*
X010134Y011177D01*
X010134Y011063D01*
X010178Y010957D01*
X010252Y010882D01*
X010252Y009907D01*
X010459Y009701D01*
X010164Y009701D01*
X010165Y009702D01*
X010165Y010738D01*
X010100Y010802D01*
X009064Y010802D01*
X009000Y010738D01*
X009000Y009702D01*
X009064Y009638D01*
X009779Y009638D01*
X009743Y009601D01*
X009570Y009428D01*
X009465Y009428D01*
X009359Y009385D01*
X008285Y009385D01*
X008285Y009503D02*
X009645Y009503D01*
X009763Y009622D02*
X008285Y009622D01*
X008285Y009740D02*
X009000Y009740D01*
X009000Y009859D02*
X008285Y009859D01*
X008285Y009936D02*
X008303Y009954D01*
X008324Y009991D01*
X008335Y010032D01*
X008335Y010122D01*
X008335Y010212D01*
X008324Y010252D01*
X008303Y010289D01*
X008285Y010307D01*
X008285Y010739D01*
X008382Y010739D01*
X008473Y010830D01*
X008572Y010930D01*
X008572Y011490D01*
X008545Y011517D01*
X010779Y011517D01*
X010844Y011582D01*
X010844Y012205D01*
X010825Y012223D01*
X010825Y013056D01*
X012514Y014745D01*
X012598Y014661D01*
X012733Y014605D01*
X012879Y014605D01*
X013014Y014661D01*
X013118Y014764D01*
X013174Y014900D01*
X013174Y015046D01*
X013118Y015181D01*
X013014Y015284D01*
X012879Y015340D01*
X012733Y015340D01*
X012598Y015284D01*
X012522Y015208D01*
X012522Y015447D01*
X012685Y015609D01*
X012733Y015589D01*
X012879Y015589D01*
X013014Y015645D01*
X013118Y015749D01*
X013174Y015884D01*
X013174Y016030D01*
X013118Y016165D01*
X013014Y016268D01*
X012879Y016324D01*
X012733Y016324D01*
X012598Y016268D01*
X012495Y016165D01*
X012439Y016030D01*
X012439Y015884D01*
X012459Y015836D01*
X012296Y015673D01*
X012202Y015579D01*
X012202Y014886D01*
X012171Y014855D01*
X012190Y014900D01*
X012190Y015046D01*
X012134Y015181D01*
X012030Y015284D01*
X011895Y015340D01*
X011749Y015340D01*
X011614Y015284D01*
X011511Y015181D01*
X011455Y015046D01*
X011455Y014900D01*
X011475Y014851D01*
X010431Y013808D01*
X010431Y014340D01*
X011701Y015609D01*
X011749Y015589D01*
X011895Y015589D01*
X012030Y015645D01*
X012134Y015749D01*
X012190Y015884D01*
X012190Y016030D01*
X012134Y016165D01*
X012030Y016268D01*
X011895Y016324D01*
X011749Y016324D01*
X011614Y016268D01*
X011511Y016165D01*
X011455Y016030D01*
X011455Y015884D01*
X011475Y015836D01*
X010234Y014595D01*
X010234Y015127D01*
X010717Y015609D01*
X010765Y015589D01*
X010911Y015589D01*
X011046Y015645D01*
X011149Y015749D01*
X011205Y015884D01*
X011205Y016030D01*
X011149Y016165D01*
X011046Y016268D01*
X010911Y016324D01*
X010765Y016324D01*
X010630Y016268D01*
X010526Y016165D01*
X010470Y016030D01*
X010470Y015884D01*
X010490Y015836D01*
X010038Y015383D01*
X010038Y015635D01*
X010062Y015645D01*
X010165Y015749D01*
X010221Y015884D01*
X010221Y016030D01*
X010165Y016165D01*
X010062Y016268D01*
X009927Y016324D01*
X009780Y016324D01*
X009645Y016268D01*
X009542Y016165D01*
X009486Y016030D01*
X009486Y015884D01*
X009542Y015749D01*
X009645Y015645D01*
X009718Y015615D01*
X009718Y015335D01*
X009217Y015836D01*
X009237Y015884D01*
X009237Y016030D01*
X009181Y016165D01*
X009077Y016268D01*
X008942Y016324D01*
X008796Y016324D01*
X008661Y016268D01*
X008558Y016165D01*
X008502Y016030D01*
X008502Y015884D01*
X008558Y015749D01*
X008661Y015645D01*
X008796Y015589D01*
X008942Y015589D01*
X008991Y015609D01*
X009521Y015079D01*
X009521Y014547D01*
X008233Y015836D01*
X008253Y015884D01*
X008253Y016030D01*
X008197Y016165D01*
X008093Y016268D01*
X007958Y016324D01*
X007812Y016324D01*
X007677Y016268D01*
X007574Y016165D01*
X007518Y016030D01*
X007518Y015884D01*
X007574Y015749D01*
X007677Y015645D01*
X007812Y015589D01*
X007958Y015589D01*
X008006Y015609D01*
X009324Y014292D01*
X009324Y013760D01*
X008233Y014851D01*
X008253Y014900D01*
X008253Y015046D01*
X008197Y015181D01*
X008093Y015284D01*
X007958Y015340D01*
X007812Y015340D01*
X007677Y015284D01*
X007602Y015210D01*
X007602Y015482D01*
X007509Y015575D01*
X007248Y015836D01*
X007268Y015884D01*
X007268Y016030D01*
X007212Y016165D01*
X007109Y016268D01*
X006974Y016324D01*
X006828Y016324D01*
X006693Y016268D01*
X006589Y016165D01*
X006533Y016030D01*
X006533Y015884D01*
X006589Y015749D01*
X006693Y015645D01*
X006828Y015589D01*
X006974Y015589D01*
X007022Y015609D01*
X007282Y015349D01*
X007282Y014817D01*
X007248Y014851D01*
X007268Y014900D01*
X007268Y015046D01*
X007212Y015181D01*
X007109Y015284D01*
X006974Y015340D01*
X006828Y015340D01*
X006693Y015284D01*
X006589Y015181D01*
X006533Y015046D01*
X006533Y014900D01*
X006589Y014764D01*
X006693Y014661D01*
X006828Y014605D01*
X006974Y014605D01*
X007022Y014625D01*
X008733Y012914D01*
X008733Y012382D01*
X006264Y014851D01*
X006284Y014900D01*
X006284Y015046D01*
X006228Y015181D01*
X006125Y015284D01*
X005990Y015340D01*
X005843Y015340D01*
X005708Y015284D01*
X005605Y015181D01*
X005562Y015078D01*
X005562Y015376D01*
X005795Y015609D01*
X005843Y015589D01*
X005990Y015589D01*
X006125Y015645D01*
X006228Y015749D01*
X006284Y015884D01*
X006284Y016030D01*
X006228Y016165D01*
X006125Y016268D01*
X005990Y016324D01*
X005843Y016324D01*
X005708Y016268D01*
X005605Y016165D01*
X005549Y016030D01*
X005549Y015884D01*
X005569Y015836D01*
X005336Y015603D01*
X005242Y015509D01*
X005242Y014754D01*
X007860Y012136D01*
X007544Y012136D01*
X007479Y012072D01*
X007479Y011508D01*
X007544Y011444D01*
X007560Y011444D01*
X007533Y011417D01*
X007533Y010685D01*
X007517Y010685D01*
X007513Y010690D01*
X007393Y010690D01*
X007192Y010890D01*
X007192Y011444D01*
X007241Y011444D01*
X007305Y011508D01*
X007305Y012072D01*
X007252Y012125D01*
X007252Y012510D01*
X006909Y012854D01*
X006910Y012859D01*
X006910Y012981D01*
X006863Y013095D01*
X006777Y013181D01*
X006664Y013228D01*
X006541Y013228D01*
X006428Y013181D01*
X006341Y013095D01*
X006294Y012981D01*
X006294Y012859D01*
X006341Y012745D01*
X006428Y012659D01*
X006541Y012612D01*
X006664Y012612D01*
X006668Y012614D01*
X006912Y012370D01*
X006912Y012136D01*
X006835Y012136D01*
X006770Y012072D01*
X006770Y011508D01*
X006835Y011444D01*
X006852Y011444D01*
X006852Y010750D01*
X006952Y010650D01*
X007252Y010350D01*
X007257Y010345D01*
X007533Y010345D01*
X007533Y010307D01*
X007515Y010289D01*
X007494Y010252D01*
X007483Y010212D01*
X007483Y010122D01*
X007909Y010122D01*
X007909Y010122D01*
X008335Y010122D01*
X007909Y010122D01*
X007909Y010122D01*
X006321Y010122D01*
X006182Y010260D01*
X007032Y010570D02*
X004682Y010570D01*
X004682Y010688D02*
X006914Y010688D01*
X006852Y010807D02*
X004682Y010807D01*
X004682Y010925D02*
X006852Y010925D01*
X006852Y011044D02*
X004682Y011044D01*
X004682Y011162D02*
X006852Y011162D01*
X006852Y011281D02*
X004682Y011281D01*
X004682Y011399D02*
X006852Y011399D01*
X006770Y011518D02*
X004682Y011518D01*
X004682Y011636D02*
X006770Y011636D01*
X006770Y011755D02*
X004682Y011755D01*
X004682Y011873D02*
X006770Y011873D01*
X006770Y011992D02*
X004682Y011992D01*
X004682Y012110D02*
X006809Y012110D01*
X006912Y012229D02*
X004682Y012229D01*
X004682Y012347D02*
X006912Y012347D01*
X006816Y012466D02*
X004682Y012466D01*
X004682Y012584D02*
X006698Y012584D01*
X006384Y012703D02*
X004682Y012703D01*
X004682Y012821D02*
X006310Y012821D01*
X006294Y012940D02*
X004682Y012940D01*
X004682Y013058D02*
X006326Y013058D01*
X006423Y013177D02*
X004682Y013177D01*
X004682Y013295D02*
X006701Y013295D01*
X006781Y013177D02*
X006819Y013177D01*
X006879Y013058D02*
X006938Y013058D01*
X006910Y012940D02*
X007056Y012940D01*
X006942Y012821D02*
X007175Y012821D01*
X007060Y012703D02*
X007293Y012703D01*
X007179Y012584D02*
X007412Y012584D01*
X007530Y012466D02*
X007252Y012466D01*
X007252Y012347D02*
X007649Y012347D01*
X007767Y012229D02*
X007252Y012229D01*
X007267Y012110D02*
X007517Y012110D01*
X007479Y011992D02*
X007305Y011992D01*
X007305Y011873D02*
X007479Y011873D01*
X007479Y011755D02*
X007305Y011755D01*
X007305Y011636D02*
X007479Y011636D01*
X007479Y011518D02*
X007305Y011518D01*
X007192Y011399D02*
X007533Y011399D01*
X007533Y011281D02*
X007192Y011281D01*
X007192Y011162D02*
X007533Y011162D01*
X007533Y011044D02*
X007192Y011044D01*
X007192Y010925D02*
X007533Y010925D01*
X007533Y010807D02*
X007276Y010807D01*
X007022Y010820D02*
X007322Y010520D01*
X007327Y010515D01*
X007909Y010515D01*
X007447Y010515D01*
X007442Y010520D01*
X007322Y010520D01*
X007151Y010451D02*
X004682Y010451D01*
X004682Y010333D02*
X007533Y010333D01*
X007484Y010214D02*
X004682Y010214D01*
X004682Y010096D02*
X007483Y010096D01*
X007483Y010090D02*
X007352Y010090D01*
X006272Y009010D01*
X006172Y008910D01*
X006172Y008178D01*
X006098Y008103D01*
X006054Y007997D01*
X006054Y007883D01*
X006098Y007777D01*
X006179Y007695D01*
X006285Y007652D01*
X006400Y007652D01*
X006506Y007695D01*
X006587Y007777D01*
X006631Y007883D01*
X006631Y007997D01*
X006587Y008103D01*
X006512Y008178D01*
X006512Y008770D01*
X006712Y008970D01*
X006712Y007758D01*
X006638Y007683D01*
X006594Y007577D01*
X006594Y007463D01*
X006638Y007357D01*
X006719Y007275D01*
X006825Y007232D01*
X006940Y007232D01*
X007046Y007275D01*
X007127Y007357D01*
X007171Y007463D01*
X007171Y007577D01*
X007127Y007683D01*
X007052Y007758D01*
X007052Y009010D01*
X007192Y009150D01*
X007192Y008658D01*
X007118Y008583D01*
X007074Y008477D01*
X007074Y008363D01*
X007118Y008257D01*
X007199Y008175D01*
X007305Y008132D01*
X007420Y008132D01*
X007526Y008175D01*
X007607Y008257D01*
X007651Y008363D01*
X007651Y008477D01*
X007607Y008583D01*
X007532Y008658D01*
X007532Y009211D01*
X007533Y009212D01*
X007533Y009023D01*
X007598Y008958D01*
X008220Y008958D01*
X008285Y009023D01*
X008285Y009936D01*
X008316Y009977D02*
X009000Y009977D01*
X009000Y010096D02*
X008335Y010096D01*
X008334Y010214D02*
X009000Y010214D01*
X009000Y010333D02*
X008285Y010333D01*
X008285Y010451D02*
X009000Y010451D01*
X009000Y010570D02*
X008285Y010570D01*
X008285Y010688D02*
X009000Y010688D01*
X008568Y010925D02*
X010209Y010925D01*
X010252Y010807D02*
X008449Y010807D01*
X008311Y010909D02*
X007909Y010909D01*
X008311Y010909D02*
X008402Y011000D01*
X008402Y011420D01*
X008042Y011780D01*
X007757Y011780D01*
X007747Y011790D01*
X007082Y011780D02*
X007082Y012440D01*
X006602Y012920D01*
X006582Y013414D02*
X004682Y013414D01*
X004682Y013532D02*
X006464Y013532D01*
X006345Y013651D02*
X004682Y013651D01*
X004682Y013769D02*
X006227Y013769D01*
X006108Y013888D02*
X004682Y013888D01*
X004682Y014006D02*
X005990Y014006D01*
X005871Y014125D02*
X004682Y014125D01*
X004682Y014243D02*
X005753Y014243D01*
X005634Y014362D02*
X004682Y014362D01*
X004682Y014480D02*
X005516Y014480D01*
X005397Y014599D02*
X004682Y014599D01*
X004682Y014717D02*
X005279Y014717D01*
X005242Y014836D02*
X004682Y014836D01*
X004682Y014954D02*
X005242Y014954D01*
X005242Y015073D02*
X004682Y015073D01*
X004682Y015191D02*
X005242Y015191D01*
X005242Y015310D02*
X004682Y015310D01*
X004682Y015428D02*
X005242Y015428D01*
X005280Y015547D02*
X004682Y015547D01*
X004682Y015665D02*
X005398Y015665D01*
X005517Y015784D02*
X004682Y015784D01*
X004682Y015902D02*
X005549Y015902D01*
X005549Y016021D02*
X004682Y016021D01*
X004682Y016139D02*
X005594Y016139D01*
X005698Y016258D02*
X004682Y016258D01*
X004682Y016376D02*
X013492Y016376D01*
X013492Y016258D02*
X013025Y016258D01*
X013129Y016139D02*
X013492Y016139D01*
X013492Y016021D02*
X013174Y016021D01*
X013174Y015902D02*
X013492Y015902D01*
X013492Y015784D02*
X013132Y015784D01*
X013034Y015665D02*
X013492Y015665D01*
X013492Y015547D02*
X012622Y015547D01*
X012522Y015428D02*
X013492Y015428D01*
X013492Y015310D02*
X012953Y015310D01*
X013108Y015191D02*
X013492Y015191D01*
X013492Y015073D02*
X013163Y015073D01*
X013174Y014954D02*
X013492Y014954D01*
X013492Y014836D02*
X013147Y014836D01*
X013070Y014717D02*
X013492Y014717D01*
X013492Y014599D02*
X012367Y014599D01*
X012486Y014717D02*
X012542Y014717D01*
X012249Y014480D02*
X013492Y014480D01*
X013492Y014362D02*
X012130Y014362D01*
X012012Y014243D02*
X013492Y014243D01*
X013492Y014125D02*
X011893Y014125D01*
X011775Y014006D02*
X013492Y014006D01*
X013492Y013888D02*
X011656Y013888D01*
X011538Y013769D02*
X013492Y013769D01*
X013492Y013651D02*
X011419Y013651D01*
X011301Y013532D02*
X013492Y013532D01*
X013492Y013414D02*
X011182Y013414D01*
X011064Y013295D02*
X013492Y013295D01*
X013492Y013177D02*
X010945Y013177D01*
X010827Y013058D02*
X013492Y013058D01*
X013492Y012940D02*
X010825Y012940D01*
X010825Y012821D02*
X013492Y012821D01*
X013492Y012703D02*
X010825Y012703D01*
X010825Y012584D02*
X013492Y012584D01*
X013492Y012466D02*
X010825Y012466D01*
X010825Y012347D02*
X013492Y012347D01*
X013492Y012229D02*
X010825Y012229D01*
X010844Y012110D02*
X013492Y012110D01*
X013492Y011992D02*
X010844Y011992D01*
X010844Y011873D02*
X013492Y011873D01*
X013492Y011755D02*
X010844Y011755D01*
X010844Y011636D02*
X013492Y011636D01*
X013492Y011518D02*
X010779Y011518D01*
X010880Y011399D02*
X010502Y011399D01*
X010342Y011399D02*
X008572Y011399D01*
X008572Y011281D02*
X010177Y011281D01*
X010134Y011162D02*
X008572Y011162D01*
X008572Y011044D02*
X010142Y011044D01*
X010422Y011120D02*
X010422Y009978D01*
X010672Y009728D01*
X011256Y009728D01*
X011256Y009531D02*
X009913Y009531D01*
X009522Y009140D01*
X009256Y009029D02*
X008285Y009029D01*
X008285Y009148D02*
X009234Y009148D01*
X009234Y009197D02*
X009234Y009083D01*
X009278Y008977D01*
X009332Y008923D01*
X008385Y008923D01*
X008321Y008858D01*
X008321Y008235D01*
X008340Y008217D01*
X008340Y007779D01*
X006038Y005478D01*
X005990Y005498D01*
X005843Y005498D01*
X005708Y005442D01*
X005605Y005338D01*
X005549Y005203D01*
X005549Y005057D01*
X005605Y004922D01*
X005708Y004819D01*
X005843Y004763D01*
X005842Y004763D02*
X004682Y004763D01*
X004682Y004645D02*
X006189Y004645D01*
X006307Y004763D02*
X005991Y004763D01*
X005990Y004763D02*
X006125Y004819D01*
X006228Y004922D01*
X006284Y005057D01*
X006284Y005203D01*
X006264Y005251D01*
X006322Y005310D01*
X006322Y004778D01*
X006038Y004493D01*
X005990Y004513D01*
X005843Y004513D01*
X005708Y004457D01*
X005605Y004354D01*
X005549Y004219D01*
X005549Y004073D01*
X005605Y003938D01*
X005708Y003834D01*
X005609Y003934D02*
X004682Y003934D01*
X004682Y004052D02*
X005558Y004052D01*
X005549Y004171D02*
X004682Y004171D01*
X004682Y004289D02*
X005578Y004289D01*
X005659Y004408D02*
X004682Y004408D01*
X004682Y004526D02*
X006070Y004526D01*
X005990Y004763D02*
X005843Y004763D01*
X005645Y004882D02*
X004682Y004882D01*
X004682Y005000D02*
X005573Y005000D01*
X005549Y005119D02*
X004682Y005119D01*
X004682Y005237D02*
X005563Y005237D01*
X005622Y005356D02*
X004682Y005356D01*
X004682Y005474D02*
X005787Y005474D01*
X006153Y005593D02*
X004682Y005593D01*
X004682Y005711D02*
X006271Y005711D01*
X006390Y005830D02*
X004682Y005830D01*
X004682Y005948D02*
X006508Y005948D01*
X006627Y006067D02*
X004682Y006067D01*
X004682Y006185D02*
X006745Y006185D01*
X006864Y006304D02*
X004682Y006304D01*
X004682Y006422D02*
X006982Y006422D01*
X007101Y006541D02*
X004682Y006541D01*
X004682Y006659D02*
X007219Y006659D01*
X007338Y006778D02*
X004682Y006778D01*
X004682Y006896D02*
X007456Y006896D01*
X007575Y007015D02*
X004682Y007015D01*
X004682Y007133D02*
X007693Y007133D01*
X007812Y007252D02*
X006988Y007252D01*
X007132Y007370D02*
X007930Y007370D01*
X008049Y007489D02*
X007171Y007489D01*
X007158Y007607D02*
X008167Y007607D01*
X008286Y007726D02*
X007085Y007726D01*
X007052Y007844D02*
X008340Y007844D01*
X008340Y007963D02*
X007052Y007963D01*
X007052Y008081D02*
X008340Y008081D01*
X008340Y008200D02*
X007550Y008200D01*
X007632Y008318D02*
X008321Y008318D01*
X008321Y008437D02*
X007651Y008437D01*
X007619Y008555D02*
X008321Y008555D01*
X008321Y008674D02*
X007532Y008674D01*
X007532Y008792D02*
X008321Y008792D01*
X008373Y008911D02*
X007532Y008911D01*
X007532Y009029D02*
X007533Y009029D01*
X007532Y009148D02*
X007533Y009148D01*
X007362Y009281D02*
X007362Y008420D01*
X007092Y008318D02*
X007052Y008318D01*
X007052Y008200D02*
X007175Y008200D01*
X007074Y008437D02*
X007052Y008437D01*
X007052Y008555D02*
X007106Y008555D01*
X007052Y008674D02*
X007192Y008674D01*
X007192Y008792D02*
X007052Y008792D01*
X007052Y008911D02*
X007192Y008911D01*
X007192Y009029D02*
X007072Y009029D01*
X007190Y009148D02*
X007192Y009148D01*
X007362Y009281D02*
X007612Y009531D01*
X007909Y009531D01*
X007909Y009728D02*
X007530Y009728D01*
X006882Y009080D01*
X006882Y007520D01*
X006680Y007726D02*
X006536Y007726D01*
X006606Y007607D02*
X004682Y007607D01*
X004682Y007489D02*
X006594Y007489D01*
X006632Y007370D02*
X004682Y007370D01*
X004682Y007252D02*
X006777Y007252D01*
X006712Y007844D02*
X006615Y007844D01*
X006631Y007963D02*
X006712Y007963D01*
X006712Y008081D02*
X006596Y008081D01*
X006512Y008200D02*
X006712Y008200D01*
X006712Y008318D02*
X006512Y008318D01*
X006512Y008437D02*
X006712Y008437D01*
X006712Y008555D02*
X006512Y008555D01*
X006512Y008674D02*
X006712Y008674D01*
X006712Y008792D02*
X006535Y008792D01*
X006653Y008911D02*
X006712Y008911D01*
X006342Y008840D02*
X006342Y007940D01*
X006070Y007844D02*
X004682Y007844D01*
X004682Y007726D02*
X006149Y007726D01*
X006054Y007963D02*
X004682Y007963D01*
X004682Y008081D02*
X006089Y008081D01*
X006172Y008200D02*
X004682Y008200D01*
X004682Y008318D02*
X006172Y008318D01*
X006172Y008437D02*
X004682Y008437D01*
X004682Y008555D02*
X006172Y008555D01*
X006172Y008674D02*
X004682Y008674D01*
X004682Y008792D02*
X006172Y008792D01*
X006172Y008911D02*
X004682Y008911D01*
X004682Y009029D02*
X006291Y009029D01*
X006409Y009148D02*
X004682Y009148D01*
X004682Y009266D02*
X006528Y009266D01*
X006646Y009385D02*
X004682Y009385D01*
X004682Y009503D02*
X006765Y009503D01*
X006883Y009622D02*
X004682Y009622D01*
X004682Y009740D02*
X007002Y009740D01*
X007120Y009859D02*
X004682Y009859D01*
X004682Y009977D02*
X007239Y009977D01*
X007422Y009920D02*
X006342Y008840D01*
X007422Y009920D02*
X007904Y009920D01*
X007909Y009925D01*
X007909Y010122D02*
X007483Y010122D01*
X007483Y010090D01*
X007909Y010318D02*
X007909Y010515D01*
X007533Y010688D02*
X007515Y010688D01*
X007022Y010820D02*
X007022Y011720D01*
X007082Y011780D01*
X007038Y011790D02*
X007022Y011774D01*
X007022Y011720D01*
X008413Y012703D02*
X008733Y012703D01*
X008733Y012821D02*
X008294Y012821D01*
X008176Y012940D02*
X008708Y012940D01*
X008589Y013058D02*
X008057Y013058D01*
X007939Y013177D02*
X008471Y013177D01*
X008352Y013295D02*
X007820Y013295D01*
X007702Y013414D02*
X008234Y013414D01*
X008115Y013532D02*
X007583Y013532D01*
X007465Y013651D02*
X007997Y013651D01*
X007878Y013769D02*
X007346Y013769D01*
X007228Y013888D02*
X007760Y013888D01*
X007641Y014006D02*
X007109Y014006D01*
X006991Y014125D02*
X007523Y014125D01*
X007404Y014243D02*
X006872Y014243D01*
X006754Y014362D02*
X007286Y014362D01*
X007167Y014480D02*
X006635Y014480D01*
X006517Y014599D02*
X007049Y014599D01*
X007264Y014836D02*
X007282Y014836D01*
X007268Y014954D02*
X007282Y014954D01*
X007282Y015073D02*
X007257Y015073D01*
X007282Y015191D02*
X007202Y015191D01*
X007282Y015310D02*
X007048Y015310D01*
X007203Y015428D02*
X005614Y015428D01*
X005562Y015310D02*
X005770Y015310D01*
X005615Y015191D02*
X005562Y015191D01*
X005732Y015547D02*
X007085Y015547D01*
X007300Y015784D02*
X007559Y015784D01*
X007518Y015902D02*
X007268Y015902D01*
X007268Y016021D02*
X007518Y016021D01*
X007563Y016139D02*
X007223Y016139D01*
X007120Y016258D02*
X007666Y016258D01*
X008104Y016258D02*
X008650Y016258D01*
X008547Y016139D02*
X008207Y016139D01*
X008253Y016021D02*
X008502Y016021D01*
X008502Y015902D02*
X008253Y015902D01*
X008285Y015784D02*
X008543Y015784D01*
X008641Y015665D02*
X008403Y015665D01*
X008522Y015547D02*
X009053Y015547D01*
X009172Y015428D02*
X008640Y015428D01*
X008759Y015310D02*
X009290Y015310D01*
X009409Y015191D02*
X008877Y015191D01*
X008996Y015073D02*
X009521Y015073D01*
X009521Y014954D02*
X009114Y014954D01*
X009233Y014836D02*
X009521Y014836D01*
X009521Y014717D02*
X009351Y014717D01*
X009470Y014599D02*
X009521Y014599D01*
X009254Y014362D02*
X008722Y014362D01*
X008604Y014480D02*
X009136Y014480D01*
X009017Y014599D02*
X008485Y014599D01*
X008367Y014717D02*
X008899Y014717D01*
X008780Y014836D02*
X008248Y014836D01*
X008253Y014954D02*
X008662Y014954D01*
X008543Y015073D02*
X008241Y015073D01*
X008186Y015191D02*
X008425Y015191D01*
X008306Y015310D02*
X008032Y015310D01*
X008188Y015428D02*
X007602Y015428D01*
X007602Y015310D02*
X007738Y015310D01*
X007537Y015547D02*
X008069Y015547D01*
X007657Y015665D02*
X007419Y015665D01*
X007509Y015575D02*
X007509Y015575D01*
X006754Y015310D02*
X006063Y015310D01*
X006218Y015191D02*
X006600Y015191D01*
X006544Y015073D02*
X006273Y015073D01*
X006284Y014954D02*
X006533Y014954D01*
X006560Y014836D02*
X006280Y014836D01*
X006398Y014717D02*
X006637Y014717D01*
X006673Y015665D02*
X006144Y015665D01*
X006243Y015784D02*
X006575Y015784D01*
X006533Y015902D02*
X006284Y015902D01*
X006284Y016021D02*
X006533Y016021D01*
X006578Y016139D02*
X006239Y016139D01*
X006136Y016258D02*
X006682Y016258D01*
X004682Y016495D02*
X013492Y016495D01*
X013492Y016613D02*
X004682Y016613D01*
X004682Y016732D02*
X013492Y016732D01*
X013492Y016850D02*
X004682Y016850D01*
X004682Y016969D02*
X013492Y016969D01*
X013492Y017087D02*
X004682Y017087D01*
X004682Y017206D02*
X013492Y017206D01*
X013492Y017324D02*
X004682Y017324D01*
X004682Y017443D02*
X013492Y017443D01*
X013492Y017561D02*
X004682Y017561D01*
X004682Y017680D02*
X013492Y017680D01*
X013492Y017798D02*
X004682Y017798D01*
X004682Y017917D02*
X013492Y017917D01*
X013492Y018035D02*
X004682Y018035D01*
X004682Y018154D02*
X013492Y018154D01*
X013492Y018272D02*
X004682Y018272D01*
X004682Y018391D02*
X013492Y018391D01*
X013492Y018509D02*
X004682Y018509D01*
X004682Y018628D02*
X013492Y018628D01*
X013492Y018746D02*
X004682Y018746D01*
X004682Y018865D02*
X013492Y018865D01*
X013492Y018983D02*
X004682Y018983D01*
X004682Y019102D02*
X013492Y019102D01*
X013492Y019220D02*
X004682Y019220D01*
X004682Y019339D02*
X013492Y019339D01*
X013492Y019457D02*
X004682Y019457D01*
X004682Y019576D02*
X013492Y019576D01*
X013492Y019590D02*
X013492Y009407D01*
X013439Y009385D01*
X011784Y009385D01*
X011903Y009266D02*
X013342Y009266D01*
X013358Y009303D02*
X013314Y009197D01*
X013314Y009083D01*
X013358Y008977D01*
X013439Y008895D01*
X013545Y008852D01*
X013660Y008852D01*
X013766Y008895D01*
X013847Y008977D01*
X013891Y009083D01*
X013891Y009197D01*
X013847Y009303D01*
X013832Y009318D01*
X013832Y019450D01*
X013973Y019590D01*
X014092Y019590D01*
X013952Y019450D01*
X013852Y019350D01*
X013852Y011410D01*
X014094Y011168D01*
X014094Y011063D01*
X014138Y010957D01*
X014219Y010875D01*
X014325Y010832D01*
X014440Y010832D01*
X014546Y010875D01*
X014627Y010957D01*
X014671Y011063D01*
X014671Y011177D01*
X014627Y011283D01*
X014546Y011365D01*
X014440Y011408D01*
X014334Y011408D01*
X014192Y011550D01*
X014192Y019210D01*
X014333Y019350D01*
X018833Y019350D01*
X018932Y019450D01*
X019048Y019565D01*
X019148Y019665D01*
X019148Y020019D01*
X019388Y020259D01*
X019388Y020599D01*
X019257Y020730D01*
X019698Y020730D01*
X019568Y020599D01*
X019568Y020259D01*
X019808Y020019D01*
X020147Y020019D01*
X020388Y020259D01*
X020388Y020599D01*
X020257Y020730D01*
X020698Y020730D01*
X020568Y020599D01*
X020568Y020259D01*
X020808Y020019D01*
X021147Y020019D01*
X021388Y020259D01*
X021388Y020599D01*
X021257Y020730D01*
X021698Y020730D01*
X021568Y020599D01*
X021568Y020259D01*
X021808Y020019D01*
X022147Y020019D01*
X022388Y020259D01*
X022388Y020599D01*
X022257Y020730D01*
X022698Y020730D01*
X022568Y020599D01*
X022568Y020259D01*
X022808Y020019D01*
X023147Y020019D01*
X023388Y020259D01*
X023388Y020599D01*
X023257Y020730D01*
X023698Y020730D01*
X023568Y020599D01*
X023568Y020259D01*
X023808Y020019D01*
X023812Y020019D01*
X023812Y018570D01*
X022652Y017410D01*
X022552Y017310D01*
X022552Y008658D01*
X022478Y008583D01*
X022434Y008477D01*
X022434Y008363D01*
X022478Y008257D01*
X022559Y008175D01*
X022665Y008132D01*
X022780Y008132D01*
X022886Y008175D01*
X022967Y008257D01*
X023011Y008363D01*
X023011Y008477D01*
X022967Y008583D01*
X022892Y008658D01*
X022892Y017170D01*
X024152Y018430D01*
X024152Y020024D01*
X024388Y020259D01*
X024388Y020599D01*
X024257Y020730D01*
X024698Y020730D01*
X024568Y020599D01*
X024568Y020259D01*
X024808Y020019D01*
X024808Y018486D01*
X023192Y016870D01*
X023092Y016770D01*
X023092Y007808D01*
X023085Y007808D01*
X022979Y007765D01*
X022898Y007683D01*
X022854Y007577D01*
X022854Y007463D01*
X022898Y007357D01*
X022979Y007275D01*
X023085Y007232D01*
X023200Y007232D01*
X023306Y007275D01*
X023387Y007357D01*
X023431Y007463D01*
X023431Y007568D01*
X023432Y007570D01*
X023432Y014659D01*
X023483Y014608D01*
X023622Y014551D01*
X023622Y006327D01*
X023543Y006294D01*
X023419Y006170D01*
X023352Y006009D01*
X023352Y005834D01*
X023419Y005672D01*
X023543Y005548D01*
X023622Y005515D01*
X023622Y005100D01*
X023452Y004930D01*
X023113Y004930D01*
X021013Y007030D01*
X020713Y007030D01*
X020092Y007650D01*
X020092Y008620D01*
X020064Y008648D01*
X020064Y008898D01*
X019999Y008963D01*
X018933Y008963D01*
X018947Y008977D01*
X018991Y009083D01*
X018991Y009197D01*
X018947Y009303D01*
X018936Y009314D01*
X019023Y009401D01*
X020100Y009401D01*
X020100Y009063D01*
X020164Y008998D01*
X020787Y008998D01*
X020851Y009063D01*
X020851Y009204D01*
X021278Y009204D01*
X021592Y008890D01*
X021592Y007690D01*
X021692Y007590D01*
X022374Y006908D01*
X022374Y006803D01*
X022418Y006697D01*
X022499Y006615D01*
X022605Y006572D01*
X022720Y006572D01*
X022826Y006615D01*
X022907Y006697D01*
X022951Y006803D01*
X022951Y006917D01*
X022907Y007023D01*
X022826Y007105D01*
X022720Y007148D01*
X022614Y007148D01*
X021932Y007830D01*
X021932Y009030D01*
X021518Y009445D01*
X021419Y009544D01*
X020851Y009544D01*
X020851Y011457D01*
X020787Y011522D01*
X020164Y011522D01*
X020100Y011457D01*
X020100Y009938D01*
X020043Y009938D01*
X019892Y010088D01*
X019892Y010882D01*
X019967Y010957D01*
X020011Y011063D01*
X020011Y011177D01*
X019967Y011283D01*
X019886Y011365D01*
X019780Y011408D01*
X019665Y011408D01*
X019559Y011365D01*
X019478Y011283D01*
X019434Y011177D01*
X019434Y011063D01*
X019478Y010957D01*
X019552Y010882D01*
X019552Y009947D01*
X019652Y009848D01*
X019759Y009741D01*
X019384Y009741D01*
X019385Y009742D01*
X019385Y010778D01*
X019320Y010842D01*
X018284Y010842D01*
X018220Y010778D01*
X018220Y009742D01*
X018284Y009678D01*
X018818Y009678D01*
X018632Y009491D01*
X018532Y009391D01*
X018532Y009378D01*
X018458Y009303D01*
X018414Y009197D01*
X018414Y009083D01*
X018458Y008977D01*
X018472Y008963D01*
X017682Y008963D01*
X017682Y009486D01*
X017589Y009580D01*
X017505Y009580D01*
X017505Y009976D01*
X017523Y009994D01*
X017544Y010031D01*
X017555Y010072D01*
X017555Y010162D01*
X017555Y010252D01*
X017544Y010292D01*
X017523Y010329D01*
X017505Y010347D01*
X017505Y010779D01*
X017542Y010779D01*
X017653Y010890D01*
X017752Y010990D01*
X017752Y011550D01*
X017745Y011557D01*
X019999Y011557D01*
X020064Y011622D01*
X020064Y012245D01*
X020045Y012263D01*
X020045Y013036D01*
X021759Y014750D01*
X021848Y014661D01*
X021983Y014605D01*
X022129Y014605D01*
X022264Y014661D01*
X022368Y014764D01*
X022424Y014900D01*
X022424Y015046D01*
X022368Y015181D01*
X022264Y015284D01*
X022129Y015340D01*
X021983Y015340D01*
X021848Y015284D01*
X021762Y015198D01*
X021762Y015437D01*
X021935Y015609D01*
X021983Y015589D01*
X022129Y015589D01*
X022264Y015645D01*
X022368Y015749D01*
X022424Y015884D01*
X022424Y016030D01*
X022368Y016165D01*
X022264Y016268D01*
X022129Y016324D01*
X021983Y016324D01*
X021848Y016268D01*
X021745Y016165D01*
X021689Y016030D01*
X021689Y015884D01*
X021709Y015836D01*
X021536Y015663D01*
X021442Y015569D01*
X021442Y014886D01*
X021428Y014872D01*
X021440Y014900D01*
X021440Y015046D01*
X021384Y015181D01*
X021280Y015284D01*
X021145Y015340D01*
X020999Y015340D01*
X020864Y015284D01*
X020761Y015181D01*
X020705Y015046D01*
X020705Y014900D01*
X020725Y014851D01*
X019651Y013778D01*
X019651Y014310D01*
X020951Y015609D01*
X020999Y015589D01*
X021145Y015589D01*
X021280Y015645D01*
X021384Y015749D01*
X021440Y015884D01*
X021440Y016030D01*
X021384Y016165D01*
X021280Y016268D01*
X021145Y016324D01*
X020999Y016324D01*
X020864Y016268D01*
X020761Y016165D01*
X020705Y016030D01*
X020705Y015884D01*
X020725Y015836D01*
X019454Y014565D01*
X019454Y015097D01*
X019967Y015609D01*
X020015Y015589D01*
X020161Y015589D01*
X020296Y015645D01*
X020399Y015749D01*
X020455Y015884D01*
X020455Y016030D01*
X020399Y016165D01*
X020296Y016268D01*
X020161Y016324D01*
X020015Y016324D01*
X019880Y016268D01*
X019776Y016165D01*
X019720Y016030D01*
X019720Y015884D01*
X019740Y015836D01*
X019258Y015353D01*
X019258Y015623D01*
X019312Y015645D01*
X019415Y015749D01*
X019471Y015884D01*
X019471Y016030D01*
X019415Y016165D01*
X019312Y016268D01*
X019177Y016324D01*
X019030Y016324D01*
X018895Y016268D01*
X018792Y016165D01*
X018736Y016030D01*
X018736Y015884D01*
X018792Y015749D01*
X018895Y015645D01*
X018938Y015628D01*
X018938Y015365D01*
X018467Y015836D01*
X018487Y015884D01*
X018487Y016030D01*
X018431Y016165D01*
X018327Y016268D01*
X018192Y016324D01*
X018046Y016324D01*
X017911Y016268D01*
X017808Y016165D01*
X017752Y016030D01*
X017752Y015884D01*
X017808Y015749D01*
X017911Y015645D01*
X018046Y015589D01*
X018192Y015589D01*
X018241Y015609D01*
X018741Y015109D01*
X018741Y014577D01*
X017483Y015836D01*
X017503Y015884D01*
X017503Y016030D01*
X017447Y016165D01*
X017343Y016268D01*
X017208Y016324D01*
X017062Y016324D01*
X016927Y016268D01*
X016824Y016165D01*
X016768Y016030D01*
X016768Y015884D01*
X016824Y015749D01*
X016927Y015645D01*
X017062Y015589D01*
X017208Y015589D01*
X017256Y015609D01*
X018544Y014322D01*
X018544Y013790D01*
X017483Y014851D01*
X017503Y014900D01*
X017503Y015046D01*
X017447Y015181D01*
X017343Y015284D01*
X017208Y015340D01*
X017062Y015340D01*
X016927Y015284D01*
X016842Y015200D01*
X016842Y015492D01*
X016749Y015585D01*
X016498Y015836D01*
X016518Y015884D01*
X016518Y016030D01*
X016462Y016165D01*
X016359Y016268D01*
X016224Y016324D01*
X016078Y016324D01*
X015943Y016268D01*
X015839Y016165D01*
X015783Y016030D01*
X015783Y015884D01*
X015839Y015749D01*
X015943Y015645D01*
X016078Y015589D01*
X016224Y015589D01*
X016272Y015609D01*
X016522Y015359D01*
X016522Y014827D01*
X016498Y014851D01*
X016518Y014900D01*
X016518Y015046D01*
X016462Y015181D01*
X016359Y015284D01*
X016224Y015340D01*
X016078Y015340D01*
X015943Y015284D01*
X015839Y015181D01*
X015783Y015046D01*
X015783Y014900D01*
X015839Y014764D01*
X015943Y014661D01*
X016078Y014605D01*
X016224Y014605D01*
X016272Y014625D01*
X017953Y012944D01*
X017953Y012412D01*
X015514Y014851D01*
X015534Y014900D01*
X015534Y015046D01*
X015478Y015181D01*
X015375Y015284D01*
X015240Y015340D01*
X015093Y015340D01*
X014958Y015284D01*
X014855Y015181D01*
X014842Y015150D01*
X014842Y015406D01*
X015045Y015609D01*
X015093Y015589D01*
X015240Y015589D01*
X015375Y015645D01*
X015478Y015749D01*
X015534Y015884D01*
X015534Y016030D01*
X015478Y016165D01*
X015375Y016268D01*
X015240Y016324D01*
X015093Y016324D01*
X014958Y016268D01*
X014855Y016165D01*
X014799Y016030D01*
X014799Y015884D01*
X014819Y015836D01*
X014616Y015633D01*
X014522Y015539D01*
X014522Y014694D01*
X017020Y012196D01*
X016734Y012196D01*
X016669Y012132D01*
X016669Y011568D01*
X016734Y011504D01*
X016800Y011504D01*
X016753Y011457D01*
X016753Y010725D01*
X016717Y010725D01*
X016693Y010750D01*
X016548Y010750D01*
X016398Y010900D01*
X016398Y011504D01*
X016431Y011504D01*
X016495Y011568D01*
X016495Y012132D01*
X016432Y012195D01*
X016432Y012570D01*
X016209Y012794D01*
X016210Y012799D01*
X016210Y012921D01*
X016163Y013035D01*
X016077Y013121D01*
X015964Y013168D01*
X015841Y013168D01*
X015728Y013121D01*
X015641Y013035D01*
X015594Y012921D01*
X015594Y012799D01*
X015641Y012685D01*
X015728Y012599D01*
X015841Y012552D01*
X015964Y012552D01*
X015968Y012554D01*
X016092Y012430D01*
X016092Y012196D01*
X016025Y012196D01*
X015960Y012132D01*
X015960Y011568D01*
X016025Y011504D01*
X016058Y011504D01*
X016058Y010760D01*
X016158Y010660D01*
X016308Y010510D01*
X016308Y010510D01*
X016408Y010410D01*
X016552Y010410D01*
X016577Y010385D01*
X016753Y010385D01*
X016753Y010347D01*
X016735Y010329D01*
X016714Y010292D01*
X016703Y010252D01*
X016703Y010162D01*
X017129Y010162D01*
X017129Y010162D01*
X017555Y010162D01*
X017129Y010162D01*
X017129Y010162D01*
X015781Y010162D01*
X015682Y010260D01*
X015903Y010096D02*
X013832Y010096D01*
X013832Y010214D02*
X016703Y010214D01*
X016703Y010162D02*
X016703Y010135D01*
X015942Y010135D01*
X015692Y009885D01*
X015592Y009785D01*
X015592Y008238D01*
X015518Y008163D01*
X015474Y008057D01*
X015474Y007943D01*
X015518Y007837D01*
X015599Y007755D01*
X015705Y007712D01*
X015820Y007712D01*
X015926Y007755D01*
X016007Y007837D01*
X016012Y007850D01*
X016012Y007758D01*
X015938Y007683D01*
X015894Y007577D01*
X015894Y007463D01*
X015938Y007357D01*
X016019Y007275D01*
X016125Y007232D01*
X016240Y007232D01*
X016346Y007275D01*
X016427Y007357D01*
X016471Y007463D01*
X016471Y007577D01*
X016427Y007683D01*
X016352Y007758D01*
X016352Y008202D01*
X016379Y008175D01*
X016485Y008132D01*
X016600Y008132D01*
X016706Y008175D01*
X016787Y008257D01*
X016831Y008363D01*
X016831Y008477D01*
X016787Y008583D01*
X016712Y008658D01*
X016712Y009310D01*
X016753Y009351D01*
X016753Y009063D01*
X016818Y008998D01*
X017362Y008998D01*
X017362Y008106D01*
X014036Y004780D01*
X014235Y004526D02*
X015320Y004526D01*
X015288Y004493D02*
X015240Y004513D01*
X015093Y004513D01*
X014958Y004457D01*
X014855Y004354D01*
X014799Y004219D01*
X014799Y004073D01*
X014855Y003938D01*
X014958Y003834D01*
X015093Y003778D01*
X015240Y003778D01*
X015375Y003834D01*
X015478Y003938D01*
X015534Y004073D01*
X015534Y004219D01*
X015514Y004267D01*
X015789Y004542D01*
X015882Y004635D01*
X015882Y004879D01*
X015943Y004819D01*
X016078Y004763D01*
X016224Y004763D01*
X016359Y004819D01*
X016462Y004922D01*
X016518Y005057D01*
X016518Y005203D01*
X016498Y005251D01*
X016642Y005395D01*
X016642Y004864D01*
X016272Y004493D01*
X016224Y004513D01*
X016078Y004513D01*
X015943Y004457D01*
X015839Y004354D01*
X015783Y004219D01*
X015783Y004073D01*
X015839Y003938D01*
X015943Y003834D01*
X016078Y003778D01*
X016224Y003778D01*
X016359Y003834D01*
X016462Y003938D01*
X016518Y004073D01*
X016518Y004219D01*
X016498Y004267D01*
X016869Y004637D01*
X016962Y004731D01*
X016962Y005394D01*
X017002Y005434D01*
X017002Y004489D01*
X016927Y004457D01*
X016824Y004354D01*
X016768Y004219D01*
X016768Y004073D01*
X016824Y003938D01*
X016927Y003834D01*
X017062Y003778D01*
X017208Y003778D01*
X017343Y003834D01*
X017447Y003938D01*
X017503Y004073D01*
X017503Y004219D01*
X017447Y004354D01*
X017343Y004457D01*
X017322Y004466D01*
X017322Y005394D01*
X017962Y006034D01*
X017962Y004479D01*
X017911Y004457D01*
X017808Y004354D01*
X017752Y004219D01*
X017752Y004073D01*
X017808Y003938D01*
X017911Y003834D01*
X018046Y003778D01*
X018192Y003778D01*
X018327Y003834D01*
X018431Y003938D01*
X018487Y004073D01*
X018487Y004219D01*
X018431Y004354D01*
X018327Y004457D01*
X018282Y004476D01*
X018282Y006114D01*
X018770Y006602D01*
X018782Y006614D01*
X018834Y006562D01*
X018922Y006474D01*
X018922Y004469D01*
X018895Y004457D01*
X018792Y004354D01*
X018736Y004219D01*
X018736Y004073D01*
X018792Y003938D01*
X018895Y003834D01*
X019030Y003778D01*
X019177Y003778D01*
X019312Y003834D01*
X019415Y003938D01*
X019471Y004073D01*
X019471Y004219D01*
X019415Y004354D01*
X019312Y004457D01*
X019242Y004486D01*
X019242Y005749D01*
X019256Y005736D01*
X019740Y005251D01*
X019720Y005203D01*
X019720Y005057D01*
X019776Y004922D01*
X019880Y004819D01*
X020015Y004763D01*
X020161Y004763D01*
X020296Y004819D01*
X020399Y004922D01*
X020455Y005057D01*
X020455Y005061D01*
X020482Y005034D01*
X020482Y004767D01*
X020209Y004493D01*
X020161Y004513D01*
X020015Y004513D01*
X019880Y004457D01*
X019776Y004354D01*
X019720Y004219D01*
X019720Y004073D01*
X019776Y003938D01*
X019880Y003834D01*
X020015Y003778D01*
X020161Y003778D01*
X020296Y003834D01*
X020399Y003938D01*
X020455Y004073D01*
X020455Y004219D01*
X020435Y004267D01*
X020709Y004540D01*
X020802Y004634D01*
X020802Y004880D01*
X020864Y004819D01*
X020999Y004763D01*
X021145Y004763D01*
X021280Y004819D01*
X021384Y004922D01*
X021440Y005057D01*
X021440Y005203D01*
X021398Y005304D01*
X022230Y004471D01*
X022129Y004513D01*
X021983Y004513D01*
X021848Y004457D01*
X021745Y004354D01*
X021689Y004219D01*
X021689Y004073D01*
X021745Y003938D01*
X021848Y003834D01*
X021983Y003778D01*
X022129Y003778D01*
X022264Y003834D01*
X022368Y003938D01*
X022424Y004073D01*
X022424Y004219D01*
X022382Y004320D01*
X022512Y004190D01*
X022612Y004090D01*
X025313Y004090D01*
X025563Y004340D01*
X025662Y004440D01*
X025662Y004753D01*
X025742Y004786D01*
X025865Y004909D01*
X025932Y005071D01*
X025932Y005246D01*
X025865Y005408D01*
X025742Y005532D01*
X025662Y005565D01*
X025662Y013838D01*
X025682Y013846D01*
X025805Y013969D01*
X025808Y013975D01*
X025808Y008248D01*
X025799Y008245D01*
X025718Y008163D01*
X025674Y008057D01*
X025674Y007943D01*
X025718Y007837D01*
X025799Y007755D01*
X025905Y007712D01*
X026020Y007712D01*
X026126Y007755D01*
X026207Y007837D01*
X026251Y007943D01*
X026251Y008057D01*
X026207Y008163D01*
X026148Y008223D01*
X026148Y020019D01*
X026388Y020259D01*
X026388Y020599D01*
X026257Y020730D01*
X026698Y020730D01*
X026568Y020599D01*
X026568Y020259D01*
X026808Y020019D01*
X027147Y020019D01*
X027388Y020259D01*
X027388Y020574D01*
X028272Y019690D01*
X028272Y019690D01*
X028372Y019590D01*
X034612Y019590D01*
X034632Y019570D01*
X034732Y019470D01*
X044032Y019470D01*
X044172Y019330D01*
X044172Y009570D01*
X044032Y009430D01*
X041831Y009430D01*
X041831Y011337D01*
X041767Y011402D01*
X041144Y011402D01*
X041080Y011337D01*
X041080Y009818D01*
X041043Y009818D01*
X040892Y009968D01*
X040892Y010882D01*
X040967Y010957D01*
X041011Y011063D01*
X041011Y011177D01*
X040967Y011283D01*
X040886Y011365D01*
X040780Y011408D01*
X040665Y011408D01*
X040559Y011365D01*
X040478Y011283D01*
X040434Y011177D01*
X040434Y011063D01*
X040478Y010957D01*
X040552Y010882D01*
X040552Y009827D01*
X040652Y009728D01*
X040759Y009621D01*
X040364Y009621D01*
X040365Y009622D01*
X040365Y010658D01*
X040300Y010722D01*
X039264Y010722D01*
X039200Y010658D01*
X039200Y009622D01*
X039264Y009558D01*
X039878Y009558D01*
X039749Y009428D01*
X039705Y009428D01*
X039599Y009385D01*
X038673Y009385D01*
X038674Y009384D02*
X038629Y009419D01*
X038589Y009460D01*
X038578Y009460D01*
X038571Y009466D01*
X038513Y009460D01*
X038485Y009460D01*
X038485Y009856D01*
X038503Y009874D01*
X038524Y009911D01*
X038535Y009952D01*
X038535Y010042D01*
X038535Y010132D01*
X038524Y010172D01*
X038503Y010209D01*
X038485Y010227D01*
X038485Y010659D01*
X038542Y010659D01*
X038653Y010770D01*
X038752Y010870D01*
X038752Y011430D01*
X038745Y011437D01*
X040979Y011437D01*
X041044Y011502D01*
X041044Y012125D01*
X041025Y012143D01*
X041025Y013026D01*
X042821Y014822D01*
X042845Y014764D01*
X042948Y014661D01*
X043083Y014605D01*
X043229Y014605D01*
X043364Y014661D01*
X043468Y014764D01*
X043524Y014900D01*
X043524Y015046D01*
X043468Y015181D01*
X043364Y015284D01*
X043229Y015340D01*
X043083Y015340D01*
X042948Y015284D01*
X042942Y015278D01*
X042942Y015517D01*
X043035Y015609D01*
X043083Y015589D01*
X043229Y015589D01*
X043364Y015645D01*
X043468Y015749D01*
X043524Y015884D01*
X043524Y016030D01*
X043468Y016165D01*
X043364Y016268D01*
X043229Y016324D01*
X043083Y016324D01*
X042948Y016268D01*
X042845Y016165D01*
X042789Y016030D01*
X042789Y015884D01*
X042809Y015836D01*
X042716Y015743D01*
X042622Y015649D01*
X042622Y015076D01*
X042540Y014994D01*
X042540Y015046D01*
X042484Y015181D01*
X042380Y015284D01*
X042245Y015340D01*
X042099Y015340D01*
X042051Y015320D01*
X041951Y015420D01*
X041716Y015420D01*
X041622Y015326D01*
X040631Y014335D01*
X040631Y014383D01*
X041929Y015680D01*
X041964Y015645D01*
X042099Y015589D01*
X042245Y015589D01*
X042380Y015645D01*
X042484Y015749D01*
X042540Y015884D01*
X042540Y016030D01*
X042484Y016165D01*
X042380Y016268D01*
X042245Y016324D01*
X042099Y016324D01*
X041964Y016268D01*
X041861Y016165D01*
X041805Y016030D01*
X041805Y016009D01*
X040434Y014638D01*
X040434Y014977D01*
X041067Y015609D01*
X041115Y015589D01*
X041261Y015589D01*
X041396Y015645D01*
X041499Y015749D01*
X041555Y015884D01*
X041555Y016030D01*
X041499Y016165D01*
X041396Y016268D01*
X041261Y016324D01*
X041115Y016324D01*
X040980Y016268D01*
X040876Y016165D01*
X040820Y016030D01*
X040820Y015884D01*
X040840Y015836D01*
X040238Y015233D01*
X040238Y015589D01*
X040277Y015589D01*
X040412Y015645D01*
X040515Y015749D01*
X040571Y015884D01*
X040571Y016030D01*
X040515Y016165D01*
X040412Y016268D01*
X040277Y016324D01*
X040130Y016324D01*
X039995Y016268D01*
X039892Y016165D01*
X039836Y016030D01*
X039836Y015884D01*
X039892Y015749D01*
X039918Y015723D01*
X039918Y015485D01*
X039567Y015836D01*
X039587Y015884D01*
X039587Y016030D01*
X039531Y016165D01*
X039427Y016268D01*
X039292Y016324D01*
X039146Y016324D01*
X039011Y016268D01*
X038908Y016165D01*
X038852Y016030D01*
X038852Y015884D01*
X038908Y015749D01*
X039011Y015645D01*
X039146Y015589D01*
X039292Y015589D01*
X039341Y015609D01*
X039721Y015229D01*
X039721Y014697D01*
X038583Y015836D01*
X038603Y015884D01*
X038603Y016030D01*
X038547Y016165D01*
X038443Y016268D01*
X038308Y016324D01*
X038162Y016324D01*
X038027Y016268D01*
X037924Y016165D01*
X037868Y016030D01*
X037868Y015884D01*
X037924Y015749D01*
X038027Y015645D01*
X038162Y015589D01*
X038308Y015589D01*
X038356Y015609D01*
X038536Y015430D01*
X038452Y015430D01*
X038346Y015324D01*
X038308Y015340D01*
X038162Y015340D01*
X038027Y015284D01*
X037942Y015200D01*
X037942Y015326D01*
X037849Y015420D01*
X037541Y015727D01*
X037562Y015749D01*
X037618Y015884D01*
X037618Y016030D01*
X037562Y016165D01*
X037459Y016268D01*
X037324Y016324D01*
X037178Y016324D01*
X037043Y016268D01*
X036939Y016165D01*
X036883Y016030D01*
X036883Y015884D01*
X036939Y015749D01*
X037043Y015645D01*
X037178Y015589D01*
X037227Y015589D01*
X037622Y015194D01*
X037622Y014827D01*
X037598Y014851D01*
X037618Y014900D01*
X037618Y015046D01*
X037562Y015181D01*
X037459Y015284D01*
X037324Y015340D01*
X037178Y015340D01*
X037043Y015284D01*
X036939Y015181D01*
X036883Y015046D01*
X036883Y014900D01*
X036939Y014764D01*
X037043Y014661D01*
X037178Y014605D01*
X037324Y014605D01*
X037372Y014625D01*
X038933Y013064D01*
X038933Y012532D01*
X036614Y014851D01*
X036634Y014900D01*
X036634Y015046D01*
X036578Y015181D01*
X036475Y015284D01*
X036340Y015340D01*
X036193Y015340D01*
X036058Y015284D01*
X035955Y015181D01*
X035942Y015150D01*
X035942Y015406D01*
X036145Y015609D01*
X036193Y015589D01*
X036340Y015589D01*
X036475Y015645D01*
X036578Y015749D01*
X036634Y015884D01*
X036634Y016030D01*
X036578Y016165D01*
X036475Y016268D01*
X036340Y016324D01*
X036193Y016324D01*
X036058Y016268D01*
X035955Y016165D01*
X035899Y016030D01*
X035899Y015884D01*
X035919Y015836D01*
X035622Y015539D01*
X035622Y014694D01*
X035716Y014600D01*
X037091Y013225D01*
X037084Y013228D01*
X036961Y013228D01*
X036848Y013181D01*
X036761Y013095D01*
X036714Y012981D01*
X036714Y012859D01*
X036761Y012745D01*
X036848Y012659D01*
X036961Y012612D01*
X037084Y012612D01*
X037088Y012614D01*
X037238Y012464D01*
X037238Y012076D01*
X037205Y012076D01*
X037140Y012012D01*
X037140Y011448D01*
X037205Y011384D01*
X037238Y011384D01*
X037238Y010664D01*
X037338Y010564D01*
X037612Y010290D01*
X037733Y010290D01*
X037733Y010227D01*
X037715Y010209D01*
X037694Y010172D01*
X037683Y010132D01*
X037683Y010042D01*
X038109Y010042D01*
X038109Y010042D01*
X038535Y010042D01*
X038109Y010042D01*
X038109Y010042D01*
X036401Y010042D01*
X036182Y010260D01*
X036762Y009740D02*
X032571Y009740D01*
X032571Y009622D02*
X036643Y009622D01*
X036532Y009510D02*
X036532Y008238D01*
X036458Y008163D01*
X036414Y008057D01*
X036414Y007943D01*
X036458Y007837D01*
X036539Y007755D01*
X036645Y007712D01*
X036760Y007712D01*
X036805Y007730D01*
X036758Y007683D01*
X036714Y007577D01*
X036714Y007463D01*
X036758Y007357D01*
X036839Y007275D01*
X036945Y007232D01*
X037060Y007232D01*
X037166Y007275D01*
X037247Y007357D01*
X037291Y007463D01*
X037291Y007577D01*
X037247Y007683D01*
X037172Y007758D01*
X037172Y009327D01*
X037323Y009478D01*
X037519Y009478D01*
X037312Y009271D01*
X037312Y008658D01*
X037238Y008583D01*
X037194Y008477D01*
X037194Y008363D01*
X037238Y008257D01*
X037319Y008175D01*
X037425Y008132D01*
X037540Y008132D01*
X037646Y008175D01*
X037727Y008257D01*
X037771Y008363D01*
X037771Y008477D01*
X037727Y008583D01*
X037652Y008658D01*
X037652Y009131D01*
X037733Y009212D01*
X037733Y008943D01*
X037798Y008878D01*
X038362Y008878D01*
X038362Y008046D01*
X035736Y005420D01*
X034249Y005420D01*
X033342Y006326D01*
X033342Y009076D01*
X033249Y009170D01*
X032999Y009420D01*
X032616Y009420D01*
X032610Y009414D01*
X032571Y009414D01*
X032571Y011337D01*
X032507Y011402D01*
X031884Y011402D01*
X031820Y011337D01*
X031820Y009818D01*
X031743Y009818D01*
X031592Y009968D01*
X031592Y010882D01*
X031667Y010957D01*
X031711Y011063D01*
X031711Y011177D01*
X031667Y011283D01*
X031586Y011365D01*
X031480Y011408D01*
X031365Y011408D01*
X031259Y011365D01*
X031178Y011283D01*
X031134Y011177D01*
X031134Y011063D01*
X031178Y010957D01*
X031252Y010882D01*
X031252Y009827D01*
X031352Y009728D01*
X031459Y009621D01*
X031104Y009621D01*
X031105Y009622D01*
X031105Y010658D01*
X031040Y010722D01*
X030004Y010722D01*
X029940Y010658D01*
X029940Y009622D01*
X030004Y009558D01*
X030578Y009558D01*
X030449Y009428D01*
X030405Y009428D01*
X030299Y009385D01*
X029318Y009385D01*
X029333Y009370D02*
X029273Y009430D01*
X029225Y009430D01*
X029225Y009856D01*
X029243Y009874D01*
X029264Y009911D01*
X029275Y009952D01*
X029275Y010042D01*
X029275Y010132D01*
X029264Y010172D01*
X029243Y010209D01*
X029225Y010227D01*
X029225Y010650D01*
X029233Y010650D01*
X029353Y010770D01*
X029452Y010870D01*
X029452Y011430D01*
X029445Y011437D01*
X029554Y011437D01*
X031719Y011437D01*
X031784Y011502D01*
X031784Y012125D01*
X031765Y012143D01*
X031765Y013036D01*
X033565Y014836D01*
X033595Y014764D01*
X033698Y014661D01*
X033833Y014605D01*
X033979Y014605D01*
X034114Y014661D01*
X034218Y014764D01*
X034274Y014900D01*
X034274Y015046D01*
X034218Y015181D01*
X034114Y015284D01*
X033979Y015340D01*
X033833Y015340D01*
X033698Y015284D01*
X033602Y015188D01*
X033602Y015354D01*
X033838Y015589D01*
X033979Y015589D01*
X034114Y015645D01*
X034218Y015749D01*
X034274Y015884D01*
X034274Y016030D01*
X034218Y016165D01*
X034114Y016268D01*
X033979Y016324D01*
X033833Y016324D01*
X033698Y016268D01*
X033595Y016165D01*
X033539Y016030D01*
X033539Y015884D01*
X033580Y015784D01*
X033376Y015580D01*
X033282Y015486D01*
X033282Y015063D01*
X033234Y015181D01*
X033130Y015284D01*
X032995Y015340D01*
X032849Y015340D01*
X032801Y015320D01*
X032762Y015359D01*
X032762Y015366D01*
X032669Y015460D01*
X032651Y015460D01*
X032801Y015609D01*
X032849Y015589D01*
X032995Y015589D01*
X033130Y015645D01*
X033234Y015749D01*
X033290Y015884D01*
X033290Y016030D01*
X033234Y016165D01*
X033130Y016268D01*
X032995Y016324D01*
X032849Y016324D01*
X032714Y016268D01*
X032611Y016165D01*
X032555Y016030D01*
X032555Y015884D01*
X032575Y015836D01*
X031174Y014435D01*
X031174Y014967D01*
X031817Y015609D01*
X031865Y015589D01*
X032011Y015589D01*
X032146Y015645D01*
X032249Y015749D01*
X032305Y015884D01*
X032305Y016030D01*
X032249Y016165D01*
X032146Y016268D01*
X032011Y016324D01*
X031865Y016324D01*
X031730Y016268D01*
X031626Y016165D01*
X031570Y016030D01*
X031570Y015884D01*
X031590Y015836D01*
X030978Y015223D01*
X030978Y015589D01*
X031027Y015589D01*
X031162Y015645D01*
X031265Y015749D01*
X031321Y015884D01*
X031321Y016030D01*
X031265Y016165D01*
X031162Y016268D01*
X031027Y016324D01*
X030880Y016324D01*
X030745Y016268D01*
X030642Y016165D01*
X030586Y016030D01*
X030586Y015884D01*
X030642Y015749D01*
X030658Y015733D01*
X030658Y015495D01*
X030317Y015836D01*
X030337Y015884D01*
X030337Y016030D01*
X030281Y016165D01*
X030177Y016268D01*
X030042Y016324D01*
X029896Y016324D01*
X029761Y016268D01*
X029658Y016165D01*
X029602Y016030D01*
X029602Y015884D01*
X029658Y015749D01*
X029761Y015645D01*
X029896Y015589D01*
X030042Y015589D01*
X030091Y015609D01*
X030461Y015239D01*
X030461Y014707D01*
X029333Y015836D01*
X029353Y015884D01*
X029353Y016030D01*
X029297Y016165D01*
X029193Y016268D01*
X029058Y016324D01*
X028912Y016324D01*
X028777Y016268D01*
X028674Y016165D01*
X028618Y016030D01*
X028618Y015884D01*
X028674Y015749D01*
X028777Y015645D01*
X028912Y015589D01*
X029058Y015589D01*
X029106Y015609D01*
X030264Y014452D01*
X030264Y013920D01*
X029333Y014851D01*
X029353Y014900D01*
X029353Y015046D01*
X029297Y015181D01*
X029193Y015284D01*
X029058Y015340D01*
X028912Y015340D01*
X028777Y015284D01*
X028682Y015190D01*
X028682Y015502D01*
X028589Y015595D01*
X028348Y015836D01*
X028368Y015884D01*
X028368Y016030D01*
X028312Y016165D01*
X028209Y016268D01*
X028074Y016324D01*
X027928Y016324D01*
X027793Y016268D01*
X027689Y016165D01*
X027633Y016030D01*
X027633Y015884D01*
X027689Y015749D01*
X027793Y015645D01*
X027928Y015589D01*
X028074Y015589D01*
X028122Y015609D01*
X028362Y015369D01*
X028362Y015060D01*
X028312Y015181D01*
X028209Y015284D01*
X028074Y015340D01*
X027928Y015340D01*
X027793Y015284D01*
X027689Y015181D01*
X027633Y015046D01*
X027633Y014900D01*
X027689Y014764D01*
X027793Y014661D01*
X027928Y014605D01*
X028074Y014605D01*
X028122Y014625D01*
X029673Y013074D01*
X029673Y012542D01*
X027364Y014851D01*
X027384Y014900D01*
X027384Y015046D01*
X027328Y015181D01*
X027225Y015284D01*
X027090Y015340D01*
X026943Y015340D01*
X026808Y015284D01*
X026762Y015238D01*
X026762Y015476D01*
X026895Y015609D01*
X026943Y015589D01*
X027090Y015589D01*
X027225Y015645D01*
X027328Y015749D01*
X027384Y015884D01*
X027384Y016030D01*
X027328Y016165D01*
X027225Y016268D01*
X027090Y016324D01*
X026943Y016324D01*
X026808Y016268D01*
X026705Y016165D01*
X026649Y016030D01*
X026649Y015884D01*
X026669Y015836D01*
X026536Y015703D01*
X026442Y015609D01*
X026442Y014634D01*
X027893Y013183D01*
X027784Y013228D01*
X027661Y013228D01*
X027548Y013181D01*
X027461Y013095D01*
X027414Y012981D01*
X027414Y012859D01*
X027461Y012745D01*
X027548Y012659D01*
X027661Y012612D01*
X027784Y012612D01*
X027788Y012614D01*
X027928Y012474D01*
X027928Y012136D01*
X027895Y012136D01*
X027830Y012072D01*
X027830Y011508D01*
X027895Y011444D01*
X027928Y011444D01*
X027928Y010615D01*
X028028Y010515D01*
X028278Y010265D01*
X028473Y010265D01*
X028473Y010227D01*
X028455Y010209D01*
X028434Y010172D01*
X028423Y010132D01*
X028423Y010042D01*
X028849Y010042D01*
X028849Y010042D01*
X029275Y010042D01*
X028849Y010042D01*
X028849Y010042D01*
X027901Y010042D01*
X027682Y010260D01*
X027942Y010015D02*
X027512Y009585D01*
X027412Y009485D01*
X027412Y008238D01*
X027338Y008163D01*
X027294Y008057D01*
X027294Y007943D01*
X027338Y007837D01*
X027419Y007755D01*
X027525Y007712D01*
X027640Y007712D01*
X027746Y007755D01*
X027772Y007782D01*
X027772Y007758D01*
X027698Y007683D01*
X027654Y007577D01*
X027654Y007463D01*
X027698Y007357D01*
X027779Y007275D01*
X027885Y007232D01*
X028000Y007232D01*
X028106Y007275D01*
X028187Y007357D01*
X028231Y007463D01*
X028231Y007577D01*
X028187Y007683D01*
X028112Y007758D01*
X028112Y008270D01*
X028118Y008257D01*
X028199Y008175D01*
X028305Y008132D01*
X028420Y008132D01*
X028526Y008175D01*
X028607Y008257D01*
X028651Y008363D01*
X028651Y008477D01*
X028607Y008583D01*
X028532Y008658D01*
X028532Y008884D01*
X028538Y008878D01*
X029000Y008878D01*
X028952Y008830D01*
X028852Y008730D01*
X028852Y007590D01*
X028292Y007030D01*
X027760Y007030D01*
X027686Y007105D01*
X027580Y007148D01*
X027465Y007148D01*
X027359Y007105D01*
X027278Y007023D01*
X027234Y006917D01*
X027234Y006803D01*
X027278Y006697D01*
X027359Y006615D01*
X027465Y006572D01*
X027580Y006572D01*
X027686Y006615D01*
X027760Y006690D01*
X028350Y006690D01*
X027138Y005478D01*
X027090Y005498D01*
X026943Y005498D01*
X026808Y005442D01*
X026705Y005338D01*
X026649Y005203D01*
X026649Y005057D01*
X026705Y004922D01*
X026808Y004819D01*
X026943Y004763D01*
X026942Y004763D02*
X025687Y004763D01*
X025662Y004645D02*
X027289Y004645D01*
X027402Y004758D02*
X027138Y004493D01*
X027090Y004513D01*
X026943Y004513D01*
X026808Y004457D01*
X026705Y004354D01*
X026649Y004219D01*
X026649Y004073D01*
X026705Y003938D01*
X026808Y003834D01*
X026943Y003778D01*
X027090Y003778D01*
X027225Y003834D01*
X027328Y003938D01*
X027384Y004073D01*
X027384Y004219D01*
X027364Y004267D01*
X027629Y004532D01*
X027722Y004625D01*
X027722Y004889D01*
X027793Y004819D01*
X027928Y004763D01*
X028074Y004763D01*
X028209Y004819D01*
X028312Y004922D01*
X028368Y005057D01*
X028368Y005203D01*
X028348Y005251D01*
X028482Y005385D01*
X028482Y004854D01*
X028122Y004493D01*
X028074Y004513D01*
X027928Y004513D01*
X027793Y004457D01*
X027689Y004354D01*
X027633Y004219D01*
X027633Y004073D01*
X027689Y003938D01*
X027793Y003834D01*
X027928Y003778D01*
X028074Y003778D01*
X028209Y003834D01*
X028312Y003938D01*
X028368Y004073D01*
X028368Y004219D01*
X028348Y004267D01*
X028709Y004627D01*
X028802Y004721D01*
X028802Y005274D01*
X028842Y005314D01*
X028842Y004484D01*
X028777Y004457D01*
X028674Y004354D01*
X028618Y004219D01*
X028618Y004073D01*
X028674Y003938D01*
X028777Y003834D01*
X028912Y003778D01*
X029058Y003778D01*
X029193Y003834D01*
X029297Y003938D01*
X029353Y004073D01*
X029353Y004219D01*
X029297Y004354D01*
X029193Y004457D01*
X029162Y004470D01*
X029162Y005274D01*
X029922Y006034D01*
X029922Y004513D01*
X029896Y004513D01*
X029761Y004457D01*
X029658Y004354D01*
X029602Y004219D01*
X029602Y004073D01*
X029658Y003938D01*
X029761Y003834D01*
X029896Y003778D01*
X030042Y003778D01*
X030177Y003834D01*
X030281Y003938D01*
X030337Y004073D01*
X030337Y004219D01*
X030281Y004354D01*
X030242Y004393D01*
X030242Y006114D01*
X030490Y006362D01*
X030490Y006362D01*
X030502Y006374D01*
X030554Y006322D01*
X030762Y006114D01*
X030762Y004464D01*
X030745Y004457D01*
X030642Y004354D01*
X030586Y004219D01*
X030586Y004073D01*
X030642Y003938D01*
X030745Y003834D01*
X030880Y003778D01*
X031027Y003778D01*
X031162Y003834D01*
X031265Y003938D01*
X031321Y004073D01*
X031321Y004219D01*
X031265Y004354D01*
X031162Y004457D01*
X031082Y004490D01*
X031082Y005759D01*
X031096Y005746D01*
X031590Y005251D01*
X031570Y005203D01*
X031570Y005057D01*
X031626Y004922D01*
X031730Y004819D01*
X031865Y004763D01*
X032011Y004763D01*
X032146Y004819D01*
X032249Y004922D01*
X032305Y005057D01*
X032305Y005171D01*
X032322Y005154D01*
X032322Y004757D01*
X032059Y004493D01*
X032011Y004513D01*
X031865Y004513D01*
X031730Y004457D01*
X031626Y004354D01*
X031570Y004219D01*
X031570Y004073D01*
X031626Y003938D01*
X031730Y003834D01*
X031865Y003778D01*
X032011Y003778D01*
X032146Y003834D01*
X032249Y003938D01*
X032305Y004073D01*
X032305Y004219D01*
X032285Y004267D01*
X032549Y004530D01*
X032642Y004624D01*
X032642Y004890D01*
X032714Y004819D01*
X032849Y004763D01*
X032995Y004763D01*
X033130Y004819D01*
X033234Y004922D01*
X033290Y005057D01*
X033290Y005203D01*
X033234Y005338D01*
X033130Y005442D01*
X032995Y005498D01*
X032849Y005498D01*
X032714Y005442D01*
X032611Y005338D01*
X032605Y005324D01*
X031174Y006754D01*
X031174Y008091D01*
X031719Y008091D01*
X031784Y008155D01*
X031784Y008778D01*
X031719Y008843D01*
X029432Y008843D01*
X029432Y009270D01*
X029333Y009370D01*
X029432Y009266D02*
X030202Y009266D01*
X030218Y009303D02*
X030174Y009197D01*
X030174Y009083D01*
X030218Y008977D01*
X030299Y008895D01*
X030405Y008852D01*
X030520Y008852D01*
X030626Y008895D01*
X030707Y008977D01*
X030751Y009083D01*
X030751Y009197D01*
X030736Y009234D01*
X030783Y009281D01*
X031820Y009281D01*
X031820Y009140D01*
X031820Y008943D01*
X031884Y008878D01*
X032507Y008878D01*
X032571Y008943D01*
X032571Y009094D01*
X032743Y009094D01*
X032749Y009100D01*
X032866Y009100D01*
X033022Y008944D01*
X033022Y006194D01*
X034022Y005194D01*
X034116Y005100D01*
X035869Y005100D01*
X035899Y005130D01*
X035899Y005057D01*
X035955Y004922D01*
X036058Y004819D01*
X036193Y004763D01*
X036192Y004763D02*
X032996Y004763D01*
X032848Y004763D02*
X032642Y004763D01*
X032642Y004645D02*
X036539Y004645D01*
X036622Y004728D02*
X036388Y004493D01*
X036340Y004513D01*
X036193Y004513D01*
X036058Y004457D01*
X035955Y004354D01*
X035899Y004219D01*
X035899Y004073D01*
X035955Y003938D01*
X036058Y003834D01*
X036193Y003778D01*
X036340Y003778D01*
X036475Y003834D01*
X036578Y003938D01*
X036634Y004073D01*
X036634Y004219D01*
X036614Y004267D01*
X036942Y004595D01*
X036942Y004919D01*
X037043Y004819D01*
X037178Y004763D01*
X037324Y004763D01*
X037459Y004819D01*
X037562Y004922D01*
X037618Y005057D01*
X037618Y005203D01*
X037598Y005251D01*
X037622Y005275D01*
X037622Y004744D01*
X037372Y004493D01*
X037324Y004513D01*
X037178Y004513D01*
X037043Y004457D01*
X036939Y004354D01*
X036883Y004219D01*
X036883Y004073D01*
X036939Y003938D01*
X037043Y003834D01*
X037178Y003778D01*
X037324Y003778D01*
X037459Y003834D01*
X037562Y003938D01*
X037618Y004073D01*
X037618Y004219D01*
X037598Y004267D01*
X037942Y004611D01*
X037942Y005194D01*
X039327Y006578D01*
X039327Y006531D01*
X038216Y005420D01*
X038122Y005326D01*
X038122Y004497D01*
X038027Y004457D01*
X037924Y004354D01*
X037868Y004219D01*
X037868Y004073D01*
X037924Y003938D01*
X038027Y003834D01*
X038162Y003778D01*
X038308Y003778D01*
X038443Y003834D01*
X038547Y003938D01*
X038603Y004073D01*
X038603Y004219D01*
X038547Y004354D01*
X038443Y004457D01*
X038442Y004458D01*
X038442Y005194D01*
X039524Y006275D01*
X039524Y006228D01*
X039216Y005920D01*
X039122Y005826D01*
X039122Y004503D01*
X039011Y004457D01*
X038908Y004354D01*
X038852Y004219D01*
X038852Y004073D01*
X038908Y003938D01*
X039011Y003834D01*
X039146Y003778D01*
X039292Y003778D01*
X039427Y003834D01*
X039531Y003938D01*
X039587Y004073D01*
X039587Y004219D01*
X039531Y004354D01*
X039442Y004443D01*
X039442Y005694D01*
X039782Y006034D01*
X040122Y005694D01*
X040122Y004510D01*
X039995Y004457D01*
X039892Y004354D01*
X039836Y004219D01*
X039836Y004073D01*
X039892Y003938D01*
X039995Y003834D01*
X040130Y003778D01*
X040277Y003778D01*
X040412Y003834D01*
X040515Y003938D01*
X040571Y004073D01*
X040571Y004219D01*
X040515Y004354D01*
X040442Y004427D01*
X040442Y005649D01*
X040840Y005251D01*
X040820Y005203D01*
X040820Y005057D01*
X040876Y004922D01*
X040980Y004819D01*
X041115Y004763D01*
X041261Y004763D01*
X041396Y004819D01*
X041499Y004922D01*
X041555Y005057D01*
X041555Y005203D01*
X041500Y005336D01*
X041562Y005274D01*
X041562Y004747D01*
X041309Y004493D01*
X041261Y004513D01*
X041115Y004513D01*
X040980Y004457D01*
X040876Y004354D01*
X040820Y004219D01*
X040820Y004073D01*
X040876Y003938D01*
X040980Y003834D01*
X041115Y003778D01*
X041261Y003778D01*
X041396Y003834D01*
X041499Y003938D01*
X041555Y004073D01*
X041555Y004219D01*
X041535Y004267D01*
X041882Y004614D01*
X041882Y004900D01*
X041964Y004819D01*
X042099Y004763D01*
X042245Y004763D01*
X042380Y004819D01*
X042484Y004922D01*
X042540Y005057D01*
X042540Y005203D01*
X042484Y005338D01*
X042380Y005442D01*
X042245Y005498D01*
X042099Y005498D01*
X041964Y005442D01*
X041882Y005360D01*
X041882Y005406D01*
X041789Y005500D01*
X040434Y006854D01*
X040434Y008091D01*
X040979Y008091D01*
X041044Y008155D01*
X041044Y008778D01*
X040979Y008843D01*
X038682Y008843D01*
X038682Y009244D01*
X038689Y009252D01*
X038682Y009309D01*
X038682Y009366D01*
X038675Y009373D01*
X038674Y009384D01*
X038687Y009266D02*
X039502Y009266D01*
X039518Y009303D02*
X039474Y009197D01*
X039474Y009083D01*
X039518Y008977D01*
X039599Y008895D01*
X039705Y008852D01*
X039820Y008852D01*
X039926Y008895D01*
X040007Y008977D01*
X040051Y009083D01*
X040051Y009197D01*
X040036Y009234D01*
X040083Y009281D01*
X041080Y009281D01*
X041080Y008943D01*
X041144Y008878D01*
X041767Y008878D01*
X041831Y008943D01*
X041831Y009090D01*
X044173Y009090D01*
X044272Y009190D01*
X044512Y009430D01*
X044512Y019470D01*
X044413Y019570D01*
X044173Y019810D01*
X036579Y019810D01*
X037240Y020472D01*
X037346Y020515D01*
X037427Y020597D01*
X037471Y020703D01*
X037471Y020817D01*
X037427Y020923D01*
X037346Y021005D01*
X037240Y021048D01*
X037125Y021048D01*
X037019Y021005D01*
X036938Y020923D01*
X036894Y020817D01*
X036894Y020703D01*
X036930Y020614D01*
X036296Y019980D01*
X034989Y019980D01*
X034842Y020126D01*
X034842Y021326D01*
X034749Y021420D01*
X034699Y021470D01*
X034217Y021470D01*
X034217Y021476D01*
X034153Y021540D01*
X033192Y021540D01*
X033127Y021476D01*
X033127Y021144D01*
X033192Y021080D01*
X034153Y021080D01*
X034217Y021144D01*
X034217Y021150D01*
X034522Y021150D01*
X034522Y019994D01*
X034586Y019930D01*
X029099Y019930D01*
X029462Y020080D01*
X029744Y020362D01*
X029896Y020730D01*
X029896Y021113D01*
X029997Y020989D01*
X029997Y020979D01*
X030037Y020939D01*
X030074Y020894D01*
X030083Y020893D01*
X030090Y020886D01*
X030148Y020886D01*
X030206Y020880D01*
X030213Y020886D01*
X031376Y020886D01*
X031376Y020843D01*
X031441Y020778D01*
X031763Y020778D01*
X032392Y020150D01*
X033127Y020150D01*
X033127Y020144D01*
X033192Y020080D01*
X034153Y020080D01*
X034217Y020144D01*
X034217Y020476D01*
X034153Y020540D01*
X033192Y020540D01*
X033127Y020476D01*
X033127Y020470D01*
X032524Y020470D01*
X032069Y020926D01*
X032069Y021220D01*
X032096Y021220D01*
X032176Y021140D01*
X032176Y020843D01*
X032241Y020778D01*
X032563Y020778D01*
X032692Y020650D01*
X033127Y020650D01*
X033127Y020644D01*
X033192Y020580D01*
X034153Y020580D01*
X034217Y020644D01*
X034217Y020976D01*
X034153Y021040D01*
X033192Y021040D01*
X033127Y020976D01*
X033127Y020970D01*
X032869Y020970D01*
X032869Y021249D01*
X032804Y021313D01*
X032455Y021313D01*
X032332Y021437D01*
X032504Y021437D01*
X032504Y021736D01*
X032541Y021736D01*
X032541Y021773D01*
X032919Y021773D01*
X032919Y021933D01*
X032908Y021974D01*
X032898Y021990D01*
X033142Y021990D01*
X033127Y021976D01*
X033127Y021644D01*
X033192Y021580D01*
X034153Y021580D01*
X034217Y021644D01*
X034217Y021976D01*
X034203Y021990D01*
X035148Y021990D01*
X035137Y021951D01*
X035137Y021810D01*
X035137Y021669D01*
X035148Y021628D01*
X035169Y021592D01*
X035199Y021562D01*
X035236Y021541D01*
X035249Y021537D01*
X035187Y021476D01*
X035187Y021144D01*
X035249Y021083D01*
X035236Y021079D01*
X035199Y021058D01*
X035169Y021028D01*
X035148Y020992D01*
X035137Y020951D01*
X035137Y020810D01*
X035137Y020669D01*
X035148Y020628D01*
X035169Y020592D01*
X035199Y020562D01*
X035236Y020541D01*
X035249Y020537D01*
X035187Y020476D01*
X035187Y020144D01*
X035252Y020080D01*
X036213Y020080D01*
X036277Y020144D01*
X036277Y020476D01*
X036216Y020537D01*
X036229Y020541D01*
X036266Y020562D01*
X036295Y020592D01*
X036316Y020628D01*
X036327Y020669D01*
X036327Y020810D01*
X036327Y020951D01*
X036316Y020992D01*
X036295Y021028D01*
X036266Y021058D01*
X036229Y021079D01*
X036216Y021083D01*
X036277Y021144D01*
X036277Y021476D01*
X036216Y021537D01*
X036229Y021541D01*
X036266Y021562D01*
X036295Y021592D01*
X036316Y021628D01*
X036327Y021669D01*
X036327Y021810D01*
X036327Y021951D01*
X036317Y021990D01*
X036452Y021990D01*
X036560Y021881D01*
X036560Y021478D01*
X036625Y021414D01*
X037031Y021414D01*
X037095Y021478D01*
X037095Y022042D01*
X037031Y022106D01*
X036816Y022106D01*
X036692Y022230D01*
X036593Y022330D01*
X033952Y022330D01*
X033722Y022100D01*
X033592Y022230D01*
X033493Y022330D01*
X030772Y022330D01*
X030668Y022226D01*
X030664Y022228D01*
X030541Y022228D01*
X030428Y022181D01*
X030341Y022095D01*
X030294Y021981D01*
X030294Y021859D01*
X030341Y021745D01*
X030428Y021659D01*
X030541Y021612D01*
X030664Y021612D01*
X030777Y021659D01*
X030863Y021745D01*
X030910Y021859D01*
X030910Y021981D01*
X030909Y021986D01*
X030913Y021990D01*
X031346Y021990D01*
X031337Y021974D01*
X031326Y021933D01*
X031326Y021773D01*
X031704Y021773D01*
X031704Y021736D01*
X031326Y021736D01*
X031326Y021576D01*
X031336Y021540D01*
X030320Y021540D01*
X029742Y022275D01*
X029742Y022286D01*
X029702Y022326D01*
X029667Y022371D01*
X029656Y022372D01*
X029649Y022380D01*
X029592Y022380D01*
X029536Y022387D01*
X029527Y022380D01*
X009896Y022380D01*
X009416Y021900D01*
X009322Y021806D01*
X009322Y021664D01*
X009147Y021839D01*
X008808Y021839D01*
X008668Y021699D01*
X008287Y021699D01*
X008147Y021839D01*
X007808Y021839D01*
X007568Y021599D01*
X007568Y021259D01*
X007808Y021019D01*
X008147Y021019D01*
X008287Y021159D01*
X008668Y021159D01*
X008808Y021019D01*
X009147Y021019D01*
X009322Y021194D01*
X009322Y021000D01*
X009154Y020832D01*
X009147Y020839D01*
X008808Y020839D01*
X008568Y020599D01*
X008568Y020259D01*
X008808Y020019D01*
X009147Y020019D01*
X009388Y020259D01*
X009388Y020599D01*
X009381Y020606D01*
X009642Y020868D01*
X009642Y021185D01*
X009808Y021019D01*
X010147Y021019D01*
X010282Y021154D01*
X010282Y020960D01*
X010154Y020832D01*
X010147Y020839D01*
X009808Y020839D01*
X009568Y020599D01*
X009568Y020259D01*
X009808Y020019D01*
X010147Y020019D01*
X010388Y020259D01*
X010388Y020599D01*
X010381Y020606D01*
X010602Y020828D01*
X010602Y021225D01*
X010808Y021019D01*
X011147Y021019D01*
X011388Y021259D01*
X011388Y021599D01*
X011167Y021820D01*
X011788Y021820D01*
X011568Y021599D01*
X011568Y021259D01*
X011808Y021019D01*
X012147Y021019D01*
X012388Y021259D01*
X012388Y021599D01*
X012167Y021820D01*
X012788Y021820D01*
X012568Y021599D01*
X012568Y021259D01*
X012808Y021019D01*
X013147Y021019D01*
X013388Y021259D01*
X013388Y021599D01*
X013167Y021820D01*
X013788Y021820D01*
X013568Y021599D01*
X013568Y021259D01*
X013808Y021019D01*
X014147Y021019D01*
X014388Y021259D01*
X014388Y021599D01*
X014167Y021820D01*
X014788Y021820D01*
X014568Y021599D01*
X014568Y021259D01*
X014808Y021019D01*
X015147Y021019D01*
X015388Y021259D01*
X015388Y021599D01*
X015167Y021820D01*
X015788Y021820D01*
X015568Y021599D01*
X015568Y021259D01*
X015808Y021019D01*
X016147Y021019D01*
X016388Y021259D01*
X016388Y021599D01*
X016167Y021820D01*
X016788Y021820D01*
X016568Y021599D01*
X016568Y021259D01*
X016808Y021019D01*
X017106Y021019D01*
X017058Y020970D01*
X016926Y020839D01*
X016808Y020839D01*
X016568Y020599D01*
X016568Y020259D01*
X016808Y020019D01*
X017147Y020019D01*
X017388Y020259D01*
X017388Y020599D01*
X017277Y020709D01*
X017298Y020730D01*
X017698Y020730D01*
X017568Y020599D01*
X017568Y020259D01*
X017808Y020019D01*
X017808Y019946D01*
X017792Y019930D01*
X013832Y019930D01*
X013592Y019690D01*
X013492Y019590D01*
X013596Y019694D02*
X004682Y019694D01*
X004682Y019813D02*
X013714Y019813D01*
X013902Y019760D02*
X013662Y019520D01*
X013662Y009200D01*
X013602Y009140D01*
X013336Y009029D02*
X012140Y009029D01*
X012162Y008911D02*
X013424Y008911D01*
X013314Y009148D02*
X012021Y009148D01*
X011805Y008911D02*
X010791Y008911D01*
X010844Y008792D02*
X011842Y008792D01*
X011842Y008674D02*
X010844Y008674D01*
X010844Y008555D02*
X011842Y008555D01*
X011842Y008437D02*
X010844Y008437D01*
X010844Y008318D02*
X011842Y008318D01*
X011842Y008200D02*
X010808Y008200D01*
X010234Y008081D02*
X011842Y008081D01*
X011842Y007963D02*
X010234Y007963D01*
X010234Y007844D02*
X011842Y007844D01*
X011842Y007726D02*
X010234Y007726D01*
X010234Y007607D02*
X011842Y007607D01*
X011842Y007489D02*
X010234Y007489D01*
X010234Y007370D02*
X011842Y007370D01*
X011842Y007252D02*
X010234Y007252D01*
X010234Y007133D02*
X011842Y007133D01*
X011842Y007015D02*
X010234Y007015D01*
X010234Y006896D02*
X011842Y006896D01*
X011842Y006778D02*
X010234Y006778D01*
X010310Y006659D02*
X011842Y006659D01*
X011842Y006541D02*
X010428Y006541D01*
X010482Y006422D02*
X011842Y006422D01*
X011842Y006304D02*
X010482Y006304D01*
X010544Y006185D02*
X011842Y006185D01*
X011842Y006067D02*
X010662Y006067D01*
X010781Y005948D02*
X011842Y005948D01*
X011842Y005830D02*
X010899Y005830D01*
X011018Y005711D02*
X011842Y005711D01*
X011884Y005593D02*
X011136Y005593D01*
X011255Y005474D02*
X011692Y005474D01*
X011528Y005356D02*
X011373Y005356D01*
X011952Y005474D02*
X012002Y005474D01*
X012116Y005356D02*
X012121Y005356D01*
X012176Y005237D02*
X012239Y005237D01*
X012190Y005119D02*
X012358Y005119D01*
X012476Y005000D02*
X012166Y005000D01*
X012093Y004882D02*
X012595Y004882D01*
X012713Y004763D02*
X011896Y004763D01*
X011748Y004763D02*
X011562Y004763D01*
X011562Y004645D02*
X012832Y004645D01*
X012879Y004513D02*
X012733Y004513D01*
X012598Y004457D01*
X012495Y004354D01*
X012439Y004219D01*
X012439Y004073D01*
X012495Y003938D01*
X012598Y003834D01*
X012733Y003778D01*
X012879Y003778D01*
X013014Y003834D01*
X013118Y003938D01*
X013174Y004073D01*
X013174Y004219D01*
X013118Y004354D01*
X013014Y004457D01*
X012879Y004513D01*
X012950Y004526D02*
X011444Y004526D01*
X011326Y004408D02*
X011564Y004408D01*
X011614Y004457D02*
X011511Y004354D01*
X011455Y004219D01*
X011455Y004073D01*
X011511Y003938D01*
X011614Y003834D01*
X011749Y003778D01*
X011895Y003778D01*
X012030Y003834D01*
X012134Y003938D01*
X012190Y004073D01*
X012190Y004219D01*
X012134Y004354D01*
X012030Y004457D01*
X011895Y004513D01*
X011749Y004513D01*
X011614Y004457D01*
X011484Y004289D02*
X011207Y004289D01*
X011205Y004171D02*
X011455Y004171D01*
X011463Y004052D02*
X011197Y004052D01*
X011145Y003934D02*
X011515Y003934D01*
X011660Y003815D02*
X010999Y003815D01*
X010676Y003815D02*
X010015Y003815D01*
X010161Y003934D02*
X010530Y003934D01*
X010479Y004052D02*
X010212Y004052D01*
X010221Y004171D02*
X010470Y004171D01*
X010499Y004289D02*
X010192Y004289D01*
X010112Y004408D02*
X010580Y004408D01*
X010764Y004763D02*
X010002Y004763D01*
X010002Y004645D02*
X011110Y004645D01*
X011229Y004763D02*
X010912Y004763D01*
X011109Y004882D02*
X011242Y004882D01*
X011242Y005000D02*
X011182Y005000D01*
X010992Y004526D02*
X010002Y004526D01*
X009682Y004526D02*
X009162Y004526D01*
X009162Y004408D02*
X009596Y004408D01*
X009515Y004289D02*
X009208Y004289D01*
X009237Y004171D02*
X009486Y004171D01*
X009495Y004052D02*
X009228Y004052D01*
X009177Y003934D02*
X009546Y003934D01*
X009692Y003815D02*
X009031Y003815D01*
X008708Y003815D02*
X008047Y003815D01*
X008192Y003934D02*
X008562Y003934D01*
X008510Y004052D02*
X008244Y004052D01*
X008253Y004171D02*
X008502Y004171D01*
X008531Y004289D02*
X008223Y004289D01*
X008143Y004408D02*
X008611Y004408D01*
X008842Y004526D02*
X008082Y004526D01*
X008082Y004645D02*
X008842Y004645D01*
X008842Y004763D02*
X008082Y004763D01*
X008082Y004882D02*
X008842Y004882D01*
X008842Y005000D02*
X008082Y005000D01*
X008082Y005119D02*
X008842Y005119D01*
X008842Y005237D02*
X008082Y005237D01*
X008082Y005356D02*
X008842Y005356D01*
X008842Y005474D02*
X008082Y005474D01*
X008161Y005593D02*
X008842Y005593D01*
X008842Y005711D02*
X008280Y005711D01*
X008398Y005830D02*
X008842Y005830D01*
X008842Y005948D02*
X008517Y005948D01*
X008635Y006067D02*
X008842Y006067D01*
X008842Y006185D02*
X008754Y006185D01*
X008872Y006304D02*
X008900Y006304D01*
X008991Y006422D02*
X009018Y006422D01*
X009109Y006541D02*
X009137Y006541D01*
X009228Y006659D02*
X009255Y006659D01*
X009352Y006304D02*
X009682Y006304D01*
X009682Y006185D02*
X009234Y006185D01*
X009162Y006067D02*
X009682Y006067D01*
X009682Y005948D02*
X009162Y005948D01*
X009162Y005830D02*
X009682Y005830D01*
X009682Y005711D02*
X009162Y005711D01*
X009162Y005593D02*
X009682Y005593D01*
X009682Y005474D02*
X009162Y005474D01*
X009162Y005356D02*
X009682Y005356D01*
X009682Y005237D02*
X009162Y005237D01*
X009162Y005119D02*
X009682Y005119D01*
X009682Y005000D02*
X009162Y005000D01*
X009162Y004882D02*
X009682Y004882D01*
X009682Y004763D02*
X009162Y004763D01*
X009162Y004645D02*
X009682Y004645D01*
X010002Y004882D02*
X010567Y004882D01*
X010494Y005000D02*
X010002Y005000D01*
X010002Y005119D02*
X010470Y005119D01*
X010484Y005237D02*
X010002Y005237D01*
X010002Y005356D02*
X010386Y005356D01*
X010268Y005474D02*
X010002Y005474D01*
X010002Y005593D02*
X010149Y005593D01*
X010031Y005711D02*
X010002Y005711D01*
X012162Y005830D02*
X015086Y005830D01*
X015204Y005948D02*
X012162Y005948D01*
X012162Y006067D02*
X015323Y006067D01*
X015441Y006185D02*
X012162Y006185D01*
X012162Y006304D02*
X015560Y006304D01*
X015678Y006422D02*
X012162Y006422D01*
X012162Y006541D02*
X015797Y006541D01*
X015915Y006659D02*
X012162Y006659D01*
X012162Y006778D02*
X016034Y006778D01*
X016152Y006896D02*
X012162Y006896D01*
X012162Y007015D02*
X016271Y007015D01*
X016389Y007133D02*
X012162Y007133D01*
X012162Y007252D02*
X016077Y007252D01*
X015932Y007370D02*
X012162Y007370D01*
X012162Y007489D02*
X015894Y007489D01*
X015906Y007607D02*
X012162Y007607D01*
X012162Y007726D02*
X015671Y007726D01*
X015853Y007726D02*
X015980Y007726D01*
X016010Y007844D02*
X016012Y007844D01*
X015762Y008000D02*
X015762Y009715D01*
X016012Y009965D01*
X017129Y009965D01*
X017129Y010162D02*
X016703Y010162D01*
X016739Y010333D02*
X013832Y010333D01*
X013832Y010451D02*
X016367Y010451D01*
X016248Y010570D02*
X013832Y010570D01*
X013832Y010688D02*
X016130Y010688D01*
X016158Y010660D02*
X016158Y010660D01*
X016058Y010807D02*
X013832Y010807D01*
X013832Y010925D02*
X014169Y010925D01*
X014102Y011044D02*
X013832Y011044D01*
X013832Y011162D02*
X014094Y011162D01*
X013981Y011281D02*
X013832Y011281D01*
X013832Y011399D02*
X013863Y011399D01*
X013852Y011518D02*
X013832Y011518D01*
X013832Y011636D02*
X013852Y011636D01*
X013852Y011755D02*
X013832Y011755D01*
X013832Y011873D02*
X013852Y011873D01*
X013852Y011992D02*
X013832Y011992D01*
X013832Y012110D02*
X013852Y012110D01*
X013852Y012229D02*
X013832Y012229D01*
X013832Y012347D02*
X013852Y012347D01*
X013852Y012466D02*
X013832Y012466D01*
X013832Y012584D02*
X013852Y012584D01*
X013852Y012703D02*
X013832Y012703D01*
X013832Y012821D02*
X013852Y012821D01*
X013852Y012940D02*
X013832Y012940D01*
X013832Y013058D02*
X013852Y013058D01*
X013852Y013177D02*
X013832Y013177D01*
X013832Y013295D02*
X013852Y013295D01*
X013852Y013414D02*
X013832Y013414D01*
X013832Y013532D02*
X013852Y013532D01*
X013852Y013651D02*
X013832Y013651D01*
X013832Y013769D02*
X013852Y013769D01*
X013852Y013888D02*
X013832Y013888D01*
X013832Y014006D02*
X013852Y014006D01*
X013852Y014125D02*
X013832Y014125D01*
X013832Y014243D02*
X013852Y014243D01*
X013852Y014362D02*
X013832Y014362D01*
X013832Y014480D02*
X013852Y014480D01*
X013852Y014599D02*
X013832Y014599D01*
X013832Y014717D02*
X013852Y014717D01*
X013852Y014836D02*
X013832Y014836D01*
X013832Y014954D02*
X013852Y014954D01*
X013852Y015073D02*
X013832Y015073D01*
X013832Y015191D02*
X013852Y015191D01*
X013852Y015310D02*
X013832Y015310D01*
X013832Y015428D02*
X013852Y015428D01*
X013852Y015547D02*
X013832Y015547D01*
X013832Y015665D02*
X013852Y015665D01*
X013852Y015784D02*
X013832Y015784D01*
X013832Y015902D02*
X013852Y015902D01*
X013852Y016021D02*
X013832Y016021D01*
X013832Y016139D02*
X013852Y016139D01*
X013852Y016258D02*
X013832Y016258D01*
X013832Y016376D02*
X013852Y016376D01*
X013852Y016495D02*
X013832Y016495D01*
X013832Y016613D02*
X013852Y016613D01*
X013852Y016732D02*
X013832Y016732D01*
X013832Y016850D02*
X013852Y016850D01*
X013852Y016969D02*
X013832Y016969D01*
X013832Y017087D02*
X013852Y017087D01*
X013852Y017206D02*
X013832Y017206D01*
X013832Y017324D02*
X013852Y017324D01*
X013852Y017443D02*
X013832Y017443D01*
X013832Y017561D02*
X013852Y017561D01*
X013852Y017680D02*
X013832Y017680D01*
X013832Y017798D02*
X013852Y017798D01*
X013852Y017917D02*
X013832Y017917D01*
X013832Y018035D02*
X013852Y018035D01*
X013852Y018154D02*
X013832Y018154D01*
X013832Y018272D02*
X013852Y018272D01*
X013852Y018391D02*
X013832Y018391D01*
X013832Y018509D02*
X013852Y018509D01*
X013852Y018628D02*
X013832Y018628D01*
X013832Y018746D02*
X013852Y018746D01*
X013852Y018865D02*
X013832Y018865D01*
X013832Y018983D02*
X013852Y018983D01*
X013852Y019102D02*
X013832Y019102D01*
X013832Y019220D02*
X013852Y019220D01*
X013852Y019339D02*
X013832Y019339D01*
X013840Y019457D02*
X013959Y019457D01*
X013958Y019576D02*
X014077Y019576D01*
X014262Y019520D02*
X014022Y019280D01*
X014022Y011480D01*
X014382Y011120D01*
X014595Y010925D02*
X016058Y010925D01*
X016058Y011044D02*
X014663Y011044D01*
X014671Y011162D02*
X016058Y011162D01*
X016058Y011281D02*
X014628Y011281D01*
X014462Y011399D02*
X016058Y011399D01*
X016011Y011518D02*
X014225Y011518D01*
X014192Y011636D02*
X015960Y011636D01*
X015960Y011755D02*
X014192Y011755D01*
X014192Y011873D02*
X015960Y011873D01*
X015960Y011992D02*
X014192Y011992D01*
X014192Y012110D02*
X015960Y012110D01*
X016092Y012229D02*
X014192Y012229D01*
X014192Y012347D02*
X016092Y012347D01*
X016056Y012466D02*
X014192Y012466D01*
X014192Y012584D02*
X015763Y012584D01*
X015634Y012703D02*
X014192Y012703D01*
X014192Y012821D02*
X015594Y012821D01*
X015602Y012940D02*
X014192Y012940D01*
X014192Y013058D02*
X015665Y013058D01*
X015902Y012860D02*
X016262Y012500D01*
X016262Y011900D01*
X016228Y011866D01*
X016228Y011850D01*
X016228Y010830D01*
X016478Y010580D01*
X016622Y010580D01*
X016647Y010555D01*
X017129Y010555D01*
X017129Y010358D01*
X017505Y010451D02*
X018220Y010451D01*
X018220Y010333D02*
X017519Y010333D01*
X017555Y010214D02*
X018220Y010214D01*
X018220Y010096D02*
X017555Y010096D01*
X017505Y009977D02*
X018220Y009977D01*
X018220Y009859D02*
X017505Y009859D01*
X017505Y009740D02*
X018222Y009740D01*
X018532Y009385D02*
X017682Y009385D01*
X017682Y009266D02*
X018442Y009266D01*
X018414Y009148D02*
X017682Y009148D01*
X017682Y009029D02*
X018436Y009029D01*
X018702Y009140D02*
X018702Y009321D01*
X018952Y009571D01*
X020476Y009571D01*
X020476Y009374D02*
X021348Y009374D01*
X021762Y008960D01*
X021762Y007760D01*
X022662Y006860D01*
X022455Y006659D02*
X021384Y006659D01*
X021502Y006541D02*
X023622Y006541D01*
X023622Y006659D02*
X022869Y006659D01*
X022940Y006778D02*
X023622Y006778D01*
X023622Y006896D02*
X022951Y006896D01*
X022910Y007015D02*
X023622Y007015D01*
X023622Y007133D02*
X022757Y007133D01*
X022892Y007370D02*
X022393Y007370D01*
X022511Y007252D02*
X023037Y007252D01*
X023248Y007252D02*
X023622Y007252D01*
X023622Y007370D02*
X023392Y007370D01*
X023431Y007489D02*
X023622Y007489D01*
X023622Y007607D02*
X023432Y007607D01*
X023432Y007726D02*
X023622Y007726D01*
X023622Y007844D02*
X023432Y007844D01*
X023432Y007963D02*
X023622Y007963D01*
X023622Y008081D02*
X023432Y008081D01*
X023432Y008200D02*
X023622Y008200D01*
X023622Y008318D02*
X023432Y008318D01*
X023432Y008437D02*
X023622Y008437D01*
X023622Y008555D02*
X023432Y008555D01*
X023432Y008674D02*
X023622Y008674D01*
X023622Y008792D02*
X023432Y008792D01*
X023432Y008911D02*
X023622Y008911D01*
X023622Y009029D02*
X023432Y009029D01*
X023432Y009148D02*
X023622Y009148D01*
X023622Y009266D02*
X023432Y009266D01*
X023432Y009385D02*
X023622Y009385D01*
X023622Y009503D02*
X023432Y009503D01*
X023432Y009622D02*
X023622Y009622D01*
X023622Y009740D02*
X023432Y009740D01*
X023432Y009859D02*
X023622Y009859D01*
X023622Y009977D02*
X023432Y009977D01*
X023432Y010096D02*
X023622Y010096D01*
X023622Y010214D02*
X023432Y010214D01*
X023432Y010333D02*
X023622Y010333D01*
X023622Y010451D02*
X023432Y010451D01*
X023432Y010570D02*
X023622Y010570D01*
X023622Y010688D02*
X023432Y010688D01*
X023432Y010807D02*
X023622Y010807D01*
X023622Y010925D02*
X023432Y010925D01*
X023432Y011044D02*
X023622Y011044D01*
X023622Y011162D02*
X023432Y011162D01*
X023432Y011281D02*
X023622Y011281D01*
X023622Y011399D02*
X023432Y011399D01*
X023432Y011518D02*
X023622Y011518D01*
X023622Y011636D02*
X023432Y011636D01*
X023432Y011755D02*
X023622Y011755D01*
X023622Y011873D02*
X023432Y011873D01*
X023432Y011992D02*
X023622Y011992D01*
X023622Y012110D02*
X023432Y012110D01*
X023432Y012229D02*
X023622Y012229D01*
X023622Y012347D02*
X023432Y012347D01*
X023432Y012466D02*
X023622Y012466D01*
X023622Y012584D02*
X023432Y012584D01*
X023432Y012703D02*
X023622Y012703D01*
X023622Y012821D02*
X023432Y012821D01*
X023432Y012940D02*
X023622Y012940D01*
X023622Y013058D02*
X023432Y013058D01*
X023432Y013177D02*
X023622Y013177D01*
X023622Y013295D02*
X023432Y013295D01*
X023432Y013414D02*
X023622Y013414D01*
X023622Y013532D02*
X023432Y013532D01*
X023432Y013651D02*
X023622Y013651D01*
X023622Y013769D02*
X023432Y013769D01*
X023432Y013888D02*
X023622Y013888D01*
X023622Y014006D02*
X023432Y014006D01*
X023432Y014125D02*
X023622Y014125D01*
X023622Y014243D02*
X023432Y014243D01*
X023432Y014362D02*
X023622Y014362D01*
X023622Y014480D02*
X023432Y014480D01*
X023432Y014599D02*
X023507Y014599D01*
X023092Y014599D02*
X022892Y014599D01*
X022892Y014717D02*
X023092Y014717D01*
X023092Y014836D02*
X022892Y014836D01*
X022892Y014954D02*
X023092Y014954D01*
X023092Y015073D02*
X022892Y015073D01*
X022892Y015191D02*
X023092Y015191D01*
X023092Y015310D02*
X022892Y015310D01*
X022892Y015428D02*
X023092Y015428D01*
X023092Y015547D02*
X022892Y015547D01*
X022892Y015665D02*
X023092Y015665D01*
X023092Y015784D02*
X022892Y015784D01*
X022892Y015902D02*
X023092Y015902D01*
X023092Y016021D02*
X022892Y016021D01*
X022892Y016139D02*
X023092Y016139D01*
X023092Y016258D02*
X022892Y016258D01*
X022892Y016376D02*
X023092Y016376D01*
X023092Y016495D02*
X022892Y016495D01*
X022892Y016613D02*
X023092Y016613D01*
X023092Y016732D02*
X022892Y016732D01*
X022892Y016850D02*
X023172Y016850D01*
X023290Y016969D02*
X022892Y016969D01*
X022892Y017087D02*
X023409Y017087D01*
X023527Y017206D02*
X022928Y017206D01*
X023047Y017324D02*
X023646Y017324D01*
X023764Y017443D02*
X023165Y017443D01*
X023284Y017561D02*
X023883Y017561D01*
X024001Y017680D02*
X023402Y017680D01*
X023521Y017798D02*
X024120Y017798D01*
X024238Y017917D02*
X023639Y017917D01*
X023758Y018035D02*
X024357Y018035D01*
X024475Y018154D02*
X023876Y018154D01*
X023995Y018272D02*
X024594Y018272D01*
X024712Y018391D02*
X024113Y018391D01*
X024152Y018509D02*
X024808Y018509D01*
X024808Y018628D02*
X024152Y018628D01*
X024152Y018746D02*
X024808Y018746D01*
X024808Y018865D02*
X024152Y018865D01*
X024152Y018983D02*
X024808Y018983D01*
X024808Y019102D02*
X024152Y019102D01*
X024152Y019220D02*
X024808Y019220D01*
X024808Y019339D02*
X024152Y019339D01*
X024152Y019457D02*
X024808Y019457D01*
X024808Y019576D02*
X024152Y019576D01*
X024152Y019694D02*
X024808Y019694D01*
X024808Y019813D02*
X024152Y019813D01*
X024152Y019931D02*
X024808Y019931D01*
X024777Y020050D02*
X024178Y020050D01*
X024296Y020168D02*
X024659Y020168D01*
X024568Y020287D02*
X024388Y020287D01*
X024388Y020405D02*
X024568Y020405D01*
X024568Y020524D02*
X024388Y020524D01*
X024345Y020642D02*
X024610Y020642D01*
X024978Y020429D02*
X024978Y018415D01*
X023262Y016700D01*
X023262Y007640D01*
X023142Y007520D01*
X022940Y007726D02*
X022037Y007726D01*
X021932Y007844D02*
X023092Y007844D01*
X023092Y007963D02*
X021932Y007963D01*
X021932Y008081D02*
X023092Y008081D01*
X023092Y008200D02*
X022910Y008200D01*
X022992Y008318D02*
X023092Y008318D01*
X023092Y008437D02*
X023011Y008437D01*
X022979Y008555D02*
X023092Y008555D01*
X023092Y008674D02*
X022892Y008674D01*
X022892Y008792D02*
X023092Y008792D01*
X023092Y008911D02*
X022892Y008911D01*
X022892Y009029D02*
X023092Y009029D01*
X023092Y009148D02*
X022892Y009148D01*
X022892Y009266D02*
X023092Y009266D01*
X023092Y009385D02*
X022892Y009385D01*
X022892Y009503D02*
X023092Y009503D01*
X023092Y009622D02*
X022892Y009622D01*
X022892Y009740D02*
X023092Y009740D01*
X023092Y009859D02*
X022892Y009859D01*
X022892Y009977D02*
X023092Y009977D01*
X023092Y010096D02*
X022892Y010096D01*
X022892Y010214D02*
X023092Y010214D01*
X023092Y010333D02*
X022892Y010333D01*
X022892Y010451D02*
X023092Y010451D01*
X023092Y010570D02*
X022892Y010570D01*
X022892Y010688D02*
X023092Y010688D01*
X023092Y010807D02*
X022892Y010807D01*
X022892Y010925D02*
X023092Y010925D01*
X023092Y011044D02*
X022892Y011044D01*
X022892Y011162D02*
X023092Y011162D01*
X023092Y011281D02*
X022892Y011281D01*
X022892Y011399D02*
X023092Y011399D01*
X023092Y011518D02*
X022892Y011518D01*
X022892Y011636D02*
X023092Y011636D01*
X023092Y011755D02*
X022892Y011755D01*
X022892Y011873D02*
X023092Y011873D01*
X023092Y011992D02*
X022892Y011992D01*
X022892Y012110D02*
X023092Y012110D01*
X023092Y012229D02*
X022892Y012229D01*
X022892Y012347D02*
X023092Y012347D01*
X023092Y012466D02*
X022892Y012466D01*
X022892Y012584D02*
X023092Y012584D01*
X023092Y012703D02*
X022892Y012703D01*
X022892Y012821D02*
X023092Y012821D01*
X023092Y012940D02*
X022892Y012940D01*
X022892Y013058D02*
X023092Y013058D01*
X023092Y013177D02*
X022892Y013177D01*
X022892Y013295D02*
X023092Y013295D01*
X023092Y013414D02*
X022892Y013414D01*
X022892Y013532D02*
X023092Y013532D01*
X023092Y013651D02*
X022892Y013651D01*
X022892Y013769D02*
X023092Y013769D01*
X023092Y013888D02*
X022892Y013888D01*
X022892Y014006D02*
X023092Y014006D01*
X023092Y014125D02*
X022892Y014125D01*
X022892Y014243D02*
X023092Y014243D01*
X023092Y014362D02*
X022892Y014362D01*
X022892Y014480D02*
X023092Y014480D01*
X022552Y014480D02*
X021489Y014480D01*
X021607Y014599D02*
X022552Y014599D01*
X022552Y014717D02*
X022320Y014717D01*
X022397Y014836D02*
X022552Y014836D01*
X022552Y014954D02*
X022424Y014954D01*
X022413Y015073D02*
X022552Y015073D01*
X022552Y015191D02*
X022358Y015191D01*
X022203Y015310D02*
X022552Y015310D01*
X022552Y015428D02*
X021762Y015428D01*
X021762Y015310D02*
X021909Y015310D01*
X021872Y015547D02*
X022552Y015547D01*
X022552Y015665D02*
X022284Y015665D01*
X022382Y015784D02*
X022552Y015784D01*
X022552Y015902D02*
X022424Y015902D01*
X022424Y016021D02*
X022552Y016021D01*
X022552Y016139D02*
X022379Y016139D01*
X022275Y016258D02*
X022552Y016258D01*
X022552Y016376D02*
X014192Y016376D01*
X014192Y016258D02*
X014948Y016258D01*
X014844Y016139D02*
X014192Y016139D01*
X014192Y016021D02*
X014799Y016021D01*
X014799Y015902D02*
X014192Y015902D01*
X014192Y015784D02*
X014767Y015784D01*
X014648Y015665D02*
X014192Y015665D01*
X014192Y015547D02*
X014530Y015547D01*
X014522Y015428D02*
X014192Y015428D01*
X014192Y015310D02*
X014522Y015310D01*
X014522Y015191D02*
X014192Y015191D01*
X014192Y015073D02*
X014522Y015073D01*
X014522Y014954D02*
X014192Y014954D01*
X014192Y014836D02*
X014522Y014836D01*
X014522Y014717D02*
X014192Y014717D01*
X014192Y014599D02*
X014617Y014599D01*
X014736Y014480D02*
X014192Y014480D01*
X014192Y014362D02*
X014854Y014362D01*
X014973Y014243D02*
X014192Y014243D01*
X014192Y014125D02*
X015091Y014125D01*
X015210Y014006D02*
X014192Y014006D01*
X014192Y013888D02*
X015328Y013888D01*
X015447Y013769D02*
X014192Y013769D01*
X014192Y013651D02*
X015565Y013651D01*
X015684Y013532D02*
X014192Y013532D01*
X014192Y013414D02*
X015802Y013414D01*
X015921Y013295D02*
X014192Y013295D01*
X014192Y013177D02*
X016039Y013177D01*
X016140Y013058D02*
X016158Y013058D01*
X016203Y012940D02*
X016276Y012940D01*
X016210Y012821D02*
X016395Y012821D01*
X016300Y012703D02*
X016513Y012703D01*
X016419Y012584D02*
X016632Y012584D01*
X016750Y012466D02*
X016432Y012466D01*
X016432Y012347D02*
X016869Y012347D01*
X016987Y012229D02*
X016432Y012229D01*
X016495Y012110D02*
X016669Y012110D01*
X016669Y011992D02*
X016495Y011992D01*
X016495Y011873D02*
X016669Y011873D01*
X016669Y011755D02*
X016495Y011755D01*
X016495Y011636D02*
X016669Y011636D01*
X016720Y011518D02*
X016445Y011518D01*
X016398Y011399D02*
X016753Y011399D01*
X016753Y011281D02*
X016398Y011281D01*
X016398Y011162D02*
X016753Y011162D01*
X016753Y011044D02*
X016398Y011044D01*
X016398Y010925D02*
X016753Y010925D01*
X016753Y010807D02*
X016492Y010807D01*
X017129Y010949D02*
X017471Y010949D01*
X017582Y011060D01*
X017582Y011480D01*
X017222Y011840D01*
X016947Y011840D01*
X016937Y011850D01*
X017752Y011518D02*
X020160Y011518D01*
X020100Y011399D02*
X019802Y011399D01*
X019642Y011399D02*
X017752Y011399D01*
X017752Y011281D02*
X019477Y011281D01*
X019434Y011162D02*
X017752Y011162D01*
X017752Y011044D02*
X019442Y011044D01*
X019509Y010925D02*
X017688Y010925D01*
X017569Y010807D02*
X018248Y010807D01*
X018220Y010688D02*
X017505Y010688D01*
X017505Y010570D02*
X018220Y010570D01*
X019356Y010807D02*
X019552Y010807D01*
X019552Y010688D02*
X019385Y010688D01*
X019385Y010570D02*
X019552Y010570D01*
X019552Y010451D02*
X019385Y010451D01*
X019385Y010333D02*
X019552Y010333D01*
X019552Y010214D02*
X019385Y010214D01*
X019385Y010096D02*
X019552Y010096D01*
X019552Y009977D02*
X019385Y009977D01*
X019385Y009859D02*
X019641Y009859D01*
X019722Y010018D02*
X019722Y011120D01*
X019935Y010925D02*
X020100Y010925D01*
X020100Y010807D02*
X019892Y010807D01*
X019892Y010688D02*
X020100Y010688D01*
X020100Y010570D02*
X019892Y010570D01*
X019892Y010451D02*
X020100Y010451D01*
X020100Y010333D02*
X019892Y010333D01*
X019892Y010214D02*
X020100Y010214D01*
X020100Y010096D02*
X019892Y010096D01*
X020004Y009977D02*
X020100Y009977D01*
X019972Y009768D02*
X019722Y010018D01*
X019972Y009768D02*
X020476Y009768D01*
X020851Y009740D02*
X022552Y009740D01*
X022552Y009622D02*
X020851Y009622D01*
X020851Y009859D02*
X022552Y009859D01*
X022552Y009977D02*
X020851Y009977D01*
X020851Y010096D02*
X022552Y010096D01*
X022552Y010214D02*
X020851Y010214D01*
X020851Y010333D02*
X022552Y010333D01*
X022552Y010451D02*
X020851Y010451D01*
X020851Y010570D02*
X022552Y010570D01*
X022552Y010688D02*
X020851Y010688D01*
X020851Y010807D02*
X022552Y010807D01*
X022552Y010925D02*
X020851Y010925D01*
X020851Y011044D02*
X022552Y011044D01*
X022552Y011162D02*
X020851Y011162D01*
X020851Y011281D02*
X022552Y011281D01*
X022552Y011399D02*
X020851Y011399D01*
X020791Y011518D02*
X022552Y011518D01*
X022552Y011636D02*
X020064Y011636D01*
X020064Y011755D02*
X022552Y011755D01*
X022552Y011873D02*
X020064Y011873D01*
X020064Y011992D02*
X022552Y011992D01*
X022552Y012110D02*
X020064Y012110D01*
X020064Y012229D02*
X022552Y012229D01*
X022552Y012347D02*
X020045Y012347D01*
X020045Y012466D02*
X022552Y012466D01*
X022552Y012584D02*
X020045Y012584D01*
X020045Y012703D02*
X022552Y012703D01*
X022552Y012821D02*
X020045Y012821D01*
X020045Y012940D02*
X022552Y012940D01*
X022552Y013058D02*
X020067Y013058D01*
X020185Y013177D02*
X022552Y013177D01*
X022552Y013295D02*
X020304Y013295D01*
X020422Y013414D02*
X022552Y013414D01*
X022552Y013532D02*
X020541Y013532D01*
X020659Y013651D02*
X022552Y013651D01*
X022552Y013769D02*
X020778Y013769D01*
X020896Y013888D02*
X022552Y013888D01*
X022552Y014006D02*
X021015Y014006D01*
X021133Y014125D02*
X022552Y014125D01*
X022552Y014243D02*
X021252Y014243D01*
X021370Y014362D02*
X022552Y014362D01*
X021792Y014717D02*
X021726Y014717D01*
X021442Y014954D02*
X021440Y014954D01*
X021428Y015073D02*
X021442Y015073D01*
X021442Y015191D02*
X021373Y015191D01*
X021442Y015310D02*
X021219Y015310D01*
X021442Y015428D02*
X020770Y015428D01*
X020888Y015547D02*
X021442Y015547D01*
X021538Y015665D02*
X021300Y015665D01*
X021398Y015784D02*
X021657Y015784D01*
X021689Y015902D02*
X021440Y015902D01*
X021440Y016021D02*
X021689Y016021D01*
X021734Y016139D02*
X021394Y016139D01*
X021291Y016258D02*
X021837Y016258D01*
X022552Y016495D02*
X014192Y016495D01*
X014192Y016613D02*
X022552Y016613D01*
X022552Y016732D02*
X014192Y016732D01*
X014192Y016850D02*
X022552Y016850D01*
X022552Y016969D02*
X014192Y016969D01*
X014192Y017087D02*
X022552Y017087D01*
X022552Y017206D02*
X014192Y017206D01*
X014192Y017324D02*
X022566Y017324D01*
X022684Y017443D02*
X014192Y017443D01*
X014192Y017561D02*
X022803Y017561D01*
X022921Y017680D02*
X014192Y017680D01*
X014192Y017798D02*
X023040Y017798D01*
X023158Y017917D02*
X014192Y017917D01*
X014192Y018035D02*
X023277Y018035D01*
X023395Y018154D02*
X014192Y018154D01*
X014192Y018272D02*
X023514Y018272D01*
X023632Y018391D02*
X014192Y018391D01*
X014192Y018509D02*
X023751Y018509D01*
X023812Y018628D02*
X014192Y018628D01*
X014192Y018746D02*
X023812Y018746D01*
X023812Y018865D02*
X014192Y018865D01*
X014192Y018983D02*
X023812Y018983D01*
X023812Y019102D02*
X014192Y019102D01*
X014203Y019220D02*
X023812Y019220D01*
X023812Y019339D02*
X014321Y019339D01*
X014262Y019520D02*
X018762Y019520D01*
X018978Y019735D01*
X018978Y020429D01*
X019388Y020405D02*
X019568Y020405D01*
X019568Y020287D02*
X019388Y020287D01*
X019296Y020168D02*
X019659Y020168D01*
X019777Y020050D02*
X019178Y020050D01*
X019148Y019931D02*
X023812Y019931D01*
X023812Y019813D02*
X019148Y019813D01*
X019148Y019694D02*
X023812Y019694D01*
X023812Y019576D02*
X019058Y019576D01*
X019048Y019565D02*
X019048Y019565D01*
X018940Y019457D02*
X023812Y019457D01*
X023777Y020050D02*
X023178Y020050D01*
X023296Y020168D02*
X023659Y020168D01*
X023568Y020287D02*
X023388Y020287D01*
X023388Y020405D02*
X023568Y020405D01*
X023568Y020524D02*
X023388Y020524D01*
X023345Y020642D02*
X023610Y020642D01*
X023978Y020429D02*
X023982Y020425D01*
X023982Y018500D01*
X022722Y017240D01*
X022722Y008420D01*
X022452Y008318D02*
X021932Y008318D01*
X021932Y008200D02*
X022535Y008200D01*
X022434Y008437D02*
X021932Y008437D01*
X021932Y008555D02*
X022466Y008555D01*
X022552Y008674D02*
X021932Y008674D01*
X021932Y008792D02*
X022552Y008792D01*
X022552Y008911D02*
X021932Y008911D01*
X021932Y009029D02*
X022552Y009029D01*
X022552Y009148D02*
X021815Y009148D01*
X021697Y009266D02*
X022552Y009266D01*
X022552Y009385D02*
X021578Y009385D01*
X021460Y009503D02*
X022552Y009503D01*
X021571Y008911D02*
X020051Y008911D01*
X020064Y008792D02*
X021592Y008792D01*
X021592Y008674D02*
X020064Y008674D01*
X020092Y008555D02*
X021592Y008555D01*
X021592Y008437D02*
X020092Y008437D01*
X020092Y008318D02*
X021592Y008318D01*
X021592Y008200D02*
X020092Y008200D01*
X020092Y008081D02*
X021592Y008081D01*
X021592Y007963D02*
X020092Y007963D01*
X020092Y007844D02*
X021592Y007844D01*
X021592Y007726D02*
X020092Y007726D01*
X020136Y007607D02*
X021675Y007607D01*
X021793Y007489D02*
X020254Y007489D01*
X020373Y007370D02*
X021912Y007370D01*
X022030Y007252D02*
X020491Y007252D01*
X020610Y007133D02*
X022149Y007133D01*
X022267Y007015D02*
X021028Y007015D01*
X021147Y006896D02*
X022374Y006896D01*
X022384Y006778D02*
X021265Y006778D01*
X020942Y006860D02*
X023042Y004760D01*
X023522Y004760D01*
X023792Y005030D01*
X023792Y005921D01*
X023792Y014921D01*
X023732Y014981D01*
X024932Y014981D02*
X024992Y014921D01*
X024992Y005921D01*
X024992Y004790D01*
X024722Y004520D01*
X022802Y004520D01*
X021062Y006260D01*
X020702Y006260D01*
X019682Y007260D01*
X019682Y008581D01*
X019688Y008587D01*
X019491Y008587D02*
X019491Y006951D01*
X020682Y005760D01*
X021182Y005760D01*
X022682Y004260D01*
X025242Y004260D01*
X025492Y004510D01*
X025492Y005159D01*
X025492Y014159D01*
X025432Y014219D01*
X025723Y013888D02*
X025808Y013888D01*
X025808Y013769D02*
X025662Y013769D01*
X025662Y013651D02*
X025808Y013651D01*
X025808Y013532D02*
X025662Y013532D01*
X025662Y013414D02*
X025808Y013414D01*
X025808Y013295D02*
X025662Y013295D01*
X025662Y013177D02*
X025808Y013177D01*
X025808Y013058D02*
X025662Y013058D01*
X025662Y012940D02*
X025808Y012940D01*
X025808Y012821D02*
X025662Y012821D01*
X025662Y012703D02*
X025808Y012703D01*
X025808Y012584D02*
X025662Y012584D01*
X025662Y012466D02*
X025808Y012466D01*
X025808Y012347D02*
X025662Y012347D01*
X025662Y012229D02*
X025808Y012229D01*
X025808Y012110D02*
X025662Y012110D01*
X025662Y011992D02*
X025808Y011992D01*
X025808Y011873D02*
X025662Y011873D01*
X025662Y011755D02*
X025808Y011755D01*
X025808Y011636D02*
X025662Y011636D01*
X025662Y011518D02*
X025808Y011518D01*
X025808Y011399D02*
X025662Y011399D01*
X025662Y011281D02*
X025808Y011281D01*
X025808Y011162D02*
X025662Y011162D01*
X025662Y011044D02*
X025808Y011044D01*
X025808Y010925D02*
X025662Y010925D01*
X025662Y010807D02*
X025808Y010807D01*
X025808Y010688D02*
X025662Y010688D01*
X025662Y010570D02*
X025808Y010570D01*
X025808Y010451D02*
X025662Y010451D01*
X025662Y010333D02*
X025808Y010333D01*
X025808Y010214D02*
X025662Y010214D01*
X025662Y010096D02*
X025808Y010096D01*
X025808Y009977D02*
X025662Y009977D01*
X025662Y009859D02*
X025808Y009859D01*
X025808Y009740D02*
X025662Y009740D01*
X025662Y009622D02*
X025808Y009622D01*
X025808Y009503D02*
X025662Y009503D01*
X025662Y009385D02*
X025808Y009385D01*
X025808Y009266D02*
X025662Y009266D01*
X025662Y009148D02*
X025808Y009148D01*
X025808Y009029D02*
X025662Y009029D01*
X025662Y008911D02*
X025808Y008911D01*
X025808Y008792D02*
X025662Y008792D01*
X025662Y008674D02*
X025808Y008674D01*
X025808Y008555D02*
X025662Y008555D01*
X025662Y008437D02*
X025808Y008437D01*
X025808Y008318D02*
X025662Y008318D01*
X025662Y008200D02*
X025754Y008200D01*
X025684Y008081D02*
X025662Y008081D01*
X025662Y007963D02*
X025674Y007963D01*
X025662Y007844D02*
X025715Y007844D01*
X025662Y007726D02*
X025871Y007726D01*
X026053Y007726D02*
X027491Y007726D01*
X027673Y007726D02*
X027740Y007726D01*
X027666Y007607D02*
X025662Y007607D01*
X025662Y007489D02*
X027654Y007489D01*
X027692Y007370D02*
X025662Y007370D01*
X025662Y007252D02*
X027837Y007252D01*
X028048Y007252D02*
X028513Y007252D01*
X028632Y007370D02*
X028192Y007370D01*
X028231Y007489D02*
X028750Y007489D01*
X028852Y007607D02*
X028218Y007607D01*
X028145Y007726D02*
X028852Y007726D01*
X028852Y007844D02*
X028112Y007844D01*
X028112Y007963D02*
X028852Y007963D01*
X028852Y008081D02*
X028112Y008081D01*
X028112Y008200D02*
X028175Y008200D01*
X028362Y008420D02*
X028362Y009320D01*
X028493Y009451D01*
X028849Y009451D01*
X028849Y009254D02*
X029196Y009254D01*
X029202Y009260D01*
X029262Y009200D01*
X029262Y008900D01*
X029022Y008660D01*
X029022Y007520D01*
X028362Y006860D01*
X027522Y006860D01*
X027315Y006659D02*
X025662Y006659D01*
X025662Y006541D02*
X028201Y006541D01*
X028319Y006659D02*
X027729Y006659D01*
X028082Y006422D02*
X025662Y006422D01*
X025662Y006304D02*
X027964Y006304D01*
X027845Y006185D02*
X025662Y006185D01*
X025662Y006067D02*
X027727Y006067D01*
X027608Y005948D02*
X025662Y005948D01*
X025662Y005830D02*
X027490Y005830D01*
X027371Y005711D02*
X025662Y005711D01*
X025662Y005593D02*
X027253Y005593D01*
X026887Y005474D02*
X025799Y005474D01*
X025887Y005356D02*
X026722Y005356D01*
X026663Y005237D02*
X025932Y005237D01*
X025932Y005119D02*
X026649Y005119D01*
X026673Y005000D02*
X025903Y005000D01*
X025837Y004882D02*
X026745Y004882D01*
X026943Y004763D02*
X027090Y004763D01*
X027225Y004819D01*
X027328Y004922D01*
X027384Y005057D01*
X027384Y005203D01*
X027364Y005251D01*
X027402Y005290D01*
X027402Y004758D01*
X027402Y004763D02*
X027091Y004763D01*
X027288Y004882D02*
X027402Y004882D01*
X027402Y005000D02*
X027360Y005000D01*
X027384Y005119D02*
X027402Y005119D01*
X027402Y005237D02*
X027370Y005237D01*
X027722Y004882D02*
X027730Y004882D01*
X027722Y004763D02*
X027927Y004763D01*
X028075Y004763D02*
X028392Y004763D01*
X028482Y004882D02*
X028272Y004882D01*
X028345Y005000D02*
X028482Y005000D01*
X028482Y005119D02*
X028368Y005119D01*
X028354Y005237D02*
X028482Y005237D01*
X028482Y005356D02*
X028452Y005356D01*
X028802Y005237D02*
X028842Y005237D01*
X028842Y005119D02*
X028802Y005119D01*
X028802Y005000D02*
X028842Y005000D01*
X028842Y004882D02*
X028802Y004882D01*
X028802Y004763D02*
X028842Y004763D01*
X028842Y004645D02*
X028726Y004645D01*
X028842Y004526D02*
X028607Y004526D01*
X028489Y004408D02*
X028727Y004408D01*
X028647Y004289D02*
X028370Y004289D01*
X028368Y004171D02*
X028618Y004171D01*
X028626Y004052D02*
X028360Y004052D01*
X028308Y003934D02*
X028678Y003934D01*
X028823Y003815D02*
X028162Y003815D01*
X027839Y003815D02*
X027178Y003815D01*
X027324Y003934D02*
X027693Y003934D01*
X027642Y004052D02*
X027375Y004052D01*
X027384Y004171D02*
X027633Y004171D01*
X027662Y004289D02*
X027386Y004289D01*
X027504Y004408D02*
X027743Y004408D01*
X027623Y004526D02*
X028155Y004526D01*
X028273Y004645D02*
X027722Y004645D01*
X027170Y004526D02*
X025662Y004526D01*
X025630Y004408D02*
X026759Y004408D01*
X026678Y004289D02*
X025512Y004289D01*
X025393Y004171D02*
X026649Y004171D01*
X026658Y004052D02*
X022415Y004052D01*
X022424Y004171D02*
X022531Y004171D01*
X022413Y004289D02*
X022395Y004289D01*
X022176Y004526D02*
X020694Y004526D01*
X020802Y004645D02*
X022057Y004645D01*
X021939Y004763D02*
X021146Y004763D01*
X020998Y004763D02*
X020802Y004763D01*
X020864Y004457D02*
X020999Y004513D01*
X021145Y004513D01*
X021280Y004457D01*
X021384Y004354D01*
X021440Y004219D01*
X021440Y004073D01*
X021384Y003938D01*
X021280Y003834D01*
X021145Y003778D01*
X020999Y003778D01*
X020864Y003834D01*
X020761Y003938D01*
X020705Y004073D01*
X020705Y004219D01*
X020761Y004354D01*
X020864Y004457D01*
X020814Y004408D02*
X020576Y004408D01*
X020457Y004289D02*
X020734Y004289D01*
X020705Y004171D02*
X020455Y004171D01*
X020447Y004052D02*
X020713Y004052D01*
X020765Y003934D02*
X020395Y003934D01*
X020249Y003815D02*
X020910Y003815D01*
X021234Y003815D02*
X021895Y003815D01*
X021749Y003934D02*
X021379Y003934D01*
X021431Y004052D02*
X021697Y004052D01*
X021689Y004171D02*
X021440Y004171D01*
X021411Y004289D02*
X021718Y004289D01*
X021798Y004408D02*
X021330Y004408D01*
X021343Y004882D02*
X021820Y004882D01*
X021702Y005000D02*
X021416Y005000D01*
X021440Y005119D02*
X021583Y005119D01*
X021465Y005237D02*
X021426Y005237D01*
X020482Y005000D02*
X020432Y005000D01*
X020482Y004882D02*
X020359Y004882D01*
X020479Y004763D02*
X020162Y004763D01*
X020014Y004763D02*
X019242Y004763D01*
X019242Y004645D02*
X020360Y004645D01*
X020242Y004526D02*
X019242Y004526D01*
X019362Y004408D02*
X019830Y004408D01*
X019749Y004289D02*
X019442Y004289D01*
X019471Y004171D02*
X019720Y004171D01*
X019729Y004052D02*
X019462Y004052D01*
X019411Y003934D02*
X019780Y003934D01*
X019926Y003815D02*
X019265Y003815D01*
X018942Y003815D02*
X018281Y003815D01*
X018427Y003934D02*
X018796Y003934D01*
X018745Y004052D02*
X018478Y004052D01*
X018487Y004171D02*
X018736Y004171D01*
X018765Y004289D02*
X018458Y004289D01*
X018377Y004408D02*
X018846Y004408D01*
X018922Y004526D02*
X018282Y004526D01*
X018282Y004645D02*
X018922Y004645D01*
X018922Y004763D02*
X018282Y004763D01*
X018282Y004882D02*
X018922Y004882D01*
X018922Y005000D02*
X018282Y005000D01*
X018282Y005119D02*
X018922Y005119D01*
X018922Y005237D02*
X018282Y005237D01*
X018282Y005356D02*
X018922Y005356D01*
X018922Y005474D02*
X018282Y005474D01*
X018282Y005593D02*
X018922Y005593D01*
X018922Y005711D02*
X018282Y005711D01*
X018282Y005830D02*
X018922Y005830D01*
X018922Y005948D02*
X018282Y005948D01*
X018282Y006067D02*
X018922Y006067D01*
X018922Y006185D02*
X018354Y006185D01*
X018472Y006304D02*
X018922Y006304D01*
X018922Y006422D02*
X018591Y006422D01*
X018709Y006541D02*
X018855Y006541D01*
X017962Y005948D02*
X017877Y005948D01*
X017962Y005830D02*
X017758Y005830D01*
X017640Y005711D02*
X017962Y005711D01*
X017962Y005593D02*
X017521Y005593D01*
X017403Y005474D02*
X017962Y005474D01*
X017962Y005356D02*
X017322Y005356D01*
X017322Y005237D02*
X017962Y005237D01*
X017962Y005119D02*
X017322Y005119D01*
X017322Y005000D02*
X017962Y005000D01*
X017962Y004882D02*
X017322Y004882D01*
X017322Y004763D02*
X017962Y004763D01*
X017962Y004645D02*
X017322Y004645D01*
X017322Y004526D02*
X017962Y004526D01*
X017861Y004408D02*
X017393Y004408D01*
X017473Y004289D02*
X017781Y004289D01*
X017752Y004171D02*
X017503Y004171D01*
X017494Y004052D02*
X017760Y004052D01*
X017812Y003934D02*
X017442Y003934D01*
X017297Y003815D02*
X017958Y003815D01*
X016973Y003815D02*
X016312Y003815D01*
X016458Y003934D02*
X016828Y003934D01*
X016776Y004052D02*
X016510Y004052D01*
X016518Y004171D02*
X016768Y004171D01*
X016797Y004289D02*
X016520Y004289D01*
X016639Y004408D02*
X016877Y004408D01*
X016757Y004526D02*
X017002Y004526D01*
X017002Y004645D02*
X016876Y004645D01*
X016869Y004637D02*
X016869Y004637D01*
X016962Y004763D02*
X017002Y004763D01*
X017002Y004882D02*
X016962Y004882D01*
X016962Y005000D02*
X017002Y005000D01*
X017002Y005119D02*
X016962Y005119D01*
X016962Y005237D02*
X017002Y005237D01*
X017002Y005356D02*
X016962Y005356D01*
X016642Y005356D02*
X016602Y005356D01*
X016642Y005237D02*
X016504Y005237D01*
X016518Y005119D02*
X016642Y005119D01*
X016642Y005000D02*
X016495Y005000D01*
X016422Y004882D02*
X016642Y004882D01*
X016542Y004763D02*
X016225Y004763D01*
X016077Y004763D02*
X015882Y004763D01*
X015882Y004645D02*
X016423Y004645D01*
X016305Y004526D02*
X015773Y004526D01*
X015654Y004408D02*
X015893Y004408D01*
X015812Y004289D02*
X015536Y004289D01*
X015534Y004171D02*
X015783Y004171D01*
X015792Y004052D02*
X015525Y004052D01*
X015474Y003934D02*
X015843Y003934D01*
X015989Y003815D02*
X015328Y003815D01*
X015005Y003815D02*
X012968Y003815D01*
X013114Y003934D02*
X014859Y003934D01*
X014808Y004052D02*
X013165Y004052D01*
X013174Y004171D02*
X014799Y004171D01*
X014828Y004289D02*
X013145Y004289D01*
X013064Y004408D02*
X014909Y004408D01*
X015288Y004493D02*
X015562Y004768D01*
X015562Y005300D01*
X015514Y005251D01*
X015534Y005203D01*
X015534Y005057D01*
X015478Y004922D01*
X015375Y004819D01*
X015240Y004763D01*
X015093Y004763D01*
X015241Y004763D02*
X015557Y004763D01*
X015562Y004882D02*
X015438Y004882D01*
X015510Y005000D02*
X015562Y005000D01*
X015562Y005119D02*
X015534Y005119D01*
X015520Y005237D02*
X015562Y005237D01*
X014730Y005474D02*
X012455Y005474D01*
X012573Y005356D02*
X014612Y005356D01*
X014849Y005593D02*
X012336Y005593D01*
X012218Y005711D02*
X014967Y005711D01*
X015439Y004645D02*
X014353Y004645D01*
X012548Y004408D02*
X012080Y004408D01*
X012161Y004289D02*
X012468Y004289D01*
X012439Y004171D02*
X012190Y004171D01*
X012181Y004052D02*
X012447Y004052D01*
X012499Y003934D02*
X012129Y003934D01*
X011984Y003815D02*
X012645Y003815D01*
X007723Y003815D02*
X007062Y003815D01*
X007208Y003934D02*
X007578Y003934D01*
X007526Y004052D02*
X007260Y004052D01*
X007268Y004171D02*
X007518Y004171D01*
X007547Y004289D02*
X007270Y004289D01*
X007389Y004408D02*
X007627Y004408D01*
X007507Y004526D02*
X007762Y004526D01*
X007762Y004645D02*
X007602Y004645D01*
X007602Y004763D02*
X007762Y004763D01*
X007762Y004882D02*
X007602Y004882D01*
X007602Y005000D02*
X007762Y005000D01*
X007762Y005119D02*
X007602Y005119D01*
X007602Y005237D02*
X007762Y005237D01*
X007762Y005356D02*
X007684Y005356D01*
X007282Y005237D02*
X007254Y005237D01*
X007268Y005119D02*
X007282Y005119D01*
X007282Y005000D02*
X007245Y005000D01*
X007282Y004882D02*
X007172Y004882D01*
X007282Y004763D02*
X006975Y004763D01*
X006827Y004763D02*
X006642Y004763D01*
X006641Y004645D02*
X007173Y004645D01*
X007055Y004526D02*
X006523Y004526D01*
X006404Y004408D02*
X006643Y004408D01*
X006562Y004289D02*
X006286Y004289D01*
X006284Y004171D02*
X006533Y004171D01*
X006542Y004052D02*
X006275Y004052D01*
X006224Y003934D02*
X006593Y003934D01*
X006739Y003815D02*
X006078Y003815D01*
X006188Y004882D02*
X006322Y004882D01*
X006322Y005000D02*
X006260Y005000D01*
X006284Y005119D02*
X006322Y005119D01*
X006322Y005237D02*
X006270Y005237D01*
X012162Y007844D02*
X015515Y007844D01*
X015474Y007963D02*
X012162Y007963D01*
X012162Y008081D02*
X015484Y008081D01*
X015554Y008200D02*
X012162Y008200D01*
X012162Y008318D02*
X015592Y008318D01*
X015592Y008437D02*
X012162Y008437D01*
X012162Y008555D02*
X015592Y008555D01*
X015592Y008674D02*
X012162Y008674D01*
X012162Y008792D02*
X015592Y008792D01*
X015592Y008911D02*
X013781Y008911D01*
X013869Y009029D02*
X015592Y009029D01*
X015592Y009148D02*
X013891Y009148D01*
X013862Y009266D02*
X015592Y009266D01*
X015592Y009385D02*
X013832Y009385D01*
X013832Y009503D02*
X015592Y009503D01*
X015592Y009622D02*
X013832Y009622D01*
X013832Y009740D02*
X015592Y009740D01*
X015666Y009859D02*
X013832Y009859D01*
X013832Y009977D02*
X015784Y009977D01*
X016182Y009560D02*
X016182Y007520D01*
X016288Y007252D02*
X016508Y007252D01*
X016432Y007370D02*
X016626Y007370D01*
X016745Y007489D02*
X016471Y007489D01*
X016458Y007607D02*
X016863Y007607D01*
X016982Y007726D02*
X016385Y007726D01*
X016352Y007844D02*
X017100Y007844D01*
X017219Y007963D02*
X016352Y007963D01*
X016352Y008081D02*
X017337Y008081D01*
X017362Y008200D02*
X016730Y008200D01*
X016812Y008318D02*
X017362Y008318D01*
X017362Y008437D02*
X016831Y008437D01*
X016799Y008555D02*
X017362Y008555D01*
X017362Y008674D02*
X016712Y008674D01*
X016712Y008792D02*
X017362Y008792D01*
X017362Y008911D02*
X016712Y008911D01*
X016712Y009029D02*
X016787Y009029D01*
X016753Y009148D02*
X016712Y009148D01*
X016712Y009266D02*
X016753Y009266D01*
X016542Y009380D02*
X016542Y008420D01*
X016355Y008200D02*
X016352Y008200D01*
X016542Y009380D02*
X016733Y009571D01*
X017129Y009571D01*
X017121Y009760D02*
X016382Y009760D01*
X016182Y009560D01*
X017121Y009760D02*
X017129Y009768D01*
X017505Y009622D02*
X018762Y009622D01*
X018644Y009503D02*
X017666Y009503D01*
X018962Y009266D02*
X020100Y009266D01*
X020100Y009148D02*
X018991Y009148D01*
X018969Y009029D02*
X020134Y009029D01*
X020100Y009385D02*
X019006Y009385D01*
X019885Y008587D02*
X019922Y008549D01*
X019922Y007580D01*
X020642Y006860D01*
X020942Y006860D01*
X021621Y006422D02*
X023622Y006422D01*
X023565Y006304D02*
X021739Y006304D01*
X021858Y006185D02*
X023434Y006185D01*
X023376Y006067D02*
X021976Y006067D01*
X022095Y005948D02*
X023352Y005948D01*
X023354Y005830D02*
X022213Y005830D01*
X022332Y005711D02*
X023403Y005711D01*
X023499Y005593D02*
X022450Y005593D01*
X022569Y005474D02*
X023622Y005474D01*
X023622Y005356D02*
X022687Y005356D01*
X022806Y005237D02*
X023622Y005237D01*
X023622Y005119D02*
X022924Y005119D01*
X023043Y005000D02*
X023522Y005000D01*
X024392Y005159D02*
X024392Y014159D01*
X024332Y014219D01*
X026148Y014243D02*
X026833Y014243D01*
X026951Y014125D02*
X026148Y014125D01*
X026148Y014006D02*
X027070Y014006D01*
X027188Y013888D02*
X026148Y013888D01*
X026148Y013769D02*
X027307Y013769D01*
X027425Y013651D02*
X026148Y013651D01*
X026148Y013532D02*
X027544Y013532D01*
X027662Y013414D02*
X026148Y013414D01*
X026148Y013295D02*
X027781Y013295D01*
X027543Y013177D02*
X026148Y013177D01*
X026148Y013058D02*
X027446Y013058D01*
X027414Y012940D02*
X026148Y012940D01*
X026148Y012821D02*
X027430Y012821D01*
X027504Y012703D02*
X026148Y012703D01*
X026148Y012584D02*
X027818Y012584D01*
X027928Y012466D02*
X026148Y012466D01*
X026148Y012347D02*
X027928Y012347D01*
X027928Y012229D02*
X026148Y012229D01*
X026148Y012110D02*
X027869Y012110D01*
X027830Y011992D02*
X026148Y011992D01*
X026148Y011873D02*
X027830Y011873D01*
X027830Y011755D02*
X026148Y011755D01*
X026148Y011636D02*
X027830Y011636D01*
X027830Y011518D02*
X026148Y011518D01*
X026148Y011399D02*
X027928Y011399D01*
X027928Y011281D02*
X026148Y011281D01*
X026148Y011162D02*
X027928Y011162D01*
X027928Y011044D02*
X026148Y011044D01*
X026148Y010925D02*
X027928Y010925D01*
X027928Y010807D02*
X026148Y010807D01*
X026148Y010688D02*
X027928Y010688D01*
X027973Y010570D02*
X026148Y010570D01*
X026148Y010451D02*
X028092Y010451D01*
X028210Y010333D02*
X026148Y010333D01*
X026148Y010214D02*
X028461Y010214D01*
X028423Y010096D02*
X026148Y010096D01*
X026148Y009977D02*
X027904Y009977D01*
X027942Y010015D02*
X028423Y010015D01*
X028423Y010042D01*
X028849Y010042D01*
X028847Y010040D01*
X028849Y009845D02*
X028012Y009845D01*
X027582Y009415D01*
X027582Y008000D01*
X027374Y008200D02*
X026171Y008200D01*
X026148Y008318D02*
X027412Y008318D01*
X027412Y008437D02*
X026148Y008437D01*
X026148Y008555D02*
X027412Y008555D01*
X027412Y008674D02*
X026148Y008674D01*
X026148Y008792D02*
X027412Y008792D01*
X027412Y008911D02*
X026148Y008911D01*
X026148Y009029D02*
X027412Y009029D01*
X027412Y009148D02*
X026148Y009148D01*
X026148Y009266D02*
X027412Y009266D01*
X027412Y009385D02*
X026148Y009385D01*
X026148Y009503D02*
X027430Y009503D01*
X027549Y009622D02*
X026148Y009622D01*
X026148Y009740D02*
X027667Y009740D01*
X027786Y009859D02*
X026148Y009859D01*
X027942Y009218D02*
X027942Y007520D01*
X027617Y007133D02*
X028395Y007133D01*
X027428Y007133D02*
X025662Y007133D01*
X025662Y007015D02*
X027274Y007015D01*
X027234Y006896D02*
X025662Y006896D01*
X025662Y006778D02*
X027244Y006778D01*
X027335Y007844D02*
X026210Y007844D01*
X026251Y007963D02*
X027294Y007963D01*
X027304Y008081D02*
X026241Y008081D01*
X025978Y008015D02*
X025962Y008000D01*
X025978Y008015D02*
X025978Y020429D01*
X026388Y020405D02*
X026568Y020405D01*
X026568Y020287D02*
X026388Y020287D01*
X026296Y020168D02*
X026659Y020168D01*
X026777Y020050D02*
X026178Y020050D01*
X026148Y019931D02*
X028031Y019931D01*
X028149Y019813D02*
X026148Y019813D01*
X026148Y019694D02*
X028268Y019694D01*
X028442Y019760D02*
X034682Y019760D01*
X034802Y019640D01*
X044102Y019640D01*
X044342Y019400D01*
X044342Y009500D01*
X044102Y009260D01*
X041461Y009260D01*
X041456Y009254D01*
X041456Y009451D02*
X040012Y009451D01*
X039762Y009201D01*
X039762Y009140D01*
X039496Y009029D02*
X038682Y009029D01*
X038682Y008911D02*
X039584Y008911D01*
X039474Y009148D02*
X038682Y009148D01*
X038485Y009503D02*
X039824Y009503D01*
X039599Y009385D02*
X039518Y009303D01*
X039200Y009622D02*
X038485Y009622D01*
X038485Y009740D02*
X039200Y009740D01*
X039200Y009859D02*
X038487Y009859D01*
X038535Y009977D02*
X039200Y009977D01*
X039200Y010096D02*
X038535Y010096D01*
X038498Y010214D02*
X039200Y010214D01*
X039200Y010333D02*
X038485Y010333D01*
X038485Y010451D02*
X039200Y010451D01*
X039200Y010570D02*
X038485Y010570D01*
X038571Y010688D02*
X039230Y010688D01*
X038752Y010925D02*
X040509Y010925D01*
X040552Y010807D02*
X038689Y010807D01*
X038582Y010940D02*
X038471Y010829D01*
X038109Y010829D01*
X038084Y010460D02*
X037682Y010460D01*
X037408Y010734D01*
X037408Y011730D01*
X037408Y012534D01*
X037022Y012920D01*
X036804Y012703D02*
X031765Y012703D01*
X031765Y012821D02*
X036730Y012821D01*
X036714Y012940D02*
X031765Y012940D01*
X031787Y013058D02*
X036746Y013058D01*
X036843Y013177D02*
X031905Y013177D01*
X032024Y013295D02*
X037021Y013295D01*
X036902Y013414D02*
X032142Y013414D01*
X032261Y013532D02*
X036784Y013532D01*
X036665Y013651D02*
X032379Y013651D01*
X032498Y013769D02*
X036547Y013769D01*
X036428Y013888D02*
X032616Y013888D01*
X032735Y014006D02*
X036310Y014006D01*
X036191Y014125D02*
X032853Y014125D01*
X032972Y014243D02*
X036073Y014243D01*
X035954Y014362D02*
X033090Y014362D01*
X033209Y014480D02*
X035836Y014480D01*
X035717Y014599D02*
X033327Y014599D01*
X033446Y014717D02*
X033642Y014717D01*
X033565Y014836D02*
X033564Y014836D01*
X033282Y015073D02*
X033278Y015073D01*
X033282Y015191D02*
X033223Y015191D01*
X033282Y015310D02*
X033069Y015310D01*
X033282Y015428D02*
X032701Y015428D01*
X032738Y015547D02*
X033343Y015547D01*
X033461Y015665D02*
X033150Y015665D01*
X033248Y015784D02*
X033580Y015784D01*
X033539Y015902D02*
X033290Y015902D01*
X033290Y016021D02*
X033539Y016021D01*
X033584Y016139D02*
X033244Y016139D01*
X033141Y016258D02*
X033687Y016258D01*
X034125Y016258D02*
X036048Y016258D01*
X035944Y016139D02*
X034229Y016139D01*
X034274Y016021D02*
X035899Y016021D01*
X035899Y015902D02*
X034274Y015902D01*
X034232Y015784D02*
X035867Y015784D01*
X035748Y015665D02*
X034134Y015665D01*
X033795Y015547D02*
X035630Y015547D01*
X035622Y015428D02*
X033677Y015428D01*
X033602Y015310D02*
X033759Y015310D01*
X033605Y015191D02*
X033602Y015191D01*
X034053Y015310D02*
X035622Y015310D01*
X035622Y015191D02*
X034208Y015191D01*
X034263Y015073D02*
X035622Y015073D01*
X035622Y014954D02*
X034274Y014954D01*
X034247Y014836D02*
X035622Y014836D01*
X035622Y014717D02*
X034170Y014717D01*
X035942Y015191D02*
X035965Y015191D01*
X035942Y015310D02*
X036120Y015310D01*
X035964Y015428D02*
X037388Y015428D01*
X037398Y015310D02*
X037506Y015310D01*
X037552Y015191D02*
X037622Y015191D01*
X037607Y015073D02*
X037622Y015073D01*
X037618Y014954D02*
X037622Y014954D01*
X037614Y014836D02*
X037622Y014836D01*
X037399Y014599D02*
X036867Y014599D01*
X036748Y014717D02*
X036987Y014717D01*
X036910Y014836D02*
X036630Y014836D01*
X036634Y014954D02*
X036883Y014954D01*
X036894Y015073D02*
X036623Y015073D01*
X036568Y015191D02*
X036950Y015191D01*
X037104Y015310D02*
X036413Y015310D01*
X036082Y015547D02*
X037269Y015547D01*
X037023Y015665D02*
X036494Y015665D01*
X036593Y015784D02*
X036925Y015784D01*
X036883Y015902D02*
X036634Y015902D01*
X036634Y016021D02*
X036883Y016021D01*
X036928Y016139D02*
X036589Y016139D01*
X036486Y016258D02*
X037032Y016258D01*
X037470Y016258D02*
X038016Y016258D01*
X037913Y016139D02*
X037573Y016139D01*
X037618Y016021D02*
X037868Y016021D01*
X037868Y015902D02*
X037618Y015902D01*
X037577Y015784D02*
X037909Y015784D01*
X038007Y015665D02*
X037604Y015665D01*
X037722Y015547D02*
X038419Y015547D01*
X038450Y015428D02*
X037841Y015428D01*
X037942Y015310D02*
X038088Y015310D01*
X038235Y014973D02*
X038522Y015260D01*
X038532Y015260D01*
X038872Y015547D02*
X039403Y015547D01*
X039522Y015428D02*
X038990Y015428D01*
X039109Y015310D02*
X039640Y015310D01*
X039721Y015191D02*
X039227Y015191D01*
X039346Y015073D02*
X039721Y015073D01*
X039721Y014954D02*
X039464Y014954D01*
X039583Y014836D02*
X039721Y014836D01*
X039721Y014717D02*
X039701Y014717D01*
X040434Y014717D02*
X040513Y014717D01*
X040434Y014836D02*
X040632Y014836D01*
X040750Y014954D02*
X040434Y014954D01*
X040530Y015073D02*
X040869Y015073D01*
X040987Y015191D02*
X040648Y015191D01*
X040767Y015310D02*
X041106Y015310D01*
X041224Y015428D02*
X040885Y015428D01*
X041004Y015547D02*
X041343Y015547D01*
X041416Y015665D02*
X041461Y015665D01*
X041514Y015784D02*
X041580Y015784D01*
X041555Y015902D02*
X041698Y015902D01*
X041805Y016021D02*
X041555Y016021D01*
X041510Y016139D02*
X041850Y016139D01*
X041953Y016258D02*
X041407Y016258D01*
X040969Y016258D02*
X040423Y016258D01*
X040526Y016139D02*
X040866Y016139D01*
X040820Y016021D02*
X040571Y016021D01*
X040571Y015902D02*
X040820Y015902D01*
X040788Y015784D02*
X040530Y015784D01*
X040431Y015665D02*
X040670Y015665D01*
X040551Y015547D02*
X040238Y015547D01*
X040238Y015428D02*
X040433Y015428D01*
X040314Y015310D02*
X040238Y015310D01*
X039918Y015547D02*
X039856Y015547D01*
X039918Y015665D02*
X039737Y015665D01*
X039619Y015784D02*
X039878Y015784D01*
X039836Y015902D02*
X039587Y015902D01*
X039587Y016021D02*
X039836Y016021D01*
X039881Y016139D02*
X039542Y016139D01*
X039438Y016258D02*
X039985Y016258D01*
X039000Y016258D02*
X038454Y016258D01*
X038557Y016139D02*
X038897Y016139D01*
X038852Y016021D02*
X038603Y016021D01*
X038603Y015902D02*
X038852Y015902D01*
X038893Y015784D02*
X038635Y015784D01*
X038753Y015665D02*
X038991Y015665D01*
X040847Y014599D02*
X040895Y014599D01*
X040966Y014717D02*
X041013Y014717D01*
X041084Y014836D02*
X041132Y014836D01*
X041203Y014954D02*
X041250Y014954D01*
X041321Y015073D02*
X041369Y015073D01*
X041440Y015191D02*
X041487Y015191D01*
X041558Y015310D02*
X041606Y015310D01*
X041677Y015428D02*
X042622Y015428D01*
X042622Y015310D02*
X042319Y015310D01*
X042473Y015191D02*
X042622Y015191D01*
X042619Y015073D02*
X042528Y015073D01*
X042716Y014717D02*
X042892Y014717D01*
X042597Y014599D02*
X044172Y014599D01*
X044172Y014717D02*
X043420Y014717D01*
X043497Y014836D02*
X044172Y014836D01*
X044172Y014954D02*
X043524Y014954D01*
X043513Y015073D02*
X044172Y015073D01*
X044172Y015191D02*
X043458Y015191D01*
X043303Y015310D02*
X044172Y015310D01*
X044172Y015428D02*
X042942Y015428D01*
X042942Y015310D02*
X043009Y015310D01*
X042972Y015547D02*
X044172Y015547D01*
X044172Y015665D02*
X043384Y015665D01*
X043482Y015784D02*
X044172Y015784D01*
X044172Y015902D02*
X043524Y015902D01*
X043524Y016021D02*
X044172Y016021D01*
X044172Y016139D02*
X043479Y016139D01*
X043375Y016258D02*
X044172Y016258D01*
X044172Y016376D02*
X026148Y016376D01*
X026148Y016258D02*
X026798Y016258D01*
X026694Y016139D02*
X026148Y016139D01*
X026148Y016021D02*
X026649Y016021D01*
X026649Y015902D02*
X026148Y015902D01*
X026148Y015784D02*
X026617Y015784D01*
X026498Y015665D02*
X026148Y015665D01*
X026148Y015547D02*
X026442Y015547D01*
X026442Y015428D02*
X026148Y015428D01*
X026148Y015310D02*
X026442Y015310D01*
X026442Y015191D02*
X026148Y015191D01*
X026148Y015073D02*
X026442Y015073D01*
X026442Y014954D02*
X026148Y014954D01*
X026148Y014836D02*
X026442Y014836D01*
X026442Y014717D02*
X026148Y014717D01*
X026148Y014599D02*
X026477Y014599D01*
X026596Y014480D02*
X026148Y014480D01*
X026148Y014362D02*
X026714Y014362D01*
X027380Y014836D02*
X027660Y014836D01*
X027633Y014954D02*
X027384Y014954D01*
X027373Y015073D02*
X027644Y015073D01*
X027700Y015191D02*
X027318Y015191D01*
X027163Y015310D02*
X027854Y015310D01*
X028148Y015310D02*
X028362Y015310D01*
X028362Y015191D02*
X028302Y015191D01*
X028357Y015073D02*
X028362Y015073D01*
X028682Y015191D02*
X028684Y015191D01*
X028682Y015310D02*
X028838Y015310D01*
X028682Y015428D02*
X029288Y015428D01*
X029406Y015310D02*
X029132Y015310D01*
X029286Y015191D02*
X029525Y015191D01*
X029643Y015073D02*
X029341Y015073D01*
X029353Y014954D02*
X029762Y014954D01*
X029880Y014836D02*
X029348Y014836D01*
X029467Y014717D02*
X029999Y014717D01*
X030117Y014599D02*
X029585Y014599D01*
X029704Y014480D02*
X030236Y014480D01*
X030264Y014362D02*
X029822Y014362D01*
X029941Y014243D02*
X030264Y014243D01*
X030264Y014125D02*
X030059Y014125D01*
X030178Y014006D02*
X030264Y014006D01*
X031174Y014480D02*
X031219Y014480D01*
X031174Y014599D02*
X031337Y014599D01*
X031456Y014717D02*
X031174Y014717D01*
X031174Y014836D02*
X031574Y014836D01*
X031693Y014954D02*
X031174Y014954D01*
X031280Y015073D02*
X031811Y015073D01*
X031930Y015191D02*
X031398Y015191D01*
X031517Y015310D02*
X032048Y015310D01*
X032167Y015428D02*
X031635Y015428D01*
X031754Y015547D02*
X032285Y015547D01*
X032166Y015665D02*
X032404Y015665D01*
X032522Y015784D02*
X032264Y015784D01*
X032305Y015902D02*
X032555Y015902D01*
X032555Y016021D02*
X032305Y016021D01*
X032260Y016139D02*
X032600Y016139D01*
X032703Y016258D02*
X032157Y016258D01*
X031719Y016258D02*
X031173Y016258D01*
X031276Y016139D02*
X031616Y016139D01*
X031570Y016021D02*
X031321Y016021D01*
X031321Y015902D02*
X031570Y015902D01*
X031538Y015784D02*
X031280Y015784D01*
X031181Y015665D02*
X031420Y015665D01*
X031301Y015547D02*
X030978Y015547D01*
X030978Y015428D02*
X031183Y015428D01*
X031064Y015310D02*
X030978Y015310D01*
X030658Y015547D02*
X030606Y015547D01*
X030658Y015665D02*
X030487Y015665D01*
X030369Y015784D02*
X030628Y015784D01*
X030586Y015902D02*
X030337Y015902D01*
X030337Y016021D02*
X030586Y016021D01*
X030631Y016139D02*
X030292Y016139D01*
X030188Y016258D02*
X030735Y016258D01*
X030153Y015547D02*
X029622Y015547D01*
X029503Y015665D02*
X029741Y015665D01*
X029643Y015784D02*
X029385Y015784D01*
X029353Y015902D02*
X029602Y015902D01*
X029602Y016021D02*
X029353Y016021D01*
X029307Y016139D02*
X029647Y016139D01*
X029750Y016258D02*
X029204Y016258D01*
X028766Y016258D02*
X028220Y016258D01*
X028323Y016139D02*
X028663Y016139D01*
X028618Y016021D02*
X028368Y016021D01*
X028368Y015902D02*
X028618Y015902D01*
X028659Y015784D02*
X028400Y015784D01*
X028519Y015665D02*
X028757Y015665D01*
X028637Y015547D02*
X029169Y015547D01*
X029740Y015428D02*
X030272Y015428D01*
X030390Y015310D02*
X029859Y015310D01*
X029977Y015191D02*
X030461Y015191D01*
X030461Y015073D02*
X030096Y015073D01*
X030214Y014954D02*
X030461Y014954D01*
X030461Y014836D02*
X030333Y014836D01*
X030451Y014717D02*
X030461Y014717D01*
X028860Y013888D02*
X028328Y013888D01*
X028209Y014006D02*
X028741Y014006D01*
X028623Y014125D02*
X028091Y014125D01*
X027972Y014243D02*
X028504Y014243D01*
X028386Y014362D02*
X027854Y014362D01*
X027735Y014480D02*
X028267Y014480D01*
X028149Y014599D02*
X027617Y014599D01*
X027498Y014717D02*
X027737Y014717D01*
X026870Y015310D02*
X026762Y015310D01*
X026762Y015428D02*
X028303Y015428D01*
X028185Y015547D02*
X026832Y015547D01*
X027244Y015665D02*
X027773Y015665D01*
X027675Y015784D02*
X027343Y015784D01*
X027384Y015902D02*
X027633Y015902D01*
X027633Y016021D02*
X027384Y016021D01*
X027339Y016139D02*
X027678Y016139D01*
X027782Y016258D02*
X027236Y016258D01*
X026148Y016495D02*
X044172Y016495D01*
X044172Y016613D02*
X026148Y016613D01*
X026148Y016732D02*
X044172Y016732D01*
X044172Y016850D02*
X026148Y016850D01*
X026148Y016969D02*
X044172Y016969D01*
X044172Y017087D02*
X026148Y017087D01*
X026148Y017206D02*
X044172Y017206D01*
X044172Y017324D02*
X026148Y017324D01*
X026148Y017443D02*
X044172Y017443D01*
X044172Y017561D02*
X026148Y017561D01*
X026148Y017680D02*
X044172Y017680D01*
X044172Y017798D02*
X026148Y017798D01*
X026148Y017917D02*
X044172Y017917D01*
X044172Y018035D02*
X026148Y018035D01*
X026148Y018154D02*
X044172Y018154D01*
X044172Y018272D02*
X026148Y018272D01*
X026148Y018391D02*
X044172Y018391D01*
X044172Y018509D02*
X026148Y018509D01*
X026148Y018628D02*
X044172Y018628D01*
X044172Y018746D02*
X026148Y018746D01*
X026148Y018865D02*
X044172Y018865D01*
X044172Y018983D02*
X026148Y018983D01*
X026148Y019102D02*
X044172Y019102D01*
X044172Y019220D02*
X026148Y019220D01*
X026148Y019339D02*
X044163Y019339D01*
X044045Y019457D02*
X026148Y019457D01*
X026148Y019576D02*
X034626Y019576D01*
X034585Y019931D02*
X029102Y019931D01*
X029388Y020050D02*
X034522Y020050D01*
X034522Y020168D02*
X034217Y020168D01*
X034217Y020287D02*
X034522Y020287D01*
X034522Y020405D02*
X034217Y020405D01*
X034169Y020524D02*
X034522Y020524D01*
X034522Y020642D02*
X034215Y020642D01*
X034217Y020761D02*
X034522Y020761D01*
X034522Y020879D02*
X034217Y020879D01*
X034195Y020998D02*
X034522Y020998D01*
X034522Y021116D02*
X034189Y021116D01*
X034217Y021472D02*
X035187Y021472D01*
X035187Y021353D02*
X034816Y021353D01*
X034842Y021235D02*
X035187Y021235D01*
X035216Y021116D02*
X034842Y021116D01*
X034842Y020998D02*
X035152Y020998D01*
X035137Y020879D02*
X034842Y020879D01*
X034842Y020761D02*
X035137Y020761D01*
X035137Y020810D02*
X035732Y020810D01*
X035732Y020810D01*
X035137Y020810D01*
X035144Y020642D02*
X034842Y020642D01*
X034842Y020524D02*
X035235Y020524D01*
X035187Y020405D02*
X034842Y020405D01*
X034842Y020287D02*
X035187Y020287D01*
X035187Y020168D02*
X034842Y020168D01*
X034919Y020050D02*
X036366Y020050D01*
X036277Y020168D02*
X036484Y020168D01*
X036603Y020287D02*
X036277Y020287D01*
X036277Y020405D02*
X036721Y020405D01*
X036840Y020524D02*
X036229Y020524D01*
X036320Y020642D02*
X036919Y020642D01*
X036894Y020761D02*
X036327Y020761D01*
X036327Y020810D02*
X035732Y020810D01*
X036327Y020810D01*
X036327Y020879D02*
X036919Y020879D01*
X037012Y020998D02*
X036313Y020998D01*
X036249Y021116D02*
X044682Y021116D01*
X044682Y020998D02*
X037353Y020998D01*
X037445Y020879D02*
X044682Y020879D01*
X044682Y020761D02*
X037471Y020761D01*
X037446Y020642D02*
X044682Y020642D01*
X044682Y020524D02*
X037354Y020524D01*
X037174Y020405D02*
X044682Y020405D01*
X044682Y020287D02*
X037055Y020287D01*
X036937Y020168D02*
X044682Y020168D01*
X044682Y020050D02*
X036818Y020050D01*
X036700Y019931D02*
X044682Y019931D01*
X044682Y019813D02*
X036581Y019813D01*
X035732Y020810D02*
X035732Y020810D01*
X036277Y021235D02*
X044682Y021235D01*
X044682Y021353D02*
X036277Y021353D01*
X036277Y021472D02*
X036567Y021472D01*
X036560Y021590D02*
X036294Y021590D01*
X036327Y021709D02*
X036560Y021709D01*
X036560Y021827D02*
X036327Y021827D01*
X036327Y021810D02*
X035732Y021810D01*
X035137Y021810D01*
X035732Y021810D01*
X035732Y021810D01*
X035732Y021810D01*
X036327Y021810D01*
X036327Y021946D02*
X036496Y021946D01*
X036522Y022160D02*
X036828Y021854D01*
X036828Y021760D01*
X037095Y021709D02*
X037219Y021709D01*
X037219Y021741D02*
X037219Y021503D01*
X037230Y021462D01*
X037251Y021426D01*
X037281Y021396D01*
X037317Y021375D01*
X037358Y021364D01*
X037518Y021364D01*
X037518Y021741D01*
X037555Y021741D01*
X037555Y021364D01*
X037715Y021364D01*
X037756Y021375D01*
X037792Y021396D01*
X037822Y021426D01*
X037843Y021462D01*
X037854Y021503D01*
X037854Y021741D01*
X037555Y021741D01*
X037555Y021779D01*
X037518Y021779D01*
X037518Y022156D01*
X037358Y022156D01*
X037317Y022145D01*
X037281Y022124D01*
X037251Y022094D01*
X037230Y022058D01*
X037219Y022017D01*
X037219Y021779D01*
X037518Y021779D01*
X037518Y021741D01*
X037219Y021741D01*
X037219Y021827D02*
X037095Y021827D01*
X037095Y021946D02*
X037219Y021946D01*
X037234Y022064D02*
X037073Y022064D01*
X036740Y022183D02*
X044682Y022183D01*
X044682Y022301D02*
X036622Y022301D01*
X036522Y022160D02*
X034022Y022160D01*
X033672Y021810D01*
X033672Y021910D01*
X033422Y022160D01*
X030842Y022160D01*
X030602Y021920D01*
X030378Y021709D02*
X030188Y021709D01*
X030095Y021827D02*
X030307Y021827D01*
X030294Y021946D02*
X030001Y021946D01*
X029908Y022064D02*
X030328Y022064D01*
X030431Y022183D02*
X029815Y022183D01*
X029728Y022301D02*
X030743Y022301D01*
X030910Y021946D02*
X031329Y021946D01*
X031326Y021827D02*
X030897Y021827D01*
X030827Y021709D02*
X031326Y021709D01*
X031326Y021590D02*
X030281Y021590D01*
X029990Y020998D02*
X029896Y020998D01*
X029896Y020879D02*
X031376Y020879D01*
X031781Y020761D02*
X029896Y020761D01*
X029860Y020642D02*
X031900Y020642D01*
X032018Y020524D02*
X029811Y020524D01*
X029762Y020405D02*
X032137Y020405D01*
X032255Y020287D02*
X029668Y020287D01*
X029550Y020168D02*
X032374Y020168D01*
X032471Y020524D02*
X033175Y020524D01*
X033130Y020642D02*
X032352Y020642D01*
X032234Y020761D02*
X032581Y020761D01*
X032869Y020998D02*
X033149Y020998D01*
X033156Y021116D02*
X032869Y021116D01*
X032869Y021235D02*
X033127Y021235D01*
X033127Y021353D02*
X032416Y021353D01*
X032504Y021472D02*
X032541Y021472D01*
X032541Y021437D02*
X032780Y021437D01*
X032820Y021448D01*
X032857Y021469D01*
X032887Y021499D01*
X032908Y021535D01*
X032919Y021576D01*
X032919Y021736D01*
X032541Y021736D01*
X032541Y021437D01*
X032541Y021590D02*
X032504Y021590D01*
X032504Y021709D02*
X032541Y021709D01*
X032504Y021736D02*
X032126Y021736D01*
X032126Y021576D01*
X032136Y021540D01*
X032109Y021540D01*
X032119Y021576D01*
X032119Y021736D01*
X031741Y021736D01*
X031741Y021773D01*
X032119Y021773D01*
X032119Y021933D01*
X032108Y021974D01*
X032098Y021990D01*
X032146Y021990D01*
X032137Y021974D01*
X032126Y021933D01*
X032126Y021773D01*
X032504Y021773D01*
X032504Y021736D01*
X032126Y021709D02*
X032119Y021709D01*
X032119Y021827D02*
X032126Y021827D01*
X032115Y021946D02*
X032129Y021946D01*
X032119Y021590D02*
X032126Y021590D01*
X032859Y021472D02*
X033127Y021472D01*
X033182Y021590D02*
X032919Y021590D01*
X032919Y021709D02*
X033127Y021709D01*
X033127Y021827D02*
X032919Y021827D01*
X032915Y021946D02*
X033127Y021946D01*
X033640Y022183D02*
X033804Y022183D01*
X033923Y022301D02*
X033522Y022301D01*
X034217Y021946D02*
X035137Y021946D01*
X035137Y021827D02*
X034217Y021827D01*
X034217Y021709D02*
X035137Y021709D01*
X035171Y021590D02*
X034163Y021590D01*
X032176Y021116D02*
X032069Y021116D01*
X032069Y020998D02*
X032176Y020998D01*
X032176Y020879D02*
X032115Y020879D01*
X028442Y019760D02*
X027302Y020900D01*
X017228Y020900D01*
X016978Y020650D01*
X016978Y020429D01*
X017388Y020405D02*
X017568Y020405D01*
X017568Y020287D02*
X017388Y020287D01*
X017296Y020168D02*
X017659Y020168D01*
X017777Y020050D02*
X017178Y020050D01*
X016777Y020050D02*
X016248Y020050D01*
X016168Y019969D02*
X016438Y020239D01*
X016438Y020389D01*
X016018Y020389D01*
X016018Y020469D01*
X016438Y020469D01*
X016438Y020620D01*
X016168Y020889D01*
X016018Y020889D01*
X016018Y020469D01*
X015938Y020469D01*
X015938Y020889D01*
X015787Y020889D01*
X015518Y020620D01*
X015518Y020469D01*
X015938Y020469D01*
X015938Y020389D01*
X016018Y020389D01*
X016018Y019969D01*
X016168Y019969D01*
X016018Y020050D02*
X015938Y020050D01*
X015938Y019969D02*
X015938Y020389D01*
X015518Y020389D01*
X015518Y020239D01*
X015787Y019969D01*
X015938Y019969D01*
X015938Y020168D02*
X016018Y020168D01*
X016018Y020287D02*
X015938Y020287D01*
X015938Y020405D02*
X015388Y020405D01*
X015388Y020287D02*
X015518Y020287D01*
X015388Y020259D02*
X015147Y020019D01*
X014808Y020019D01*
X014568Y020259D01*
X014568Y020599D01*
X014808Y020839D01*
X015147Y020839D01*
X015388Y020599D01*
X015388Y020259D01*
X015296Y020168D02*
X015588Y020168D01*
X015707Y020050D02*
X015178Y020050D01*
X014777Y020050D02*
X014178Y020050D01*
X014147Y020019D02*
X014388Y020259D01*
X014388Y020599D01*
X014147Y020839D01*
X013808Y020839D01*
X013568Y020599D01*
X013568Y020259D01*
X013808Y020019D01*
X014147Y020019D01*
X014296Y020168D02*
X014659Y020168D01*
X014568Y020287D02*
X014388Y020287D01*
X014388Y020405D02*
X014568Y020405D01*
X014568Y020524D02*
X014388Y020524D01*
X014345Y020642D02*
X014610Y020642D01*
X014729Y020761D02*
X014226Y020761D01*
X014244Y021116D02*
X014711Y021116D01*
X014592Y021235D02*
X014363Y021235D01*
X014388Y021353D02*
X014568Y021353D01*
X014568Y021472D02*
X014388Y021472D01*
X014388Y021590D02*
X014568Y021590D01*
X014677Y021709D02*
X014278Y021709D01*
X013677Y021709D02*
X013278Y021709D01*
X013388Y021590D02*
X013568Y021590D01*
X013568Y021472D02*
X013388Y021472D01*
X013388Y021353D02*
X013568Y021353D01*
X013592Y021235D02*
X013363Y021235D01*
X013244Y021116D02*
X013711Y021116D01*
X013729Y020761D02*
X013226Y020761D01*
X013147Y020839D02*
X013388Y020599D01*
X013388Y020259D01*
X013147Y020019D01*
X012808Y020019D01*
X012568Y020259D01*
X012568Y020599D01*
X012808Y020839D01*
X013147Y020839D01*
X013345Y020642D02*
X013610Y020642D01*
X013568Y020524D02*
X013388Y020524D01*
X013388Y020405D02*
X013568Y020405D01*
X013568Y020287D02*
X013388Y020287D01*
X013296Y020168D02*
X013659Y020168D01*
X013777Y020050D02*
X013178Y020050D01*
X012777Y020050D02*
X012178Y020050D01*
X012147Y020019D02*
X012388Y020259D01*
X012388Y020599D01*
X012147Y020839D01*
X011808Y020839D01*
X011568Y020599D01*
X011568Y020259D01*
X011808Y020019D01*
X012147Y020019D01*
X012296Y020168D02*
X012659Y020168D01*
X012568Y020287D02*
X012388Y020287D01*
X012388Y020405D02*
X012568Y020405D01*
X012568Y020524D02*
X012388Y020524D01*
X012345Y020642D02*
X012610Y020642D01*
X012729Y020761D02*
X012226Y020761D01*
X012244Y021116D02*
X012711Y021116D01*
X012592Y021235D02*
X012363Y021235D01*
X012388Y021353D02*
X012568Y021353D01*
X012568Y021472D02*
X012388Y021472D01*
X012388Y021590D02*
X012568Y021590D01*
X012677Y021709D02*
X012278Y021709D01*
X011677Y021709D02*
X011278Y021709D01*
X011388Y021590D02*
X011568Y021590D01*
X011568Y021472D02*
X011388Y021472D01*
X011388Y021353D02*
X011568Y021353D01*
X011592Y021235D02*
X011363Y021235D01*
X011244Y021116D02*
X011711Y021116D01*
X011729Y020761D02*
X011226Y020761D01*
X011147Y020839D02*
X010808Y020839D01*
X010568Y020599D01*
X010568Y020259D01*
X010808Y020019D01*
X011147Y020019D01*
X011388Y020259D01*
X011388Y020599D01*
X011147Y020839D01*
X011345Y020642D02*
X011610Y020642D01*
X011568Y020524D02*
X011388Y020524D01*
X011388Y020405D02*
X011568Y020405D01*
X011568Y020287D02*
X011388Y020287D01*
X011296Y020168D02*
X011659Y020168D01*
X011777Y020050D02*
X011178Y020050D01*
X010777Y020050D02*
X010178Y020050D01*
X010296Y020168D02*
X010659Y020168D01*
X010568Y020287D02*
X010388Y020287D01*
X010388Y020405D02*
X010568Y020405D01*
X010568Y020524D02*
X010388Y020524D01*
X010417Y020642D02*
X010610Y020642D01*
X010535Y020761D02*
X010729Y020761D01*
X010602Y020879D02*
X015777Y020879D01*
X015938Y020879D02*
X016018Y020879D01*
X016018Y020761D02*
X015938Y020761D01*
X015938Y020642D02*
X016018Y020642D01*
X016018Y020524D02*
X015938Y020524D01*
X016018Y020405D02*
X016568Y020405D01*
X016568Y020287D02*
X016438Y020287D01*
X016367Y020168D02*
X016659Y020168D01*
X016568Y020524D02*
X016438Y020524D01*
X016415Y020642D02*
X016610Y020642D01*
X016729Y020761D02*
X016297Y020761D01*
X016178Y020879D02*
X016966Y020879D01*
X017085Y020998D02*
X010602Y020998D01*
X010602Y021116D02*
X010711Y021116D01*
X010282Y021116D02*
X010244Y021116D01*
X010282Y020998D02*
X009642Y020998D01*
X009642Y021116D02*
X009711Y021116D01*
X009642Y020879D02*
X010201Y020879D01*
X009729Y020761D02*
X009535Y020761D01*
X009610Y020642D02*
X009417Y020642D01*
X009388Y020524D02*
X009568Y020524D01*
X009568Y020405D02*
X009388Y020405D01*
X009388Y020287D02*
X009568Y020287D01*
X009659Y020168D02*
X009296Y020168D01*
X009178Y020050D02*
X009777Y020050D01*
X008777Y020050D02*
X008416Y020050D01*
X008427Y020068D02*
X008438Y020108D01*
X008438Y020389D01*
X008018Y020389D01*
X008018Y020469D01*
X008438Y020469D01*
X008438Y020750D01*
X008427Y020791D01*
X008406Y020828D01*
X008376Y020857D01*
X008339Y020878D01*
X008299Y020889D01*
X008018Y020889D01*
X008018Y020469D01*
X007938Y020469D01*
X007938Y020889D01*
X007656Y020889D01*
X007616Y020878D01*
X007579Y020857D01*
X007550Y020828D01*
X007528Y020791D01*
X007518Y020750D01*
X007518Y020469D01*
X007938Y020469D01*
X007938Y020389D01*
X008018Y020389D01*
X008018Y019969D01*
X008299Y019969D01*
X008339Y019980D01*
X008376Y020001D01*
X008406Y020031D01*
X008427Y020068D01*
X008438Y020168D02*
X008659Y020168D01*
X008568Y020287D02*
X008438Y020287D01*
X008568Y020405D02*
X008018Y020405D01*
X007938Y020405D02*
X006927Y020405D01*
X006909Y020362D02*
X007062Y020730D01*
X007062Y021128D01*
X006909Y021497D01*
X006627Y021778D01*
X006259Y021931D01*
X005861Y021931D01*
X005493Y021778D01*
X005211Y021497D01*
X005059Y021128D01*
X005059Y020730D01*
X005211Y020362D01*
X005493Y020080D01*
X005861Y019928D01*
X006259Y019928D01*
X006627Y020080D01*
X006909Y020362D01*
X006834Y020287D02*
X007518Y020287D01*
X007518Y020389D02*
X007518Y020108D01*
X007528Y020068D01*
X007550Y020031D01*
X007579Y020001D01*
X007616Y019980D01*
X007656Y019969D01*
X007938Y019969D01*
X007938Y020389D01*
X007518Y020389D01*
X007518Y020524D02*
X006976Y020524D01*
X007025Y020642D02*
X007518Y020642D01*
X007520Y020761D02*
X007062Y020761D01*
X007062Y020879D02*
X007618Y020879D01*
X007711Y021116D02*
X007062Y021116D01*
X007062Y020998D02*
X009320Y020998D01*
X009322Y021116D02*
X009244Y021116D01*
X009201Y020879D02*
X008337Y020879D01*
X008435Y020761D02*
X008729Y020761D01*
X008610Y020642D02*
X008438Y020642D01*
X008438Y020524D02*
X008568Y020524D01*
X008018Y020524D02*
X007938Y020524D01*
X007938Y020642D02*
X008018Y020642D01*
X008018Y020761D02*
X007938Y020761D01*
X007938Y020879D02*
X008018Y020879D01*
X008244Y021116D02*
X008711Y021116D01*
X008677Y021709D02*
X008278Y021709D01*
X008160Y021827D02*
X008795Y021827D01*
X009160Y021827D02*
X009343Y021827D01*
X009322Y021709D02*
X009278Y021709D01*
X009462Y021946D02*
X004682Y021946D01*
X004682Y022064D02*
X009580Y022064D01*
X009699Y022183D02*
X004682Y022183D01*
X004682Y022301D02*
X009817Y022301D01*
X007795Y021827D02*
X006509Y021827D01*
X006697Y021709D02*
X007677Y021709D01*
X007568Y021590D02*
X006816Y021590D01*
X006919Y021472D02*
X007568Y021472D01*
X007568Y021353D02*
X006969Y021353D01*
X007018Y021235D02*
X007592Y021235D01*
X007938Y020287D02*
X008018Y020287D01*
X008018Y020168D02*
X007938Y020168D01*
X007938Y020050D02*
X008018Y020050D01*
X007539Y020050D02*
X006553Y020050D01*
X006715Y020168D02*
X007518Y020168D01*
X006267Y019931D02*
X017793Y019931D01*
X017862Y019760D02*
X013902Y019760D01*
X015388Y020524D02*
X015518Y020524D01*
X015540Y020642D02*
X015345Y020642D01*
X015226Y020761D02*
X015658Y020761D01*
X015711Y021116D02*
X015244Y021116D01*
X015363Y021235D02*
X015592Y021235D01*
X015568Y021353D02*
X015388Y021353D01*
X015388Y021472D02*
X015568Y021472D01*
X015568Y021590D02*
X015388Y021590D01*
X015278Y021709D02*
X015677Y021709D01*
X016278Y021709D02*
X016677Y021709D01*
X016568Y021590D02*
X016388Y021590D01*
X016388Y021472D02*
X016568Y021472D01*
X016568Y021353D02*
X016388Y021353D01*
X016363Y021235D02*
X016592Y021235D01*
X016711Y021116D02*
X016244Y021116D01*
X017345Y020642D02*
X017610Y020642D01*
X017568Y020524D02*
X017388Y020524D01*
X017978Y020429D02*
X017978Y019875D01*
X017862Y019760D01*
X018932Y019450D02*
X018932Y019450D01*
X020178Y020050D02*
X020777Y020050D01*
X020659Y020168D02*
X020296Y020168D01*
X020388Y020287D02*
X020568Y020287D01*
X020568Y020405D02*
X020388Y020405D01*
X020388Y020524D02*
X020568Y020524D01*
X020610Y020642D02*
X020345Y020642D01*
X019610Y020642D02*
X019345Y020642D01*
X019388Y020524D02*
X019568Y020524D01*
X021178Y020050D02*
X021777Y020050D01*
X021659Y020168D02*
X021296Y020168D01*
X021388Y020287D02*
X021568Y020287D01*
X021568Y020405D02*
X021388Y020405D01*
X021388Y020524D02*
X021568Y020524D01*
X021610Y020642D02*
X021345Y020642D01*
X022345Y020642D02*
X022610Y020642D01*
X022568Y020524D02*
X022388Y020524D01*
X022388Y020405D02*
X022568Y020405D01*
X022568Y020287D02*
X022388Y020287D01*
X022296Y020168D02*
X022659Y020168D01*
X022777Y020050D02*
X022178Y020050D01*
X026345Y020642D02*
X026610Y020642D01*
X026568Y020524D02*
X026388Y020524D01*
X027178Y020050D02*
X027912Y020050D01*
X027794Y020168D02*
X027296Y020168D01*
X027388Y020287D02*
X027675Y020287D01*
X027557Y020405D02*
X027388Y020405D01*
X027388Y020524D02*
X027438Y020524D01*
X020853Y016258D02*
X020307Y016258D01*
X020410Y016139D02*
X020750Y016139D01*
X020705Y016021D02*
X020455Y016021D01*
X020455Y015902D02*
X020705Y015902D01*
X020672Y015784D02*
X020414Y015784D01*
X020316Y015665D02*
X020554Y015665D01*
X020435Y015547D02*
X019904Y015547D01*
X019785Y015428D02*
X020317Y015428D01*
X020198Y015310D02*
X019667Y015310D01*
X019548Y015191D02*
X020080Y015191D01*
X019961Y015073D02*
X019454Y015073D01*
X019454Y014954D02*
X019843Y014954D01*
X019724Y014836D02*
X019454Y014836D01*
X019454Y014717D02*
X019606Y014717D01*
X019487Y014599D02*
X019454Y014599D01*
X019703Y014362D02*
X020235Y014362D01*
X020353Y014480D02*
X019822Y014480D01*
X019940Y014599D02*
X020472Y014599D01*
X020590Y014717D02*
X020059Y014717D01*
X020177Y014836D02*
X020709Y014836D01*
X020705Y014954D02*
X020296Y014954D01*
X020414Y015073D02*
X020716Y015073D01*
X020771Y015191D02*
X020533Y015191D01*
X020651Y015310D02*
X020925Y015310D01*
X019688Y015784D02*
X019430Y015784D01*
X019471Y015902D02*
X019720Y015902D01*
X019720Y016021D02*
X019471Y016021D01*
X019426Y016139D02*
X019766Y016139D01*
X019869Y016258D02*
X019323Y016258D01*
X018885Y016258D02*
X018338Y016258D01*
X018442Y016139D02*
X018781Y016139D01*
X018736Y016021D02*
X018487Y016021D01*
X018487Y015902D02*
X018736Y015902D01*
X018778Y015784D02*
X018519Y015784D01*
X018637Y015665D02*
X018876Y015665D01*
X018938Y015547D02*
X018756Y015547D01*
X018874Y015428D02*
X018938Y015428D01*
X019258Y015428D02*
X019333Y015428D01*
X019258Y015547D02*
X019451Y015547D01*
X019570Y015665D02*
X019331Y015665D01*
X018422Y015428D02*
X017890Y015428D01*
X017772Y015547D02*
X018303Y015547D01*
X018540Y015310D02*
X018009Y015310D01*
X018127Y015191D02*
X018659Y015191D01*
X018741Y015073D02*
X018246Y015073D01*
X018364Y014954D02*
X018741Y014954D01*
X018741Y014836D02*
X018483Y014836D01*
X018601Y014717D02*
X018741Y014717D01*
X018741Y014599D02*
X018720Y014599D01*
X018504Y014362D02*
X017972Y014362D01*
X017854Y014480D02*
X018386Y014480D01*
X018267Y014599D02*
X017735Y014599D01*
X017617Y014717D02*
X018149Y014717D01*
X018030Y014836D02*
X017498Y014836D01*
X017503Y014954D02*
X017912Y014954D01*
X017793Y015073D02*
X017491Y015073D01*
X017436Y015191D02*
X017675Y015191D01*
X017556Y015310D02*
X017282Y015310D01*
X017438Y015428D02*
X016842Y015428D01*
X016842Y015310D02*
X016988Y015310D01*
X016787Y015547D02*
X017319Y015547D01*
X017535Y015784D02*
X017793Y015784D01*
X017752Y015902D02*
X017503Y015902D01*
X017503Y016021D02*
X017752Y016021D01*
X017797Y016139D02*
X017457Y016139D01*
X017354Y016258D02*
X017900Y016258D01*
X017891Y015665D02*
X017653Y015665D01*
X016907Y015665D02*
X016669Y015665D01*
X016550Y015784D02*
X016809Y015784D01*
X016768Y015902D02*
X016518Y015902D01*
X016518Y016021D02*
X016768Y016021D01*
X016813Y016139D02*
X016473Y016139D01*
X016370Y016258D02*
X016916Y016258D01*
X015932Y016258D02*
X015386Y016258D01*
X015489Y016139D02*
X015828Y016139D01*
X015783Y016021D02*
X015534Y016021D01*
X015534Y015902D02*
X015783Y015902D01*
X015825Y015784D02*
X015493Y015784D01*
X015394Y015665D02*
X015923Y015665D01*
X016335Y015547D02*
X014982Y015547D01*
X014864Y015428D02*
X016453Y015428D01*
X016522Y015310D02*
X016298Y015310D01*
X016452Y015191D02*
X016522Y015191D01*
X016507Y015073D02*
X016522Y015073D01*
X016518Y014954D02*
X016522Y014954D01*
X016514Y014836D02*
X016522Y014836D01*
X016299Y014599D02*
X015767Y014599D01*
X015648Y014717D02*
X015887Y014717D01*
X015810Y014836D02*
X015530Y014836D01*
X015534Y014954D02*
X015783Y014954D01*
X015794Y015073D02*
X015523Y015073D01*
X015468Y015191D02*
X015850Y015191D01*
X016004Y015310D02*
X015313Y015310D01*
X015020Y015310D02*
X014842Y015310D01*
X014842Y015191D02*
X014865Y015191D01*
X015885Y014480D02*
X016417Y014480D01*
X016536Y014362D02*
X016004Y014362D01*
X016122Y014243D02*
X016654Y014243D01*
X016773Y014125D02*
X016241Y014125D01*
X016359Y014006D02*
X016891Y014006D01*
X017010Y013888D02*
X016478Y013888D01*
X016596Y013769D02*
X017128Y013769D01*
X017247Y013651D02*
X016715Y013651D01*
X016833Y013532D02*
X017365Y013532D01*
X017484Y013414D02*
X016952Y013414D01*
X017070Y013295D02*
X017602Y013295D01*
X017721Y013177D02*
X017189Y013177D01*
X017307Y013058D02*
X017839Y013058D01*
X017953Y012940D02*
X017426Y012940D01*
X017544Y012821D02*
X017953Y012821D01*
X017953Y012703D02*
X017663Y012703D01*
X017781Y012584D02*
X017953Y012584D01*
X017953Y012466D02*
X017900Y012466D01*
X018446Y013888D02*
X018544Y013888D01*
X018544Y014006D02*
X018328Y014006D01*
X018209Y014125D02*
X018544Y014125D01*
X018544Y014243D02*
X018091Y014243D01*
X019651Y014243D02*
X020116Y014243D01*
X019998Y014125D02*
X019651Y014125D01*
X019651Y014006D02*
X019879Y014006D01*
X019761Y013888D02*
X019651Y013888D01*
X019968Y011281D02*
X020100Y011281D01*
X020100Y011162D02*
X020011Y011162D01*
X020003Y011044D02*
X020100Y011044D01*
X020851Y009148D02*
X021334Y009148D01*
X021453Y009029D02*
X020817Y009029D01*
X022156Y007607D02*
X022866Y007607D01*
X022854Y007489D02*
X022274Y007489D01*
X019399Y005593D02*
X019242Y005593D01*
X019242Y005711D02*
X019281Y005711D01*
X019242Y005474D02*
X019518Y005474D01*
X019636Y005356D02*
X019242Y005356D01*
X019242Y005237D02*
X019734Y005237D01*
X019720Y005119D02*
X019242Y005119D01*
X019242Y005000D02*
X019744Y005000D01*
X019817Y004882D02*
X019242Y004882D01*
X022218Y003815D02*
X026855Y003815D01*
X026709Y003934D02*
X022364Y003934D01*
X029147Y003815D02*
X029808Y003815D01*
X029662Y003934D02*
X029292Y003934D01*
X029344Y004052D02*
X029610Y004052D01*
X029602Y004171D02*
X029353Y004171D01*
X029323Y004289D02*
X029631Y004289D01*
X029711Y004408D02*
X029243Y004408D01*
X029162Y004526D02*
X029922Y004526D01*
X029922Y004645D02*
X029162Y004645D01*
X029162Y004763D02*
X029922Y004763D01*
X029922Y004882D02*
X029162Y004882D01*
X029162Y005000D02*
X029922Y005000D01*
X029922Y005119D02*
X029162Y005119D01*
X029162Y005237D02*
X029922Y005237D01*
X029922Y005356D02*
X029244Y005356D01*
X029363Y005474D02*
X029922Y005474D01*
X029922Y005593D02*
X029481Y005593D01*
X029600Y005711D02*
X029922Y005711D01*
X029922Y005830D02*
X029718Y005830D01*
X029837Y005948D02*
X029922Y005948D01*
X030242Y005948D02*
X030762Y005948D01*
X030762Y005830D02*
X030242Y005830D01*
X030242Y005711D02*
X030762Y005711D01*
X030762Y005593D02*
X030242Y005593D01*
X030242Y005474D02*
X030762Y005474D01*
X030762Y005356D02*
X030242Y005356D01*
X030242Y005237D02*
X030762Y005237D01*
X030762Y005119D02*
X030242Y005119D01*
X030242Y005000D02*
X030762Y005000D01*
X030762Y004882D02*
X030242Y004882D01*
X030242Y004763D02*
X030762Y004763D01*
X030762Y004645D02*
X030242Y004645D01*
X030242Y004526D02*
X030762Y004526D01*
X030696Y004408D02*
X030242Y004408D01*
X030308Y004289D02*
X030615Y004289D01*
X030586Y004171D02*
X030337Y004171D01*
X030328Y004052D02*
X030595Y004052D01*
X030646Y003934D02*
X030277Y003934D01*
X030131Y003815D02*
X030792Y003815D01*
X031115Y003815D02*
X031776Y003815D01*
X031630Y003934D02*
X031261Y003934D01*
X031312Y004052D02*
X031579Y004052D01*
X031570Y004171D02*
X031321Y004171D01*
X031292Y004289D02*
X031599Y004289D01*
X031680Y004408D02*
X031212Y004408D01*
X031082Y004526D02*
X032092Y004526D01*
X032210Y004645D02*
X031082Y004645D01*
X031082Y004763D02*
X031864Y004763D01*
X032012Y004763D02*
X032322Y004763D01*
X032322Y004882D02*
X032209Y004882D01*
X032282Y005000D02*
X032322Y005000D01*
X032322Y005119D02*
X032305Y005119D01*
X032573Y005356D02*
X032628Y005356D01*
X032792Y005474D02*
X032455Y005474D01*
X032336Y005593D02*
X033624Y005593D01*
X033742Y005474D02*
X033052Y005474D01*
X033216Y005356D02*
X033861Y005356D01*
X033979Y005237D02*
X033276Y005237D01*
X033290Y005119D02*
X034098Y005119D01*
X034195Y005474D02*
X035790Y005474D01*
X035909Y005593D02*
X034076Y005593D01*
X033958Y005711D02*
X036027Y005711D01*
X036146Y005830D02*
X033839Y005830D01*
X033721Y005948D02*
X036264Y005948D01*
X036383Y006067D02*
X033602Y006067D01*
X033484Y006185D02*
X036501Y006185D01*
X036620Y006304D02*
X033365Y006304D01*
X033342Y006422D02*
X036738Y006422D01*
X036857Y006541D02*
X033342Y006541D01*
X033342Y006659D02*
X036975Y006659D01*
X037094Y006778D02*
X033342Y006778D01*
X033342Y006896D02*
X037212Y006896D01*
X037331Y007015D02*
X033342Y007015D01*
X033342Y007133D02*
X037449Y007133D01*
X037568Y007252D02*
X037108Y007252D01*
X037252Y007370D02*
X037686Y007370D01*
X037805Y007489D02*
X037291Y007489D01*
X037278Y007607D02*
X037923Y007607D01*
X038042Y007726D02*
X037205Y007726D01*
X037172Y007844D02*
X038160Y007844D01*
X038279Y007963D02*
X037172Y007963D01*
X037172Y008081D02*
X038362Y008081D01*
X038362Y008200D02*
X037670Y008200D01*
X037752Y008318D02*
X038362Y008318D01*
X038362Y008437D02*
X037771Y008437D01*
X037739Y008555D02*
X038362Y008555D01*
X038362Y008674D02*
X037652Y008674D01*
X037652Y008792D02*
X038362Y008792D01*
X037766Y008911D02*
X037652Y008911D01*
X037652Y009029D02*
X037733Y009029D01*
X037733Y009148D02*
X037669Y009148D01*
X037482Y009201D02*
X037732Y009451D01*
X038109Y009451D01*
X038109Y009648D02*
X037252Y009648D01*
X037002Y009398D01*
X037002Y007520D01*
X036800Y007726D02*
X036793Y007726D01*
X036726Y007607D02*
X033342Y007607D01*
X033342Y007489D02*
X036714Y007489D01*
X036752Y007370D02*
X033342Y007370D01*
X033342Y007252D02*
X036897Y007252D01*
X036611Y007726D02*
X033342Y007726D01*
X033342Y007844D02*
X036455Y007844D01*
X036414Y007963D02*
X033342Y007963D01*
X033342Y008081D02*
X036424Y008081D01*
X036494Y008200D02*
X033342Y008200D01*
X033342Y008318D02*
X036532Y008318D01*
X036532Y008437D02*
X033342Y008437D01*
X033342Y008555D02*
X036532Y008555D01*
X036532Y008674D02*
X033342Y008674D01*
X033342Y008792D02*
X036532Y008792D01*
X036532Y008911D02*
X033342Y008911D01*
X033342Y009029D02*
X036532Y009029D01*
X036532Y009148D02*
X033271Y009148D01*
X033153Y009266D02*
X036532Y009266D01*
X036532Y009385D02*
X033034Y009385D01*
X032937Y009029D02*
X032571Y009029D01*
X032539Y008911D02*
X033022Y008911D01*
X033022Y008792D02*
X031770Y008792D01*
X031784Y008674D02*
X033022Y008674D01*
X033022Y008555D02*
X031784Y008555D01*
X031784Y008437D02*
X033022Y008437D01*
X033022Y008318D02*
X031784Y008318D01*
X031784Y008200D02*
X033022Y008200D01*
X033022Y008081D02*
X031174Y008081D01*
X031174Y007963D02*
X033022Y007963D01*
X033022Y007844D02*
X031174Y007844D01*
X031174Y007726D02*
X033022Y007726D01*
X033022Y007607D02*
X031174Y007607D01*
X031174Y007489D02*
X033022Y007489D01*
X033022Y007370D02*
X031174Y007370D01*
X031174Y007252D02*
X033022Y007252D01*
X033022Y007133D02*
X031174Y007133D01*
X031174Y007015D02*
X033022Y007015D01*
X033022Y006896D02*
X031174Y006896D01*
X031174Y006778D02*
X033022Y006778D01*
X033022Y006659D02*
X031270Y006659D01*
X031388Y006541D02*
X033022Y006541D01*
X033022Y006422D02*
X031507Y006422D01*
X031625Y006304D02*
X033022Y006304D01*
X033031Y006185D02*
X031744Y006185D01*
X031862Y006067D02*
X033150Y006067D01*
X033268Y005948D02*
X031981Y005948D01*
X032099Y005830D02*
X033387Y005830D01*
X033505Y005711D02*
X032218Y005711D01*
X031584Y005237D02*
X031082Y005237D01*
X031082Y005119D02*
X031570Y005119D01*
X031594Y005000D02*
X031082Y005000D01*
X031082Y004882D02*
X031667Y004882D01*
X032544Y004526D02*
X036420Y004526D01*
X036340Y004763D02*
X036475Y004819D01*
X036578Y004922D01*
X036622Y005029D01*
X036622Y004728D01*
X036622Y004763D02*
X036341Y004763D01*
X036340Y004763D02*
X036193Y004763D01*
X035995Y004882D02*
X033193Y004882D01*
X033266Y005000D02*
X035923Y005000D01*
X035899Y005119D02*
X035887Y005119D01*
X036538Y004882D02*
X036622Y004882D01*
X036610Y005000D02*
X036622Y005000D01*
X036942Y004882D02*
X036980Y004882D01*
X036942Y004763D02*
X037177Y004763D01*
X037325Y004763D02*
X037622Y004763D01*
X037622Y004882D02*
X037522Y004882D01*
X037595Y005000D02*
X037622Y005000D01*
X037618Y005119D02*
X037622Y005119D01*
X037622Y005237D02*
X037604Y005237D01*
X037942Y005119D02*
X038122Y005119D01*
X038122Y005237D02*
X037986Y005237D01*
X038104Y005356D02*
X038152Y005356D01*
X038223Y005474D02*
X038270Y005474D01*
X038341Y005593D02*
X038389Y005593D01*
X038460Y005711D02*
X038507Y005711D01*
X038578Y005830D02*
X038626Y005830D01*
X038697Y005948D02*
X038744Y005948D01*
X038815Y006067D02*
X038863Y006067D01*
X038934Y006185D02*
X038981Y006185D01*
X039052Y006304D02*
X039100Y006304D01*
X039171Y006422D02*
X039218Y006422D01*
X039289Y006541D02*
X039327Y006541D01*
X039434Y006185D02*
X039481Y006185D01*
X039363Y006067D02*
X039315Y006067D01*
X039244Y005948D02*
X039197Y005948D01*
X039126Y005830D02*
X039078Y005830D01*
X039122Y005711D02*
X038960Y005711D01*
X038841Y005593D02*
X039122Y005593D01*
X039122Y005474D02*
X038723Y005474D01*
X038604Y005356D02*
X039122Y005356D01*
X039122Y005237D02*
X038486Y005237D01*
X038442Y005119D02*
X039122Y005119D01*
X039122Y005000D02*
X038442Y005000D01*
X038442Y004882D02*
X039122Y004882D01*
X039122Y004763D02*
X038442Y004763D01*
X038442Y004645D02*
X039122Y004645D01*
X039122Y004526D02*
X038442Y004526D01*
X038493Y004408D02*
X038961Y004408D01*
X038881Y004289D02*
X038573Y004289D01*
X038603Y004171D02*
X038852Y004171D01*
X038860Y004052D02*
X038594Y004052D01*
X038542Y003934D02*
X038912Y003934D01*
X039058Y003815D02*
X038397Y003815D01*
X038073Y003815D02*
X037412Y003815D01*
X037558Y003934D02*
X037928Y003934D01*
X037876Y004052D02*
X037610Y004052D01*
X037618Y004171D02*
X037868Y004171D01*
X037897Y004289D02*
X037620Y004289D01*
X037739Y004408D02*
X037977Y004408D01*
X037857Y004526D02*
X038122Y004526D01*
X038122Y004645D02*
X037942Y004645D01*
X037942Y004763D02*
X038122Y004763D01*
X038122Y004882D02*
X037942Y004882D01*
X037942Y005000D02*
X038122Y005000D01*
X037523Y004645D02*
X036942Y004645D01*
X036873Y004526D02*
X037405Y004526D01*
X036993Y004408D02*
X036754Y004408D01*
X036636Y004289D02*
X036912Y004289D01*
X036883Y004171D02*
X036634Y004171D01*
X036625Y004052D02*
X036892Y004052D01*
X036943Y003934D02*
X036574Y003934D01*
X036428Y003815D02*
X037089Y003815D01*
X036105Y003815D02*
X034068Y003815D01*
X034114Y003834D02*
X034218Y003938D01*
X034274Y004073D01*
X034274Y004219D01*
X034218Y004354D01*
X034114Y004457D01*
X033979Y004513D01*
X033833Y004513D01*
X033698Y004457D01*
X033595Y004354D01*
X033539Y004219D01*
X033539Y004073D01*
X033595Y003938D01*
X033698Y003834D01*
X033833Y003778D01*
X033979Y003778D01*
X034114Y003834D01*
X034214Y003934D02*
X035959Y003934D01*
X035908Y004052D02*
X034265Y004052D01*
X034274Y004171D02*
X035899Y004171D01*
X035928Y004289D02*
X034245Y004289D01*
X034164Y004408D02*
X036009Y004408D01*
X033745Y003815D02*
X033084Y003815D01*
X033130Y003834D02*
X033234Y003938D01*
X033290Y004073D01*
X033290Y004219D01*
X033234Y004354D01*
X033130Y004457D01*
X032995Y004513D01*
X032849Y004513D01*
X032714Y004457D01*
X032611Y004354D01*
X032555Y004219D01*
X032555Y004073D01*
X032611Y003938D01*
X032714Y003834D01*
X032849Y003778D01*
X032995Y003778D01*
X033130Y003834D01*
X033229Y003934D02*
X033599Y003934D01*
X033547Y004052D02*
X033281Y004052D01*
X033290Y004171D02*
X033539Y004171D01*
X033568Y004289D02*
X033261Y004289D01*
X033180Y004408D02*
X033648Y004408D01*
X032664Y004408D02*
X032426Y004408D01*
X032307Y004289D02*
X032584Y004289D01*
X032555Y004171D02*
X032305Y004171D01*
X032297Y004052D02*
X032563Y004052D01*
X032615Y003934D02*
X032245Y003934D01*
X032099Y003815D02*
X032760Y003815D01*
X032651Y004882D02*
X032642Y004882D01*
X031486Y005356D02*
X031082Y005356D01*
X031082Y005474D02*
X031368Y005474D01*
X031249Y005593D02*
X031082Y005593D01*
X031082Y005711D02*
X031131Y005711D01*
X030762Y006067D02*
X030242Y006067D01*
X030314Y006185D02*
X030691Y006185D01*
X030573Y006304D02*
X030432Y006304D01*
X028852Y008200D02*
X028550Y008200D01*
X028632Y008318D02*
X028852Y008318D01*
X028852Y008437D02*
X028651Y008437D01*
X028619Y008555D02*
X028852Y008555D01*
X028852Y008674D02*
X028532Y008674D01*
X028532Y008792D02*
X028914Y008792D01*
X029432Y008911D02*
X030284Y008911D01*
X030196Y009029D02*
X029432Y009029D01*
X029432Y009148D02*
X030174Y009148D01*
X030218Y009303D02*
X030299Y009385D01*
X030462Y009201D02*
X030462Y009140D01*
X030462Y009201D02*
X030712Y009451D01*
X032196Y009451D01*
X032196Y009648D02*
X031672Y009648D01*
X031422Y009898D01*
X031422Y011120D01*
X031209Y010925D02*
X029452Y010925D01*
X029452Y011044D02*
X031142Y011044D01*
X031134Y011162D02*
X029452Y011162D01*
X029452Y011281D02*
X031177Y011281D01*
X031342Y011399D02*
X029452Y011399D01*
X029282Y011360D02*
X028852Y011790D01*
X028807Y011790D01*
X028098Y011790D02*
X028098Y012544D01*
X027722Y012920D01*
X028802Y013414D02*
X029334Y013414D01*
X029215Y013532D02*
X028683Y013532D01*
X028565Y013651D02*
X029097Y013651D01*
X028978Y013769D02*
X028446Y013769D01*
X028920Y013295D02*
X029452Y013295D01*
X029571Y013177D02*
X029039Y013177D01*
X029157Y013058D02*
X029673Y013058D01*
X029673Y012940D02*
X029276Y012940D01*
X029394Y012821D02*
X029673Y012821D01*
X029673Y012703D02*
X029513Y012703D01*
X029631Y012584D02*
X029673Y012584D01*
X028098Y011790D02*
X028098Y010685D01*
X028348Y010435D01*
X028849Y010435D01*
X028849Y010238D01*
X029225Y010333D02*
X029940Y010333D01*
X029940Y010451D02*
X029225Y010451D01*
X029225Y010570D02*
X029940Y010570D01*
X029970Y010688D02*
X029271Y010688D01*
X029389Y010807D02*
X031252Y010807D01*
X031252Y010688D02*
X031075Y010688D01*
X031105Y010570D02*
X031252Y010570D01*
X031252Y010451D02*
X031105Y010451D01*
X031105Y010333D02*
X031252Y010333D01*
X031252Y010214D02*
X031105Y010214D01*
X031105Y010096D02*
X031252Y010096D01*
X031252Y009977D02*
X031105Y009977D01*
X031105Y009859D02*
X031252Y009859D01*
X031340Y009740D02*
X031105Y009740D01*
X031104Y009622D02*
X031458Y009622D01*
X031702Y009859D02*
X031820Y009859D01*
X031820Y009977D02*
X031592Y009977D01*
X031592Y010096D02*
X031820Y010096D01*
X031820Y010214D02*
X031592Y010214D01*
X031592Y010333D02*
X031820Y010333D01*
X031820Y010451D02*
X031592Y010451D01*
X031592Y010570D02*
X031820Y010570D01*
X031820Y010688D02*
X031592Y010688D01*
X031592Y010807D02*
X031820Y010807D01*
X031820Y010925D02*
X031635Y010925D01*
X031703Y011044D02*
X031820Y011044D01*
X031820Y011162D02*
X031711Y011162D01*
X031668Y011281D02*
X031820Y011281D01*
X031882Y011399D02*
X031502Y011399D01*
X031784Y011518D02*
X037140Y011518D01*
X037140Y011636D02*
X031784Y011636D01*
X031784Y011755D02*
X037140Y011755D01*
X037140Y011873D02*
X031784Y011873D01*
X031784Y011992D02*
X037140Y011992D01*
X037238Y012110D02*
X031784Y012110D01*
X031765Y012229D02*
X037238Y012229D01*
X037238Y012347D02*
X031765Y012347D01*
X031765Y012466D02*
X037236Y012466D01*
X037118Y012584D02*
X031765Y012584D01*
X032509Y011399D02*
X037190Y011399D01*
X037238Y011281D02*
X032571Y011281D01*
X032571Y011162D02*
X037238Y011162D01*
X037238Y011044D02*
X032571Y011044D01*
X032571Y010925D02*
X037238Y010925D01*
X037238Y010807D02*
X032571Y010807D01*
X032571Y010688D02*
X037238Y010688D01*
X037332Y010570D02*
X032571Y010570D01*
X032571Y010451D02*
X037451Y010451D01*
X037569Y010333D02*
X032571Y010333D01*
X032571Y010214D02*
X037721Y010214D01*
X037683Y010096D02*
X032571Y010096D01*
X032571Y009977D02*
X036999Y009977D01*
X037037Y010015D02*
X036937Y009915D01*
X036532Y009510D01*
X036532Y009503D02*
X032571Y009503D01*
X031820Y009266D02*
X030768Y009266D01*
X030751Y009148D02*
X031820Y009148D01*
X031820Y009029D02*
X030729Y009029D01*
X030641Y008911D02*
X031852Y008911D01*
X030524Y009503D02*
X029225Y009503D01*
X029225Y009622D02*
X029940Y009622D01*
X029940Y009740D02*
X029225Y009740D01*
X029227Y009859D02*
X029940Y009859D01*
X029940Y009977D02*
X029275Y009977D01*
X029275Y010096D02*
X029940Y010096D01*
X029940Y010214D02*
X029238Y010214D01*
X029162Y010820D02*
X029282Y010940D01*
X029282Y011360D01*
X029162Y010820D02*
X028858Y010820D01*
X028849Y010829D01*
X028849Y009648D02*
X028372Y009648D01*
X027942Y009218D01*
X032571Y009859D02*
X036880Y009859D01*
X037037Y010015D02*
X037683Y010015D01*
X037683Y010042D01*
X038109Y010042D01*
X038109Y010238D02*
X038109Y010435D01*
X038084Y010460D01*
X038109Y009845D02*
X037107Y009845D01*
X036702Y009440D01*
X036702Y008000D01*
X037172Y008200D02*
X037295Y008200D01*
X037212Y008318D02*
X037172Y008318D01*
X037172Y008437D02*
X037194Y008437D01*
X037172Y008555D02*
X037226Y008555D01*
X037172Y008674D02*
X037312Y008674D01*
X037312Y008792D02*
X037172Y008792D01*
X037172Y008911D02*
X037312Y008911D01*
X037312Y009029D02*
X037172Y009029D01*
X037172Y009148D02*
X037312Y009148D01*
X037312Y009266D02*
X037172Y009266D01*
X037229Y009385D02*
X037425Y009385D01*
X037482Y009201D02*
X037482Y008420D01*
X039941Y008911D02*
X041112Y008911D01*
X041080Y009029D02*
X040029Y009029D01*
X040051Y009148D02*
X041080Y009148D01*
X041080Y009266D02*
X040068Y009266D01*
X040364Y009622D02*
X040758Y009622D01*
X040640Y009740D02*
X040365Y009740D01*
X040365Y009859D02*
X040552Y009859D01*
X040552Y009977D02*
X040365Y009977D01*
X040365Y010096D02*
X040552Y010096D01*
X040552Y010214D02*
X040365Y010214D01*
X040365Y010333D02*
X040552Y010333D01*
X040552Y010451D02*
X040365Y010451D01*
X040365Y010570D02*
X040552Y010570D01*
X040552Y010688D02*
X040335Y010688D01*
X040442Y011044D02*
X038752Y011044D01*
X038752Y011162D02*
X040434Y011162D01*
X040477Y011281D02*
X038752Y011281D01*
X038752Y011399D02*
X040642Y011399D01*
X040802Y011399D02*
X041142Y011399D01*
X041080Y011281D02*
X040968Y011281D01*
X041011Y011162D02*
X041080Y011162D01*
X041080Y011044D02*
X041003Y011044D01*
X040935Y010925D02*
X041080Y010925D01*
X041080Y010807D02*
X040892Y010807D01*
X040892Y010688D02*
X041080Y010688D01*
X041080Y010570D02*
X040892Y010570D01*
X040892Y010451D02*
X041080Y010451D01*
X041080Y010333D02*
X040892Y010333D01*
X040892Y010214D02*
X041080Y010214D01*
X041080Y010096D02*
X040892Y010096D01*
X040892Y009977D02*
X041080Y009977D01*
X041080Y009859D02*
X041002Y009859D01*
X040972Y009648D02*
X040722Y009898D01*
X040722Y011120D01*
X041044Y011518D02*
X044172Y011518D01*
X044172Y011636D02*
X041044Y011636D01*
X041044Y011755D02*
X044172Y011755D01*
X044172Y011873D02*
X041044Y011873D01*
X041044Y011992D02*
X044172Y011992D01*
X044172Y012110D02*
X041044Y012110D01*
X041025Y012229D02*
X044172Y012229D01*
X044172Y012347D02*
X041025Y012347D01*
X041025Y012466D02*
X044172Y012466D01*
X044172Y012584D02*
X041025Y012584D01*
X041025Y012703D02*
X044172Y012703D01*
X044172Y012821D02*
X041025Y012821D01*
X041025Y012940D02*
X044172Y012940D01*
X044172Y013058D02*
X041057Y013058D01*
X041175Y013177D02*
X044172Y013177D01*
X044172Y013295D02*
X041294Y013295D01*
X041412Y013414D02*
X044172Y013414D01*
X044172Y013532D02*
X041531Y013532D01*
X041649Y013651D02*
X044172Y013651D01*
X044172Y013769D02*
X041768Y013769D01*
X041886Y013888D02*
X044172Y013888D01*
X044172Y014006D02*
X042005Y014006D01*
X042123Y014125D02*
X044172Y014125D01*
X044172Y014243D02*
X042242Y014243D01*
X042360Y014362D02*
X044172Y014362D01*
X044172Y014480D02*
X042479Y014480D01*
X040776Y014480D02*
X040729Y014480D01*
X040658Y014362D02*
X040631Y014362D01*
X041795Y015547D02*
X042622Y015547D01*
X042638Y015665D02*
X042400Y015665D01*
X042498Y015784D02*
X042757Y015784D01*
X042716Y015743D02*
X042716Y015743D01*
X042789Y015902D02*
X042540Y015902D01*
X042540Y016021D02*
X042789Y016021D01*
X042834Y016139D02*
X042494Y016139D01*
X042391Y016258D02*
X042937Y016258D01*
X041944Y015665D02*
X041914Y015665D01*
X044512Y015665D02*
X044682Y015665D01*
X044682Y015547D02*
X044512Y015547D01*
X044512Y015428D02*
X044682Y015428D01*
X044682Y015310D02*
X044512Y015310D01*
X044512Y015191D02*
X044682Y015191D01*
X044682Y015073D02*
X044512Y015073D01*
X044512Y014954D02*
X044682Y014954D01*
X044682Y014836D02*
X044512Y014836D01*
X044512Y014717D02*
X044682Y014717D01*
X044682Y014599D02*
X044512Y014599D01*
X044512Y014480D02*
X044682Y014480D01*
X044682Y014362D02*
X044512Y014362D01*
X044512Y014243D02*
X044682Y014243D01*
X044682Y014125D02*
X044512Y014125D01*
X044512Y014006D02*
X044682Y014006D01*
X044682Y013888D02*
X044512Y013888D01*
X044512Y013769D02*
X044682Y013769D01*
X044682Y013651D02*
X044512Y013651D01*
X044512Y013532D02*
X044682Y013532D01*
X044682Y013414D02*
X044512Y013414D01*
X044512Y013295D02*
X044682Y013295D01*
X044682Y013177D02*
X044512Y013177D01*
X044512Y013058D02*
X044682Y013058D01*
X044682Y012940D02*
X044512Y012940D01*
X044512Y012821D02*
X044682Y012821D01*
X044682Y012703D02*
X044512Y012703D01*
X044512Y012584D02*
X044682Y012584D01*
X044682Y012466D02*
X044512Y012466D01*
X044512Y012347D02*
X044682Y012347D01*
X044682Y012229D02*
X044512Y012229D01*
X044512Y012110D02*
X044682Y012110D01*
X044682Y011992D02*
X044512Y011992D01*
X044512Y011873D02*
X044682Y011873D01*
X044682Y011755D02*
X044512Y011755D01*
X044512Y011636D02*
X044682Y011636D01*
X044682Y011518D02*
X044512Y011518D01*
X044512Y011399D02*
X044682Y011399D01*
X044682Y011281D02*
X044512Y011281D01*
X044512Y011162D02*
X044682Y011162D01*
X044682Y011044D02*
X044512Y011044D01*
X044512Y010925D02*
X044682Y010925D01*
X044682Y010807D02*
X044512Y010807D01*
X044512Y010688D02*
X044682Y010688D01*
X044682Y010570D02*
X044512Y010570D01*
X044512Y010451D02*
X044682Y010451D01*
X044682Y010333D02*
X044512Y010333D01*
X044512Y010214D02*
X044682Y010214D01*
X044682Y010096D02*
X044512Y010096D01*
X044512Y009977D02*
X044682Y009977D01*
X044682Y009859D02*
X044512Y009859D01*
X044512Y009740D02*
X044682Y009740D01*
X044682Y009622D02*
X044512Y009622D01*
X044512Y009503D02*
X044682Y009503D01*
X044682Y009385D02*
X044467Y009385D01*
X044349Y009266D02*
X044682Y009266D01*
X044682Y009148D02*
X044230Y009148D01*
X044105Y009503D02*
X041831Y009503D01*
X041831Y009622D02*
X044172Y009622D01*
X044172Y009740D02*
X041831Y009740D01*
X041831Y009859D02*
X044172Y009859D01*
X044172Y009977D02*
X041831Y009977D01*
X041831Y010096D02*
X044172Y010096D01*
X044172Y010214D02*
X041831Y010214D01*
X041831Y010333D02*
X044172Y010333D01*
X044172Y010451D02*
X041831Y010451D01*
X041831Y010570D02*
X044172Y010570D01*
X044172Y010688D02*
X041831Y010688D01*
X041831Y010807D02*
X044172Y010807D01*
X044172Y010925D02*
X041831Y010925D01*
X041831Y011044D02*
X044172Y011044D01*
X044172Y011162D02*
X041831Y011162D01*
X041831Y011281D02*
X044172Y011281D01*
X044172Y011399D02*
X041769Y011399D01*
X041456Y009648D02*
X040972Y009648D01*
X041831Y009029D02*
X044682Y009029D01*
X044682Y008911D02*
X041799Y008911D01*
X041030Y008792D02*
X044682Y008792D01*
X044682Y008674D02*
X041044Y008674D01*
X041044Y008555D02*
X044682Y008555D01*
X044682Y008437D02*
X041044Y008437D01*
X041044Y008318D02*
X044682Y008318D01*
X044682Y008200D02*
X041044Y008200D01*
X040434Y008081D02*
X044682Y008081D01*
X044682Y007963D02*
X040434Y007963D01*
X040434Y007844D02*
X044682Y007844D01*
X044682Y007726D02*
X040434Y007726D01*
X040434Y007607D02*
X044682Y007607D01*
X044682Y007489D02*
X040434Y007489D01*
X040434Y007370D02*
X044682Y007370D01*
X044682Y007252D02*
X040434Y007252D01*
X040434Y007133D02*
X044682Y007133D01*
X044682Y007015D02*
X040434Y007015D01*
X040434Y006896D02*
X044682Y006896D01*
X044682Y006778D02*
X040511Y006778D01*
X040630Y006659D02*
X044682Y006659D01*
X044682Y006541D02*
X040748Y006541D01*
X040867Y006422D02*
X044682Y006422D01*
X044682Y006304D02*
X040985Y006304D01*
X041104Y006185D02*
X044682Y006185D01*
X044682Y006067D02*
X041222Y006067D01*
X041341Y005948D02*
X044682Y005948D01*
X044682Y005830D02*
X041459Y005830D01*
X041578Y005711D02*
X044682Y005711D01*
X044682Y005593D02*
X041696Y005593D01*
X041815Y005474D02*
X042042Y005474D01*
X042302Y005474D02*
X044682Y005474D01*
X044682Y005356D02*
X042466Y005356D01*
X042526Y005237D02*
X044682Y005237D01*
X044682Y005119D02*
X042540Y005119D01*
X042516Y005000D02*
X044682Y005000D01*
X044682Y004882D02*
X042443Y004882D01*
X042246Y004763D02*
X044682Y004763D01*
X044682Y004645D02*
X041882Y004645D01*
X041882Y004763D02*
X042098Y004763D01*
X041901Y004882D02*
X041882Y004882D01*
X041562Y004882D02*
X041459Y004882D01*
X041532Y005000D02*
X041562Y005000D01*
X041555Y005119D02*
X041562Y005119D01*
X041562Y005237D02*
X041541Y005237D01*
X040834Y005237D02*
X040442Y005237D01*
X040442Y005119D02*
X040820Y005119D01*
X040844Y005000D02*
X040442Y005000D01*
X040442Y004882D02*
X040917Y004882D01*
X041114Y004763D02*
X040442Y004763D01*
X040442Y004645D02*
X041460Y004645D01*
X041562Y004763D02*
X041262Y004763D01*
X041342Y004526D02*
X040442Y004526D01*
X040462Y004408D02*
X040930Y004408D01*
X040849Y004289D02*
X040542Y004289D01*
X040571Y004171D02*
X040820Y004171D01*
X040829Y004052D02*
X040562Y004052D01*
X040511Y003934D02*
X040880Y003934D01*
X041026Y003815D02*
X040365Y003815D01*
X040042Y003815D02*
X039381Y003815D01*
X039527Y003934D02*
X039896Y003934D01*
X039845Y004052D02*
X039578Y004052D01*
X039587Y004171D02*
X039836Y004171D01*
X039865Y004289D02*
X039558Y004289D01*
X039477Y004408D02*
X039946Y004408D01*
X040122Y004526D02*
X039442Y004526D01*
X039442Y004645D02*
X040122Y004645D01*
X040122Y004763D02*
X039442Y004763D01*
X039442Y004882D02*
X040122Y004882D01*
X040122Y005000D02*
X039442Y005000D01*
X039442Y005119D02*
X040122Y005119D01*
X040122Y005237D02*
X039442Y005237D01*
X039442Y005356D02*
X040122Y005356D01*
X040122Y005474D02*
X039442Y005474D01*
X039442Y005593D02*
X040122Y005593D01*
X040105Y005711D02*
X039460Y005711D01*
X039578Y005830D02*
X039987Y005830D01*
X039868Y005948D02*
X039697Y005948D01*
X040442Y005593D02*
X040499Y005593D01*
X040442Y005474D02*
X040618Y005474D01*
X040736Y005356D02*
X040442Y005356D01*
X041794Y004526D02*
X044682Y004526D01*
X044682Y004408D02*
X043414Y004408D01*
X043364Y004457D02*
X043229Y004513D01*
X043083Y004513D01*
X042948Y004457D01*
X042845Y004354D01*
X042789Y004219D01*
X042789Y004073D01*
X042845Y003938D01*
X042948Y003834D01*
X043083Y003778D01*
X043229Y003778D01*
X043364Y003834D01*
X043468Y003938D01*
X043524Y004073D01*
X043524Y004219D01*
X043468Y004354D01*
X043364Y004457D01*
X043495Y004289D02*
X044682Y004289D01*
X044682Y004171D02*
X043524Y004171D01*
X043515Y004052D02*
X044682Y004052D01*
X044682Y003934D02*
X043464Y003934D01*
X043318Y003815D02*
X044682Y003815D01*
X042995Y003815D02*
X042334Y003815D01*
X042380Y003834D02*
X042484Y003938D01*
X042540Y004073D01*
X042540Y004219D01*
X042484Y004354D01*
X042380Y004457D01*
X042245Y004513D01*
X042099Y004513D01*
X041964Y004457D01*
X041861Y004354D01*
X041805Y004219D01*
X041805Y004073D01*
X041861Y003938D01*
X041964Y003834D01*
X042099Y003778D01*
X042245Y003778D01*
X042380Y003834D01*
X042479Y003934D02*
X042849Y003934D01*
X042797Y004052D02*
X042531Y004052D01*
X042540Y004171D02*
X042789Y004171D01*
X042818Y004289D02*
X042511Y004289D01*
X042430Y004408D02*
X042898Y004408D01*
X041914Y004408D02*
X041676Y004408D01*
X041557Y004289D02*
X041834Y004289D01*
X041805Y004171D02*
X041555Y004171D01*
X041547Y004052D02*
X041813Y004052D01*
X041865Y003934D02*
X041495Y003934D01*
X041349Y003815D02*
X042010Y003815D01*
X038582Y010940D02*
X038582Y011360D01*
X038212Y011730D01*
X038117Y011730D01*
X038881Y012584D02*
X038933Y012584D01*
X038933Y012703D02*
X038763Y012703D01*
X038644Y012821D02*
X038933Y012821D01*
X038933Y012940D02*
X038526Y012940D01*
X038407Y013058D02*
X038933Y013058D01*
X038821Y013177D02*
X038289Y013177D01*
X038170Y013295D02*
X038702Y013295D01*
X038584Y013414D02*
X038052Y013414D01*
X037933Y013532D02*
X038465Y013532D01*
X038347Y013651D02*
X037815Y013651D01*
X037696Y013769D02*
X038228Y013769D01*
X038110Y013888D02*
X037578Y013888D01*
X037459Y014006D02*
X037991Y014006D01*
X037873Y014125D02*
X037341Y014125D01*
X037222Y014243D02*
X037754Y014243D01*
X037636Y014362D02*
X037104Y014362D01*
X036985Y014480D02*
X037517Y014480D01*
X044512Y015784D02*
X044682Y015784D01*
X044682Y015902D02*
X044512Y015902D01*
X044512Y016021D02*
X044682Y016021D01*
X044682Y016139D02*
X044512Y016139D01*
X044512Y016258D02*
X044682Y016258D01*
X044682Y016376D02*
X044512Y016376D01*
X044512Y016495D02*
X044682Y016495D01*
X044682Y016613D02*
X044512Y016613D01*
X044512Y016732D02*
X044682Y016732D01*
X044682Y016850D02*
X044512Y016850D01*
X044512Y016969D02*
X044682Y016969D01*
X044682Y017087D02*
X044512Y017087D01*
X044512Y017206D02*
X044682Y017206D01*
X044682Y017324D02*
X044512Y017324D01*
X044512Y017443D02*
X044682Y017443D01*
X044682Y017561D02*
X044512Y017561D01*
X044512Y017680D02*
X044682Y017680D01*
X044682Y017798D02*
X044512Y017798D01*
X044512Y017917D02*
X044682Y017917D01*
X044682Y018035D02*
X044512Y018035D01*
X044512Y018154D02*
X044682Y018154D01*
X044682Y018272D02*
X044512Y018272D01*
X044512Y018391D02*
X044682Y018391D01*
X044682Y018509D02*
X044512Y018509D01*
X044512Y018628D02*
X044682Y018628D01*
X044682Y018746D02*
X044512Y018746D01*
X044512Y018865D02*
X044682Y018865D01*
X044682Y018983D02*
X044512Y018983D01*
X044512Y019102D02*
X044682Y019102D01*
X044682Y019220D02*
X044512Y019220D01*
X044512Y019339D02*
X044682Y019339D01*
X044682Y019457D02*
X044512Y019457D01*
X044407Y019576D02*
X044682Y019576D01*
X044682Y019694D02*
X044289Y019694D01*
X044682Y021472D02*
X037846Y021472D01*
X037854Y021590D02*
X044682Y021590D01*
X044682Y021709D02*
X037854Y021709D01*
X037854Y021779D02*
X037555Y021779D01*
X037555Y022156D01*
X037715Y022156D01*
X037756Y022145D01*
X037792Y022124D01*
X037822Y022094D01*
X037843Y022058D01*
X037854Y022017D01*
X037854Y021779D01*
X037854Y021827D02*
X044682Y021827D01*
X044682Y021946D02*
X037854Y021946D01*
X037840Y022064D02*
X044682Y022064D01*
X044682Y022420D02*
X004682Y022420D01*
X004682Y021827D02*
X005611Y021827D01*
X005423Y021709D02*
X004682Y021709D01*
X004682Y021590D02*
X005305Y021590D01*
X005201Y021472D02*
X004682Y021472D01*
X004682Y021353D02*
X005152Y021353D01*
X005103Y021235D02*
X004682Y021235D01*
X004682Y021116D02*
X005059Y021116D01*
X005059Y020998D02*
X004682Y020998D01*
X004682Y020879D02*
X005059Y020879D01*
X005059Y020761D02*
X004682Y020761D01*
X004682Y020642D02*
X005095Y020642D01*
X005144Y020524D02*
X004682Y020524D01*
X004682Y020405D02*
X005194Y020405D01*
X005287Y020287D02*
X004682Y020287D01*
X004682Y020168D02*
X005405Y020168D01*
X005568Y020050D02*
X004682Y020050D01*
X004682Y019931D02*
X005854Y019931D01*
X009088Y016258D02*
X009635Y016258D01*
X009531Y016139D02*
X009192Y016139D01*
X009237Y016021D02*
X009486Y016021D01*
X009486Y015902D02*
X009237Y015902D01*
X009269Y015784D02*
X009528Y015784D01*
X009626Y015665D02*
X009387Y015665D01*
X009506Y015547D02*
X009718Y015547D01*
X009718Y015428D02*
X009624Y015428D01*
X010038Y015428D02*
X010083Y015428D01*
X010038Y015547D02*
X010201Y015547D01*
X010320Y015665D02*
X010081Y015665D01*
X010180Y015784D02*
X010438Y015784D01*
X010470Y015902D02*
X010221Y015902D01*
X010221Y016021D02*
X010470Y016021D01*
X010516Y016139D02*
X010176Y016139D01*
X010073Y016258D02*
X010619Y016258D01*
X011057Y016258D02*
X011603Y016258D01*
X011500Y016139D02*
X011160Y016139D01*
X011205Y016021D02*
X011455Y016021D01*
X011455Y015902D02*
X011205Y015902D01*
X011164Y015784D02*
X011422Y015784D01*
X011304Y015665D02*
X011066Y015665D01*
X011185Y015547D02*
X010654Y015547D01*
X010535Y015428D02*
X011067Y015428D01*
X010948Y015310D02*
X010417Y015310D01*
X010298Y015191D02*
X010830Y015191D01*
X010711Y015073D02*
X010234Y015073D01*
X010234Y014954D02*
X010593Y014954D01*
X010474Y014836D02*
X010234Y014836D01*
X010234Y014717D02*
X010356Y014717D01*
X010237Y014599D02*
X010234Y014599D01*
X010453Y014362D02*
X010985Y014362D01*
X011103Y014480D02*
X010572Y014480D01*
X010690Y014599D02*
X011222Y014599D01*
X011340Y014717D02*
X010809Y014717D01*
X010927Y014836D02*
X011459Y014836D01*
X011455Y014954D02*
X011046Y014954D01*
X011164Y015073D02*
X011466Y015073D01*
X011521Y015191D02*
X011283Y015191D01*
X011401Y015310D02*
X011675Y015310D01*
X011520Y015428D02*
X012202Y015428D01*
X012202Y015310D02*
X011969Y015310D01*
X012123Y015191D02*
X012202Y015191D01*
X012202Y015073D02*
X012178Y015073D01*
X012190Y014954D02*
X012202Y014954D01*
X012522Y015310D02*
X012659Y015310D01*
X012202Y015547D02*
X011638Y015547D01*
X012050Y015665D02*
X012288Y015665D01*
X012407Y015784D02*
X012148Y015784D01*
X012190Y015902D02*
X012439Y015902D01*
X012439Y016021D02*
X012190Y016021D01*
X012144Y016139D02*
X012484Y016139D01*
X012587Y016258D02*
X012041Y016258D01*
X010866Y014243D02*
X010431Y014243D01*
X010431Y014125D02*
X010748Y014125D01*
X010629Y014006D02*
X010431Y014006D01*
X010431Y013888D02*
X010511Y013888D01*
X009324Y013888D02*
X009196Y013888D01*
X009078Y014006D02*
X009324Y014006D01*
X009324Y014125D02*
X008959Y014125D01*
X008841Y014243D02*
X009324Y014243D01*
X009315Y013769D02*
X009324Y013769D01*
X008733Y012584D02*
X008531Y012584D01*
X008650Y012466D02*
X008733Y012466D01*
X010668Y011281D02*
X010880Y011281D01*
X010880Y011162D02*
X010711Y011162D01*
X010703Y011044D02*
X010880Y011044D01*
X010880Y010925D02*
X010635Y010925D01*
X010592Y010807D02*
X010880Y010807D01*
X010880Y010688D02*
X010592Y010688D01*
X010592Y010570D02*
X010880Y010570D01*
X010880Y010451D02*
X010592Y010451D01*
X010592Y010333D02*
X010880Y010333D01*
X010880Y010214D02*
X010592Y010214D01*
X010592Y010096D02*
X010880Y010096D01*
X010880Y009977D02*
X010664Y009977D01*
X010420Y009740D02*
X010165Y009740D01*
X010165Y009859D02*
X010301Y009859D01*
X010252Y009977D02*
X010165Y009977D01*
X010165Y010096D02*
X010252Y010096D01*
X010252Y010214D02*
X010165Y010214D01*
X010165Y010333D02*
X010252Y010333D01*
X010252Y010451D02*
X010165Y010451D01*
X010165Y010570D02*
X010252Y010570D01*
X010252Y010688D02*
X010165Y010688D01*
X011631Y010688D02*
X013492Y010688D01*
X013492Y010570D02*
X011631Y010570D01*
X011631Y010451D02*
X013492Y010451D01*
X013492Y010333D02*
X011631Y010333D01*
X011631Y010214D02*
X013492Y010214D01*
X013492Y010096D02*
X011631Y010096D01*
X011631Y009977D02*
X013492Y009977D01*
X013492Y009859D02*
X011631Y009859D01*
X011631Y009740D02*
X013492Y009740D01*
X013492Y009622D02*
X011631Y009622D01*
X011631Y009503D02*
X013492Y009503D01*
X013439Y009385D02*
X013358Y009303D01*
X011687Y009029D02*
X011631Y009029D01*
X010880Y009029D02*
X009789Y009029D01*
X009811Y009148D02*
X010880Y009148D01*
X010880Y009266D02*
X009889Y009266D01*
X009359Y009385D02*
X009278Y009303D01*
X009234Y009197D01*
X009262Y009266D02*
X008285Y009266D01*
X011631Y010807D02*
X013492Y010807D01*
X013492Y010925D02*
X011631Y010925D01*
X011631Y011044D02*
X013492Y011044D01*
X013492Y011162D02*
X011631Y011162D01*
X011631Y011281D02*
X013492Y011281D01*
X013492Y011399D02*
X011631Y011399D01*
X037089Y021472D02*
X037227Y021472D01*
X037219Y021590D02*
X037095Y021590D01*
X037518Y021590D02*
X037555Y021590D01*
X037555Y021472D02*
X037518Y021472D01*
X037518Y021709D02*
X037555Y021709D01*
X037555Y021827D02*
X037518Y021827D01*
X037518Y021946D02*
X037555Y021946D01*
X037555Y022064D02*
X037518Y022064D01*
D22*
X030602Y021920D03*
X027722Y012920D03*
X037022Y012920D03*
X015902Y012860D03*
X006602Y012920D03*
D23*
X007978Y021429D02*
X008978Y021429D01*
D24*
X009482Y021740D02*
X009482Y020934D01*
X008978Y020429D01*
X009978Y020429D02*
X010442Y020894D01*
X010442Y021620D01*
X010802Y021980D01*
X029402Y021980D01*
X030157Y021046D01*
X031722Y021046D01*
X032458Y020310D01*
X033672Y020310D01*
X033672Y020810D02*
X032758Y020810D01*
X032522Y021046D01*
X032497Y021046D01*
X032162Y021380D01*
X030242Y021380D01*
X029582Y022220D01*
X009962Y022220D01*
X009482Y021740D01*
X009854Y015957D02*
X009878Y015933D01*
X009878Y011893D01*
X010074Y011893D02*
X010074Y015193D01*
X010838Y015957D01*
X011822Y015957D02*
X010271Y014406D01*
X010271Y011893D01*
X010468Y011893D02*
X010468Y013619D01*
X011822Y014973D01*
X012362Y014820D02*
X010665Y013123D01*
X010665Y011893D01*
X009681Y011893D02*
X009681Y015145D01*
X008869Y015957D01*
X007885Y015957D02*
X009484Y014358D01*
X009484Y011893D01*
X009287Y011893D02*
X009287Y013571D01*
X007885Y014973D01*
X007442Y014820D02*
X009090Y013172D01*
X009090Y011893D01*
X008893Y011893D02*
X008893Y012980D01*
X006901Y014973D01*
X007442Y014820D02*
X007442Y015415D01*
X006901Y015957D01*
X005917Y015957D02*
X005402Y015443D01*
X005402Y014820D01*
X008329Y011893D01*
X008500Y011893D01*
X008696Y011893D02*
X008696Y012193D01*
X005917Y014973D01*
X012362Y014820D02*
X012362Y015513D01*
X012806Y015957D01*
X014682Y015473D02*
X014682Y014760D01*
X017509Y011933D01*
X017720Y011933D01*
X017916Y011933D02*
X017916Y012223D01*
X015167Y014973D01*
X014682Y015473D02*
X015167Y015957D01*
X016151Y015957D02*
X016682Y015425D01*
X016682Y014760D01*
X018310Y013132D01*
X018310Y011933D01*
X018113Y011933D02*
X018113Y013010D01*
X016151Y014973D01*
X017135Y014973D02*
X018507Y013601D01*
X018507Y011933D01*
X018704Y011933D02*
X018704Y014388D01*
X017135Y015957D01*
X018119Y015957D02*
X018901Y015175D01*
X018901Y011933D01*
X019098Y011933D02*
X019098Y015951D01*
X019104Y015957D01*
X019294Y015163D02*
X020088Y015957D01*
X021072Y015957D02*
X019491Y014376D01*
X019491Y011933D01*
X019294Y011933D02*
X019294Y015163D01*
X019688Y013589D02*
X021072Y014973D01*
X021602Y014820D02*
X019885Y013103D01*
X019885Y011933D01*
X019688Y011933D02*
X019688Y013589D01*
X021602Y014820D02*
X021602Y015503D01*
X022056Y015957D01*
X026602Y015543D02*
X026602Y014700D01*
X029440Y011863D01*
X029440Y011813D01*
X029636Y011813D02*
X029636Y012353D01*
X027017Y014973D01*
X026602Y015543D02*
X027017Y015957D01*
X028001Y015957D02*
X028522Y015435D01*
X028522Y014820D01*
X030030Y013312D01*
X030030Y011813D01*
X029833Y011813D02*
X029833Y013140D01*
X028001Y014973D01*
X028985Y014973D02*
X030227Y013731D01*
X030227Y011813D01*
X030424Y011813D02*
X030424Y014518D01*
X028985Y015957D01*
X029969Y015957D02*
X030621Y015305D01*
X030621Y011813D01*
X030818Y011813D02*
X030818Y015821D01*
X030954Y015957D01*
X031014Y015033D02*
X031938Y015957D01*
X032922Y015957D02*
X031211Y014246D01*
X031211Y011813D01*
X031014Y011813D02*
X031014Y015033D01*
X031408Y014106D02*
X032602Y015300D01*
X032602Y015292D01*
X032922Y014973D01*
X033442Y014940D02*
X031605Y013103D01*
X031605Y011813D01*
X031408Y011813D02*
X031408Y014106D01*
X033442Y014940D02*
X033442Y015420D01*
X033906Y015884D01*
X033906Y015957D01*
X035782Y015473D02*
X036267Y015957D01*
X035782Y015473D02*
X035782Y014760D01*
X038609Y011933D01*
X038700Y011813D01*
X038896Y011813D02*
X038896Y012343D01*
X036267Y014973D01*
X037251Y014973D02*
X039093Y013130D01*
X039093Y011813D01*
X039290Y011813D02*
X039282Y011941D01*
X039282Y013260D01*
X037782Y014760D01*
X037782Y015260D01*
X037251Y015791D01*
X037251Y015957D01*
X038235Y015957D02*
X039684Y014508D01*
X039684Y011813D01*
X039881Y011813D02*
X039881Y015295D01*
X039219Y015957D01*
X040078Y015831D02*
X040204Y015957D01*
X040078Y015831D02*
X040078Y011813D01*
X040274Y011813D02*
X040274Y015043D01*
X041188Y015957D01*
X042032Y016010D02*
X042119Y016010D01*
X042172Y015957D01*
X042032Y016010D02*
X040471Y014449D01*
X040471Y011813D01*
X040668Y011813D02*
X040668Y014146D01*
X041782Y015260D01*
X041885Y015260D01*
X042172Y014973D01*
X042782Y015010D02*
X042782Y015583D01*
X043156Y015957D01*
X042782Y015010D02*
X040865Y013093D01*
X040865Y011813D01*
X039487Y011813D02*
X039487Y014305D01*
X038532Y015260D01*
X036362Y019820D02*
X034922Y019820D01*
X034682Y020060D01*
X034682Y021260D01*
X034632Y021310D01*
X033672Y021310D01*
X036362Y019820D02*
X037182Y020640D01*
X037182Y020760D01*
X037152Y020730D01*
X038522Y009300D02*
X038109Y009254D01*
X038522Y009300D02*
X038522Y007980D01*
X035802Y005260D01*
X034182Y005260D01*
X033182Y006260D01*
X033182Y009010D01*
X032932Y009260D01*
X032682Y009260D01*
X032676Y009254D01*
X032196Y009254D01*
X031014Y008467D02*
X031014Y006688D01*
X032482Y005220D01*
X032482Y004690D01*
X031938Y004146D01*
X030954Y004146D02*
X030922Y004177D01*
X030922Y006180D01*
X030621Y006482D01*
X030621Y008467D01*
X030818Y008467D02*
X030818Y006525D01*
X031162Y006180D01*
X031162Y005906D01*
X031938Y005130D01*
X030082Y004259D02*
X029969Y004146D01*
X030082Y004259D02*
X030082Y006180D01*
X030424Y006522D01*
X030424Y008467D01*
X030227Y008467D02*
X030227Y006565D01*
X029002Y005340D01*
X029002Y004163D01*
X028985Y004146D01*
X028642Y004787D02*
X028001Y004146D01*
X027562Y004692D02*
X027562Y005340D01*
X029636Y007414D01*
X029636Y008467D01*
X029440Y008467D02*
X029440Y007553D01*
X027017Y005130D01*
X027562Y004692D02*
X027017Y004146D01*
X028642Y004787D02*
X028642Y005340D01*
X030030Y006728D01*
X030030Y008467D01*
X029833Y008467D02*
X029833Y006963D01*
X028001Y005130D01*
X020642Y005100D02*
X020642Y004700D01*
X020088Y004146D01*
X019104Y004146D02*
X019082Y004167D01*
X019082Y006540D01*
X018901Y006722D01*
X018901Y008587D01*
X019098Y008587D02*
X019098Y006765D01*
X019322Y006540D01*
X019322Y005896D01*
X020088Y005130D01*
X020642Y005100D02*
X019562Y006180D01*
X019562Y006540D01*
X019294Y006808D01*
X019294Y008587D01*
X019682Y008587D02*
X019688Y008587D01*
X018704Y008587D02*
X018704Y006762D01*
X018122Y006180D01*
X018122Y004149D01*
X018122Y004148D01*
X018121Y004146D01*
X018119Y004146D01*
X017162Y004173D02*
X017162Y005460D01*
X018507Y006805D01*
X018507Y008587D01*
X018310Y008587D02*
X018310Y006968D01*
X016802Y005460D01*
X016802Y004797D01*
X016151Y004146D01*
X015722Y004702D02*
X015722Y005340D01*
X017916Y007534D01*
X017916Y008587D01*
X017720Y008587D02*
X017720Y007683D01*
X015167Y005130D01*
X015722Y004702D02*
X015167Y004146D01*
X014102Y004620D02*
X017522Y008040D01*
X017522Y009420D01*
X017175Y009420D01*
X017129Y009374D01*
X017089Y009334D01*
X018113Y008587D02*
X018113Y007093D01*
X016151Y005130D01*
X017135Y004146D02*
X017162Y004173D01*
X014102Y004620D02*
X013082Y004620D01*
X012002Y005700D01*
X012002Y008940D01*
X011608Y009334D01*
X011256Y009334D01*
X010074Y008547D02*
X010074Y006668D01*
X010322Y006420D01*
X010322Y006180D01*
X011402Y005100D01*
X011402Y004710D01*
X010838Y004146D01*
X009854Y004146D02*
X009842Y004157D01*
X009842Y006420D01*
X009681Y006582D01*
X009681Y008547D01*
X009878Y008547D02*
X009878Y006625D01*
X010082Y006420D01*
X010082Y005886D01*
X010838Y005130D01*
X009002Y004279D02*
X009002Y006180D01*
X009484Y006662D01*
X009484Y008547D01*
X009287Y008547D02*
X009287Y006945D01*
X007922Y005580D01*
X007922Y004183D01*
X007885Y004146D01*
X007442Y004687D02*
X007442Y005340D01*
X009090Y006988D01*
X009090Y008547D01*
X008893Y008547D02*
X008893Y007123D01*
X006901Y005130D01*
X006482Y005340D02*
X008696Y007554D01*
X008696Y008547D01*
X008500Y008547D02*
X008500Y007713D01*
X005917Y005130D01*
X006482Y005340D02*
X006482Y004712D01*
X005917Y004146D01*
X006901Y004146D02*
X007442Y004687D01*
X008869Y004146D02*
X009002Y004279D01*
X036267Y004146D02*
X036782Y004662D01*
X036782Y005260D01*
X038896Y007374D01*
X038896Y008467D01*
X038700Y008467D02*
X038700Y007563D01*
X036267Y005130D01*
X037251Y005130D02*
X039093Y006973D01*
X039093Y008467D01*
X039290Y008467D02*
X039290Y006768D01*
X037782Y005260D01*
X037782Y004677D01*
X037251Y004146D01*
X038235Y004146D02*
X038282Y004193D01*
X038282Y005260D01*
X039487Y006465D01*
X039487Y008467D01*
X039684Y008467D02*
X039684Y006162D01*
X039282Y005760D01*
X039282Y004209D01*
X039219Y004146D01*
X040204Y004146D02*
X040282Y004225D01*
X040282Y005760D01*
X039881Y006162D01*
X039881Y008467D01*
X040078Y008467D02*
X040078Y006240D01*
X041188Y005130D01*
X041722Y005340D02*
X041722Y004680D01*
X041188Y004146D01*
X041722Y005340D02*
X040274Y006788D01*
X040274Y008467D01*
D25*
X039762Y009140D03*
X037482Y008420D03*
X036702Y008000D03*
X037002Y007520D03*
X040722Y011120D03*
X031422Y011120D03*
X030462Y009140D03*
X028362Y008420D03*
X027582Y008000D03*
X027942Y007520D03*
X027522Y006860D03*
X025962Y008000D03*
X023142Y007520D03*
X022662Y006860D03*
X022722Y008420D03*
X018702Y009140D03*
X016542Y008420D03*
X015762Y008000D03*
X016182Y007520D03*
X013602Y009140D03*
X014382Y011120D03*
X010422Y011120D03*
X009522Y009140D03*
X007362Y008420D03*
X006342Y007940D03*
X006882Y007520D03*
X019722Y011120D03*
X037182Y020760D03*
M02*
