G75*
%MOIN*%
%OFA0B0*%
%FSLAX24Y24*%
%IPPOS*%
%LPD*%
%AMOC8*
5,1,8,0,0,1.08239X$1,22.5*
%
%ADD10R,0.0945X0.0945*%
%ADD11R,0.0531X0.0138*%
%ADD12R,0.0138X0.0531*%
%ADD13R,0.0870X0.0240*%
%ADD14R,0.0315X0.0472*%
%ADD15R,0.0472X0.0315*%
D10*
X009582Y010220D03*
X018802Y010260D03*
X030522Y010140D03*
X039782Y010140D03*
D11*
X041456Y010042D03*
X041456Y010238D03*
X041456Y010435D03*
X041456Y010632D03*
X041456Y010829D03*
X041456Y011026D03*
X041456Y011223D03*
X041456Y009845D03*
X041456Y009648D03*
X041456Y009451D03*
X041456Y009254D03*
X041456Y009057D03*
X038109Y009057D03*
X038109Y009254D03*
X038109Y009451D03*
X038109Y009648D03*
X038109Y009845D03*
X038109Y010042D03*
X038109Y010238D03*
X038109Y010435D03*
X038109Y010632D03*
X038109Y010829D03*
X038109Y011026D03*
X038109Y011223D03*
X032196Y011223D03*
X032196Y011026D03*
X032196Y010829D03*
X032196Y010632D03*
X032196Y010435D03*
X032196Y010238D03*
X032196Y010042D03*
X032196Y009845D03*
X032196Y009648D03*
X032196Y009451D03*
X032196Y009254D03*
X032196Y009057D03*
X028849Y009057D03*
X028849Y009254D03*
X028849Y009451D03*
X028849Y009648D03*
X028849Y009845D03*
X028849Y010042D03*
X028849Y010238D03*
X028849Y010435D03*
X028849Y010632D03*
X028849Y010829D03*
X028849Y011026D03*
X028849Y011223D03*
X020476Y011146D03*
X020476Y011343D03*
X020476Y010949D03*
X020476Y010752D03*
X020476Y010555D03*
X020476Y010358D03*
X020476Y010162D03*
X020476Y009965D03*
X020476Y009768D03*
X020476Y009571D03*
X020476Y009374D03*
X020476Y009177D03*
X017129Y009177D03*
X017129Y009374D03*
X017129Y009571D03*
X017129Y009768D03*
X017129Y009965D03*
X017129Y010162D03*
X017129Y010358D03*
X017129Y010555D03*
X017129Y010752D03*
X017129Y010949D03*
X017129Y011146D03*
X017129Y011343D03*
X011256Y011303D03*
X011256Y011106D03*
X011256Y010909D03*
X011256Y010712D03*
X011256Y010515D03*
X011256Y010318D03*
X011256Y010122D03*
X011256Y009925D03*
X011256Y009728D03*
X011256Y009531D03*
X011256Y009334D03*
X011256Y009137D03*
X007909Y009137D03*
X007909Y009334D03*
X007909Y009531D03*
X007909Y009728D03*
X007909Y009925D03*
X007909Y010122D03*
X007909Y010318D03*
X007909Y010515D03*
X007909Y010712D03*
X007909Y010909D03*
X007909Y011106D03*
X007909Y011303D03*
D12*
X008500Y011893D03*
X008696Y011893D03*
X008893Y011893D03*
X009090Y011893D03*
X009287Y011893D03*
X009484Y011893D03*
X009681Y011893D03*
X009878Y011893D03*
X010074Y011893D03*
X010271Y011893D03*
X010468Y011893D03*
X010665Y011893D03*
X010665Y008547D03*
X010468Y008547D03*
X010271Y008547D03*
X010074Y008547D03*
X009878Y008547D03*
X009681Y008547D03*
X009484Y008547D03*
X009287Y008547D03*
X009090Y008547D03*
X008893Y008547D03*
X008696Y008547D03*
X008500Y008547D03*
X017720Y008587D03*
X017916Y008587D03*
X018113Y008587D03*
X018310Y008587D03*
X018507Y008587D03*
X018704Y008587D03*
X018901Y008587D03*
X019098Y008587D03*
X019294Y008587D03*
X019491Y008587D03*
X019688Y008587D03*
X019885Y008587D03*
X019885Y011933D03*
X019688Y011933D03*
X019491Y011933D03*
X019294Y011933D03*
X019098Y011933D03*
X018901Y011933D03*
X018704Y011933D03*
X018507Y011933D03*
X018310Y011933D03*
X018113Y011933D03*
X017916Y011933D03*
X017720Y011933D03*
X029440Y011813D03*
X029636Y011813D03*
X029833Y011813D03*
X030030Y011813D03*
X030227Y011813D03*
X030424Y011813D03*
X030621Y011813D03*
X030818Y011813D03*
X031014Y011813D03*
X031211Y011813D03*
X031408Y011813D03*
X031605Y011813D03*
X031605Y008467D03*
X031408Y008467D03*
X031211Y008467D03*
X031014Y008467D03*
X030818Y008467D03*
X030621Y008467D03*
X030424Y008467D03*
X030227Y008467D03*
X030030Y008467D03*
X029833Y008467D03*
X029636Y008467D03*
X029440Y008467D03*
X038700Y008467D03*
X038896Y008467D03*
X039093Y008467D03*
X039290Y008467D03*
X039487Y008467D03*
X039684Y008467D03*
X039881Y008467D03*
X040078Y008467D03*
X040274Y008467D03*
X040471Y008467D03*
X040668Y008467D03*
X040865Y008467D03*
X040865Y011813D03*
X040668Y011813D03*
X040471Y011813D03*
X040274Y011813D03*
X040078Y011813D03*
X039881Y011813D03*
X039684Y011813D03*
X039487Y011813D03*
X039290Y011813D03*
X039093Y011813D03*
X038896Y011813D03*
X038700Y011813D03*
D13*
X035732Y020310D03*
X035732Y020810D03*
X035732Y021310D03*
X035732Y021810D03*
X033672Y021810D03*
X033672Y021310D03*
X033672Y020810D03*
X033672Y020310D03*
D14*
X006328Y007760D03*
X007037Y007760D03*
X006537Y008760D03*
X005828Y008760D03*
X006037Y009760D03*
X005328Y009760D03*
X006078Y011010D03*
X006787Y011010D03*
X014328Y009620D03*
X015037Y009620D03*
X014828Y008860D03*
X015537Y008860D03*
X015328Y008100D03*
X016037Y008100D03*
X016037Y011010D03*
X015328Y011010D03*
X026088Y009620D03*
X026797Y009620D03*
X027057Y008860D03*
X026348Y008860D03*
X026728Y008100D03*
X027437Y008100D03*
X027787Y011010D03*
X027078Y011010D03*
X035448Y009640D03*
X036157Y009640D03*
X036457Y008860D03*
X035748Y008860D03*
X036048Y008000D03*
X036757Y008000D03*
X037037Y011010D03*
X036328Y011010D03*
D15*
X032522Y021046D03*
X031722Y021046D03*
X031722Y021754D03*
X032522Y021754D03*
M02*
