%
M48
M72
T01C0.0197
T02C0.0236
T03C0.0300
T04C0.0315
T05C0.0400
T06C0.1083
%
T01
X21922Y5360
X26282Y5360
X37182Y20760
T02
X30602Y21920
X31562Y11180
X34182Y10260
X34862Y10100
X35702Y11000
X34742Y9140
X34742Y8180
X34742Y7280
X31442Y9500
X30302Y9080
X29642Y9080
X27182Y7260
X26282Y8240
X25862Y8960
X22202Y10280
X21422Y9740
X19622Y10160
X14822Y7640
X16182Y7260
X14222Y8720
X12302Y9560
X13082Y10100
X14522Y11060
X10022Y9140
X9362Y9140
X8642Y9140
X5182Y10760
X26282Y11000
X39182Y9380
X39942Y9020
T03
X25432Y6760
X24932Y6760
X24432Y6760
X23932Y6760
X23932Y13260
X24432Y13260
X24932Y13260
X25432Y13260
T04
X27017Y14973
X28001Y14973
X28985Y14973
X28985Y15957
X28001Y15957
X27017Y15957
X29969Y15957
X30954Y15957
X31938Y15957
X32922Y15957
X33906Y15957
X33906Y14973
X32922Y14973
X36267Y14973
X37251Y14973
X38235Y14973
X38235Y15957
X37251Y15957
X36267Y15957
X39219Y15957
X40204Y15957
X41188Y15957
X42172Y15957
X43156Y15957
X43156Y14973
X42172Y14973
X42172Y5130
X41188Y5130
X41188Y4146
X42172Y4146
X43156Y4146
X40204Y4146
X39219Y4146
X38235Y4146
X37251Y4146
X36267Y4146
X36267Y5130
X37251Y5130
X33906Y4146
X32922Y4146
X31938Y4146
X30954Y4146
X29969Y4146
X28985Y4146
X28001Y4146
X27017Y4146
X27017Y5130
X28001Y5130
X31938Y5130
X32922Y5130
X22056Y4146
X21072Y4146
X20088Y4146
X19104Y4146
X18119Y4146
X17135Y4146
X16151Y4146
X15167Y4146
X15167Y5130
X16151Y5130
X12806Y4146
X11822Y4146
X10838Y4146
X9854Y4146
X8869Y4146
X7885Y4146
X6901Y4146
X5917Y4146
X5917Y5130
X6901Y5130
X10838Y5130
X11822Y5130
X20088Y5130
X21072Y5130
X21072Y14973
X22056Y14973
X22056Y15957
X21072Y15957
X20088Y15957
X19104Y15957
X18119Y15957
X17135Y15957
X16151Y15957
X15167Y15957
X15167Y14973
X16151Y14973
X17135Y14973
X12806Y14973
X11822Y14973
X11822Y15957
X12806Y15957
X10838Y15957
X9854Y15957
X8869Y15957
X7885Y15957
X6901Y15957
X5917Y15957
X5917Y14973
X6901Y14973
X7885Y14973
T05
X7978Y20429
X8978Y20429
X9978Y20429
X10978Y20429
X11978Y20429
X12978Y20429
X13978Y20429
X14978Y20429
X15978Y20429
X16978Y20429
X17978Y20429
X18978Y20429
X19978Y20429
X20978Y20429
X21978Y20429
X22978Y20429
X23978Y20429
X24978Y20429
X25978Y20429
X26978Y20429
X26978Y21429
X25978Y21429
X24978Y21429
X23978Y21429
X22978Y21429
X21978Y21429
X20978Y21429
X19978Y21429
X18978Y21429
X17978Y21429
X16978Y21429
X15978Y21429
X14978Y21429
X13978Y21429
X12978Y21429
X11978Y21429
X10978Y21429
X9978Y21429
X8978Y21429
X7978Y21429
T06
X6060Y1638
X28895Y1638
X28895Y20929
X6060Y20929
M30
